<?xml version="1.0" encoding="utf-8"?>
<!-- Generator: Adobe Illustrator 24.1.2, SVG Export Plug-In . SVG Version: 6.00 Build 0)  -->
<svg version="1.1" id="Layer_1" xmlns="http://www.w3.org/2000/svg" xmlns:xlink="http://www.w3.org/1999/xlink" x="0px" y="0px"
	 viewBox="0 0 1000 1001" style="enable-background:new 0 0 1000 1001;" xml:space="preserve">
<style type="text/css">
	.st0{opacity:0.3;fill:#7C7C7C;stroke:#FFFFFF;stroke-width:2;stroke-linecap:round;stroke-linejoin:round;}
	.st1{fill:#FF4646;stroke:#D73534;stroke-width:0.9485;stroke-miterlimit:3.7939;}
	.st2{fill:#590000;}
</style>
<path id="DZA2143" class="st0" d="M521.1,466.1l2.6,30l-0.6,11.1l-2.7,11.9l-6.1,69l-0.4,1.3l-0.5,1.3l-0.9,1.3l-2.1,2.3l-1.5,1.3
	l-3.1,3.3l-0.6,0.2l-5,0.8l-0.9,0.3l-0.4,0.4l-3,4.2l-1.3,1.4l-0.8,0.6l-1.4,0.7l-3.9,1.2l-0.5,0.1l-6.7-0.1l-0.4,0.1l-1.8,0.6h-0.7
	l-2.7-0.3l-3.5,0.2l-0.4,0.2l-0.4,0.2l-3.3,2.4l-3.5,1.3l-2.2,1.1l-0.5,0.4l-0.9,1.2l-0.5,1.1l0.1,0.8l0.5,0.7l4.1,3.9l7.6,10.5
	l0.5,0.9l0.4,1l0.3,1.1l0.2,1.1l0.1,3.1l-0.7,5.3l0.4,1.5l0.6,1.1l8.1,6.3l0.7,0.6l0.3,0.5l0.1,0.7l-0.4,173.3l0.9,1.7l2.4,3.1
	l106.6,62.9l5,4.7l3.6,5.2l1.5,11.8l0.4,76.5v0.1l-11.9,2.4l-5.1,1l-3.9,0.9l-1.2,0.1l-0.7-0.1l-0.5-0.2l-1.2-0.7l-2.8-2.9l-2.2-0.9
	l-1.1-0.6l-0.9-0.8l-0.9-0.8l-0.8-1.2l-0.1-0.9l0.5-0.9l0.7-1.1l0.4-1l0.2-0.5l0.6-0.4l1.1-1.1l0.2-0.9l0.3-2l0.4-0.9l0.9-0.8l1-0.6
	l0.9-0.7l0.5-1.1l-0.2-1.2l-0.5-0.8l-0.6-0.7l-0.4-1v-0.5l0.3-1v-0.3l-0.2-0.5l-0.5-0.3l-0.3-0.3l-0.6-1.9l-0.1-2L576,958l-0.2-0.7
	l-0.6-0.6l-0.8-0.4l-1.7-0.5l-0.8-0.4l-2.8-2.2l-6.1-2.7l-13.3-2.8l-2.6-0.2l-4.5-0.8l-0.5-0.1l-0.9-0.2l-1.8-0.9l-0.9-0.4l-1.2-0.3
	l-0.7-0.3l-0.6-0.5l-1.9-3.6l-1.6-2.2l-1.7-2l-3-2.3l-0.9-0.5l-0.8-0.3l-1.1,0.2l-1.1,0.7l-1.9,1.9l-1.3,0.6l-0.7-0.1l-3.1-1.1
	l-0.5-0.3l-0.3-0.3l-0.4-0.3l-0.6-0.1l-0.7,0.2l-0.8,0.8l-0.5,0.3l-1.1-0.1l-0.4-0.6l-0.1-1l-0.5-1l-0.8-0.6l-0.7-0.1l-0.9,0.1h-1.1
	l-1-0.5l-5.7-4.8l-0.5-0.8v-3.8l-0.3-1.9l-0.9-1.5l-3.1-2.3l-1.9-1l-1.8-0.3l-0.9-0.6l-0.9-0.3l-1.9-0.3l-2.1-0.7l-0.8-0.5l-0.8-1
	l-1-1.8l-0.6-0.6l-1.2-0.3h-1l-1.9,0.5h-1l-1.1-0.2l-0.7-0.2l-0.4-0.7l-0.1-1.3v-1l1.1-4.7l0.6-5.6l-0.1-1.2l-0.9-3.3l-0.6-1
	l-9.9-6.9l-8.3-5.9l-4.2-3l-21-14.7l-8.3-5.9l-16.8-11.8l-8.4-5.9l-12.5-8.9l-12.6-8.9l-12.5-8.9l-4.2-2.9l-8.4-6l-4.2-2.9l-12.6-9
	l-8.3-5.9l-12.6-9l-12.6-8.9l-20.9-15l-8.4-6l-3.8-2.7l-7.7-5.5l-11.6-8.3L227,713.6l-7.7-5.6l-11.6-8.3l-5.4-3.9l-7.3-5l-7.4-5.1
	l-8.4-5.8l-16.8-11.4l-8.4-5.7l-7-4.6l0.6-0.6l129.3-90.9L239.3,492l9.6-0.9l8.6,4.4l5.1,3.5l11.9,5.9l10.1,2l11.8-4.7l6.8-4.3
	l15.2-11.9l6-3.6l5.5-2.1l44.4-8l6.4-4.7l30.3-40.9l28.9-54l16.9-18.1l4.5-3.8l9.2-5.9l50.9-25.9l-0.7,45.2l-6.2,42.9L521.1,466.1
	L521.1,466.1z"/>
<path id="DZA2144" class="st0" d="M388.3,105.7l-4.1,0.8l-0.7,0.6l-1.5,2l-0.8,0.5l-0.8,0.1h-0.7l-1.1,0.2l-0.6,0.4l-0.3,0.7
	l0.1,0.7l0.3,0.8l0.2,1l-0.1,1.2l-0.6,1.2l-0.8,0.5l-0.8,0.2l-0.8,0.1l-1,0.5l-0.7,0.7l-1.3,2.3l-2.3-0.6l-10.8-5.8h-0.6l-0.6,0.1
	l-0.6,0.3h-0.4h-0.6l-0.4-0.1l-0.2-0.3l-0.1-0.3v-0.6l-0.1-0.5l0.1-0.3l0.6-0.5l0.2-0.2l0.1-0.4l0.1-1.4l0.2-1.1l-0.1-0.3l-0.3-0.5
	l-0.2-0.2l-0.4-0.2l-0.7,0.1l-0.2-0.1l-0.1-0.9l0.1-0.1l1.3-1.6l0.9-0.3l0.9-0.6l0.8-0.8l0.5-0.8l0.4-1.2l0.6-2.8l0.5-1l0.6-1
	l1.7-4.4l0.3-0.6l0.6-0.3l1.1-0.1l0.3-0.2l1.2-1.8l0.5-0.4l1.4,3.4l1.6,1.4l1.4,0.6l0.4,0.4l0.1,0.5l-0.3,0.5l-0.4,0.5l-1.7,1.4
	l-0.4,0.6l-0.3,0.7l-0.1,1.1v0.7l0.2,0.5l0.4,0.3l0.5-0.2l0.5-0.7l0.4-1l0.3-0.6l0.3-0.2l0.5,0.2l1.1,0.7l0.6,0.2h0.9l10.3-2.6h1.2
	l1.3,0.3l0.8,0.9l1.8,2.3l0.3,0.8l-0.2,0.7l-1.1,0.7l-0.3,0.3l-0.1,0.3l0.2,0.3l0.3,0.5l0.1,0.5v0.5L388.3,105.7L388.3,105.7z"/>
<path id="DZA2145" class="st0" d="M415.1,78.5v0.3l-2,2.2l-2.3,3.1l-0.9,0.7l-0.8,0.4l-1.1-0.1h-0.5l-0.7,0.1l-0.8,0.5l-0.5,0.5
	l-0.5,1.4l-0.6,0.9l-0.7,0.7l-2.8,2.1l-0.5,0.7l-0.3,0.7l-0.3,1.1l-0.4,0.9l-0.3,0.6l-0.5,0.4l-1.2,0.4l-0.6,0.2l-0.4,0.5v1.6
	l-0.4,0.9l-0.5,0.4l-1.1,0.7l-0.2,0.5h-0.5l-0.6,0.4l-0.3,0.6l-0.3,0.7l-0.4,2.4l-0.2,0.7l-0.4,0.7L391,107l-0.5,0.4l-0.5,0.3
	l-0.6,0.2l-0.5-0.1l-0.4-0.3l-0.2-1.8l0.8-0.8v-0.5l-0.1-0.5l-0.3-0.5l-0.2-0.3l0.1-0.3l0.3-0.3l1.1-0.7l0.2-0.7l-0.3-0.8l-1.8-2.3
	l-0.8-0.9l-1.3-0.3h-1.2l-10.3,2.6h-0.9l-0.6-0.2l-1.1-0.7l-0.5-0.2l-0.3,0.2l-0.3,0.6l-0.4,1l-0.5,0.7l-0.5,0.2l-0.4-0.3l-0.2-0.5
	v-0.7l0.1-1.1l0.3-0.7l0.4-0.6l1.7-1.4l0.4-0.5l0.3-0.5l-0.1-0.5l-0.4-0.4l-1.4-0.6l-1.6-1.4l-1.4-3.4l1.2-0.8l1.4-1.4l0.6-1
	l0.4-0.3l1.7-0.4l0.9-0.7l0.8-0.6l0.8-0.5l1.1-0.4l0.6,0.1l0.3,0.5l0.2,0.2l0.6-0.2l1.8-1.1l1.2-2.1l1.1-0.3l0.4,0.3l0.4,0.4
	l0.4,0.4l0.7,0.2h0.4l1,0.3l0.5,0.1l0.6,0.2l0.3,0.4l0.2,0.5l0.4,0.5l0.5,0.1l1.8-0.1l0.9-0.2l1-0.5l0.8-0.7l0.6-1.7l0.6-0.1
	l0.6,0.2l0.5,0.1l0.6-0.3l0.3-0.4l2.2-4.8l0.1-0.6l-0.2-0.5v-0.7l0.3-0.1l0.7,0.5l0.5-0.1l1,0.1h0.5l2-1l1.3-0.4l0.6,0.4l0.3,0.6
	l0.5,0.4l0.5,0.1l0.4,0.2l0.2,0.7l-0.3,0.8l0.1,0.6l0.8,0.9l1.3,0.6l3.4,0.8l2.1,0.9l1,0.2L415.1,78.5L415.1,78.5z"/>
<path id="DZA2146" class="st0" d="M412.6,118.1l-0.8-0.1h-0.4l-0.4,0.3l-0.4,0.4l-0.5,0.3l-0.7,0.1h-0.3l-0.4,0.4l-0.4,0.7v0.8v0.5
	l0.2,1l0.1,0.4l0.5,0.4l0.1,0.3v0.3l-0.3,0.5l-0.3,0.2l-0.3,0.1H408l-0.5-0.2l-0.4-0.1l-0.2,0.1l-0.2,0.2l-0.2,0.3l-0.1,0.6
	l-0.2,0.4l-0.1,0.4l0.3,0.4l0.1,0.4l-0.2,1.6l0.1,0.5l0.2,0.4l0.4,0.3l0.4,0.4l0.1,0.3l-0.1,0.3l-0.3,0.2l-0.3,0.2l-1.2,0.3l-1,0.5
	h-0.3l-0.4-0.3h-0.3l-0.5,0.3l-0.3,0.5v0.3l0.2,0.3l0.3,0.2l1.9,0.8l0.7,0.5l0.3,0.6v0.8v0.4l0.2,0.3l0.3,0.2l0.9,0.3l0.4,0.3
	l0.2,0.4l0.2,0.1h1.2l0.5,0.2l0.2,0.3l0.1,0.4v0.7l0.2,0.3l0.8,0.6l0.4,0.4l1.7,1.3l1.6,1.6l2.5,3.8l0.3,0.8l0.1,1l-0.1,1.2l-0.3,1
	l-0.3,0.9l-0.2,0.3l-20,17.6l-0.7-2.1L396,168l-0.7-0.9l-0.7-0.5l-0.9-0.5l-1.1-0.3h-0.9l-0.9,0.1l-1,0.4l-2,1.3l-3,2.4l-1.2,0.7
	l-1.2,0.5l-2.2,0.3l-3.7-0.3l-1.1-0.3l-0.9-0.5l-0.8-0.6l-0.9-0.6l-0.6-0.2h-0.5l-1.5,0.4l-1,0.1l-0.8-0.2l-0.7-0.3l-1.3-0.8
	l1.2-1.9l1.9-2l7.8-6.6l0.8-1l0.3-0.9v-0.4l-0.1-0.6l-0.4-0.7l-0.7-0.8L377,153l-0.2-0.4l0.1-0.5l0.4-0.5l0.6-0.3l2.1-0.7l0.3-0.2
	l0.4-0.4l0.8-2.3l0.9-2l0.7-1.2l0.7-1.5l0.1-0.6v-0.4l-0.4-0.8l-0.4-0.3l-3.1,0.3l-1.2-0.1l-1-0.5l-0.5-1.1l-0.1-1.4l0.4-1.9
	l0.1-1.1l-0.1-0.5H377l-0.6,0.1l-0.7,0.2h-0.3l-0.3-0.2l-0.1-0.5l0.2-0.5l0.7-1v-0.3l-0.2-0.3l-0.9-0.2l-0.3-0.4l-0.3-0.6l-0.3-0.9
	l-0.1-0.4v-0.8l0.1-1.1l0.6-2.3l0.2-0.4l0.5-0.8l0.5-1.2v-0.4l-0.2-0.2l-2.8-1.9l-0.5-0.2l1.3-2.3l0.7-0.7l1-0.5l0.8-0.1l0.8-0.2
	l0.8-0.5l0.6-1.2l0.1-1.2l-0.2-1l-0.3-0.8l-0.1-0.7l0.3-0.7l0.6-0.4l1.1-0.2h0.7l0.8-0.1l0.8-0.5l1.5-2l0.7-0.6l4.1-0.8l0.2,1.8
	l0.4,0.3l0.5,0.1l0.6-0.2l0.5-0.3l0.5-0.4l0.5-0.6l0.4-0.7l0.2-0.7l0.4-2.4l0.3-0.7l0.3-0.6l0.6-0.4h0.5l1-0.1l1.1-0.3l1-0.4
	l0.8-0.2l0.3,0.1l0.3,0.4l-0.1,0.9l-0.5,0.8l-0.8,1.1l0.2,0.4l0.7,0.5l1.6,0.7l1,0.3h0.7l0.7-0.8l0.4-0.2h0.5l7.5,2.9l0.8,0.6
	l0.1,0.8l-0.3,1.1l-0.2,1l-0.2,0.5l-0.2,0.9v0.8l-0.1,0.6l-0.4,0.4v0.3l0.1,0.5l1,0.9l0.6,0.9L412.6,118.1L412.6,118.1z"/>
<path id="DZA2147" class="st0" d="M372.2,120.2l0.5,0.2l2.8,1.9l0.2,0.2v0.4l-0.5,1.2l-0.5,0.8l-0.2,0.4l-0.6,2.3l-0.1,1.1v0.8
	l0.1,0.4l0.3,0.9l0.3,0.6l0.3,0.4l0.9,0.2l0.2,0.3v0.3l-0.7,1l-0.2,0.5l0.1,0.5l0.3,0.2h0.3l0.7-0.2l0.6-0.1h0.6l0.1,0.5l-0.1,1.1
	l-0.4,1.9l0.1,1.4l0.5,1.1l1,0.5l1.2,0.1l3.1-0.3l0.4,0.3l0.4,0.8v0.4l-0.1,0.6l-0.7,1.5l-0.7,1.2l-0.9,2l-0.8,2.3l-0.4,0.4
	l-0.3,0.2l-2.1,0.7l-0.6,0.3l-0.4,0.5l-0.1,0.5l0.2,0.4l0.2,0.3l0.7,0.8l0.4,0.7l0.1,0.6v0.4l-0.3,0.9l-0.8,1l-7.8,6.6l-1.9,2
	l-1.2,1.9l-0.8,0.7l-0.6,0.4l-2.9,1.3l-0.3,0.2l-0.6,0.6l-0.6,0.5l-0.4,0.2l-0.5,0.1l-3.3,0.3l-1.1-0.1l-2.3,0.1l-1.5-0.1l-0.7,0.1
	l-1.7,0.5l-8.6,5.3l-0.7,0.4l-0.1-0.8l-3.5-10.8l-1.2-2.6l-1.9-2.2l5.2-6.3l-0.6-0.3l-1.7-0.5l-5.8-6l0.4-1l2.5-4l1.2-2.6l0.6-0.5
	l0.2-0.4l-0.9-0.9l-5.1-3.3l-1.6-1.5l-2.6-1.6l-0.6-0.8l-0.3-0.8v-0.8l-0.2-0.7l-0.7-0.5l-2.1-0.2l-1.7-1.1l-1.5-1.4l-1.8-1.3
	l-1.4-0.6l-0.9-1.2l-0.5-1.5v-2.3l1.1-0.5l0.5,0.2l0.1,0.3l1.5-0.7l1.6,0.3l1.8,0.8l1.6,0.4l3.1-0.4l1.1,0.3l0.4,0.1l0.4-0.1
	l0.8-0.7l4.5-1.3l1.3-0.9l0.4-0.1h1.4l0.7-0.1l0.7-0.6l1.6-1.9l3.1-1l0.5-0.4l0.4-1l5.8-4.9l0.9-0.4l4.6-0.5l1.3-0.4l0.4-0.2
	l0.1,0.9l0.2,0.1l0.7-0.1l0.4,0.2l0.2,0.2l0.3,0.5l0.1,0.3l-0.2,1.1l-0.1,1.4l-0.1,0.4l-0.2,0.2l-0.6,0.5l-0.1,0.3l0.1,0.5v0.6
	l0.1,0.3l0.2,0.3l0.4,0.1h0.6h0.4l0.6-0.3l0.6-0.1h0.6l10.8,5.8L372.2,120.2L372.2,120.2z"/>
<path id="DZA2148" class="st0" d="M439.9,372.7l-28.9,54l-30.3,40.9l-6.4,4.7l-44.4,8l-5.5,2.1l-6,3.6l-15.2,11.9l-6.8,4.3
	l-11.8,4.7l-10.1-2l-11.9-5.9l-5.1-3.5l-8.6-4.4l-9.6,0.9l-73.2,19.7l-35.5-75.8l5.7-1.2l6.1-0.8l1.7,5.1l4.1,1.5l4.7-1.5l5.1-6.6
	l4.3-7l3.4-6.7l4.7-5l5.1-3.5l5.4-4.7l4.1-3.1l5-2.8l7.1-3.1l6.8-5.5l5.4-7l4.7-2.8l5.8-1.6l7.4-0.4l8.1-1.9l9.1-4.7l-0.7-7.1
	l2.4-2.4l2.7-4.3l-2.6-4.2l-0.1-1.1l-0.2-1l-0.5-1.1l-0.5-0.5l-1.8-0.8l-0.8-0.9L241,347l-0.7-0.7l-0.9-0.3l-0.7,0.4l-1.4,1.4
	l-0.9,0.3h-0.8l-0.6-0.5l-0.1-1l0.3-1.1l1-1.7l0.1-1.3l-0.3-4.3l0.2-1l0.6-0.8l2.7-2l3.6-0.2l0.6-14.7l3.3-1.7l2.1,0.5l1.8-0.2
	l14.1-2.5l10.5-3.2l8.4-1.2l-2-5.6l-3.3-8.9l2.8-1.5l8.9-0.8l8.7-2.4l9.7,0.4l19.7,0.9l12.3,0.6l10,0.5l4.3,0.2l5.2,0.2l1.9-0.4l1-2
	l-0.3-1.2l-0.8-0.7l-1-0.3h-0.9l-1.8,0.7h-0.8l-0.2-1l0.2-0.3l0.8-0.6l0.3-0.4l0.3-0.6l0.1-0.4l-0.1-0.5l0.1-0.7h0.8l6.9-0.8
	l3.2,0.1l1,0.2l0.9,0.4l0.8,0.4l0.5,0.5l0.5,0.6l0.5,0.8l0.6,1.1l1.5,3.7l1.1,0.1l2.4-0.3l39-12.4l-17.5,51.2v2.2l1.5,3.1l10.4,12
	L439.9,372.7L439.9,372.7z"/>
<path id="DZA2149" class="st0" d="M397.1,170.7l-0.6,1.4l-0.1,0.7l0.3,1.1l0.3,1l3.6,7.2l1.3,3.5l0.1,0.7l-0.1,0.4v0.5l0.1,0.5
	l0.9,1l0.5,0.3l0.3-0.3v-0.4v-0.7v-0.5l0.1-0.4l0.4-0.3l0.6-0.1l0.7,0.1l0.4-0.4l0.4-0.8l1.7-2.5l1.5-1.8l0.4-0.3l0.5-0.2l0.9-0.3
	l1.7-0.6l0.4-0.4l0.6-0.1h1.2l1.4,0.3l0.4,0.3l0.3,0.3l0.3,1.1l0.1,1.7l0.1,0.9l-0.2,0.6l0.1,0.5l0.2,0.2l0.6-0.1l2.1-1.1l2.3-1.7
	l1-0.6l0.8-0.1v2.4l-1.7,11.9l-0.2,10.4l1.1,14.3l-0.2,4l-0.5,2.1l-2.6,9l-0.9,3.2l-0.4,2.3l-0.1,1.2l1.2,10.4l-0.1,0.8l-0.4,1.2
	l-4.1,11.1l-0.1,1.4l0.1,1.2l0.7,1.2l0.8,0.5l0.7,0.3l0.8,0.1l0.6,0.2l0.5,0.3l0.4,0.8l0.1,0.6v0.8v1l-0.4,2.5l-1.3,4.2l-39,12.4
	l-2.4,0.3l-1.1-0.1l-1.5-3.7l-0.6-1.1l-0.5-0.8l-0.5-0.6l-0.5-0.5l-0.8-0.4l-0.9-0.4l-1-0.2l-3.2-0.1l-6.9,0.8H359l0.8-5.2l0.7-2.1
	l0.4-1l0.8-1l0.8-0.4l2-0.3l1.8-0.8l1.6-1.2l2.8-3.2l-0.7-1.3l-13.5-10.4l-3.1-1.1l-1.6-1.4l-6.5-11l2-1.5l0.4-0.4l0.3-0.5l0.2-0.5
	l0.1-0.6l0.1-1.3v-1.3l-0.3-1.2l-0.8-0.8l-1.4-1l-1.3-1.2l-1-1.4l-0.6-1.8l-0.9-1.7l-2.4-2.4l-0.5-1.9v-5.7l0.5-1.4l0.7-1.5l0.9-3.2
	l0.7-1.1l0.7-1.6l-0.3-1.9l-2.1-5.2l-0.6-0.7l-0.8-0.6l-1.7-0.6l-0.7-0.6l-0.3-0.9l0.2-0.9l0.5-0.6l0.5-0.5l0.5-0.6l0.4-0.8v-0.7
	l-0.5-1.7l-0.4-2.8l0.1-2.8l2.3-9.4l0.1-1.1l-0.1-0.8l0.7-0.4l8.6-5.3l1.7-0.5l0.7-0.1l1.5,0.1l2.3-0.1l1.1,0.1l3.3-0.3l0.5-0.1
	l0.4-0.2l0.6-0.5l0.6-0.6l0.3-0.2l2.9-1.3l0.6-0.4l0.8-0.7l1.3,0.8l0.7,0.3l0.8,0.2l1-0.1l1.5-0.4h0.5l0.6,0.2l0.9,0.6l0.8,0.6
	l0.9,0.5l1.1,0.3l3.7,0.3l2.2-0.3l1.2-0.5l1.2-0.7l3-2.4l2-1.3l1-0.4l0.9-0.1h0.9l1.1,0.3l0.9,0.5l0.7,0.5l0.7,0.9l0.4,0.6
	L397.1,170.7L397.1,170.7z"/>
<path id="DZA2150" class="st0" d="M239.3,492l37.6,74.7l-129.3,90.9l-0.6,0.6l-6.9-4.5L123.9,643l-17.7-11.6l-9.6-6.2l-9.5-6.3
	l-9.6-6.3l-9.6-6.3l-19.1-12.5l-9.5-6.3l-9.6-6.3l-9.6-6.4l-9.5-6.3L1,562.2v-75.7l0.2-1.5l0.5-1l0.9-0.8l6.2-3.4l2.2-1.7l2.2-1.2
	l0.6-0.7l1.6-2.9l0.8-0.6l1.7-0.8l0.8-0.5l3.2-3l3.3-2.3l5.4-2.4l1.6-1.2l4.4-4.2l5.2-3.5l2.9-2.7l2.3-1.3l0.8-0.5l2.9-3.1l1.7-0.7
	l2.2,0.1l2.2,0.4h1l1.1-0.1l1-0.4l5.5,0.3l4.4-4.6l5.4-2.3l3.7-0.4l5.4,0.4l8.5,3.4l4-3.8l6.8-0.8l7.1-2l6.7-0.7h13.2l35.5,75.8
	L239.3,492z"/>
<path id="DZA2163" class="st0" d="M796.3,12.4l-0.6,0.2l-0.2,0.5l-0.1,5.7l-0.2,0.7l-0.2,0.4l-1,0.4l-0.5,0.3l-0.3,0.5l-0.9,1.9
	l-1.3,1.7l-0.7,1.3l-1,1.6l-0.4,0.5l-0.4,0.4l-0.5,0.2l-0.5,0.2l-1.4,0.2h-0.7l-0.7-0.2l-0.7-0.3l-1.1-0.6l-0.8-0.2l-0.2-0.3
	l-0.2-0.6v-1.3l-0.4-0.8l-0.3-0.6l-3.6-2l-0.6-3.8l-0.9-2.8v-0.7l0.1-0.7l0.3-0.5l0.2-0.8l-0.3-0.6l-0.5-0.5l-1.3-0.7l-0.7-1.1
	l-2.1-8.6V1.1l0.6,0.4l0.3-0.2l0.3-0.5l0.5-0.1l0.4,0.1l0.9,0.6l0.5,0.1l0.4-0.1l1.3-0.7h0.6l0.5,0.8l0.2,0.7l0.3,0.4l0.7,0.1h1
	l0.4,0.2l0.4,0.2l0.8-0.4l0.9-0.3l1.7,1.3l1.4,1.5l1.6,1.2l2.2,0.5l0.5-0.2l0.4-0.2l0.5-0.1l0.6,0.1l0.5,0.3l0.5,0.3l0.4,0.4
	l0.4,0.4l2.3-0.2l0.5-0.2l0.9-1l0.5-0.4l-0.4,1.2l-0.6,1.3l-0.2,1.2l0.8,0.8L796.3,12.4L796.3,12.4z"/>
<path id="DZA2164" class="st0" d="M815.3,36.3l-0.4,0.3l-0.9,0.7l-0.6,0.7l-1,1.5l-0.5,0.5l-0.7,0.5l-0.7,0.4l-0.6,0.3l-0.8,0.3
	l-0.8,0.1l-0.5-0.1l-0.3-0.4l-0.2-2.8l-0.7-1.5l-0.2-0.5l-0.2-0.5l-0.2-0.4l-0.5-0.3l-8.7-3.7l-0.6-0.5l-0.4-0.6l-0.3-0.9l-0.3-0.6
	l-0.5-0.7l-1.6-1.4l-0.5-0.3l-2.3-0.4l0.7-1.3l1.3-1.7l0.9-1.9l0.3-0.5l0.5-0.3l1-0.4l0.2-0.4l0.2-0.7l0.1-5.7l0.2-0.5l0.6-0.2
	l1.7,1.3l2.7,0.8l2.1,0.3l6.8-1.7l1.1-0.6l1-0.9l6.8-3.4l0.8,0.6l0.9,0.9l0.9,0.5l2.2-0.1l1.1,0.1l0.9,0.4l0.7-0.3l0.6,0.3l0.6,0.5
	l0.7,0.4l1.7,0.1l1.6-0.1l5.1-2.1l0.2,1.6l-0.1,0.7l0.2,0.6l1.7,2.6l-0.1,0.7l-0.9,0.6l-3.3,1.4l-1.7,0.3l-1.8-0.1l-1.8,0.2
	l-1.5,0.8l-0.3,0.9l1.6,0.9l1,1.2l-0.4,2.2l-1.1,2.1l-1.1,1.2l-5.8,3.5l-3.2,1.2l-1.4,0.9l-1.1,1.4L815.3,36.3L815.3,36.3z"/>
<path id="DZA2165" class="st0" d="M732.6,31.1l-6.2-1.3l-0.4-0.2l-0.2-0.3l-0.3-0.8l-0.3-0.1h-0.4l-1.3,0.8l-1.1,0.4l-0.3,0.4
	l-0.6,0.7l-0.5,0.2h-0.9l-1.5-0.1l-1.9-0.5l-2.6-0.2l-1.7-0.5l-0.7-0.1l-1,0.1l-1.8,0.8l-0.7,0.5l-0.5,0.7l-0.3,0.7l-0.5,0.5l-1,0.3
	l-1.7,0.2l-1.1-0.1l-1.2-0.4l-0.7-0.4l-0.9-0.2l-0.6-0.1l-1.9,0.4l-2.9,1.2l-0.6-0.1l-0.7-0.1l-1.2-0.9l-0.5-0.1l-0.7,0.3l-0.4,0.3
	l-0.8,0.8l-0.4,0.3l-0.6,0.2h-0.5l-0.6-0.1l-0.5-0.3l-0.5-0.5l-0.3-0.9v-0.7l-0.3-1.1l-1.1-0.4l-0.9-0.7l-1.2-0.4l-0.2-0.2v-0.3
	l0.2-0.3l0.2-0.6l-0.4-1.9l0.3-0.1h1.5l0.2-0.1l0.6-0.8l0.4-0.3l1.9-0.7l1-0.8l0.6-2.2l0.7-0.9l0.8-0.7l0.9-0.5l2.1-0.6l0.9-0.5
	l1.8-1.6l1.1-0.4h1.2l3.3,0.7l2-0.1l8.1-1.9l7.8-2.9l1.8-1.1l0.6-0.9l0.3,0.2l0.8,0.8l0.2,0.4l0.1,0.3v0.6l-0.3,1.1l0.1,0.5l0.1,0.2
	l1,0.1l0.5,0.1l0.5,0.2l0.4,0.4l0.4,0.5l0.3,0.5l0.2,0.7l0.2,0.9v1.7l0.3,1l0.6,1.5l2.6,2.8l2.3,1.2l0.4,0.4l0.2,0.5l-1,2.3
	L732.6,31.1L732.6,31.1z"/>
<path id="DZA2166" class="st0" d="M771.6,1.1v0.3l2.1,8.6l0.7,1.1l1.3,0.7l0.5,0.5l0.3,0.6l-0.2,0.8l-0.3,0.5l-0.1,0.7v0.7l0.9,2.8
	l0.6,3.8l-0.8,0.3l-0.9,0.6l-0.4,0.3l-0.6,0.8l-0.1,0.7l-0.2,1.4l-0.3,0.4l-0.5,0.3h-0.8l-1.2,0.3l-1.3,0.5l-5.4,2.9l-1.1,0.9
	l-1.2,1.5l-0.3,0.8v0.6l0.2,0.4l0.1,0.5l-0.1,0.3l-0.2,0.2l-0.4,0.2l-3.7,1.1l-1.2,0.7l-1.1,2l-3.6-0.9l-0.8-0.4l-0.7-0.1l-0.5-0.2
	l-0.2-0.4l0.1-0.4l0.3-0.4l0.6-0.5l0.1-0.3v-0.5l-0.1-1.2l0.1-0.4l0.2-0.2l0.7-0.3l0.5-0.1l0.6,0.1l0.6,0.3l0.4,0.1l0.4-0.2l0.3-0.5
	l0.1-0.6v-0.4l-0.4-0.2h-0.9l-5.6,0.3l-2.1-0.6l-2.6-1.2l-0.3-0.5l-0.2-0.5l-0.3-0.3h-0.5l-2.6,2l-0.9,0.2l-2-0.4h-1.7l-2.3-0.1
	l0.1-2.6l1-2.3l-0.2-0.5l-0.4-0.4l-2.3-1.2l-2.6-2.8l-0.6-1.5l-0.3-1v-1.7l-0.2-0.9l-0.2-0.7l-0.3-0.5l-0.4-0.5l-0.4-0.4l-0.5-0.2
	l-0.5-0.1l-1-0.1l-0.1-0.2l-0.1-0.5l0.3-1.1v-0.6l-0.1-0.3l-0.2-0.4l-0.8-0.8l-0.3-0.2L723,9V7.7l-0.1-1l-0.1-0.9l0.6-1.2l0.4-0.4
	l2-1.5l0.6-0.8l0.5-0.4l1.6-0.9l2.1-0.5l2.3-0.1l1.9,0.7l1.8,1.3l0.2,0.1l0.1,0.6l0.1,0.5l0.2,0.3l0.5,0.1l0.5,0.4l0.5,2.3l0.8,1
	l0.7-0.3l0.9,0.4l0.9,0.5l1,0.2l7.3,0.5l0.6,0.2l0.9,0.5l0.8,0.7l0.5,0.6v1l1.4,0.6l1.9,0.1h1.3l4.3-1.4l1.3-0.7l0.8,0.3l1.2,0.3
	l1.2,0.1l0.5-0.5l0.4-0.6l2-1.7l0.7-0.4l0.3-0.3l0.4-0.6l0.4-0.8l0.1-0.6l-0.1-0.6L771,4.3l-1.9-2.1L767.7,1V0.7l0.5-0.1l0.9-0.3
	h0.5l0.5,0.1l0.9,0.5L771.6,1.1L771.6,1.1z"/>
<path id="DZA2188" class="st0" d="M986.5,738.5l-144.9-0.1l-0.6-0.1l-0.4-0.1l-0.5-0.4l-1.3-1.4l-1.3-1.6l-1.2-1.7l-2.1-4.6
	l-0.5-0.8l-0.6-0.7l-0.7-0.6l-0.6-0.1l-0.5-0.1l-1.2,0.1l-3.9-0.5l-4.5-1.3l-0.3-0.2l-1.5-1.4l-0.5-0.2l-1-0.1h-0.3l-0.8-0.3
	l-1.8-1.2l-3.6-1.1l-1.2-0.2l-2.4-0.1l-3.2-0.6l-0.4-0.2l-1.5-0.9l-0.5-0.5l-1.1-1.2l-0.4-0.3l-1-0.5l-0.6-0.4l-3-3.1l-0.4-0.2
	l-1.1-0.4l-0.2-0.1l-2.1-1.2l-0.5-0.6l-0.5-0.6l-1.2-1.2l-0.4-0.3l-0.9-0.6l-0.5-0.1l-1,0.1l-0.6-0.3l-0.6-0.6l-0.6-0.2l-0.5-0.2
	l-0.6-0.3l-0.9-0.8l-0.4-0.3l-0.6-0.2h-0.3l-2,0.2l-1.9-0.3l-2.1-0.8l-0.6-0.4l-0.9-0.8l-0.9-0.6l-0.6-0.6l-0.5-0.9l-1.5-1.8
	l-1.3-2.4l-0.7-0.8l-0.8-0.8l-3.1-2.1l-0.9-0.8l-0.5-0.8l-0.4-0.7l-1-4.2v-5.7l0.2-1l1-2.5l0.2-0.4l2.2-3.1l0.4-1l0.1-0.4v-1.1
	l-0.1-0.6l-0.2-0.6l-0.5-0.9l-0.7-1.1l-1.5-1.4l-5.4-6.9l-0.6-10.1l-0.5-2.4l-0.7-1.4l-12-3.3l-1.5-0.7l-1.2-0.7l-5.2-2.2l-0.8-0.6
	l-0.6-0.6l-10.2-13.7l-0.4-0.3l-5-2.5l-0.6-0.4l-0.2-0.3l-0.2-0.7l-0.1-0.8l0.1-1.7l0.2-1.2l0.4-1.2l4-9.6l0.2-0.9l0.1-0.5l-0.1-0.7
	l-0.1-1l-0.5-1.6l-0.9-1.5l-1.8-1.8l-9.5-7.3l-2-2.1l-0.5-0.7l-0.3-0.8l-5.4-18.5l-1.2-6.5l1.1-4.6l1.7-2.7l3-2.7l3.6-2.7l12-11.5
	l13-5l1.9-1.7l-1-6.6l-1.7-4.4l-2.9-2.9l-24-19.1l22.6-13.3l17.7-7.6h7.2l10.1,1.6l107.5-65.8l2.5,3.1l6.2,9.2l5.7,10.8l3.8,13.4
	l3.9,13.3l1,8.4l0.2,10.5l-1.2,9.2l-2.4,19.3l0.6,3.2l7.1,18.8l-0.1,2.1l-3.5,11.4l-0.8,1.1l-1.3,0.7l-1.2,0.9l0.1,1.1l0.8,1.3
	l0.4,1.1l-0.4,1l-2,2.3l-0.7,1.2l-0.7,3.2l-0.8,2.2l-0.2,0.8v0.9l4.1,14.5l0.9,5.7l0.5,1.1l0.5,0.5l2.2,1.2l0.7,0.6l0.2,0.8
	l-1.2,5.8l-0.1,1.9l0.5,1.5l0.1,1.1l-2,7l-0.9,1l-17.1,8.2v1.1l-0.2,0.9l-0.4,0.8l-1.7,1.6l-0.8,2.1l-0.7,0.9l-1.2,2.5l1.1,3
	l6.8,9.5l7.4,10.4l13.3,18.7l1.8,3.4l0.7,3.4l0.4,14.6l0.1,7.3l0.6,1.5l7.2,4.2l0.9,1.5l0.9,4.9l0.6,1.9l0.8,0.9l6.4,5.2l0.9,0.3
	l1.9-0.2l11-4.1l1-0.1l1.1,0.2l9.2,3.1l28.9,9.6l1.5,0.9l1.3,1.6L986.5,738.5L986.5,738.5z"/>
<path id="DZA2189" class="st0" d="M708.3,496.2l24,19.1l2.9,2.9l1.7,4.4l1,6.6l-1.9,1.7l-13,5l-12,11.5l-3.6,2.7l-3,2.7l-1.7,2.7
	l-1.1,4.6l1.2,6.5l5.4,18.5l0.3,0.8l0.5,0.7l2,2.1l9.5,7.3l1.8,1.8l0.9,1.5l0.5,1.6l0.1,1l0.1,0.7l-0.1,0.5l-0.2,0.9l-4,9.6
	l-0.4,1.2l-0.2,1.2l-0.1,1.7l0.1,0.8l0.2,0.7l0.2,0.3l0.6,0.4l5,2.5l0.4,0.3l10.2,13.7l0.6,0.6l0.8,0.6l5.2,2.2l1.2,0.7l1.5,0.7
	l12,3.3l0.7,1.4l0.5,2.4l0.6,10.1l5.4,6.9l1.5,1.4l0.7,1.1l0.5,0.9l0.2,0.6l0.1,0.6v1.1l-0.1,0.4l-0.4,1l-2.2,3.1l-0.2,0.4l-1,2.5
	l-0.2,1v5.7l1,4.2l0.4,0.7l0.5,0.8l0.9,0.8l3.1,2.1l0.8,0.8l0.7,0.8l1.3,2.4l1.5,1.8l0.5,0.9l0.6,0.6l0.9,0.6l0.9,0.8l0.6,0.4
	l2.1,0.8l1.9,0.3l2-0.2h0.3l0.6,0.2l0.4,0.3l0.9,0.8l0.6,0.3l0.5,0.2l0.6,0.2l0.6,0.6l0.6,0.3l1-0.1l0.5,0.1l0.9,0.6l0.4,0.3
	l1.2,1.2l0.5,0.6l0.5,0.6l2.1,1.2l0.2,0.1l1.1,0.4l0.4,0.2l3,3.1l0.6,0.4l1,0.5l0.4,0.3l1.1,1.2l0.5,0.5l1.5,0.9l0.4,0.2l3.2,0.6
	l2.4,0.1l1.2,0.2l3.6,1.1l1.8,1.2l0.8,0.3h0.3l1,0.1l0.5,0.2l1.5,1.4l0.3,0.2l4.5,1.3l3.9,0.5l1.2-0.1l0.5,0.1l0.6,0.1l0.7,0.6
	l0.6,0.7l0.5,0.8l2.1,4.6l1.2,1.7l1.3,1.6l1.3,1.4l0.5,0.4l0.4,0.1l0.6,0.1l144.9,0.1l5.4,11.1l7.1,14.4l-3.3,2.1l-9.9,6.4l-9.8,6.3
	l-13.2,8.4l-6.5,4.3l-9.9,6.3l-13.2,8.4l-9.8,6.3l-13.2,8.4l-9.9,6.3l-9.8,6.3L874,844.1l-6.5,4.1l-13.2,8.4l-3.3,2.1l-13.1,8.3
	l-16.5,10.4l-6.6,4.2l-3.2,2.1l-6.6,4.1l-3.3,2.1l-6.6,4.2l-3.3,2.1l-9.6,6l-11.7,10.2l-10.6,9.3l-1.9,1.7l-11.9,10.9L740,940
	l-6.1,5.6l-3,2.8l-12.2,11.1l-6.1,5.6l-9.9,9l-2.1,1.5l-2.2,0.8l-11,2.3l-26,5.3l-36.5,7.4l-21.1,4.1v-0.1l-0.4-76.5l-1.5-11.8
	l-3.6-5.2l-5-4.7l-106.6-62.9l-2.4-3.1l-0.9-1.7l0.4-173.3l-0.1-0.7l-0.3-0.5l-0.7-0.6l-8.1-6.3l-0.6-1.1l-0.4-1.5l0.7-5.3l-0.1-3.1
	l-0.2-1.1l-0.3-1.1l-0.4-1l-0.5-0.9l-7.6-10.5l-4.1-3.9l-0.5-0.7l-0.1-0.8l0.5-1.1l0.9-1.2l0.5-0.4l2.2-1.1l3.5-1.3l3.3-2.4l0.4-0.2
	l0.4-0.2l3.5-0.2l2.7,0.3h0.7l1.8-0.6l0.4-0.1l6.7,0.1l0.5-0.1l3.9-1.2l1.4-0.7l0.8-0.6l1.3-1.4l3-4.2l0.4-0.4l0.9-0.3l5-0.8
	l0.6-0.2l3.1-3.3l1.5-1.3l2.1-2.3l0.9-1.3l0.5-1.3l0.4-1.3l6.1-69l2.7-11.9l0.6-11.1l-2.6-30l43.8-4.9l40.1,31.9l45.2,4.6
	L708.3,496.2L708.3,496.2z"/>
<path id="DZA2190" class="st0" d="M485.2,180.1l2.6,5.3l0.9,0.9l0.9,0.6l2.6,1.2l2.1,1.2l7.4,2.1l2.3,0.9l1.6,1l0.9,0.6l0.8,0.9
	l0.8,1.2l3.5,7.2l6.6,10l0.6,1.8l0.2,2.5l-0.2,1.9l-0.6,1.5l-1.8,2.1l-0.3,0.6l-0.2,0.7l0.1,0.9l0.6,1l0.9,1.4l0.5,0.8l0.3,0.8
	l0.5,3.6l0.4,1.3l0.7,1.7l1.1,1.9l4.7,5.8l1.5,3.4l2.7,9.9l1.4,2.8l0.4,1.8l0.3,2.6l-0.4,13.8l0.3,2.1l1.5,5.6l0.3,2l0.2,2l-0.1,2.3
	l-0.5,2.1l-0.8,2l-4.2,6.3l-0.7,1.6l-0.1,2l0.3,1.6l0.9,2.7l0.2,1.2l-0.1,1l-0.8,1.2l-1.1,1l-4.1,2.9l-1.4,1.4l-50.9,25.9l-9.2,5.9
	l-4.5,3.8l-16.9,18.1l-26.8-23.4l-10.4-12l-1.5-3.1v-2.2l17.5-51.2l1.3-4.2l0.4-2.5v-1v-0.8l-0.1-0.6l-0.4-0.8l-0.5-0.3l-0.6-0.2
	l-0.8-0.1l-0.7-0.3l-0.8-0.5l-0.7-1.2l-0.1-1.2l0.1-1.4l4.1-11.1l0.4-1.2l0.1-0.8l-1.2-10.4l0.1-1.2l0.4-2.3l0.9-3.2l2.6-9l0.5-2.1
	l0.2-4l-1.1-14.3l0.2-10.4l1.7-11.9v-2.4l0.6-1.6l0.5-1l0.4-0.7l1.4-1.5l1.8-1.5l0.7-0.8l0.4-0.5l0.3-0.9l0.4-0.9l0.5-0.8l0.7-0.4
	l0.8-0.3l1-0.1l2.9,0.1l0.5-0.2l2-1.7l0.4-0.4l10.5-6.5l0.2-0.1l3.5-2.2l1.6-0.7l1.4-0.1l10.4,3.3l2,1.5l0.9,1l-0.7,7v1l0.3,0.6
	l0.7,0.2l7.4-0.5l1.9,0.3l0.9,0.5l0.6,1l1,2.4L485.2,180.1L485.2,180.1z"/>
<path id="DZA2191" class="st0" d="M744.2,162.1l0.9,2.9l1.4,1.6l10.5,6.2l2.7,0.9l5.7,1l3.3,1.7l3.3,1.1l2.7,0.3l10.2-0.3l-1,1
	l-0.7,1.6l-0.1,4.3l-1,5.9l0.2,2.2l0.7,3.2l0.3,1l1.4,2.8l0.5,3l0.4,1.5l6.8,11.8l0.7,2.3l0.1,7.9l0.7,2.7l1.3,1.4l1.7,0.5l2.3,0.2
	l1.8,0.6l5.4,3.9l0.9,0.5l1,0.3l1,0.1l1-0.2l1.1,0.6l4.6,7.2l4.9,7.7l0.6,1.8l0.7,8.1l0.4,5.9l0.6,1.9l1.4,1.6l5.9,3.8l7.7,5.6
	l10.2,7.3l8.1,5.9l0.7,0.8l0.5,1.1l0.9,4.1l-84.6-0.1l-6.9-0.8l-6.7-2.1l-4.9-5.1l-3.8-5.6l-6-10.8l-2.1-4.8L733,233l-4.2-9.3
	l-8.9-3.4l-57.3-3.8l5.5-7.5l4.7-8l2.5-3.3l2.1-2.2l0.6-1.1l0.4-1.3l1.9-12.4l-0.1-2.9l-0.1-1.3l-0.5-2.1l-0.8-2l-0.5-1l-1.5-2.2
	L675,167l-3.4-3l-0.2-0.3l-0.2-0.4l0.1-0.8l0.2-0.7l0.3-0.7l0.4-0.6l0.5-0.5l0.6-0.3l2-0.8l0.8-0.5l0.6-0.6l0.1-0.8l-0.1-0.9
	l0.3-0.8l0.3-0.3l0.4-0.1l3,1.4l4.6,1.5l25.2,3.2l9.4-2h0.9l7.7,2.2l2.8,1.3l0.4,0.5l0.4,0.6l0.5,0.6l0.7,0.6l1,0.4l0.7,0.2l1,0.2
	h1.5l1.6-0.3l1.7-0.7l1.7-1L744.2,162.1L744.2,162.1z"/>
<path id="DZA2192" class="st0" d="M661.2,251.3l-11.6,17.8l-9.5,8.9l-6.9,4.6l-1.2,1.3l-0.8,1l-1.7,3.2l-1.9,5.4l-4,7.5l-4.3,10.4
	l-3,13.5L604.4,413l-4,7l-5.9,5.4l-3.5,4.1l-2.3,3.2l-3.9,15.1l-2.6,3.2l-17.3,10.1l-43.8,4.9l-6.6-59l6.2-42.9l0.7-45.2l1.4-1.4
	l4.1-2.9l1.1-1l0.8-1.2l0.1-1l-0.2-1.2l-0.9-2.7l-0.3-1.6l0.1-2l0.7-1.6l4.2-6.3l0.8-2l0.5-2.1l0.1-2.3l-0.2-2l-0.3-2l-1.5-5.6
	l-0.3-2.1l0.4-13.8l-0.3-2.6l-0.4-1.8l17.4-3.3l5.5-2.1l5.9-1.3l10.3-1.1l2.8,0.4l1.2,0.5l4,2l1.4,0.2l1.3-0.2l1.3-0.8l0.9-1.1
	l1.9-2.5l1-1.1l14.9-7l0.2-0.2l1.2-0.1l2.4,0.1l0.5,0.2l1.3,0.7l1.6,0.2l14.1-2.7L661.2,251.3L661.2,251.3z"/>
<path id="DZA2193" class="st0" d="M622.4,240.4l-14.1,2.7l-1.6-0.2l-1.3-0.7l-0.5-0.2l-2.4-0.1l-1.2,0.1l-0.2,0.2l-14.9,7l-1,1.1
	l-1.9,2.5l-0.9,1.1l-1.3,0.8l-1.3,0.2l-1.4-0.2l-4-2l-1.2-0.5l-2.8-0.4l-10.3,1.1l-5.9,1.3l-5.5,2.1l-17.4,3.3l-1.4-2.8l-2.7-9.9
	l-1.5-3.4l-4.7-5.8l-1.1-1.9l-0.7-1.7l-0.4-1.3l-0.5-3.6l-0.3-0.8l-0.5-0.8l-0.9-1.4l-0.6-1l-0.1-0.9l0.2-0.7l0.3-0.6l1.8-2.1
	l0.6-1.5l0.2-1.9l-0.2-2.5l-0.6-1.8l-6.6-10l-3.5-7.2l-0.8-1.2l-0.8-0.9l-0.9-0.6l-1.6-1l-2.3-0.9l-7.4-2.1l-2.1-1.2l-2.6-1.2
	l-0.9-0.6l-0.9-0.9l-2.6-5.3l14.7-11l0.8-0.9l0.5-1.5l0.3-1.2l0.8-1.6l1.2-1.7l2.6-2.9l1.8-1.5l1.3-0.9l6-1.8l1.1-0.7l5.2-4.5
	l4.5-2.6l0.7-0.8l0.4-0.7l0.4-0.8l0.4-0.4l0.9-0.3l3.7-0.7l2-0.1l0.4,3.2l-0.3,0.7l-0.4,0.9l-1.3,1.5l-0.7,1.3l-0.4,1.9l-0.4,3.3
	l0.1,2.1l0.5,1.6l0.6,0.8l1,1l0.6,0.7l0.5,1l0.4,1.4l0.8,5.1l0.4,0.9l0.6,1l1.8,2l0.7,1l0.6,1.2l0.6,1.4l0.2,0.9l-0.1,1l-1,3.1
	l-0.3,1.4v0.6l0.4,3.3l0.4,0.7l0.7,0.4h1.4l3.8,0.5h1.7l0.3-0.1l0.2-0.3l0.2-1.4l0.1-1.8l-0.2-6.3l0.1-0.6l0.2-0.5l0.2-0.3l0.6-0.2
	l4.3-0.7l2.3-0.8l0.7-0.4l0.5-0.5l0.4-1.4l0.4-0.8l0.6-0.7l3.6-3.4l0.8-0.5l0.7-0.1l0.6,0.1l1.1,0.7l0.4,0.2h0.8h2.3l1.1,0.5
	l0.5,0.6l1.2,3.4l0.6,4.3l0.4,1.3l0.5,1.4l3.5,6.1l19.7,22.2l18.8,16.5l1.4,1.6l1.3,1.6l1.6,3.2l2.3,6.2L622.4,240.4L622.4,240.4z"
	/>
<path id="DZA2194" class="st0" d="M858.6,299.5l1.5,6.9l1.4,6.2l1.3,6.3l2.8,12.5l1.3,6.2l1.4,6.2l1.4,6.2l2.7,12.5l1.4,6.1
	l2.7,12.4l4.1,18.5l-11.2,6.3l1.1,1.8l2.9,3.4l-107.5,65.8l-10.1-1.6h-7.2l-17.7,7.6l-22.6,13.3l-58.1,1.5l-45.2-4.6l-40.1-31.9
	l17.3-10.1l2.6-3.2l3.9-15.1l2.3-3.2l3.5-4.1l5.9-5.4l4-7l11.9-88.1l3-13.5l4.3-10.4l4-7.5l1.9-5.4l1.7-3.2l0.8-1l1.2-1.3l6.9-4.6
	l9.5-8.9l11.6-17.8l-1.2-23.1l1.5-5.5l1.1-6.1l57.3,3.8l8.9,3.4l4.2,9.3l10.6,37.1l2.1,4.8l6,10.8l3.8,5.6l4.9,5.1l6.7,2.1l6.9,0.8
	L858.6,299.5L858.6,299.5z"/>
<path id="DZA2195" class="st0" d="M573.9,21.2l2.8,3.5l-2.3,1.2l-2.3,0.4l-0.6,0.3l-0.6,0.2h-0.6l-0.7-0.2l-0.6-0.4l-0.4-0.9v-1
	l-0.4-0.7l-1.4-0.4l0.1-1.4l-0.5-0.4l-1.9-0.1l-0.4-0.1l-0.2-0.3l0.2-0.3l0.3-0.6l0.1-1.3l0.3-1.4v-0.4l1.5,0.2l1.6,1l1.2,1.4
	l1.4,1.2l1.8,0.6L573.9,21.2L573.9,21.2z"/>
<path id="DZA2196" class="st0" d="M615.8,11.9l-0.1,2.1l-0.2,0.8l-0.4,0.8l-1.4,1.9l-1.2,1.4l-0.8,0.4l-0.6,0.1l-0.5,0.3l-0.1,0.4
	l0.2,0.5l0.2,0.5l0.4,0.6l0.9,1v0.4l-0.3,0.5l-0.8,0.8l-0.5,0.7l-0.5,0.5l-0.6,0.2l-1-0.1l-1.5-0.5l-0.5-0.2l-0.5,0.2l-0.5,0.6
	l-0.2,0.6l-0.4,0.5l-0.5,0.1H604l-0.5-0.6l-0.3-0.2l-0.4-0.1l-0.9,0.2l-0.3,0.2l-0.4,0.5l-0.1,0.4l-0.1,2l-3.2,0.6H597l-0.4-0.2
	l-0.2-0.4l0.2-0.5l0.3-0.7l1.4-1.8l0.2-0.6l-0.1-0.4l-0.2-0.4l-0.4-0.3l-0.9-0.4l-0.6-0.1l-0.6-0.1l-0.8,0.2l-1.9,0.8l-1.4,0.1
	l-3-0.7l-1,0.6l-0.4,0.2l-0.5-0.1l-2.3-1l-0.4-0.6l-0.5-0.4l-0.8-0.2l-1.5,0.1l-1.7,0.3l-2.8,1.3l-2.8-3.5h0.3l1.5-0.8l0.6-0.9
	l0.2-0.9l0.1-1.6h0.5l3.1,1.5l1.8,0.4l5.8,0.4l1-0.1l1.9-0.6l1-0.1l0.5-0.2l0.3-0.4l0.3-0.4l0.3-0.2l0.5-0.1l1.1,0.1h0.4l1.9-1
	l2.9-2.9l1.5-1.1l4.2-1.3l2.2-0.3l1.9,0.3l1.7,1.1l0.8,0.2l0.5-0.1l1-0.3h1.7L615.8,11.9L615.8,11.9z"/>
<path id="DZA2197" class="st0" d="M642.5,12l0.1,0.4l0.1,1l0.3,0.7l2,3l0.1,0.4l0.1,0.6l-0.1,0.6l-0.3,1.3l-0.2,0.6l-0.5,0.3
	l-0.5-0.1l-1.2-0.5l-0.5-0.1l-0.7,0.1l-0.6,0.4l-0.4,0.4l-0.2,0.8l0.1,0.4l0.3,0.5l0.4,0.3l1,0.4l0.5,0.2l0.3,0.3l0.3,0.5l-0.1,0.8
	l-0.3,0.8l-2,3.2l-0.6,1.7l-0.5,0.7l-3.6,4.1l-1.3,0.8l-2.7,0.9l-0.9-0.3l-2.1,0.5H628l-2.1-0.6l-0.7-0.1l-1.5,0.7l-0.8,0.2
	l-12.1-0.5l-2.3-0.8l-1.8-1.1l-1.6-1.6l-1.2-0.9l-1.5-1.2l-1.4-2.4l0.1-2l0.1-0.4l0.4-0.5l0.3-0.2l0.9-0.2l0.4,0.1l0.3,0.2L604,27
	h0.4l0.5-0.1l0.4-0.5l0.2-0.6l0.5-0.6l0.5-0.2l0.5,0.2l1.5,0.5l1,0.1l0.6-0.2l0.5-0.5l0.5-0.7l0.8-0.8l0.3-0.5v-0.4l-0.9-1l-0.4-0.6
	l-0.2-0.5l-0.2-0.5l0.1-0.4l0.5-0.3l0.6-0.1l0.8-0.4l1.2-1.4l1.4-1.9l0.4-0.8l0.2-0.8l0.1-2.1l2.2,0.3l1,0.5l2-1.1l0.6-0.1l0.6,0.1
	l1.2,0.5l0.7,0.2l0.6-0.2l1.2-0.8l0.7-0.3l0.8,0.1l1.3,0.6l0.7,0.2l5.8-0.9l0.6,0.1l0.7,0.3l0.7,0.3l0.5,0.4l0.6,0.3h1.5l0.7,0.3
	L642,12L642.5,12L642.5,12z"/>
<path id="DZA2198" class="st0" d="M564.8,16.9v0.4l-0.3,1.4l-0.1,1.3l-0.3,0.6l-0.2,0.3l0.2,0.3l0.4,0.1l1.9,0.1l0.5,0.4l-0.1,1.4
	V24l0.4,1.2l0.1,0.4l-0.1,0.3l-0.2,0.2l-0.3,0.2l-1,0.2l-0.6,0.3l-0.3,0.4l-0.4,0.2l-0.7,0.2l-5.5-0.2l-0.5,0.2l-0.2,0.4l-0.1,0.4
	l-0.2,0.5l-0.7,0.6l-3,1.5l-0.9,0.3l-0.8,0.5l-0.9,0.7l-2.2,2.1l-0.8,0.5l-0.4,0.7l-0.2,1l-0.4,0.6l-0.5,0.4l-1,0.2l-1.8,0.1
	l-0.4-0.1l-1.4-0.4h-0.4L541,38l-0.3,0.3l-0.4,2.3L531,41l-6.8-1.4H523l-3.2,1.1l-1.8,0.4l-0.6,0.2l-1.2-0.1l-1.5-0.5l-6.7-0.8
	l-0.8,0.1l-0.5,0.4l-0.3,1.4l-0.3,0.5l-0.5,0.5l-0.5,0.3l-1.1,0.6l-0.4,0.2l-0.5-0.1l-1.3-2.7l-1.6-1.8l0.2-1.1l1.3-2.1l0.5-1.1
	l0.6-2h0.7l0.5-0.1l1.2-0.6l0.5-0.1h0.4l1.1,0.3h0.5l2.7-0.7l2.7-0.2l2.2,0.5l0.6,0.1l4.2-0.6l12.1-3.6l1-0.4l1-0.1l1.1,0.3l0.9,0.6
	l0.3,0.5l0.1,0.6l0.2,0.4l0.5,0.2h0.6l1,0.3l0.4,0.1l7-0.4l1.5-0.6l4.6-3.6l3.2-1.7l1.2-1l1.2-1.8l0.3-0.8l1.3-1.3l2.7-2l2.2-0.5
	L564.8,16.9L564.8,16.9z"/>
<path id="DZA2199" class="st0" d="M540.3,40.6l0.5,1.2l0.5,0.6l0.5,0.2l0.2,0.3l0.1,0.7l0.4,0.4l0.9-0.1l2.3-0.9l1.4-0.3l1.2-0.7
	l0.3,0.1l0.2,0.2l0.4,1.8l-0.1,0.7l-0.1,0.5l-0.4,0.6l-0.9,0.9l-0.8,0.5l-0.8,0.3l-3,0.1l-0.4,0.2l-0.3,0.3l-0.5,0.6l-0.6,0.7
	l-0.3,0.4l-0.2,0.5v1l0.2,0.7l0.8,0.7l0.3,0.5l0.2,0.5l0.4,0.5l0.2,0.2l0.5-0.2l1.1-0.9l0.3-0.2h0.3l0.9,0.4h1.6l0.4,0.1l0.3,0.2
	v0.5l-0.2,0.6l-1.5,1.5l-0.7,1.1l-0.6,1.5l-0.4,0.8l-5.1,3.3l-0.4,0.4l-0.3,0.6l-0.3,0.7l-0.3,1.4l-0.4,0.8l-0.6,0.9l-3.1,2.9
	l-2.1,2.9l-3.3-1.3l-2.3-1.4l-1.2-0.3l-1.2-0.1l-2.3,0.4l-2.6-0.1l-1.7-0.3l-1.1,0.4l-0.5,0.6l-0.2,0.9l-0.4,0.4l-0.8,0.2l-2.4-0.7
	l-0.7,0.2l-0.8,1.1l-0.6,0.4l-0.6-0.3l-0.3-0.6l-1.5-1.6l-4.4-1.3l-0.2-1.1l0.2-0.8l0.3-0.6l-0.1-0.5l-0.3-0.5l-1.2-1.2l-1.5-3.1
	l-0.4-1.1v-1.5l-0.3-0.3l-1.1-0.6l-0.7-0.6l-0.7-1.2l-0.2-0.7l0.2-0.6l0.4-0.3l0.7-0.2l0.5-0.3l0.3-0.6v-1.4l-0.2-0.6l-0.5-0.4
	l-0.5-0.1l-0.4-0.3v-0.5l0.5-1.6l-0.1-0.6l-1-1.3l-0.7-1.1l-0.7-1.9l-0.1-1L496,43l3.4-2.6l0.8-1.1l1.6,1.8l1.3,2.7l0.5,0.1l0.4-0.2
	l1.1-0.6l0.5-0.3l0.5-0.5l0.3-0.5l0.3-1.4l0.5-0.4l0.8-0.1l6.7,0.8l1.5,0.5l1.2,0.1l0.6-0.2l1.8-0.4l3.2-1.1h1.2L531,41L540.3,40.6
	L540.3,40.6z"/>
<path id="DZA2200" class="st0" d="M502.8,33l-0.6,2l-0.5,1.1l-1.3,2.1l-0.2,1.1l-0.8,1.1L496,43l-0.4,0.8l0.1,1l0.7,1.9l0.7,1.1
	l1,1.3l0.1,0.6l-0.5,1.6v0.5l0.4,0.3l0.5,0.1l0.5,0.4l0.2,0.6v1.4l-0.3,0.6l-0.5,0.3l-0.7,0.2l-0.4,0.3l-0.2,0.6l0.2,0.7l0.7,1.2
	l0.7,0.6l1.1,0.6l0.3,0.3v1.5l0.4,1.1l1.5,3.1l1.2,1.2l0.3,0.5l0.1,0.5l-0.3,0.6l-0.2,0.8l0.2,1.1l-1.3,0.3l-0.6-0.1l-1.7-0.8
	l-1.3-0.8l-0.3-0.3l-0.3-0.5l-0.2-0.9l-0.1-0.4l-0.3-0.3l-1.2-1.1h-0.4l-0.3,0.1l-0.6,1.1l-0.8,0.8l-0.2,0.3l-0.1,1.1l-0.2,0.5
	l-0.2,0.3L493,70l-2.1,0.8l-0.3,0.3l-0.1,0.3l0.4,0.9l-0.2,0.4l-1.5,1l-0.4,0.3l-0.2,0.7l0.2,0.7l-1.7-0.7l-0.4-0.3l-0.6-0.6l-0.4-1
	l-0.3-0.4l-0.8-1l-0.4-0.7l-1-2.4l-0.3-0.3l-0.4-0.2l-0.5,0.1l-4.6,1.4l-0.8-0.1l-0.9-0.3l-1.8-1.2l-0.7-0.4l-0.5-0.3l-0.3-0.5
	l-0.3-0.6l-0.6-1l-0.3-0.3l-0.3-0.2l-1.8-0.1l-1.8,0.1l-0.5-0.1l-0.4-0.3l-1.3-2l-0.1-0.5v-0.4l0.4-0.9v-0.4v-0.4l-0.9-2.5l-0.2-0.6
	l-0.2-1.7l-0.1-0.5l-0.6-0.2h-0.8l-2.8,0.8l-2,0.8H457l-0.9-0.1l-1.5-0.6l-0.1-1.2l1.6-4.8l0.2-0.8l0.1-1.1v-1.2h0.6l0.7-0.4
	l1.7-1.1l3-0.9l0.7-0.6l0.5-0.5l1.2-0.8l0.5-0.5l0.2-0.5l0.1-0.5l0.2-0.5l0.5-0.6l0.8-0.3l2.2-0.5l1.8-1.2l3.5-0.1l1-0.3l2-1.1
	l1.1-0.2h2.1l0.9-0.1l1.1-0.3l2.9-1.4l1-0.2l0.9,0.1l2.1,0.8l1.1,0.3l1.1-0.1l2-0.6L502.8,33L502.8,33z"/>
<path id="DZA2201" class="st0" d="M431.7,84.1l1.8,1.6l0.5,1.6l0.4,2.3l0.4,1.1l0.5,1l0.7,0.6l1.2,0.2l0.7-0.1l1.7-0.4l0.9-0.1
	l1.1,0.1l1.1,0.3l1.2,0.9l1.5,1.4l0.9,0.5l0.9,0.1l1-0.3l0.8-0.1l0.8,0.1l1,0.7l0.4,0.5l0.5,0.5l0.8,0.4l3.2,0.5l2.6,1.2l2.3,0.4
	l-0.3,1.1l0.3,0.4l0.5,0.5l1.7,1l0.3,0.4l-0.1,0.7l-0.5,0.9l-2.3,3.1l-0.8,1l-1.2,0.6l-0.7,0.1l-0.6-0.2l-0.7-0.3l-1.8-0.7l-0.7-0.1
	h-0.5l-0.7,0.2l-0.7,0.3l-0.7,0.4l-0.7,0.5l-0.6,0.9l-0.6,1l-1.3,3.1l-2.5,3.4l-1,2.8l-0.7,0.5l-1.4,1.1l-0.9,0.5l-1,0.3l-1-0.1
	l-2-0.5l-0.8,0.1l-1.8,0.8l-1.5,0.3l-0.8,0.3l-0.8,0.3l-1,0.3l-0.9-0.2l-1.2-0.8l-0.6-0.8l-0.8-1.6l-0.6-0.7l-0.6-0.3l-0.5,0.1
	l-0.7,0.3H424l-1.3-0.3l-0.9,0.1l-0.6,0.5l-0.4,0.9l-0.4,0.3h-0.5l-1-0.7l-0.8-0.8l-0.4-0.3l-0.7-0.1l-0.5-0.4l-0.3-0.3l-0.1-0.7
	v-0.8v-0.6l-0.3-0.6l-0.3-0.4l-0.3-0.1l-0.4,0.2l-0.3,0.5l-0.2,0.8l-0.3,0.5l-1.4,0.3l-0.8-1.8l-0.6-0.9l-1-0.9l-0.1-0.5v-0.3
	l0.4-0.4l0.1-0.6v-0.8l0.2-0.9l0.2-0.5l0.2-1l0.3-1.1l-0.1-0.8l-0.8-0.6l-7.5-2.9h-0.5l-0.4,0.2l-0.7,0.8h-0.7l-1-0.3l-1.6-0.7
	l-0.7-0.5l-0.2-0.4l0.8-1.1l0.5-0.8l0.1-0.9l-0.3-0.4l-0.3-0.1l-0.8,0.2l-1,0.4l-1.1,0.3l-1,0.1l0.2-0.5l1.1-0.7l0.5-0.4l0.4-0.9
	v-1.6l0.4-0.5l0.6-0.2l1.2-0.4l0.5-0.4l0.3-0.6l0.4-0.9l0.3-1.1l0.3-0.7l0.5-0.7l2.8-2.1l0.7-0.7l0.6-0.9l0.5-1.4l0.5-0.5l0.8-0.5
	l0.7-0.1h0.5l1.1,0.1l0.8-0.4l0.9-0.7l2.3-3.1l2-2.2l0.1,0.7l0.6,0.9l-0.1,0.6l0.1,0.4l0.4,0.3l1.8,1l0.5,0.3l0.7,0.1l0.9-0.2
	l2.3-0.6l1.4-0.6l1.4-1l0.4-0.2h0.3l0.4,0.3l0.4,0.8l0.3,0.5l0.8,2.5l0.3,0.3l0.7-0.5l1-0.3L431.7,84.1L431.7,84.1z"/>
<path id="DZA2202" class="st0" d="M454.6,54.8l-1.1,1.2l-0.5,1l-0.6,0.7l-1.7,1.7l-0.3,0.5l-0.6,1.3l-0.4,0.4l-0.6,0.4l-1.3,0.4
	l-0.4,0.3l-0.3,0.3l-0.1,0.7v1.4l-0.1,0.9l-0.1,1.1l-0.1,0.5l-0.2,0.2l-0.6,0.3l-0.4,0.1l-1.4,0.2l-0.4-0.1l-0.5,0.2l-0.5,0.3
	l-0.6,1.2l-0.3,0.7l-0.1,0.7v0.3l0.2,0.2l0.4,0.2l0.3,0.3v0.4l-0.7,3l-0.2,0.5l-0.3,0.5l-0.6,0.7l-0.9,0.9l-0.7,0.5l-0.8,0.2
	l-0.8-0.1h-0.4l-0.4,0.1l-0.5,0.3l-0.6,0.5l-1.5,1.3l-0.5,0.7l-0.6,0.5l-0.8,0.7l-0.3,1h-1.9l-1,0.3l-0.7,0.5l-0.3-0.3l-0.8-2.5
	l-0.3-0.5l-0.4-0.8l-0.4-0.3h-0.3l-0.4,0.2l-1.4,1l-1.4,0.6l-2.3,0.6l-0.9,0.2l-0.7-0.1l-0.5-0.3l-1.8-1l-0.4-0.3l-0.1-0.4l0.1-0.6
	l-0.6-0.9l-0.1-0.7v-0.3l1.5-0.3l2.1-1.1l2-1.5l1.6-1.5l1.7-3.5l0.5-1.5l1.6-3.8l0.4-1.4l0.1-0.6l0.1-0.4l0.4-0.3l0.5-0.2l0.4-0.3
	l2.4-2.5l0.8-0.6l3.1-1.1l0.5-0.4l0.2-0.4l1.1-0.7l0.4-0.3l0.2-0.6l0.2-1.4l0.2-0.5l0.9-0.5l1.2-0.2l2.1-0.1l1.1-0.2l0.8-0.6
	l0.7-0.6l3.6-2.5l1.8-0.5l0.9-0.8l0.7-0.8l0.8-0.6l0.9-0.2l3.8-0.3v1.2l-0.1,1.1l-0.2,0.8l-1.6,4.8L454.6,54.8L454.6,54.8z"/>
<path id="DZA2203" class="st0" d="M488.8,75.4l-0.4,1.5l-1.3,1.7l-0.7,0.7l-0.7,0.4H485l-1.3-0.5l-0.7-0.1l-0.8,0.2l-0.3,0.7
	l-0.2,0.9l-0.1,1.9l-0.1,1.1l-0.7,3.1l-1.9,0.1l-1,0.3l-2.6,1.5l-1.8,0.6l-2.3,1.5l-1.4,0.1l-0.4,0.2v0.4l0.2,0.4l0.4,0.4l0.1,0.5
	l-0.5,0.1l-0.5-0.5l-0.7-0.3l-0.5,0.1l-0.4,0.1l-0.5,0.4l-3.4,3.7l-0.3,0.5l-0.1,0.4l0.2,0.9l-0.2,0.7l-0.4,0.3l-0.4,0.1l-0.8-0.1
	l-1-0.3l-2.3-0.4l-2.6-1.2l-3.2-0.5l-0.8-0.4l-0.5-0.5l-0.4-0.5l-1-0.7l-0.8-0.1l-0.8,0.1l-1,0.3l-0.9-0.1l-0.9-0.5l-1.5-1.4
	l-1.2-0.9l-1.1-0.3l-1.1-0.1l-0.9,0.1l-1.7,0.4l-0.7,0.1l-1.2-0.2l-0.7-0.6l-0.5-1l-0.4-1.1l-0.4-2.3l-0.5-1.6l-1.8-1.6l0.3-1
	l0.8-0.7l0.6-0.5l0.5-0.7l1.5-1.3l0.6-0.5l0.5-0.3l0.4-0.1h0.4l0.8,0.1l0.8-0.2l0.7-0.5l0.9-0.9l0.6-0.7l0.3-0.5l0.2-0.5l0.7-3v-0.4
	l-0.3-0.3l-0.4-0.2l-0.2-0.2v-0.3l0.1-0.7l0.3-0.7l0.6-1.2l0.5-0.3l0.5-0.2l0.4,0.1l1.4-0.2l0.4-0.1l0.6-0.3l0.2-0.2l0.1-0.5
	l0.1-1.1l0.1-0.9v-1.4l0.1-0.7l0.3-0.3l0.4-0.3l1.3-0.4l0.6-0.4l0.4-0.4l0.6-1.3l0.3-0.5l1.7-1.7L453,57l0.5-1l1.1-1.2l1.5,0.6
	l0.9,0.1h0.8l2-0.8l2.8-0.8h0.8l0.6,0.2l0.1,0.5l0.2,1.7l0.2,0.6l0.9,2.5v0.4v0.4l-0.4,0.9v0.4l0.1,0.5l1.3,2l0.4,0.3l0.5,0.1
	l1.8-0.1l1.8,0.1l0.3,0.2l0.3,0.3l0.6,1l0.3,0.6l0.3,0.5l0.5,0.3l0.7,0.4l1.8,1.2l0.9,0.3l0.8,0.1l4.6-1.4l0.5-0.1l0.4,0.2l0.3,0.3
	l1,2.4l0.4,0.7l0.8,1l0.3,0.4l0.4,1l0.6,0.6l0.4,0.3L488.8,75.4L488.8,75.4z"/>
<path id="DZA2204" class="st0" d="M444.4,120.2l6.4-0.5l1.3,0.3l0.1,1.3l0.3,0.6l1.1,0.7l1.7,0.8l1,0.7l0.7,0.8l1,1.3l0.4,0.7
	l0.1,0.9l-0.1,0.6l-0.4,0.8l-4.5,4l-0.5,0.6l-0.2,0.8l0.1,1.3l0.2,1.8l1,3.2l7.9,13.7l-0.1,0.6l-0.3,0.5l-0.5,0.4l-3,1.6l-0.9,0.7
	l-1.4,0.1l-1.6,0.7l-3.5,2.2l-0.2,0.1l-10.5,6.5l-0.4,0.4l-2,1.7l-0.5,0.2l-2.9-0.1l-1,0.1l-0.8,0.3l-0.7,0.4l-0.5,0.8l-0.4,0.9
	l-0.3,0.9l-0.4,0.5l-0.7,0.8l-1.8,1.5l-1.4,1.5l-0.4,0.7l-0.5,1l-0.6,1.6l-0.8,0.1l-1,0.6l-2.3,1.7l-2.1,1.1l-0.6,0.1l-0.2-0.2
	l-0.1-0.5l0.2-0.6l-0.1-0.9l-0.1-1.7l-0.3-1.1l-0.3-0.3l-0.4-0.3l-1.4-0.3H414l-0.6,0.1l-0.4,0.4l-1.7,0.6l-0.9,0.3l-0.5,0.2
	l-0.4,0.3l-1.5,1.8l-1.7,2.5l-0.4,0.8l-0.4,0.4l-0.7-0.1l-0.6,0.1l-0.4,0.3l-0.1,0.4v0.5v0.7v0.4l-0.3,0.3l-0.5-0.3l-0.9-1l-0.1-0.5
	v-0.5l0.1-0.4l-0.1-0.7l-1.3-3.5l-3.6-7.2l-0.3-1l-0.3-1.1l0.1-0.7l0.6-1.4l20-17.6l0.2-0.3l0.3-0.9l0.3-1l0.1-1.2l-0.1-1l-0.3-0.8
	l-2.5-3.8l-1.6-1.6l-1.7-1.3l-0.4-0.4l-0.8-0.6l-0.2-0.3v-0.7l-0.1-0.4l-0.2-0.3l-0.5-0.2h-1.2l-0.2-0.1l-0.2-0.4l-0.4-0.3l-0.9-0.3
	l-0.3-0.2l-0.2-0.3v-0.4v-0.8l-0.3-0.6l-0.7-0.5l-1.9-0.8l-0.3-0.2l-0.2-0.3v-0.3l0.3-0.5l0.5-0.3h0.3l0.4,0.3h0.3l1-0.5l1.2-0.3
	l0.3-0.2l0.3-0.2l0.1-0.3l-0.1-0.3L407,130l-0.4-0.3l-0.2-0.4l-0.1-0.5l0.2-1.6l-0.1-0.4l-0.3-0.4l0.1-0.4l0.2-0.4l0.1-0.6l0.2-0.3
	l0.2-0.2l0.2-0.1l0.4,0.1l0.5,0.2h0.3l0.3-0.1l0.3-0.2l0.3-0.5v-0.3l-0.1-0.3l-0.5-0.4l-0.1-0.4l-0.2-1V121v-0.8l0.4-0.7l0.4-0.4
	h0.3l0.7-0.1l0.5-0.3l0.4-0.4l0.4-0.3h0.4l0.8,0.1l1.4-0.3l0.3-0.5l0.2-0.8l0.3-0.5l0.4-0.2l0.3,0.1l0.3,0.4l0.3,0.6v0.6v0.8
	l0.1,0.7l0.3,0.3l0.5,0.4l0.7,0.1l0.4,0.3l0.8,0.8l1,0.7h0.5l0.4-0.3l0.4-0.9l0.6-0.5l0.9-0.1l1.3,0.3h0.8l0.7-0.3l0.5-0.1l0.6,0.3
	l0.6,0.7l0.8,1.6l0.6,0.8l1.2,0.8l0.9,0.2l1-0.3l0.8-0.3l0.8-0.3l1.5-0.3l1.8-0.8l0.8-0.1l2,0.5l1,0.1l1-0.3l0.9-0.5l1.4-1.1
	L444.4,120.2L444.4,120.2z"/>
<path id="DZA2205" class="st0" d="M529.3,92.2l1.7,7.1l0.1,6.6l0.3,0.4l0.4,0.4l0.8,0.5l0.5,0.1l0.9,0.2l0.3,0.3l0.3,0.5l0.7,1.4
	l0.3,0.8l0.1,0.9l-0.3,0.7v0.7l0.2,0.4l0.3,0.4l10.5,8.5l0.6,0.7l0.2,0.7l-0.4,0.5l-0.7,0.3l-3.4,1l-0.2,0.1l-0.8,1.6l-2.2,6l-1,1.7
	l-3.4,3.8l-0.6,4.9l-2,0.1l-3.7,0.7l-0.9,0.3l-0.4,0.4l-0.4,0.8l-0.4,0.7l-0.7,0.8l-4.5,2.6l-5.2,4.5l-1.1,0.7l-6,1.8l-1.3,0.9
	l-1.8,1.5l-2.6,2.9l-1.2,1.7l-0.8,1.6l-0.3,1.2l-0.5,1.5l-0.8,0.9l-14.7,11l-2.6-3.3l-1-2.4l-0.6-1l-0.9-0.5l-1.9-0.3l-7.4,0.5
	l-0.7-0.2l-0.3-0.6v-1l0.7-7l-0.9-1l-2-1.5l-10.4-3.3l0.9-0.7l3-1.6l0.5-0.4l0.3-0.5l0.1-0.6l-7.9-13.7l-1-3.2l-0.2-1.8l-0.1-1.3
	l0.2-0.8l0.5-0.6l4.5-4l0.4-0.8l0.1-0.6l-0.1-0.9l-0.4-0.7l-1-1.3l-0.7-0.8l-1-0.7l-1.7-0.8l-1.1-0.7l-0.3-0.6l-0.1-1.3l-1.3-0.3
	l-6.4,0.5l1-2.8l2.5-3.4l1.3-3.1l0.6-1l0.6-0.9l0.7-0.5l0.7-0.4l0.7-0.3l0.7-0.2h0.5l0.7,0.1l1.8,0.7l0.7,0.3l0.6,0.2l0.7-0.1
	l1.2-0.6l0.8-1l2.3-3.1l0.5-0.9l0.1-0.7l-0.3-0.4l-1.7-1l-0.5-0.5l-0.3-0.4l0.3-1.1l1,0.3l0.8,0.1l0.4-0.1l0.4-0.3l0.2-0.7l-0.2-0.9
	l0.1-0.4l0.3-0.5l3.4-3.7l0.5-0.4l0.4-0.1l0.5-0.1l0.7,0.3l0.5,0.5l0.5-0.1l-0.1-0.5l-0.4-0.4l-0.2-0.4v-0.4l0.4-0.2l1.4-0.1
	l2.3-1.5l1.8-0.6l2.6-1.5l1-0.3l1.9-0.1l1.1,1.4l0.5,0.2l0.6,0.1l0.6-0.3l0.3-0.6l0.4-1.8l0.3-0.8l0.4-0.7l0.7-0.1l0.6,0.2L487,85
	l1.3,0.2l2.7,1.3l0.6,0.4l0.4,0.5l0.2,0.7l0.2,1.3l0.3,0.7l0.4,0.1l0.7-0.2l0.9-0.4l1.2-0.2l0.9,0.6l1.5,1.8l1.3,0.9l1.1,0.2
	l0.7-0.4l0.5-1.2l0.5-0.4l0.3,0.1l0.3,0.4l0.3,0.5l0.3,0.3l0.5,0.3l0.8,0.1l5.5-0.2l4.4-1l4.9-0.2l0.5,0.3l0.2,0.6l0.1,0.6l0.1,0.4
	h0.5l1.6-0.6l2.3-0.4L529.3,92.2L529.3,92.2z"/>
<path id="DZA2206" class="st0" d="M503.4,70.5l4.4,1.3l1.5,1.6l0.3,0.6l0.6,0.3l0.6-0.4l0.8-1.1l0.7-0.2l2.4,0.7l0.8-0.2l0.4-0.4
	l0.2-0.9l0.5-0.6l1.1-0.4l1.7,0.3l2.6,0.1l2.3-0.4l1.2,0.1l1.2,0.3l2.3,1.4l3.3,1.3l-3.4,7.3l-0.7,0.7l-0.9,0.4l-0.9,0.1l-0.8,0.3
	l-0.5,0.6l-0.2,0.6l0.1,0.9l0.4,1l1,1.2l0.8,0.5l1.8,0.8l0.5,0.6l0.4,0.6l-0.6,2.7l-4.3-0.1l-2.3,0.4l-1.6,0.6h-0.5l-0.1-0.4
	l-0.1-0.6l-0.2-0.6l-0.5-0.3l-4.9,0.2l-4.4,1l-5.5,0.2l-0.8-0.1l-0.5-0.3l-0.3-0.3l-0.3-0.5l-0.3-0.4l-0.3-0.1l-0.5,0.4l-0.5,1.2
	l-0.7,0.4l-1.1-0.2l-1.3-0.9l-1.5-1.8l-0.9-0.6l-1.2,0.2l-0.9,0.4l-0.7,0.2l-0.4-0.1l-0.3-0.7l-0.2-1.3l-0.2-0.7l-0.4-0.5l-0.6-0.4
	l-2.7-1.3L487,85l-0.7-0.4l-0.6-0.2l-0.7,0.1l-0.4,0.7l-0.3,0.8l-0.4,1.8l-0.3,0.6l-0.6,0.3l-0.6-0.1l-0.5-0.2l-1.1-1.4l0.7-3.1
	l0.1-1.1l0.1-1.9l0.2-0.9l0.3-0.7l0.8-0.2l0.7,0.1l1.3,0.5h0.7l0.7-0.4l0.7-0.7l1.3-1.7l0.4-1.5l-0.2-0.7l0.2-0.7l0.4-0.3l1.5-1
	l0.2-0.4l-0.4-0.9l0.1-0.3l0.3-0.3L493,70l0.3-0.2l0.2-0.3l0.2-0.5l0.1-1.1l0.2-0.3l0.8-0.8l0.6-1.1l0.3-0.1h0.4l1.2,1.1l0.3,0.3
	l0.1,0.4l0.2,0.9l0.3,0.5l0.3,0.3l1.3,0.8l1.7,0.8l0.6,0.1L503.4,70.5L503.4,70.5z"/>
<path id="DZA2207" class="st0" d="M652.6,43.1l-0.6,0.8l-0.1,0.5l-0.1,0.7l0.3,0.7l0.7,1l0.8,0.7l0.8,0.1h0.7l2.2,0.3h0.7l1.5-0.2
	l2.3-0.8h0.7l1.4,0.3l1.4,0.6l0.5,0.4l0.5,0.8l1.1,2.1l0.9,0.8l0.9,0.2l0.8-0.3l0.7-0.5l0.6-0.2l0.5,0.3l0.2,0.4l0.2,0.8l0.1,0.8
	l0.2,0.7l0.4,0.1l0.3-0.2l0.5-0.5l0.5,0.1l0.3,0.4v1l-0.1,0.7l-0.4,0.9l-0.8,1l-0.8,0.4l-0.7,0.2l-0.4,0.3l-0.2,0.4l0.2,0.8l0.4,1.2
	v0.5l-0.5,0.8l-0.2,0.5l-0.1,1.2l-0.2,1l-1.1,2l-0.4,1.1l-0.3,1.7l-0.1,1.4l0.2,2.5v0.8l-0.3,0.5l-0.6,0.2l-2.1,0.1l-0.6,0.2
	l-0.3,0.6l-0.2,0.5v2.6l-1.9-0.1l-0.8-0.3l-1.1-0.7l-1.1-1l-0.4-0.3l-0.8-0.2l-0.5-0.1l-0.6-0.4l-0.4-0.4l-1.1-1.5l-0.5-0.5
	l-0.5-0.2h-0.8l-1.7,0.4l-1.9,0.1l-0.7,0.1l-1.5,0.4l-3.7,1.7l-1,0.3l-1,0.1l-4.9-0.1l-0.8-0.2l-0.8-0.3l-0.8-1l-0.2-0.7l0.2-0.6
	l1.5-1.3l0.4-0.6l0.2-0.6l0.3-0.9l0.3-0.4l1-0.1l0.5-0.2l0.2-0.2V69l-0.2-0.4l-0.5-0.7l-0.2-0.6l-0.4-1.1l-0.2-1l-0.2-0.4l-0.2-0.4
	l-0.3-0.2h-0.6l-1,0.4l-1.8,1.3l-1,0.5l-1.2,0.1l-1.6-0.2l-6.3-1.4l-1.5,0.2l-0.7,0.3l-0.3,0.3l-0.1,0.2l-0.2,0.3h-0.4h-0.6
	l-1.2-0.3l-0.4-1l-0.2-0.3l-0.7-0.4l0.4-1l0.3-0.3l1.5-1.3l0.7-0.9l0.5-1.2l0.6-2.2l0.4-1l0.7-0.9l2.2-1.9l1.1-1.3l2.3-3.6l2.4-3.1
	l1,1.3l0.7,3.1l0.8,1.8l0.8,0.7l1,0.2l3.2-0.2l0.7-0.1l1.7-0.7l2.9-0.5l0.4-0.3l0.2-0.6l-0.2-0.7l-0.1-0.7v-0.8l0.2-1.8l0.2-0.5
	l0.4-0.4l1.7-0.8l0.7-0.5l0.6-0.6l1.3-2.1l0.7-0.6l0.5-0.2h0.5l0.3,0.2l0.3,0.4l0.7,1.6L652.6,43.1L652.6,43.1z"/>
<path id="DZA2208" class="st0" d="M682.9,26l0.4,1.9l-0.2,0.6l-0.2,0.3v0.3l0.2,0.2l1.2,0.4l0.9,0.7l-0.7,1.1l-0.2,0.7V33l0.1,0.9
	l0.2,1v0.4l-0.1,0.4l-0.4,0.4l-1.3,0.9l-0.9,0.4l-1.8,0.4l-1.6,0.8l-0.4,0.3l-0.3,0.3l-0.3,0.6l-0.2,0.7l0.1,0.7l-0.2,0.8l-0.3,0.5
	l-1.3,0.5l-1,0.1l-1.6-0.3l-0.8-0.5l-0.9-0.9v-0.5l0.3-1.4v-0.6l-0.2-0.7l-0.3-0.6l-0.8-1.1l-0.1-0.3l0.3-0.3l0.5-0.4l0.4-0.4
	l0.2-0.5v-0.4l-0.3-0.4l-1.5-1.2l-0.7-0.6l-0.3-0.3l-0.5-0.2l-1.2-0.3h-0.5l-0.7,0.2l-0.6,0.7l-0.1,0.6l-0.1,0.8l-0.2,0.5l-0.5,0.4
	l-0.8,0.1l-1.4-0.4l-2.1,1.2l-0.3,0.4l-0.1,0.2l0.3,0.5l1.2,0.9l0.4,0.4v0.4l-0.3,0.4l-0.9,0.5l-0.5,0.6l-0.2,0.6v0.6l-0.2,0.6
	l-0.3,0.5l-0.7,0.6l-0.7,0.4l-1,0.3l-0.8,0.1l-3.4-0.2l-0.3-0.5l-0.7-1.6l-0.3-0.4l-0.3-0.2h-0.5l-0.5,0.2l-0.7,0.6l-1.3,2.1
	l-0.6,0.6l-0.7,0.5l-1.7,0.8l-0.4,0.4l-0.2,0.5l-0.2,1.8v0.8l0.1,0.7l0.2,0.7l-0.2,0.6l-0.4,0.3l-2.9,0.5l-1.7,0.7l-0.7,0.1
	l-3.2,0.2l-1-0.2l-0.8-0.7l-0.8-1.8l-0.7-3.1l-1-1.3l0.5-0.5l0.6-0.4l0.6-0.3l0.3-0.3l0.1-0.4l-0.2-0.9l0.1-0.8l0.1-0.6l0.2-0.4
	v-0.5l-0.1-0.6l-1-1.2l-0.5-1l2.7-0.9l1.3-0.8l3.6-4.1l0.5-0.7l0.6-1.7l2-3.2l0.3-0.8l0.1-0.8l-0.3-0.5l-0.3-0.3l-0.5-0.2l-1-0.4
	l-0.4-0.3l-0.3-0.5l-0.1-0.4l0.2-0.8l0.4-0.4l0.6-0.4l0.7-0.1l0.5,0.1l1.2,0.5l0.5,0.1l0.5-0.3l0.2-0.6l0.3-1.3l0.1-0.6l-0.1-0.6
	l-0.1-0.4l-2-3l-0.3-0.7l-0.1-1l-0.1-0.4h1.5l3.6,0.3l3.5-0.4l0.8,0.1l7.9,3.4l0.9,0.8l0.2,0.4l0.6,0.2l0.7-0.1l0.5,0.1l0.3,0.3
	l0.4,0.8l0.2,0.2l0.8,0.4l1,0.3l1,0.1h0.9l-1,2.9l0.3,1l1.3,1.1l5.7,2.9l1.6,0.4l1.7,0.1l3.3-0.5L682.9,26z"/>
<path id="DZA2209" class="st0" d="M588.6,24.5l1.5,2.8l0.1,0.6v0.5l-0.5,0.4l-0.3,0.3l-0.8,1.3l-0.4,0.5l-0.6,0.3l-0.6,0.3l-5.2,1
	l-0.7,0.3l-0.5,0.5l-0.3,0.5l-0.5,1.2l-0.6,1.5l-1.8,0.4l-1.2,0.1l-0.8,0.4l-0.4,0.4l-0.3,0.7l-0.3,0.7l-1,0.9l-1.2,0.7l-1.7,0.6
	l-2.4,1.5l-1.3,1.1l-0.8,0.5l-0.6,0.2l-0.7-0.1l-0.7-0.4l-0.8-0.7l-0.5-0.9l-0.4-0.9l-0.4-0.6l-0.7-0.1l-0.5,0.4l-1.1,1.2l-0.7,0.6
	l-0.8,0.5l-1,0.3h-0.9l-1.1-0.2l-4.8,0.4l-1.1-0.1l-0.4-1.8l-0.2-0.2l-0.3-0.1l-1.2,0.7l-1.4,0.3l-2.3,0.9l-0.9,0.1l-0.4-0.4
	l-0.1-0.7l-0.2-0.3l-0.5-0.2l-0.5-0.6l-0.5-1.2l0.4-2.3L541,38l0.4-0.4h0.4l1.4,0.4l0.4,0.1l1.8-0.1l1-0.2l0.5-0.4l0.4-0.6l0.2-1
	l0.4-0.7l0.8-0.5l2.2-2.1l0.9-0.7l0.8-0.5l0.9-0.3l3-1.5l0.7-0.6l0.2-0.5l0.1-0.4l0.2-0.4l0.5-0.2l5.5,0.2l0.7-0.2l0.4-0.2l0.3-0.4
	l0.6-0.3l1-0.2l0.3-0.2l0.2-0.2l0.1-0.3l-0.1-0.4l-0.4-1.2v-0.8l1.4,0.4l0.4,0.7v1l0.4,0.9l0.6,0.4l0.7,0.2h0.6l0.6-0.2l0.6-0.3
	l2.3-0.4l2.3-1.2l2.8-1.3l1.7-0.3l1.5-0.1l0.8,0.2l0.5,0.4l0.4,0.6l2.3,1l0.5,0.1l0.4-0.2L588.6,24.5L588.6,24.5z"/>
<path id="DZA2210" class="st0" d="M601,29.4l1.4,2.4l1.5,1.2l1.2,0.9l1.6,1.6l1.8,1.1l2.3,0.8l12.1,0.5l0.8-0.2l1.5-0.7l0.7,0.1
	l2.1,0.6h0.8l2.1-0.5l0.9,0.3l0.5,1l1,1.2l0.1,0.6v0.5l-0.2,0.4l-0.1,0.6l-0.1,0.8l0.2,0.9l-0.1,0.4l-0.3,0.3l-0.6,0.3l-0.6,0.4
	l-0.5,0.5l-2.4,3.1l-2.3,3.6l-1.1,1.3l-2.2,1.9l-0.7,0.9l-0.4,1l-0.6,2.2l-0.5,1.2l-0.7,0.9l-1.5,1.3l-0.3,0.3l-0.4,1l-1.9,4.9
	l-0.3,2.3l0.1,0.8v0.9l-0.3,0.6l-0.6,0.2l-0.8-0.3l-1.9-1l-0.6-0.1H611l-0.7,0.4l-1.6,1l-1,0.3h-1l-1-0.4l-0.7-0.7l-0.5-0.6L604,72
	l-0.5-0.3l-0.6-0.2l-0.6-0.3l-1-1l-0.2-0.1l-1.4-0.1l-3.8,0.5l-2.4-4.5l-0.7-3.1l-0.1-1.7v-1.6l0.6-5.2v-1.7l-0.2-1.1l-0.8-2.5
	l-0.1-1l0.1-0.6l0.2-0.4l0.9-0.8l0.3-0.6l-0.1-0.7l-0.8-1.5l-0.1-1v-1.3l-0.3-0.6l-0.5-0.4l-0.6-0.1l-1.1-0.5h-0.5l-0.4,0.2
	l-1.6,0.6l-0.5,0.4l-0.6,0.8l-0.6-0.1l-0.9-0.6l-1.1-1.5l-0.9-1l-1-0.6l-2.9-1.2l0.6-1.5l0.5-1.2l0.3-0.5l0.5-0.5l0.7-0.3l5.2-1
	l0.6-0.3l0.6-0.3l0.4-0.5l0.8-1.3l0.3-0.3l0.5-0.4v-0.5l-0.1-0.6l-1.5-2.8l3,0.7l1.4-0.1l1.9-0.8l0.8-0.2l0.6,0.1l0.6,0.1l0.9,0.4
	l0.4,0.3l0.2,0.4l0.1,0.4l-0.2,0.6l-1.4,1.8l-0.3,0.7l-0.2,0.5l0.2,0.4L597,30h0.8L601,29.4L601,29.4z"/>
<path id="DZA2211" class="st0" d="M739,138.4h0.8h0.6l2.4-0.7l0.8-0.1h0.7h0.4l0.4,0.2l0.2,0.2l0.4,0.6l0.7,1.9l0.3,1l0.1,0.8
	l-0.4,2.4l-0.1,2l-0.2,2.1l-0.8,3.7l-0.7,2.4l-0.2,0.5l-0.2,0.8v0.6l0.4,3.1l-0.4,2.1l-1.7,1.5l-1.7,1l-1.7,0.7l-1.6,0.3H736l-1-0.2
	l-0.7-0.2l-1-0.4l-0.7-0.6l-0.5-0.6l-0.4-0.6l-0.4-0.5l-2.8-1.3l-7.7-2.2h-0.9l-9.4,2l-25.2-3.2l-4.6-1.5l-3-1.4l-0.4,0.1l-0.3,0.3
	l-0.3,0.8l0.1,0.9l-0.1,0.8l-0.6,0.6l-0.8,0.5l-2,0.8l-0.6,0.3l-0.5,0.5l-0.4,0.6l-0.3,0.7l-0.2,0.7l-0.1,0.8l0.2,0.4l0.2,0.3l3.4,3
	l1.8,2.2l1.5,2.2l0.5,1l0.8,2l0.5,2.1l0.1,1.3l0.1,2.9l-1.9,12.4l-0.4,1.3l-0.6,1.1l-2.1,2.2l-2.5,3.3l-4.7,8l-34.6-20.7l-2.1-1.7
	l-1-1.1l-0.3-0.6l-0.4-1.5l-0.9-6l-0.2-0.6l-0.3-0.6l-0.5-0.4l-1.6-0.4l-1-0.4l-0.8-0.6l-0.3-0.5l-0.1-0.4l0.3-0.9V172l-0.1-1.5
	l3.5-0.2l0.6-0.2l0.7-0.3l0.2-0.4l-0.1-0.7l-0.4-0.6l-0.6-0.7l-0.6-0.7l-0.7-1.8l-1.2-1.7l-0.6-1.1l-1.1-5.2l-0.3-0.7l-0.4-0.4
	l-0.3-0.5l-0.1-0.9l0.6-1.1l1.8-2.1l0.6-1.1l0.6-1.5l0.7-1.1l3.6-3.8l0.8-1.1l1.5-2.2l0.9-1l1-0.6l0.9-0.1h0.8l1.5,0.3h0.6l0.7-0.2
	l2-0.6l2.2-0.3l4.2-1.5l0.7-0.1l1.3,0.2l0.8-0.1l1.3-0.4l0.6-0.1l0.8,0.2h0.8l4.9-1.2l1.3-0.6l2-1.5l1.3-1.5l0.6-1.1l0.1-1.1
	l-0.2-8.6l1.7,0.1l3.3,1.7l2.1,1.3l2.4,0.6l1.8,0.1l1.6-0.1l1.2-0.6l1.3-0.8l1-0.5l1-0.3l5.6-0.3l1.1-0.2l0.7-0.3l0.7-0.5l0.5-0.3
	l1-0.4l0.5-0.4l0.3-0.5l-0.1-0.7l-0.1-0.4l-0.3-0.6l-0.2-0.4l-2-1.8l-0.4-0.7l0.2-0.4l3.5-0.9l4.2-2.6l2.2-1.1l3-1.1h0.5l0.5,0.2
	l1.7,1.5l4.1,1.7h1.1l0.7,0.1l0.3,0.2l0.1,0.6l-0.4,0.7l-0.5,0.6l-1.9,1.7l-0.6,0.7l-0.2,0.5l0.6,2.2l-0.1,0.9l-0.8,1.8v1l0.6,0.9
	l1.2,1l0.5,0.6l0.9,0.8h0.9l0.6-0.4l0.3-0.2l0.7-2.2l0.4-0.8l0.4-0.4l0.5-0.1l0.6,0.1l0.6,0.3l0.5,0.5l0.3,0.7l0.2,0.7l0.4,1.1
	l0.4,0.2l0.7,0.3h0.9l1.1-0.5h0.2l0.9,0.1l0.2-0.3l0.4-1l0.5-0.6l1.4-0.8l0.7-0.3l0.8-0.1h1.2l2.5-0.5l1.1-0.4l0.9-0.1l0.8,0.2
	l0.9,1.1l0.5,0.8l0.1,0.9l-0.2,0.5l-0.4,1l-0.1,0.6l-0.1,0.9v2.4l-0.6,3.2v1l0.4,1l0.6,0.8l0.8,0.7l1.5,1.8l0.4,0.4l0.7,0.3l0.9,0.2
	l0.8,0.1l1.1-0.3L739,138.4L739,138.4z"/>
<path id="DZA2212" class="st0" d="M583.9,80.8l2.8,4.7l0.6,0.8l3.5,2.9l0.7,0.4l1.1,0.9l5.8,5.5l0.5,0.6l0.3,0.8l0.1,1.1l-0.1,1
	l-0.3,0.9l-0.3,0.7l-0.4,0.5l-0.4,0.5l-0.3,0.5l-0.2,0.6l0.2,0.9l0.4,2.3v0.8l-0.2,0.7l-0.5,0.6l-8.7,7.5l0.1,0.6l2.2,4.7l0.5,0.8
	l0.4,0.1h0.5l1.8-0.9l0.6-0.1l0.4,0.2v0.6l-0.2,0.5l-0.4,0.6l-0.5,0.5l-0.4,0.6l-0.3,0.5v0.6l0.3,0.7l0.6,1.5l0.2,0.6l0.1,0.6
	l-0.3,1.2v0.6l0.2,0.8l0.2,0.7l0.5,0.9l0.7,0.6l1,0.6l0.3,0.5l0.1,0.6l0.1,0.7l0.2,0.9l0.6,0.9l0.8,0.4h0.9l1.6-0.4h0.8l7.3,1.6
	l0.4,0.3l0.2,0.3l0.1,0.7l-0.2,1.8l0.1,1.1l0.1,1.1l2.1,7.5l0.7,1.7l2.4,3.4l0.4,1l0.1,1v1.1l-0.1,1.1l0.1,0.9l0.4,1l1,1.1l4.2,2.8
	l0.7,0.8l1.3,1.9l0.8,0.5l0.1,1.5v0.6l-0.3,0.9l0.1,0.4l0.3,0.5l0.8,0.6l1,0.4l1.6,0.4l0.5,0.4l0.3,0.6l0.2,0.6l0.9,6l0.4,1.5
	l0.3,0.6l1,1.1l2.1,1.7l34.6,20.7l-5.5,7.5l-1.1,6.1l-1.5,5.5l1.2,23.1l-38.8-10.8l-0.5-1.9l-2.3-6.2l-1.6-3.2l-1.3-1.6l-1.4-1.6
	l-18.8-16.5l-19.7-22.2l-3.5-6.1l-0.5-1.4l-0.4-1.3l-0.6-4.3l-1.2-3.4l-0.5-0.6l-1.1-0.5h-2.3h-0.8l-0.4-0.2l-1.1-0.7l-0.6-0.1
	l-0.7,0.1l-0.8,0.5l-3.6,3.4l-0.6,0.7l-0.4,0.8l-0.4,1.4l-0.5,0.5l-0.7,0.4l-2.3,0.8l-4.3,0.7l-0.6,0.2l-0.2,0.3l-0.2,0.5l-0.1,0.6
	l0.2,6.3l-0.1,1.8l-0.2,1.4l-0.2,0.3l-0.3,0.1h-1.7l-3.8-0.5h-1.4l-0.7-0.4l-0.4-0.7l-0.4-3.3v-0.6l0.3-1.4l1-3.1l0.1-1l-0.2-0.9
	l-0.6-1.4l-0.6-1.2l-0.7-1l-1.8-2l-0.6-1l-0.4-0.9l-0.8-5.1l-0.4-1.4l-0.5-1l-0.6-0.7l-1-1L532,160l-0.5-1.6l-0.1-2.1l0.4-3.3
	l0.4-1.9l0.7-1.3l1.3-1.5l0.4-0.9l0.3-0.7l-0.4-3.2l0.6-4.9l3.4-3.8l1-1.7l2.2-6l0.8-1.6l0.2-0.1l3.4-1l0.7-0.3l0.4-0.5l-0.2-0.7
	l-0.6-0.7l-10.5-8.5l-0.3-0.4l-0.2-0.4v-0.7l0.3-0.7l-0.1-0.9l-0.3-0.8l-0.7-1.4l-0.3-0.5l-0.3-0.3l-0.9-0.2l-0.5-0.1l-0.8-0.5
	l-0.4-0.4l-0.3-0.4l-0.1-6.6l9.3-3.2l2.4-0.4h0.1l3.7,2.9l0.7,0.3l0.8,0.3l0.8-0.1l0.9-0.2l0.7-0.4l0.8-0.7l0.5-0.8l0.9-1.4l0.2-0.4
	l0.5-0.7l0.9-0.8l5.7-4.6l0.5-0.6l0.3-0.5l0.1-0.7v-0.8l-0.2-1.8v-0.5l0.1-1.2l-0.1-0.5l-0.4-1.7l-0.2-0.9V79l0.3-0.6l0.4-0.3
	l0.6-0.1l0.9-0.1l1.4-0.3l1.1,0.2l0.6,0.6l0.3,0.6l0.3,1.4l0.3,0.7l0.3,0.6l1,0.6l0.2,0.4l0.2,0.5l0.4,1.6l0.4,0.5l0.8,0.2l4.7-0.8
	l0.9-0.5l0.5-0.5l0.4-0.9l0.7-3.1l0.5-1l0.7-0.7l0.5-0.1l0.4,0.3l0.6,1.2l0.4,0.7l0.6,0.5l0.7,0.3l0.7,0.1L583.9,80.8L583.9,80.8z"
	/>
<path id="DZA2213" class="st0" d="M595.9,70.5l0.1,0.8l0.2,1.2l-0.1,0.6l-0.3,0.5l-0.7,1l-0.1,1l-0.3,0.4l-1.9,0.7l-1.1,0.9
	l-0.2,0.7l0.1,0.9l0.6,1.4l0.2,0.9l0.1,0.9l-0.1,1.9l-0.2,0.8l-0.4,0.4l-0.9-0.8l-0.6-0.6l-0.4-0.8l-0.5-1l-0.6-1.1l-2.3-3.1
	l-0.6-0.4l-0.5-0.2l-0.5,0.4l-0.3,0.3l-0.7,2.6l-2.1,0.2l-0.7-0.1l-0.7-0.3l-0.6-0.5l-0.4-0.7l-0.6-1.2l-0.4-0.3l-0.5,0.1l-0.7,0.7
	l-0.5,1l-0.7,3.1l-0.4,0.9l-0.5,0.5l-0.9,0.5l-4.7,0.8l-0.8-0.2l-0.4-0.5l-0.4-1.6l-0.2-0.5l-0.2-0.4l-1-0.6l-0.3-0.6l-0.3-0.7
	l-0.3-1.4l-0.3-0.6l-0.6-0.6l-1.1-0.2l-1.4,0.3l-0.9,0.1l-0.6,0.1l-0.4,0.3L560,79v0.9l0.2,0.9l0.4,1.7l0.1,0.5l-0.1,1.2v0.5
	l0.2,1.8v0.8l-0.1,0.7l-0.3,0.5l-0.5,0.6l-5.7,4.6l-0.9,0.8l-0.5,0.7l-0.2,0.4l-0.9,1.4l-0.5,0.8l-0.8,0.7l-0.7,0.4l-0.9,0.2
	l-0.8,0.1l-0.8-0.3l-0.7-0.3l-3.7-2.9h-0.1l-2.4,0.4l-9.3,3.2l-1.7-7.1l0.6-2.7l-0.4-0.6l-0.5-0.6l-1.8-0.8l-0.8-0.5l-1-1.2l-0.4-1
	l-0.1-0.9l0.2-0.6l0.5-0.6l0.8-0.3l0.9-0.1l0.9-0.4l0.7-0.7l3.4-7.3l2.1-2.9l3.1-2.9l0.6-0.9l0.4-0.8l0.3-1.4l0.3-0.7l0.3-0.6
	l0.4-0.4l5.1-3.3l0.4-0.8l0.6-1.5l0.7-1.1l1.5-1.5l0.2-0.6V54l-0.3-0.2l-0.4-0.1H546l-0.9-0.4h-0.3l-0.3,0.2l-1.1,0.9l-0.5,0.2
	l-0.2-0.2l-0.4-0.5l-0.2-0.5l-0.3-0.5l-0.8-0.7l-0.2-0.7v-1l0.2-0.5l0.3-0.4l0.6-0.7l0.5-0.6l0.3-0.3l0.4-0.2l3-0.1l0.8-0.3l0.8-0.5
	l0.9-0.9l0.4-0.6l0.1-0.5l0.1-0.7l1.1,0.1l4.8-0.4l1.1,0.2h0.9l1-0.3l0.8-0.5l0.7-0.6l1.1-1.2l0.5-0.4l0.7,0.1l0.4,0.6l0.4,0.9
	l0.5,0.9l0.8,0.7l0.7,0.4l0.7,0.1l0.6-0.2l0.8-0.5l1.3-1.1l2.4-1.5l1.7-0.6l1.2-0.7l1-0.9l0.3-0.7l0.3-0.7l0.4-0.4l0.8-0.4l1.2-0.1
	l1.8-0.4l2.9,1.2l1,0.6l0.9,1l1.1,1.5l0.9,0.6l0.6,0.1l0.6-0.8l0.5-0.4l1.6-0.6l0.4-0.2h0.5l1.1,0.5l0.6,0.1l0.5,0.4l0.3,0.6v1.3
	l0.1,1l0.8,1.5l0.1,0.7l-0.3,0.6l-0.9,0.8l-0.2,0.4l-0.1,0.6l0.1,1l0.8,2.5l0.2,1.1v1.7l-0.6,5.2v1.6l0.1,1.7l0.7,3.1L595.9,70.5
	L595.9,70.5z"/>
<path id="DZA2214" class="st0" d="M664.9,79.2l0.2,0.6l0.3,0.3l0.7,0.6l1,0.7l3.4,1.4l0.3,0.4l0.3,1.2l0.8,0.8l1.3,0.8l7.4,1.8
	l-5.6,5l-1.4,0.8l-1.2,0.4l-1.8,1.1l-0.8,0.2L669,95l-0.8-0.4l-0.9-0.2h-2.9l-1.1,0.1l-0.8,0.3l-0.3,0.3l-0.6,0.7l-1.2,0.6l-0.7-0.1
	l-0.6-0.3l-0.2-0.2l-0.9-1.1l-0.4-0.3l-0.4-0.3h-0.4l-0.4,0.1l-0.1,0.4v0.5l0.9,3.5l0.3,2.1v2.2l-0.1,1.5l-0.5,3.2l-0.4,1l-0.8,1.2
	l-1.4,1.7l-1.8,1.6l-0.8,0.9l-0.3,0.7l0.1,0.4l0.2,0.4l0.3,0.3l0.5,0.2l3.6,0.3l1.3,0.2l1.2,0.4l1,0.5l1.1,0.7l0.7,0.9l0.6,0.9
	l0.4,0.4l0.5,0.1l0.7,0.1l0.5-0.1l0.2,8.6l-0.1,1.1l-0.6,1.1l-1.3,1.5l-2,1.5l-1.3,0.6l-4.9,1.2h-0.8l-0.8-0.2l-0.6,0.1l-1.3,0.4
	l-0.8,0.1l-1.3-0.2l-0.7,0.1l-4.2,1.5l-2.2,0.3l-2,0.6l-0.7,0.2h-0.6l-1.5-0.3h-0.8l-0.9,0.1l-1,0.6l-0.9,1l-1.5,2.2l-0.8,1.1
	l-3.6,3.8l-0.7,1.1l-0.6,1.5l-0.6,1.1l-1.8,2.1l-0.6,1.1l0.1,0.9l0.3,0.5l0.4,0.4l0.3,0.7l1.1,5.2l0.6,1.1l1.2,1.7l0.7,1.8l0.6,0.7
	l0.6,0.7l0.4,0.6l0.1,0.7l-0.2,0.4l-0.7,0.3l-0.6,0.2l-3.5,0.2l-0.8-0.5l-1.3-1.9l-0.7-0.8l-4.2-2.8l-1-1.1l-0.4-1l-0.1-0.9l0.1-1.1
	v-1.1l-0.1-1l-0.4-1l-2.4-3.4l-0.7-1.7l-2.1-7.5l-0.1-1.1l-0.1-1.1l0.2-1.8l-0.1-0.7l-0.2-0.3l-0.4-0.3l-7.3-1.6h-0.8l-1.6,0.4h-0.9
	l-0.8-0.4l-0.6-0.9l-0.2-0.9l-0.1-0.7l-0.1-0.6l-0.3-0.5l-1-0.6l-0.7-0.6l-0.5-0.9l-0.2-0.7l-0.2-0.8v-0.6l0.3-1.2l-0.1-0.6
	l-0.2-0.6l-0.6-1.5l-0.3-0.7v-0.6l0.3-0.5l0.4-0.6l0.5-0.5l0.4-0.6l0.2-0.5v-0.6l-0.4-0.2l-0.6,0.1l-1.8,0.9h-0.5l-0.4-0.1l-0.5-0.8
	l-2.2-4.7l-0.1-0.6l8.7-7.5l0.5-0.6l0.2-0.7v-0.8l-0.4-2.3l-0.2-0.9l0.2-0.6l0.3-0.5l0.4-0.5l0.4-0.5l0.3-0.7l0.3-0.9l0.1-1
	l-0.1-1.1l-0.3-0.8l-0.5-0.6l-5.8-5.5l-1.1-0.9l-0.7-0.4l-3.5-2.9l-0.6-0.8l-2.8-4.7l0.7-2.6l0.3-0.3l0.5-0.4l0.5,0.2l0.6,0.4
	l2.3,3.1l0.6,1.1l0.5,1l0.4,0.8l0.6,0.6l0.9,0.8l0.4-0.4l0.2-0.8l0.1-1.9l-0.1-0.9l-0.2-0.9l-0.6-1.4l-0.1-0.9l0.2-0.7l1.1-0.9
	l1.9-0.7l0.3-0.4l0.1-1l0.7-1l0.3-0.5l0.1-0.6l-0.2-1.2l-0.1-0.8l3.8-0.5l1.4,0.1l0.2,0.1l1,1l0.6,0.3l0.6,0.2L604,72l0.5,0.5
	l0.5,0.6l0.7,0.7l1,0.4h1l1-0.3l1.6-1l0.7-0.4h0.7l0.6,0.1l1.9,1l0.8,0.3l0.6-0.2l0.3-0.6v-0.9l-0.1-0.8l0.3-2.3l1.9-4.9l0.7,0.4
	l0.2,0.3l0.4,1l1.2,0.3h0.6h0.4l0.2-0.3l0.1-0.2l0.3-0.3l0.7-0.3l1.5-0.2l6.3,1.4l1.6,0.2l1.2-0.1l1-0.5l1.8-1.3l1-0.4h0.6l0.3,0.2
	l0.2,0.4l0.2,0.4l0.2,1l0.4,1.1l0.2,0.6l0.5,0.7L640,69v0.4l-0.2,0.2l-0.5,0.2l-1,0.1l-0.3,0.4l-0.3,0.9l-0.2,0.6l-0.4,0.6l-1.5,1.3
	l-0.2,0.6l0.2,0.7l0.8,1l0.8,0.3l0.8,0.2l4.9,0.1l1-0.1l1-0.3l3.7-1.7l1.5-0.4l0.7-0.1l1.9-0.1l1.7-0.4h0.8l0.5,0.2l0.5,0.5l1.1,1.5
	l0.4,0.4l0.6,0.4l0.5,0.1l0.8,0.2l0.4,0.3l1.1,1l1.1,0.7l0.8,0.3L664.9,79.2L664.9,79.2z"/>
<path id="DZA2215" class="st0" d="M697.8,32.5l0.8,0.8l0.2,0.4l0.4,0.6l0.2,0.7v1l-0.2,1.8v0.9l0.5,0.8l0.7,0.4l1,0.1h0.9l0.9,0.1
	l0.7,0.6l0.5,1.1l0.1,2.3l-0.1,3.8l-0.3,1.5v1.1l0.6,1l0.7,0.2h0.9l0.6,0.1l0.4,0.6l-0.2,1l-0.4,0.7l-0.6,0.4l-0.4,0.5v0.7l0.5,0.9
	l0.6,0.6l0.3,0.5l0.1,0.4v0.7l0.2,0.4L708,60l0.8,0.4l0.6,0.8l0.3,1.2l-0.5,5.8l0.3,0.9l-0.1,1.9l-1.4,1l-0.1,0.2v0.5l0.2,0.5V74
	l-0.4,0.2l-0.9-0.3l-2.1-1.6l-1.1-0.8L702,71l-1.1,0.1l-1.1,0.4l-1.5,1l-0.7,0.5l-0.5,0.6l-0.4,0.7l-0.1,0.6l0.2,0.6l0.5,0.3
	l0.8,0.3l0.6,0.5l0.3,0.6l-0.7,1.7l-0.5,0.7l-0.7,0.1l-1.9-0.8l-0.6-0.4l-0.5-0.5l-0.5-0.3l-1.2-0.5l-0.9-0.5l-0.8-0.2l-0.7,0.3
	l-0.4,0.6l-0.3,0.8L689,79l-0.9,0.4l-2.5,1.8l-0.3,0.5l-0.3,0.5l-0.1,0.7l-0.1,1.8l-0.3,0.9l-0.4,0.8l-0.7,0.9l-0.7,0.4l-0.7,0.2
	l-1.4-0.1l-7.4-1.8l-1.3-0.8l-0.8-0.8l-0.3-1.2l-0.3-0.4l-3.4-1.4l-1-0.7l-0.7-0.6l-0.3-0.3l-0.2-0.6v-2.6l0.2-0.5l0.3-0.6l0.6-0.2
	l2.1-0.1l0.6-0.2l0.3-0.5v-0.8l-0.2-2.5l0.1-1.4l0.3-1.7l0.4-1.1l1.1-2l0.2-1l0.1-1.2l0.2-0.5l0.5-0.8V61l-0.4-1.2l-0.2-0.8l0.2-0.4
	l0.4-0.3l0.7-0.2l0.8-0.4l0.8-1l0.4-0.9l0.1-0.7v-1l-0.3-0.4l-0.5-0.1l-0.5,0.5l-0.3,0.2l-0.4-0.1l-0.2-0.7l-0.1-0.8l-0.2-0.8
	l-0.2-0.4l-0.5-0.3l-0.6,0.2l-0.7,0.5l-0.8,0.3l-0.9-0.2l-0.9-0.8l-1.1-2.1l-0.5-0.8l-0.5-0.4l-1.4-0.6l-1.4-0.3h-0.7l-2.3,0.8
	l-1.5,0.2h-0.7l-2.2-0.3h-0.7l-0.8-0.1l-0.8-0.7l-0.7-1l-0.3-0.7l0.1-0.7l0.1-0.5l0.6-0.8l3.4,0.2l0.8-0.1l1-0.3l0.7-0.4l0.7-0.6
	l0.3-0.5l0.2-0.6v-0.6l0.2-0.6l0.5-0.6l0.9-0.5l0.3-0.4v-0.4l-0.4-0.4l-1.2-0.9l-0.3-0.5l0.1-0.2l0.3-0.4l2.1-1.2l1.4,0.4l0.8-0.1
	l0.5-0.4l0.2-0.5l0.1-0.8l0.1-0.6l0.6-0.7l0.7-0.2h0.5l1.2,0.3l0.5,0.2l0.3,0.3l0.7,0.6l1.5,1.2l0.3,0.4v0.4l-0.2,0.5l-0.4,0.4
	l-0.5,0.4l-0.3,0.3l0.1,0.3l0.8,1.1l0.3,0.6l0.2,0.7v0.6l-0.3,1.4v0.5l0.9,0.9l0.8,0.5l1.6,0.3l1-0.1l1.3-0.5l0.3-0.5l0.2-0.8
	l-0.1-0.7l0.2-0.7l0.3-0.6l0.3-0.3l0.4-0.3l1.6-0.8l1.8-0.4l0.9-0.4l1.3-0.9l0.4-0.4l0.1-0.4v-0.4l-0.2-1l-0.1-0.9v-0.8l0.2-0.7
	l0.7-1.1l1.1,0.4l0.3,1.1v0.7l0.3,0.9l0.5,0.5l0.5,0.3l0.6,0.1h0.5l0.6-0.2l0.4-0.3l0.8-0.8l0.4-0.3l0.7-0.3l0.5,0.1l1.2,0.9
	l0.7,0.1l0.6,0.1L697.8,32.5L697.8,32.5z"/>
<path id="DZA2216" class="st0" d="M717.8,71.9l6.1,2h0.9l1-0.1l0.7-0.9l0.5-0.2l0.5,0.1l1.3,1.3l0.7,0.4l0.8,0.2l2.4,0.2l0.4,0.2
	l0.5,0.4l0.2,0.7v0.6l-0.1,0.7v0.7l0.4,0.8l0.7,0.1l0.9-0.2l2.9-1.1l1.1-0.1h1.1l1.1,0.4l2.4,1.8l3.4,4.9l0.3,2.9l0.6,2.6l-0.1,0.9
	l-0.2,0.8l-0.7,1.5l-0.5,0.7l-0.7,0.7l-1,0.5l-2.6,0.9l-0.9,0.4l-1,0.7l-0.8,0.8l-0.9,1.3l-0.3,0.8l0.1,1.8l-0.2,2v0.9l0.2,0.6
	l0.5,0.3l0.7-0.2h0.4l0.3,0.2v0.7l-0.4,0.8l-1.8,1.9l-0.6,1l-0.6,4l-1.8,3.2l-0.3,0.8l-0.1,0.7l-0.1,2.2l0.1,1l0.3,0.9l1.4,2.3
	l1.8,3.9l0.3,0.9l0.4,1l-0.2,0.5l-1,2.1l-0.2,1v0.8l0.2,0.8l0.4,1.4l0.3,0.6l-0.4,0.5l-1.1,0.3l-0.8-0.1l-0.9-0.2l-0.7-0.3l-0.4-0.4
	l-1.5-1.8l-0.8-0.7l-0.6-0.8l-0.4-1v-1l0.6-3.2v-2.4l0.1-0.9l0.1-0.6l0.4-1l0.2-0.5l-0.1-0.9l-0.5-0.8l-0.9-1.1l-0.8-0.2l-0.9,0.1
	l-1.1,0.4l-2.5,0.5h-1.2l-0.8,0.1l-0.7,0.3l-1.4,0.8l-0.5,0.6l-0.4,1l-0.2,0.3l-0.9-0.1h-0.2l-1.1,0.5h-0.9l-0.7-0.3l-0.4-0.2
	l-0.4-1.1l-0.2-0.7l-0.3-0.7l-0.5-0.5l-0.6-0.3l-0.6-0.1l-0.5,0.1l-0.4,0.4l-0.4,0.8l-0.7,2.2l-0.3,0.2l-0.6,0.4h-0.9l-0.9-0.8
	l-0.5-0.6l-1.2-1l-0.6-0.9v-1l0.8-1.8l0.1-0.9l-0.6-2.2l0.2-0.5l0.6-0.7l1.9-1.7l0.5-0.6l0.4-0.7l-0.1-0.6l-0.3-0.2l-0.7-0.1h-1.1
	l-4.1-1.7l-1.7-1.5l-0.5-0.2h-0.5l-3,1.1l-2.2,1.1l-4.2,2.6L689,114l-0.2,0.4l0.4,0.7l2,1.8l0.2,0.4l0.3,0.6l0.1,0.4l0.1,0.7
	l-0.3,0.5l-0.5,0.4l-1,0.4l-0.5,0.3l-0.7,0.5l-0.7,0.3l-1.1,0.2l-5.6,0.3l-1,0.3l-1,0.5l-1.3,0.8l-1.2,0.6l-1.6,0.1l-1.8-0.1
	l-2.4-0.6l-2.1-1.3l-3.3-1.7l-1.7-0.1l-0.5,0.1l-0.7-0.1l-0.5-0.1l-0.4-0.4l-0.6-0.9l-0.7-0.9l-1.1-0.7l-1-0.5l-1.2-0.4l-1.3-0.2
	l-3.6-0.3l-0.5-0.2l-0.3-0.3l-0.2-0.4l-0.1-0.4l0.3-0.7l0.8-0.9l1.8-1.6l1.4-1.7l0.8-1.2l0.4-1l0.5-3.2l0.1-1.5v-2.2l-0.3-2.1
	l-0.9-3.5v-0.5l0.1-0.4l0.4-0.1h0.4l0.4,0.3l0.4,0.3l0.9,1.1l0.2,0.2l0.6,0.3l0.7,0.1l1.2-0.6l0.6-0.7l0.3-0.3l0.8-0.3l1.1-0.1h2.9
	l0.9,0.2L669,95l0.8,0.3l0.8-0.2l1.8-1.1l1.2-0.4l1.4-0.8l5.6-5l1.4,0.1l0.7-0.2l0.7-0.4l0.7-0.9l0.4-0.8l0.3-0.9l0.1-1.8l0.1-0.7
	l0.3-0.5l0.3-0.5l2.5-1.8L689,79l0.3-0.8l0.3-0.8l0.4-0.6l0.7-0.3l0.8,0.2l0.9,0.5l1.2,0.5l0.5,0.3l0.5,0.5l0.6,0.4l1.9,0.8l0.7-0.1
	l0.5-0.7l0.7-1.7l-0.3-0.6l-0.6-0.5l-0.8-0.3l-0.5-0.3l-0.2-0.6l0.1-0.6l0.4-0.7l0.5-0.6l0.7-0.5l1.5-1l1.1-0.4L702,71l1.6,0.5
	l1.1,0.8l2.1,1.6l0.9,0.3l0.4-0.2v-0.8l-0.2-0.5v-0.5L708,72l1.4-1l1.9,0.6l0.6,0.3l1.9,0.4L717.8,71.9L717.8,71.9z"/>
<path id="DZA2217" class="st0" d="M755.9,39.9l0.5,0.5l0.6,1.4l0.3,0.9l0.1,0.7l0.4,0.6l0.9,0.6l0.2,0.3l0.1,0.6v1v0.6l0.4,0.8
	l1,0.4l0.4,0.4l0.3,0.6l0.1,2.3l-0.2,1.5l-0.2,1.1l-1.4,2.4l-1.3,0.3l-1,0.1l-0.7,0.3l-1.4,1.4l-1,0.7l-0.5-0.1l-0.2-0.5l0.1-0.9
	l-0.3-0.8l-4.5-2.7l-0.7-0.1l-0.6,0.3l-0.4,0.4l-0.6,0.3l-0.5,0.3l-2.4,0.6l-0.8,0.4l-0.9,0.6l-2.3,1l-0.3,0.8l-0.3,0.3h-0.4
	l-0.2-0.1l-1.2-1.6l-1.5-1.7l0.4-2.3l-0.2-0.6l-2.5-3.6l-4.4-4.5l-0.7-0.3l-1.4,0.1l-0.6-0.3l-0.2-0.6l0.2-0.7l0.4-0.5l0.9-0.7
	l1-0.5l0.4-0.1l1.1-0.4l3.2-0.4l0.6-0.4l0.2-0.7l-0.2-0.9l-0.6-1.6l-0.1-0.5l0.1-0.3l0.2-0.2l0.7-0.4l0.4-0.6l0.2-1l0.3-2.7h1.7
	l2,0.4l0.9-0.2l2.6-2h0.5l0.3,0.3l0.2,0.5l0.3,0.5l2.6,1.2l2.1,0.6l5.6-0.3h0.9l0.4,0.2v0.4l-0.1,0.6l-0.3,0.5l-0.4,0.2l-0.4-0.1
	l-0.6-0.3l-0.6-0.1l-0.5,0.1l-0.7,0.3l-0.2,0.2l-0.1,0.4l0.1,1.2v0.5l-0.1,0.3l-0.6,0.5l-0.3,0.4l-0.1,0.4l0.2,0.4l0.5,0.2l0.7,0.1
	l0.8,0.4C752.3,39,755.9,39.9,755.9,39.9z"/>
<path id="DZA2218" class="st0" d="M790.3,26l2.3,0.4l0.5,0.3l1.6,1.4l0.5,0.7l0.3,0.6l0.3,0.9l0.4,0.6l0.6,0.5l8.7,3.7l0.5,0.3
	l0.2,0.4l0.2,0.5l0.2,0.5l-5.6,3.1l-1.4,0.1l-2-0.6h-0.3l-0.1,0.4l0.7,1.8l0.1,0.5l0.1,1.3l0.3,0.6l0.6,0.9l0.2,0.9L799,47l-0.8,0.6
	l-0.9,0.4l-0.8,0.2l-1.7,0.1l-4.8,2.5l-4.8,1.6l-0.5,0.4l-0.7,1l-0.6,0.3l-0.6,0.2h-1l-3.1,0.7l-0.6,0.4l-0.5,0.6l-0.6,1.3l-0.3,0.5
	l-0.5,0.3l-0.6,0.1h-1l-1.7-0.9l-2.4-0.3l-0.8,0.2l-0.5,0.3l-0.2,0.6l-0.1,1.8l-0.6,1.1l-1,0.7l-2,1l-1.3,0.4l-1.3,0.2l-0.6-0.3
	l-0.3-0.5l-0.1-0.5l-0.2-0.5l-0.5-0.5l-0.6-0.5L760,60l-0.2-0.8l-0.2-0.8l-0.1-1.3l-0.1-0.4l1.4-2.4l0.2-1.1l0.2-1.5l-0.1-2.3
	l-0.3-0.6l-0.4-0.4l-1-0.4l-0.4-0.8v-0.6v-1l-0.1-0.6l-0.2-0.3l-0.9-0.6l-0.4-0.6l-0.1-0.7l-0.3-0.9l-0.6-1.4l-0.5-0.5l1.1-2
	l1.2-0.7l3.7-1.1l0.4-0.2l0.2-0.2l0.1-0.3l-0.1-0.5l-0.2-0.4v-0.6l0.3-0.8l1.2-1.5l1.1-0.9l5.4-2.9l1.3-0.5l1.2-0.3h0.8l0.5-0.3
	l0.3-0.4l0.2-1.4l0.1-0.7l0.6-0.8l0.4-0.3l0.9-0.6l0.8-0.3l3.6,2l0.3,0.6l0.4,0.8v1.3l0.2,0.6l0.2,0.3l0.8,0.2l1.1,0.6l0.7,0.3
	l0.7,0.2h0.7l1.4-0.2l0.5-0.2l0.5-0.2l0.4-0.4l0.4-0.5L790.3,26L790.3,26z"/>
<path id="DZA2219" class="st0" d="M785.2,98.8L784,100l-4.5,1.8l-0.7,0.7v0.6l0.3,0.7v0.9l-0.3,2l0.1,0.8l0.1,0.9v1l-0.6,1.2
	l-0.1,0.9l0.2,0.9l0.3,1l0.2,1.1l-0.2,1.6l-0.5,1.2l-0.7,1.1l-2.9,3.2L773,124l-1.5,1.4l-1.6,2.4l-0.3,0.7l-0.1,0.5l0.1,0.6l0.1,0.6
	v0.7l0.1,0.6l0.3,0.5l0.4,0.8l0.1,0.6l0.2,0.5l0.4,1.1l0.2,0.2h0.3l0.4-0.2l0.1-0.3v-0.3l-0.3-0.8v-1l-0.2-0.6l-0.1-0.2l-0.4-0.7
	v-0.4l0.1-1.1l0.4-0.8l0.1-0.2l0.9-0.4l0.3-0.3l0.5-1l0.3-0.2l0.2-0.1l0.8,0.4l0.9,0.1l0.6,0.2l0.4,0.5l0.2,0.6l-0.1,1.3l0.1,0.7
	l0.1,0.5l0.4,0.8l0.2,0.8l-0.2,3.2l0.1,0.6l0.7,2.2l0.1,0.9v0.9l-0.2,1.1l-1.1,2.7l-0.9,1.7l-1.8,2.6l-0.9,2.2l-0.2,0.3l-0.6,0.6
	l-0.5,0.9l-0.9,2.7l-0.5,1.9l-0.8,5.4l-1.1,4.3l-3.4,7.9l-5.7-1l-2.7-0.9l-10.5-6.2l-1.4-1.6l-0.9-2.9l0.4-2.1l-0.4-3.1v-0.6
	l0.2-0.8l0.2-0.5l0.7-2.4l0.8-3.7l0.2-2.1l0.1-2l0.4-2.4l-0.1-0.8l-0.3-1l-0.7-1.9l-0.4-0.6l-0.2-0.2l-0.4-0.2h-0.4h-0.7l-0.8,0.1
	l-2.4,0.7h-0.6H739l-0.3-0.6l-0.4-1.4l-0.2-0.8v-0.8l0.2-1l1-2.1l0.2-0.5l-0.4-1l-0.3-0.9l-1.8-3.9l-1.4-2.3l-0.3-0.9l-0.1-1
	l0.1-2.2l0.1-0.7l0.3-0.8l1.8-3.2l0.6-4l0.6-1l1.8-1.9l0.4-0.8v-0.7l-0.3-0.2h-0.4l-0.7,0.2l-0.5-0.3l-0.2-0.6v-0.9l0.2-2l-0.1-1.8
	l0.3-0.8l0.9-1.3l0.8-0.8l1-0.7l0.9-0.4l2.6-0.9l1-0.5l0.7-0.7l0.5-0.7l0.7-1.5l0.2-0.8l0.1-0.9l-0.6-2.6l-0.3-2.9l0.9,1.4l0.6,1.2
	l0.5,0.5l0.7,0.5l1.3,0.2l1,0.1l5.8-0.8L759,88l0.6,0.4l1,2l0.7,0.7l1.6,0.1l0.9-0.5l0.8-0.8l0.5-0.8l0.6-0.4l0.5-0.1l2.7,0.4h0.3
	l0.2-0.2l0.2-0.6h0.3l1,0.1l0.9,0.2l1,0.5l0.7,0.7l0.4,1.2l-0.1,2.1l0.3,0.6l0.8-0.1l0.5-0.5l0.5-0.9l0.4-0.6l0.5-0.3l0.7,0.3
	l0.7,0.5l1.2,1.7l0.6,0.2l0.4-0.2l0.4-0.3h0.4l0.4,0.4l0.5,1.7l0.2,0.5l0.4,0.5l1.4,0.9L785.2,98.8L785.2,98.8z"/>
<path id="DZA2220" class="st0" d="M732.6,31.1l2.3,0.1l-0.3,2.7l-0.2,1l-0.4,0.6l-0.7,0.4l-0.2,0.2l-0.1,0.3l0.1,0.5l0.6,1.6
	l0.2,0.9l-0.2,0.7l-0.6,0.4l-3.2,0.4l-1.1,0.4l-0.4,0.1l-1,0.5l-0.9,0.7l-0.4,0.5l-0.2,0.7l0.2,0.6l0.6,0.3l1.4-0.1l0.7,0.3l4.4,4.5
	l2.5,3.6l0.2,0.6l-0.4,2.3h-0.4l-0.8,0.2l-0.7,0.2l-1.5,0.9l-1.2,1.1l-0.7,0.9l-0.3,1.2l0.1,1.9l-0.1,0.9l-0.2,0.9l-0.9,0.9l-1.3,1
	l-2.5,1.1l-3.1,0.9l-2.2,0.5l-0.9,0.3l-0.6,0.3l-0.3,0.6l-0.2,0.5l0.1,1.6l-4,0.4l-1.9-0.4l-0.6-0.3l-1.9-0.6l0.1-1.9l-0.3-0.9
	l0.5-5.8l-0.3-1.2l-0.6-0.8L708,60l-0.6-0.7l-0.2-0.4v-0.7l-0.1-0.4l-0.3-0.5l-0.6-0.6l-0.5-0.9v-0.7l0.4-0.5l0.6-0.4l0.4-0.7l0.2-1
	l-0.4-0.6l-0.6-0.1h-0.9l-0.7-0.2l-0.6-1v-1.1l0.3-1.5l0.1-3.8l-0.1-2.3l-0.5-1.1l-0.7-0.6l-0.9-0.1h-0.9l-1-0.1l-0.7-0.4l-0.5-0.8
	v-0.9l0.2-1.8v-1l-0.2-0.7l-0.4-0.6l-0.2-0.4l-0.8-0.8l1.9-0.4l0.6,0.1l0.9,0.2l0.7,0.4l1.2,0.4l1.1,0.1l1.7-0.2l1-0.3l0.5-0.5
	l0.3-0.7l0.5-0.7l0.7-0.5l1.8-0.8l1-0.1l0.7,0.1l1.7,0.5l2.6,0.2l1.9,0.5l1.5,0.1h0.9l0.5-0.2l0.6-0.7l0.3-0.4l1.1-0.4l1.3-0.8h0.4
	l0.3,0.1l0.3,0.8l0.2,0.3l0.4,0.2L732.6,31.1L732.6,31.1z"/>
<path id="DZA2221" class="st0" d="M759.4,56.7l0.1,0.4l0.1,1.3l0.2,0.8L760,60l0.4,0.6l0.6,0.5l0.5,0.5l0.2,0.5l0.1,0.5l0.3,0.5
	l0.6,0.3l1.3-0.2l1.3-0.4l2-1l1-0.7l0.6-1.1l0.1-1.8l0.2-0.6l0.5-0.3l0.8-0.2l2.4,0.3l1.7,0.9v2.9l2.1,4.6l1.4,2.1l0.9,0.9l1.7,2
	l0.8,0.6l0.7,0.4l2,0.5l0.7,0.5l0.5,0.7l0.7,2l0.7,0.4l3.1,0.1l0.9-0.2l0.4-0.5l0.1-0.7v-0.7l0.3-0.5l0.8-0.8l0.4-0.7l0.3-0.9
	l0.5-0.7l0.8-0.4h1.2l0.9,0.5l0.9,0.5l3.3,3.5l-0.2,0.9v0.6l0.2,0.7l-0.2,0.5l-1.8,4.4l-0.1,1.6l0.1,1.3l0.8,2.5l0.2,1.1l-0.2,0.9
	l-0.8,0.5l-0.8,0.3l-0.8,0.2l-0.8,0.3l-11.1,8.6l-1.1-1.4l-1.4-0.9l-0.4-0.5l-0.2-0.5l-0.5-1.7l-0.4-0.4h-0.4l-0.4,0.3l-0.4,0.2
	l-0.6-0.2l-1.2-1.7l-0.7-0.5l-0.7-0.3l-0.5,0.3l-0.4,0.6l-0.5,0.9l-0.5,0.5l-0.8,0.1l-0.3-0.6l0.1-2.1l-0.4-1.2l-0.7-0.7l-1-0.5
	l-0.9-0.2l-1-0.1h-0.3l-0.2,0.6l-0.2,0.2h-0.3l-2.7-0.4l-0.5,0.1l-0.6,0.4l-0.5,0.8l-0.8,0.8l-0.9,0.5l-1.6-0.1l-0.7-0.7l-1-2
	L759,88l-0.5-0.1l-5.8,0.8l-1-0.1l-1.3-0.2l-0.7-0.5l-0.5-0.5l-0.6-1.2l-0.9-1.4l-3.4-4.9l-2.4-1.8l-1.1-0.4h-1.1l-1.1,0.1l-2.9,1.1
	l-0.9,0.2l-0.7-0.1l-0.4-0.8v-0.7l0.1-0.7v-0.6l-0.2-0.7l-0.5-0.4l-0.4-0.2l-2.4-0.2l-0.8-0.2l-0.7-0.4l-1.3-1.3l-0.5-0.1l-0.5,0.2
	l-0.7,0.9l-1,0.1h-0.9l-6.1-2l-0.1-1.6l0.2-0.5l0.3-0.6l0.6-0.3l0.9-0.3l2.2-0.5l3.1-0.9l2.5-1.1l1.3-1l0.9-0.9l0.2-0.9l0.1-0.9
	l-0.1-1.9l0.3-1.2l0.7-0.9l1.2-1.1l1.5-0.9l0.7-0.2l0.8-0.2h0.4l1.5,1.7l1.2,1.6l0.2,0.1h0.4l0.3-0.3l0.3-0.8l2.3-1l0.9-0.6l0.8-0.4
	l2.4-0.6l0.5-0.3l0.6-0.3l0.4-0.4l0.6-0.3l0.7,0.1l4.5,2.7l0.3,0.8l-0.1,0.9l0.2,0.5l0.5,0.1l1-0.7l1.4-1.4l0.7-0.3l1-0.1
	L759.4,56.7L759.4,56.7z"/>
<path id="DZA2222" class="st0" d="M820.2,67.7l-1.9-0.7l-0.8-0.6l-0.6-0.6l-0.5-0.1L816,66l-0.4,0.3l-0.3,0.1l-1.8,0.1l-0.9,0.3
	l-1.5,0.3l-2.1,0.2l-1.7,0.4l-0.5,0.2l-0.6,0.4l-0.3,1l-0.2,0.5l-0.7,0.6l-1.8,0.9l-0.5,0.4l-0.5,0.6l-0.5,0.8l-1,1.3l-3.3-3.5
	l-0.9-0.5l-0.9-0.5h-1.2l-0.8,0.4l-0.5,0.7l-0.3,0.9l-0.4,0.7l-0.8,0.8l-0.3,0.5v0.7l-0.1,0.7l-0.4,0.5l-0.9,0.2l-3.1-0.1l-0.7-0.4
	l-0.7-2l-0.5-0.7l-0.7-0.5l-2-0.5l-0.7-0.4l-0.8-0.6l-1.7-2l-0.9-0.9l-1.4-2.1l-2.1-4.6v-2.9h1l0.6-0.1l0.5-0.3l0.3-0.5l0.6-1.3
	l0.5-0.6l0.6-0.4l3.1-0.7h1l0.6-0.2l0.6-0.3l0.7-1l0.5-0.4l4.8-1.6l4.8-2.5l1.7-0.1l0.8-0.2l0.9-0.4L799,47l0.2-1.2l-0.2-0.9
	l-0.6-0.9l-0.3-0.6l-0.1-1.3l-0.1-0.5l-0.7-1.8l0.1-0.4h0.3l2,0.6l1.4-0.1l5.6-3.1l0.7,1.5l0.2,2.8l0.3,0.4l0.5,0.1l0.8-0.1l0.8-0.3
	l0.6-0.3l0.7-0.4l0.7-0.5l0.5-0.5l1-1.5l0.6-0.7l0.9-0.7l0.4-0.3v0.1l2,0.8l4.2,0.5l0.9,0.5l0.9,0.3l0.8,0.4l0.4,1.1l0.1,1.2
	l-0.1,2.5l-0.2,1.1l-2.3,6.5l-0.2,2.4L822,55l0.4,1.1l0.1,1.1l-0.4,1.1l-0.6,1l-1,4.4l-0.1,3.3L820.2,67.7L820.2,67.7z"/>
<path id="DZA2223" class="st0" d="M820.2,67.7l-1.1,3.8l-0.2,4.7l0.2,2.6l0.6,2l2.3,3.9l0.8,2l0.7,6.8v1.7l-1.8,4.2l-0.5,2.1
	l-0.1,2.2l0.3,2.4l1.1,2.1l1.9,0.9l2,0.6l1.6,1.3l-0.4,1.2l-3,4.5l-2.2,2.5l-0.7,2.1l-0.8,4.4l-1.2,3.1l-0.5,2.3l0.1,2.2l0.9,5.9
	l-0.1,0.8l-0.5,0.7l-1.5,1.6l-0.6,0.9l-0.1,0.9l1.2,2l-0.3,0.6l-1.8,1.1l-0.3,0.5l-0.3,1l-0.2,0.4l-0.4,0.4l-1.2,0.7l-2.4,2.2
	l-4.5,2.1l-2.1,1.4l-4.2,1.9l-1.8,1.4l-1,2l-1.8,7l-0.4,0.9l-0.6,0.7l-1,0.5l-3,0.5l-1.9,1l-1.3,1.3l-1.2,1.6l-2,2.1l-10.2,0.3
	l-2.7-0.3l-3.3-1.1l-3.3-1.7l3.4-7.9l1.1-4.3l0.8-5.4l0.5-1.9l0.9-2.7l0.5-0.9l0.6-0.6l0.2-0.3l0.9-2.2l1.8-2.6l0.9-1.7l1.1-2.7
	l0.2-1.1v-0.9l-0.1-0.9l-0.7-2.2l-0.1-0.6l0.2-3.2l-0.2-0.8l-0.4-0.8l-0.1-0.5l-0.1-0.7l0.1-1.3l-0.2-0.6l-0.4-0.5l-0.6-0.2
	l-0.9-0.1l-0.8-0.4l-0.2,0.1l-0.3,0.2l-0.5,1l-0.3,0.3l-0.9,0.4l-0.1,0.2l-0.4,0.8l-0.1,1.1v0.4l0.4,0.7l0.1,0.2l0.2,0.6v1l0.3,0.8
	v0.3l-0.1,0.3l-0.4,0.2h-0.3l-0.2-0.2l-0.4-1.1l-0.2-0.5l-0.1-0.6l-0.4-0.8l-0.3-0.5l-0.1-0.6v-0.7l-0.1-0.6l-0.1-0.6l0.1-0.5
	l0.3-0.7l1.6-2.4l1.5-1.4l1.7-2.4l2.9-3.2l0.7-1.1l0.5-1.2l0.2-1.6l-0.2-1.1l-0.3-1l-0.2-0.9l0.1-0.9l0.6-1.2v-1l-0.1-0.9l-0.1-0.8
	l0.3-2v-0.9l-0.3-0.7v-0.6l0.7-0.7l4.5-1.8l1.2-1.2l11.1-8.6l0.8-0.3l0.8-0.2l0.8-0.3l0.8-0.5l0.2-0.9l-0.2-1.1l-0.8-2.5l-0.1-1.3
	l0.1-1.6l1.8-4.4l0.2-0.5l-0.2-0.7v-0.6l0.2-0.9l1-1.3l0.5-0.8l0.5-0.6l0.5-0.4l1.8-0.9l0.7-0.6l0.2-0.5l0.3-1l0.6-0.4l0.5-0.2
	l1.7-0.4l2.1-0.2l1.5-0.3l0.9-0.3l1.8-0.1l0.3-0.1L816,66l0.4-0.3l0.5,0.1l0.6,0.6l0.8,0.6L820.2,67.7L820.2,67.7z"/>
<polygon id="_x30_" class="st0" points="664.1,27.9 664.1,27.9 664.1,27.9 664.1,27.9 "/>
<polygon id="_x31_" class="st0" points="646.5,27 646.5,27 646.5,27 646.5,27 "/>
<polygon id="_x32_" class="st0" points="688.5,146 688.5,146 688.5,146 688.5,146 "/>
<g>
	<g id="layer1" transform="translate(-814.59595,-274.38623)">
		<g id="g3477" transform="matrix(1.1855854,0,0,1.1855854,-151.17715,-57.3976)">
			<path id="path4337-3" class="st1" d="M1396.3,564c-3.8,3.6-6.2,8.9-6.1,13.9c0.2,10.4,5.5,14.3,13.9,28.7c3,6.3,6.2,13,9.2,24
				c0.4,1.6,0.8,3.1,1,3.3c0.2,0.1,0.6-1.4,1-3c3-11,6.2-17.7,9.2-24c8.4-14.3,13.7-18.3,13.9-28.7c0.1-5-2.3-10.3-6.1-13.9
				c-4.4-4.1-11-7.2-18-7.3S1400.7,559.8,1396.3,564L1396.3,564z"/>
			<ellipse id="path3049" class="st2" cx="1414.3" cy="578.3" rx="10.9" ry="9.7"/>
		</g>
	</g>
	<g id="layer1_1_" transform="translate(-814.59595,-274.38623)">
		<g id="g3477_1_" transform="matrix(1.1855854,0,0,1.1855854,-151.17715,-57.3976)">
			<path id="path4337-3_1_" class="st1" d="M1138.7,704c-3.8,3.6-6.2,8.9-6.1,13.9c0.2,10.4,5.5,14.3,13.9,28.7c3,6.3,6.2,13,9.2,24
				c0.4,1.6,0.8,3.1,1,3.3c0.2,0.1,0.6-1.4,1-3c3-11,6.2-17.7,9.2-24c8.4-14.3,13.7-18.3,13.9-28.7c0.1-5-2.3-10.3-6.1-13.9
				c-4.4-4.1-11-7.2-18-7.3S1143,699.8,1138.7,704L1138.7,704z"/>
			<ellipse id="path3049_1_" class="st2" cx="1156.6" cy="718.3" rx="10.9" ry="9.7"/>
		</g>
	</g>
	<g id="layer1_2_" transform="translate(-814.59595,-274.38623)">
		<g id="g3477_2_" transform="matrix(1.1855854,0,0,1.1855854,-151.17715,-57.3976)">
			<path id="path4337-3_2_" class="st1" d="M1314.6,808.6c-3.8,3.6-6.2,8.9-6.1,13.9c0.2,10.4,5.5,14.3,13.9,28.7
				c3,6.3,6.2,13,9.2,24c0.4,1.6,0.8,3.1,1,3.3c0.2,0.1,0.6-1.4,1-3c3-11,6.2-17.7,9.2-24c8.4-14.3,13.7-18.3,13.9-28.7
				c0.1-5-2.3-10.3-6.1-13.9c-4.4-4.1-11-7.2-18-7.3S1318.9,804.4,1314.6,808.6L1314.6,808.6z"/>
			<ellipse id="path3049_2_" class="st2" cx="1332.6" cy="822.9" rx="10.9" ry="9.7"/>
		</g>
	</g>
	<g id="layer1_3_" transform="translate(-814.59595,-274.38623)">
		<g id="g3477_3_" transform="matrix(1.1855854,0,0,1.1855854,-151.17715,-57.3976)">
			<path id="path4337-3_3_" class="st1" d="M1442.6,456.2c-3.8,3.6-6.1,8.8-6,13.7c0.2,10.2,5.4,14.1,13.6,28.2
				c3,6.2,6.1,12.8,9.1,23.6c0.4,1.6,0.8,3.1,1,3.2c0.2,0.1,0.6-1.4,1-3c3-10.9,6.1-17.4,9.1-23.6c8.3-14.1,13.5-18,13.6-28.2
				c0.1-4.9-2.3-10.1-6-13.7c-4.3-4.1-10.8-7.1-17.7-7.2S1446.9,452.1,1442.6,456.2L1442.6,456.2z"/>
			<ellipse id="path3049_3_" class="st2" cx="1460.3" cy="470.2" rx="10.8" ry="9.6"/>
		</g>
	</g>
	<g id="layer1_4_" transform="translate(-814.59595,-274.38623)">
		<g id="g3477_4_" transform="matrix(1.1855854,0,0,1.1855854,-151.17715,-57.3976)">
			<path id="path4337-3_4_" class="st1" d="M1082.9,571.3c-3.8,3.6-6.2,8.9-6.1,13.9c0.2,10.4,5.5,14.3,13.9,28.7
				c3,6.3,6.2,13,9.2,24c0.4,1.6,0.8,3.1,1,3.3c0.2,0.1,0.6-1.4,1-3c3-11,6.2-17.7,9.2-24c8.4-14.3,13.7-18.3,13.9-28.7
				c0.1-5-2.3-10.3-6.1-13.9c-4.4-4.1-11-7.2-18-7.3S1087.3,567.2,1082.9,571.3L1082.9,571.3z"/>
			<ellipse id="path3049_4_" class="st2" cx="1100.9" cy="585.6" rx="10.9" ry="9.7"/>
		</g>
	</g>
	<g id="layer1_5_" transform="translate(-814.59595,-274.38623)">
		<g id="g3477_5_" transform="matrix(1.1855854,0,0,1.1855854,-151.17715,-57.3976)">
			<path id="path4337-3_5_" class="st1" d="M1206.9,458.4c-3.8,3.6-6.2,8.9-6.1,13.9c0.2,10.4,5.5,14.3,13.9,28.7
				c3,6.3,6.2,13,9.2,24c0.4,1.6,0.8,3.1,1,3.3c0.2,0.1,0.6-1.4,1-3c3-11,6.2-17.7,9.2-24c8.4-14.3,13.7-18.3,13.9-28.7
				c0.1-5-2.3-10.3-6.1-13.9c-4.4-4.1-11-7.2-18-7.3C1217.9,451.1,1211.3,454.2,1206.9,458.4L1206.9,458.4z"/>
			<ellipse id="path3049_5_" class="st2" cx="1224.9" cy="472.6" rx="10.9" ry="9.7"/>
		</g>
	</g>
	<g id="layer1_6_" transform="translate(-814.59595,-274.38623)">
		<g id="g3477_6_" transform="matrix(1.1855854,0,0,1.1855854,-151.17715,-57.3976)">
			<path id="path4337-3_6_" class="st1" d="M1414.5,338.4c-3.8,3.6-6.1,8.8-6,13.7c0.2,10.2,5.4,14.1,13.6,28.2
				c3,6.2,6.1,12.8,9.1,23.6c0.4,1.6,0.8,3.1,1,3.2c0.2,0.1,0.6-1.4,1-3c3-10.9,6.1-17.4,9.1-23.6c8.3-14.1,13.5-18,13.6-28.2
				c0.1-4.9-2.3-10.1-6-13.7c-4.3-4.1-10.8-7.1-17.7-7.2C1425.3,331.3,1418.8,334.3,1414.5,338.4L1414.5,338.4z"/>
			<ellipse id="path3049_6_" class="st2" cx="1432.2" cy="352.4" rx="10.8" ry="9.6"/>
		</g>
	</g>
	<g id="layer1_7_" transform="translate(-814.59595,-274.38623)">
		<g id="g3477_7_" transform="matrix(1.1855854,0,0,1.1855854,-151.17715,-57.3976)">
			<path id="path4337-3_7_" class="st1" d="M1207.6,364.7c-3.8,3.6-6.2,8.9-6.1,13.9c0.2,10.4,5.5,14.3,13.9,28.7
				c3,6.3,6.2,13,9.2,24c0.4,1.6,0.8,3.1,1,3.3c0.2,0.1,0.6-1.4,1-3c3-11,6.2-17.7,9.2-24c8.4-14.3,13.7-18.3,13.9-28.7
				c0.1-5-2.3-10.3-6.1-13.9c-4.4-4.1-11-7.2-18-7.3C1218.5,357.4,1211.9,360.5,1207.6,364.7L1207.6,364.7z"/>
			<ellipse id="path3049_7_" class="st2" cx="1225.6" cy="378.9" rx="10.9" ry="9.7"/>
		</g>
	</g>
	<g id="layer1_8_" transform="translate(-814.59595,-274.38623)">
		<g id="g3477_8_" transform="matrix(1.1855854,0,0,1.1855854,-151.17715,-57.3976)">
			<path id="path4337-3_8_" class="st1" d="M1283.3,388.5c-3.8,3.6-6.1,8.8-6,13.7c0.2,10.2,5.4,14.1,13.6,28.2
				c3,6.2,6.1,12.8,9.1,23.6c0.4,1.6,0.8,3.1,1,3.2c0.2,0.1,0.6-1.4,1-3c3-10.9,6.1-17.4,9.1-23.6c8.3-14.1,13.5-18,13.6-28.2
				c0.1-4.9-2.3-10.1-6-13.7c-4.3-4.1-10.8-7.1-17.7-7.2C1294,381.4,1287.6,384.4,1283.3,388.5L1283.3,388.5z"/>
			<ellipse id="path3049_8_" class="st2" cx="1300.9" cy="402.5" rx="10.8" ry="9.6"/>
		</g>
	</g>
	<g id="layer1_9_" transform="translate(-814.59595,-274.38623)">
		<g id="g3477_9_" transform="matrix(1.1855854,0,0,1.1855854,-151.17715,-57.3976)">
			<path id="path4337-3_9_" class="st1" d="M1350.2,410.2c-3.8,3.6-6.1,8.8-6,13.7c0.2,10.2,5.4,14.1,13.6,28.2
				c3,6.2,6.1,12.8,9.1,23.6c0.4,1.6,0.8,3.1,1,3.2c0.2,0.1,0.6-1.4,1-3c3-10.9,6.1-17.4,9.1-23.6c8.3-14.1,13.5-18,13.6-28.2
				c0.1-4.9-2.3-10.1-6-13.7c-4.3-4.1-10.8-7.1-17.7-7.2C1361,403.1,1354.5,406.2,1350.2,410.2L1350.2,410.2z"/>
			<ellipse id="path3049_9_" class="st2" cx="1367.9" cy="424.3" rx="10.8" ry="9.6"/>
		</g>
	</g>
	<g id="layer1_10_" transform="translate(-814.59595,-274.38623)">
		<g id="g3477_10_" transform="matrix(1.1855854,0,0,1.1855854,-151.17715,-57.3976)">
			<path id="path4337-3_10_" class="st1" d="M1123.8,454.8c-3.8,3.6-6.2,8.9-6.1,13.9c0.2,10.4,5.5,14.3,13.9,28.7
				c3,6.3,6.2,13,9.2,24c0.4,1.6,0.8,3.1,1,3.3c0.2,0.1,0.6-1.4,1-3c3-11,6.2-17.7,9.2-24c8.4-14.3,13.7-18.3,13.9-28.7
				c0.1-5-2.3-10.3-6.1-13.9c-4.4-4.1-11-7.2-18-7.3S1128.2,450.7,1123.8,454.8L1123.8,454.8z"/>
			<ellipse id="path3049_10_" class="st2" cx="1141.8" cy="469.1" rx="10.9" ry="9.7"/>
		</g>
	</g>
	<g id="layer1_11_" transform="translate(-814.59595,-274.38623)">
		<g id="g3477_11_" transform="matrix(1.1855854,0,0,1.1855854,-151.17715,-57.3976)">
			<path id="path4337-3_11_" class="st1" d="M1464,281.7c-3.8,3.6-6.1,8.8-6,13.7c0.2,10.2,5.4,14.1,13.6,28.2
				c3,6.2,6.1,12.8,9.1,23.6c0.4,1.6,0.8,3.1,1,3.2c0.2,0.1,0.6-1.4,1-3c3-10.9,6.1-17.4,9.1-23.6c8.3-14.1,13.5-18,13.6-28.2
				c0.1-4.9-2.3-10.1-6-13.7c-4.3-4.1-10.8-7.1-17.7-7.2C1474.7,274.6,1468.3,277.6,1464,281.7L1464,281.7z"/>
			<ellipse id="path3049_11_" class="st2" cx="1481.7" cy="295.8" rx="10.8" ry="9.6"/>
		</g>
	</g>
	<g id="layer1_12_" transform="translate(-814.59595,-274.38623)">
		<g id="g3477_12_" transform="matrix(1.1855854,0,0,1.1855854,-151.17715,-57.3976)">
			<path id="path4337-3_12_" class="st1" d="M1112.3,341.9c-3.8,3.6-6.2,8.9-6.1,13.9c0.2,10.4,5.5,14.3,13.9,28.7
				c3,6.3,6.2,13,9.2,24c0.4,1.6,0.8,3.1,1,3.3c0.2,0.1,0.6-1.4,1-3c3-11,6.2-17.7,9.2-24c8.4-14.3,13.7-18.3,13.9-28.7
				c0.1-5-2.3-10.3-6.1-13.9c-4.4-4.1-11-7.2-18-7.3C1123.2,334.7,1116.6,337.7,1112.3,341.9L1112.3,341.9z"/>
			<ellipse id="path3049_12_" class="st2" cx="1130.2" cy="356.2" rx="10.9" ry="9.7"/>
		</g>
	</g>
	<g id="layer1_13_" transform="translate(-814.59595,-274.38623)">
		<g id="g3477_13_" transform="matrix(1.1855854,0,0,1.1855854,-151.17715,-57.3976)">
			<path id="path4337-3_13_" class="st1" d="M1133.4,377.2c-3.8,3.6-6.1,8.8-6,13.7c0.2,10.2,5.4,14.1,13.6,28.2
				c3,6.2,6.1,12.8,9.1,23.6c0.4,1.6,0.8,3.1,1,3.2c0.2,0.1,0.6-1.4,1-3c3-10.9,6.1-17.4,9.1-23.6c8.3-14.1,13.5-18,13.6-28.2
				c0.1-4.9-2.3-10.1-6-13.7c-4.3-4.1-10.8-7.1-17.7-7.2C1144.1,370.1,1137.7,373.2,1133.4,377.2L1133.4,377.2z"/>
			<ellipse id="path3049_13_" class="st2" cx="1151" cy="391.3" rx="10.8" ry="9.6"/>
		</g>
	</g>
	<g id="layer1_14_" transform="translate(-814.59595,-274.38623)">
		<g id="g3477_14_" transform="matrix(1.1855854,0,0,1.1855854,-151.17715,-57.3976)">
			<path id="path4337-3_14_" class="st1" d="M1168.1,379c-3.8,3.6-6.2,8.9-6.1,13.9c0.2,10.4,5.5,14.3,13.9,28.7
				c3,6.3,6.2,13,9.2,24c0.4,1.6,0.8,3.1,1,3.3c0.2,0.1,0.6-1.4,1-3c3-11,6.2-17.7,9.2-24c8.4-14.3,13.7-18.3,13.9-28.7
				c0.1-5-2.3-10.3-6.1-13.9c-4.4-4.1-11-7.2-18-7.3S1172.4,374.9,1168.1,379L1168.1,379z"/>
			<ellipse id="path3049_14_" class="st2" cx="1186.1" cy="393.3" rx="10.9" ry="9.7"/>
		</g>
	</g>
	<g id="layer1_15_" transform="translate(-814.59595,-274.38623)">
		<g id="g3477_15_" transform="matrix(1.1855854,0,0,1.1855854,-151.17715,-57.3976)">
			<path id="path4337-3_15_" class="st1" d="M1246.2,317.2c-3.8,3.6-6.1,8.8-6,13.7c0.2,10.2,5.4,14.1,13.6,28.2
				c3,6.2,6.1,12.8,9.1,23.6c0.4,1.6,0.8,3.1,1,3.2c0.2,0.1,0.6-1.4,1-3c3-10.9,6.1-17.4,9.1-23.6c8.3-14.1,13.5-18,13.6-28.2
				c0.1-4.9-2.3-10.1-6-13.7c-4.3-4.1-10.8-7.1-17.7-7.2S1250.5,313.1,1246.2,317.2L1246.2,317.2z"/>
			<ellipse id="path3049_15_" class="st2" cx="1263.9" cy="331.2" rx="10.8" ry="9.6"/>
		</g>
	</g>
	<g id="layer1_16_" transform="translate(-814.59595,-274.38623)">
		<g id="g3477_16_" transform="matrix(1.1855854,0,0,1.1855854,-151.17715,-57.3976)">
			<path id="path4337-3_16_" class="st1" d="M1275,285.6c-3.8,3.6-6.1,8.8-6,13.7c0.2,10.2,5.4,14.1,13.6,28.2
				c3,6.2,6.1,12.8,9.1,23.6c0.4,1.6,0.8,3.1,1,3.2c0.2,0.1,0.6-1.4,1-3c3-10.9,6.1-17.4,9.1-23.6c8.3-14.1,13.5-18,13.6-28.2
				c0.1-4.9-2.3-10.1-6-13.7c-4.3-4.1-10.8-7.1-17.7-7.2C1285.8,278.5,1279.3,281.6,1275,285.6L1275,285.6z"/>
			<ellipse id="path3049_16_" class="st2" cx="1292.7" cy="299.7" rx="10.8" ry="9.6"/>
		</g>
	</g>
	<g id="layer1_17_" transform="translate(-814.59595,-274.38623)">
		<g id="g3477_17_" transform="matrix(1.1855854,0,0,1.1855854,-151.17715,-57.3976)">
			<path id="path4337-3_17_" class="st1" d="M1326.5,292.3c-3.8,3.6-6.1,8.8-6,13.7c0.2,10.2,5.4,14.1,13.6,28.2
				c3,6.2,6.1,12.8,9.1,23.6c0.4,1.6,0.8,3.1,1,3.2c0.2,0.1,0.6-1.4,1-3c3-10.9,6.1-17.4,9.1-23.6c8.3-14.1,13.5-18,13.6-28.2
				c0.1-4.9-2.3-10.1-6-13.7c-4.3-4.1-10.8-7.1-17.7-7.2C1337.3,285.2,1330.8,288.2,1326.5,292.3L1326.5,292.3z"/>
			<ellipse id="path3049_17_" class="st2" cx="1344.2" cy="306.4" rx="10.8" ry="9.6"/>
		</g>
	</g>
</g>
</svg>
