<svg xmlns="http://www.w3.org/2000/svg" xmlns:xlink="http://www.w3.org/1999/xlink" id="Layer_1" x="0" y="0" version="1.1" viewBox="0 0 1000 1001" xml:space="preserve" style="enable-background:new 0 0 1000 1001"><style type="text/css">.st0{opacity:.3;fill:#7c7c7c;stroke:#fff;stroke-width:2;stroke-linecap:round;stroke-linejoin:round;enable-background:new}.st1{fill:#ff4646;stroke:#d73534;stroke-width:1.1245;stroke-miterlimit:4.498}.st2{fill:#590000}</style><path id="DZA2143" d="M523.4,472.2l2.6,30l-0.6,11.1l-2.7,11.9l-6.1,69l-0.4,1.3l-0.5,1.3l-0.9,1.3l-2.1,2.3l-1.5,1.3	l-3.1,3.3l-0.6,0.2l-5,0.8l-0.9,0.3l-0.4,0.4l-3,4.2l-1.3,1.4l-0.8,0.6l-1.4,0.7l-3.9,1.2l-0.5,0.1l-6.7-0.1l-0.4,0.1l-1.8,0.6h-0.7	l-2.7-0.3l-3.5,0.2l-0.4,0.2l-0.4,0.2l-3.3,2.4l-3.5,1.3l-2.2,1.1l-0.5,0.4l-0.9,1.2l-0.5,1.1l0.1,0.8l0.5,0.7l4.1,3.9l7.6,10.5	l0.5,0.9l0.4,1l0.3,1.1l0.2,1.1l0.1,3.1l-0.7,5.3l0.4,1.5l0.6,1.1l8.1,6.3l0.7,0.6l0.3,0.5l0.1,0.7l-0.4,173.3l0.9,1.7l2.4,3.1	l106.6,62.9l5,4.7l3.6,5.2l1.5,11.8l0.4,76.5v0.1l-11.9,2.4l-5.1,1l-3.9,0.9l-1.2,0.1l-0.7-0.1l-0.5-0.2l-1.2-0.7l-2.8-2.9l-2.2-0.9	l-1.1-0.6l-0.9-0.8l-0.9-0.8l-0.8-1.2l-0.1-0.9l0.5-0.9l0.7-1.1l0.4-1l0.2-0.5l0.6-0.4l1.1-1.1l0.2-0.9l0.3-2l0.4-0.9l0.9-0.8l1-0.6	l0.9-0.7l0.5-1.1l-0.2-1.2l-0.5-0.8l-0.6-0.7l-0.4-1v-0.5l0.3-1v-0.3l-0.2-0.5l-0.5-0.3l-0.3-0.3l-0.6-1.9l-0.1-2l0.9-10.4l-0.2-0.7	l-0.6-0.6l-0.8-0.4l-1.7-0.5l-0.8-0.4l-2.8-2.2l-6.1-2.7l-13.3-2.8l-2.6-0.2l-4.5-0.8l-0.5-0.1l-0.9-0.2l-1.8-0.9l-0.9-0.4l-1.2-0.3	l-0.7-0.3l-0.6-0.5l-1.9-3.6l-1.6-2.2l-1.7-2l-3-2.3l-0.9-0.5l-0.8-0.3l-1.1,0.2l-1.1,0.7l-1.9,1.9l-1.3,0.6l-0.7-0.1l-3.1-1.1	l-0.5-0.3l-0.3-0.3l-0.4-0.3l-0.6-0.1l-0.7,0.2l-0.8,0.8l-0.5,0.3l-1.1-0.1L514,941l-0.1-1l-0.5-1l-0.8-0.6l-0.7-0.1l-0.9,0.1h-1.1	l-1-0.5l-5.7-4.8l-0.5-0.8v-3.8l-0.3-1.9l-0.9-1.5l-3.1-2.3l-1.9-1l-1.8-0.3l-0.9-0.6l-0.9-0.3l-1.9-0.3l-2.1-0.7l-0.8-0.5l-0.8-1	l-1-1.8l-0.6-0.6l-1.2-0.3h-1l-1.9,0.5h-1l-1.1-0.2l-0.7-0.2l-0.4-0.7l-0.1-1.3v-1l1.1-4.7l0.6-5.6l-0.1-1.2l-0.9-3.3l-0.6-1	l-9.9-6.9l-8.3-5.9l-4.2-3l-21-14.7l-8.3-5.9l-16.8-11.8l-8.4-5.9l-12.5-8.9l-12.6-8.9l-12.5-8.9l-4.2-2.9l-8.4-6l-4.2-2.9l-12.6-9	l-8.3-5.9l-12.6-9l-12.6-8.9l-20.9-15l-8.4-6l-3.8-2.7l-7.7-5.5l-11.6-8.3l-19.2-14.1l-7.7-5.6l-11.6-8.3l-5.4-3.9l-7.3-5l-7.4-5.1	l-8.4-5.8l-16.8-11.4l-8.4-5.7l-7-4.6l0.6-0.6l129.3-90.9l-37.6-74.7l9.6-0.9l8.6,4.4l5.1,3.5l11.9,5.9l10.1,2l11.8-4.7l6.8-4.3	l15.2-11.9l6-3.6l5.5-2.1l44.4-8l6.4-4.7l30.3-40.9l28.9-54l16.9-18.1l4.5-3.8l9.2-5.9l50.9-25.9l-0.7,45.2l-6.2,42.9L523.4,472.2	L523.4,472.2z" class="st0"/><path id="DZA2144" d="M390.6,111.8l-4.1,0.8l-0.7,0.6l-1.5,2l-0.8,0.5l-0.8,0.1H382l-1.1,0.2l-0.6,0.4l-0.3,0.7l0.1,0.7	l0.3,0.8l0.2,1l-0.1,1.2l-0.6,1.2l-0.8,0.5l-0.8,0.2l-0.8,0.1l-1,0.5l-0.7,0.7l-1.3,2.3l-2.3-0.6l-10.8-5.8h-0.6l-0.6,0.1l-0.6,0.3	h-0.4h-0.6l-0.4-0.1l-0.2-0.3l-0.1-0.3V119l-0.1-0.5l0.1-0.3l0.6-0.5l0.2-0.2l0.1-0.4l0.1-1.4l0.2-1.1l-0.1-0.3l-0.3-0.5l-0.2-0.2	l-0.4-0.2l-0.7,0.1l-0.2-0.1l-0.1-0.9l0.1-0.1l1.3-1.6l0.9-0.3l0.9-0.6l0.8-0.8l0.5-0.8l0.4-1.2l0.6-2.8l0.5-1l0.6-1l1.7-4.4	l0.3-0.6l0.6-0.3l1.1-0.1l0.3-0.2l1.2-1.8l0.5-0.4l1.4,3.4l1.6,1.4l1.4,0.6l0.4,0.4l0.1,0.5l-0.3,0.5l-0.4,0.5l-1.7,1.4l-0.4,0.6	l-0.3,0.7l-0.1,1.1v0.7l0.2,0.5l0.4,0.3l0.5-0.2l0.5-0.7l0.4-1l0.3-0.6l0.3-0.2l0.5,0.2l1.1,0.7l0.6,0.2h0.9l10.3-2.6h1.2l1.3,0.3	l0.8,0.9l1.8,2.3l0.3,0.8l-0.2,0.7l-1.1,0.7l-0.3,0.3l-0.1,0.3l0.2,0.3l0.3,0.5l0.1,0.5v0.5L390.6,111.8L390.6,111.8z" class="st0"/><path id="DZA2145" d="M417.5,84.6v0.3l-2,2.2l-2.3,3.1l-0.9,0.7l-0.8,0.4l-1.1-0.1h-0.5l-0.7,0.1l-0.8,0.5l-0.5,0.5	l-0.5,1.4l-0.6,0.9l-0.7,0.7l-2.8,2.1l-0.5,0.7l-0.3,0.7l-0.3,1.1l-0.4,0.9l-0.3,0.6l-0.5,0.4l-1.2,0.4l-0.6,0.2l-0.4,0.5v1.6	l-0.4,0.9l-0.5,0.4l-1.1,0.7l-0.2,0.5h-0.5l-0.6,0.4l-0.3,0.6l-0.3,0.7l-0.4,2.4l-0.2,0.7l-0.4,0.7l-0.5,0.6l-0.5,0.4l-0.5,0.3	l-0.6,0.2l-0.5-0.1l-0.4-0.3l-0.2-1.8l0.8-0.8v-0.5l-0.1-0.5l-0.3-0.5l-0.2-0.3l0.1-0.3l0.3-0.3l1.1-0.7l0.2-0.7l-0.3-0.8l-1.8-2.3	l-0.8-0.9l-1.3-0.3h-1.2l-10.3,2.6H376l-0.6-0.2l-1.1-0.7l-0.5-0.2l-0.3,0.2l-0.3,0.6l-0.4,1l-0.5,0.7l-0.5,0.2l-0.4-0.3l-0.2-0.5	v-0.7l0.1-1.1l0.3-0.7l0.4-0.6l1.7-1.4l0.4-0.5l0.3-0.5l-0.1-0.5l-0.4-0.4l-1.4-0.6l-1.6-1.4l-1.4-3.4l1.2-0.8l1.4-1.4l0.6-1	l0.4-0.3l1.7-0.4l0.9-0.7l0.8-0.6l0.8-0.5l1.1-0.4l0.6,0.1l0.3,0.5l0.2,0.2l0.6-0.2l1.8-1.1l1.2-2.1l1.1-0.3l0.4,0.3l0.4,0.4	l0.4,0.4l0.7,0.2h0.4l1,0.3l0.5,0.1l0.6,0.2l0.3,0.4l0.2,0.5l0.4,0.5l0.5,0.1l1.8-0.1l0.9-0.2l1-0.5l0.8-0.7l0.6-1.7l0.6-0.1	l0.6,0.2l0.5,0.1l0.6-0.3l0.3-0.4l2.2-4.8l0.1-0.6l-0.2-0.5v-0.7l0.3-0.1l0.7,0.5l0.5-0.1l1,0.1h0.5l2-1l1.3-0.4l0.6,0.4l0.3,0.6	l0.5,0.4l0.5,0.1l0.4,0.2l0.2,0.7l-0.3,0.8l0.1,0.6l0.8,0.9l1.3,0.6l3.4,0.8l2.1,0.9l1,0.2L417.5,84.6L417.5,84.6z" class="st0"/><path id="DZA2146" d="M415,124.2l-0.8-0.1h-0.4l-0.4,0.3l-0.4,0.4l-0.5,0.3l-0.7,0.1h-0.3l-0.4,0.4l-0.4,0.7v0.8v0.5	l0.2,1l0.1,0.4l0.5,0.4l0.1,0.3v0.3l-0.3,0.5l-0.3,0.2l-0.3,0.1h-0.3l-0.5-0.2l-0.4-0.1l-0.2,0.1l-0.2,0.2l-0.2,0.3l-0.1,0.6	l-0.2,0.4l-0.1,0.4l0.3,0.4l0.1,0.4l-0.2,1.6l0.1,0.5l0.2,0.4l0.4,0.3l0.4,0.4l0.1,0.3l-0.1,0.3l-0.3,0.2l-0.3,0.2l-1.2,0.3l-1,0.5	h-0.3l-0.4-0.3h-0.3l-0.5,0.3l-0.3,0.5v0.3l0.2,0.3l0.3,0.2l1.9,0.8l0.7,0.5l0.3,0.6v0.8v0.4l0.2,0.3l0.3,0.2l0.9,0.3l0.4,0.3	l0.2,0.4l0.2,0.1h1.2l0.5,0.2l0.2,0.3l0.1,0.4v0.7l0.2,0.3l0.8,0.6l0.4,0.4l1.7,1.3l1.6,1.6l2.5,3.8l0.3,0.8l0.1,1l-0.1,1.2l-0.3,1	l-0.3,0.9l-0.2,0.3l-20,17.6l-0.7-2.1l-0.4-0.5l-0.7-0.9l-0.7-0.5l-0.9-0.5l-1.1-0.3H394l-0.9,0.1l-1,0.4l-2,1.3l-3,2.4l-1.2,0.7	l-1.2,0.5l-2.2,0.3l-3.7-0.3l-1.1-0.3l-0.9-0.5l-0.8-0.6l-0.9-0.6l-0.6-0.2H374l-1.5,0.4l-1,0.1l-0.8-0.2l-0.7-0.3l-1.3-0.8l1.2-1.9	l1.9-2l7.8-6.6l0.8-1l0.3-0.9v-0.4l-0.1-0.6l-0.4-0.7l-0.7-0.8l-0.2-0.3l-0.2-0.4l0.1-0.5l0.4-0.5l0.6-0.3l2.1-0.7l0.3-0.2l0.4-0.4	l0.8-2.3l0.9-2l0.7-1.2l0.7-1.5l0.1-0.6v-0.4l-0.4-0.8l-0.4-0.3l-3.1,0.3l-1.2-0.1l-1-0.5l-0.5-1.1l-0.1-1.4l0.4-1.9l0.1-1.1	l-0.1-0.5h-0.6l-0.6,0.1L378,141h-0.3l-0.3-0.2l-0.1-0.5l0.2-0.5l0.7-1v-0.3l-0.2-0.3l-0.9-0.2l-0.3-0.4l-0.3-0.6l-0.3-0.9l-0.1-0.4	v-0.8l0.1-1.1l0.6-2.3l0.2-0.4l0.5-0.8l0.5-1.2v-0.4l-0.2-0.2l-2.8-1.9l-0.5-0.2l1.3-2.3l0.7-0.7l1-0.5l0.8-0.1l0.8-0.2l0.8-0.5	l0.6-1.2l0.1-1.2l-0.2-1l-0.3-0.8l-0.1-0.7l0.3-0.7l0.6-0.4l1.1-0.2h0.7l0.8-0.1l0.8-0.5l1.5-2l0.7-0.6l4.1-0.8l0.2,1.8l0.4,0.3	l0.5,0.1l0.6-0.2l0.5-0.3l0.5-0.4l0.5-0.6l0.4-0.7l0.2-0.7l0.4-2.4l0.3-0.7l0.3-0.6l0.6-0.4h0.5l1-0.1l1.1-0.3l1-0.4l0.8-0.2	l0.3,0.1l0.3,0.4l-0.1,0.9l-0.5,0.8l-0.8,1.1l0.2,0.4l0.7,0.5l1.6,0.7l1,0.3h0.7l0.7-0.8l0.4-0.2h0.5l7.5,2.9l0.8,0.6l0.1,0.8	l-0.3,1.1l-0.2,1l-0.2,0.5l-0.2,0.9v0.8l-0.1,0.6l-0.4,0.4v0.3l0.1,0.5l1,0.9l0.6,0.9L415,124.2L415,124.2z" class="st0"/><path id="DZA2147" d="M374.5,126.3l0.5,0.2l2.8,1.9l0.2,0.2v0.4l-0.5,1.2L377,131l-0.2,0.4l-0.6,2.3l-0.1,1.1v0.8	l0.1,0.4l0.3,0.9l0.3,0.6l0.3,0.4l0.9,0.2l0.2,0.3v0.3l-0.7,1l-0.2,0.5l0.1,0.5l0.3,0.2h0.3l0.7-0.2l0.6-0.1h0.6l0.1,0.5l-0.1,1.1	l-0.4,1.9l0.1,1.4l0.5,1.1l1,0.5l1.2,0.1l3.1-0.3l0.4,0.3l0.4,0.8v0.4l-0.1,0.6l-0.7,1.5l-0.7,1.2l-0.9,2L383,156l-0.4,0.4l-0.3,0.2	l-2.1,0.7l-0.6,0.3l-0.4,0.5l-0.1,0.5l0.2,0.4l0.2,0.3l0.7,0.8l0.4,0.7l0.1,0.6v0.4l-0.3,0.9l-0.8,1l-7.8,6.6l-1.9,2l-1.2,1.9	l-0.8,0.7l-0.6,0.4l-2.9,1.3l-0.3,0.2l-0.6,0.6l-0.6,0.5l-0.4,0.2l-0.5,0.1l-3.3,0.3l-1.1-0.1l-2.3,0.1l-1.5-0.1l-0.7,0.1l-1.7,0.5	l-8.6,5.3l-0.7,0.4l-0.1-0.8l-3.5-10.8l-1.2-2.6l-1.9-2.2l5.2-6.3l-0.6-0.3l-1.7-0.5l-5.8-6l0.4-1l2.5-4l1.2-2.6l0.6-0.5l0.2-0.4	l-0.9-0.9l-5.1-3.3l-1.6-1.5l-2.6-1.6l-0.6-0.8l-0.3-0.8V137l-0.2-0.7l-0.7-0.5l-2.1-0.2l-1.7-1.1l-1.5-1.4l-1.8-1.3l-1.4-0.6	L316,130l-0.5-1.5v-2.3l1.1-0.5l0.5,0.2l0.1,0.3l1.5-0.7l1.6,0.3l1.8,0.8l1.6,0.4l3.1-0.4l1.1,0.3l0.4,0.1l0.4-0.1l0.8-0.7l4.5-1.3	l1.3-0.9l0.4-0.1h1.4l0.7-0.1l0.7-0.6l1.6-1.9l3.1-1l0.5-0.4l0.4-1l5.8-4.9l0.9-0.4l4.6-0.5l1.3-0.4l0.4-0.2l0.1,0.9l0.2,0.1	l0.7-0.1l0.4,0.2l0.2,0.2l0.3,0.5l0.1,0.3l-0.2,1.1l-0.1,1.4l-0.1,0.4l-0.2,0.2l-0.6,0.5l-0.1,0.3l0.1,0.5v0.6l0.1,0.3l0.2,0.3	l0.4,0.1h0.6h0.4l0.6-0.3l0.6-0.1h0.6l10.8,5.8L374.5,126.3L374.5,126.3z" class="st0"/><path id="DZA2148" d="M442.3,378.8l-28.9,54L383,473.7l-6.4,4.7l-44.4,8l-5.5,2.1l-6,3.6L305.5,504l-6.8,4.3L287,513	l-10.1-2l-11.9-5.9l-5.1-3.5l-8.6-4.4l-9.6,0.9l-73.2,19.7L133,442l5.7-1.2l6.1-0.8l1.7,5.1l4.1,1.5l4.7-1.5l5.1-6.6l4.3-7l3.4-6.7	l4.7-5l5.1-3.5l5.4-4.7l4.1-3.1l5-2.8l7.1-3.1l6.8-5.5l5.4-7l4.7-2.8l5.8-1.6l7.4-0.4l8.1-1.9l9.1-4.7l-0.7-7.1l2.4-2.4l2.7-4.3	l-2.6-4.2l-0.1-1.1l-0.2-1l-0.5-1.1l-0.5-0.5l-1.8-0.8l-0.8-0.9l-1.3-2.2l-0.7-0.7l-0.9-0.3l-0.7,0.4l-1.4,1.4l-0.9,0.3H238	l-0.6-0.5l-0.1-1l0.3-1.1l1-1.7l0.1-1.3l-0.3-4.3l0.2-1l0.6-0.8l2.7-2l3.6-0.2l0.6-14.7l3.3-1.7l2.1,0.5l1.8-0.2l14.1-2.5l10.5-3.2	l8.4-1.2l-2-5.6l-3.3-8.9l2.8-1.5l8.9-0.8l8.7-2.4l9.7,0.4l19.7,0.9l12.3,0.6l10,0.5l4.3,0.2l5.2,0.2l1.9-0.4l1-2l-0.3-1.2l-0.8-0.7	l-1-0.3h-0.9l-1.8,0.7h-0.8l-0.2-1l0.2-0.3l0.8-0.6l0.3-0.4l0.3-0.6l0.1-0.4l-0.1-0.5l0.1-0.7h0.8l6.9-0.8l3.2,0.1l1,0.2l0.9,0.4	l0.8,0.4l0.5,0.5l0.5,0.6l0.5,0.8l0.6,1.1l1.5,3.7l1.1,0.1l2.4-0.3l39-12.4l-17.5,51.2v2.2l1.5,3.1l10.4,12L442.3,378.8L442.3,378.8	z" class="st0"/><path id="DZA2149" d="M399.5,176.8l-0.6,1.4l-0.1,0.7l0.3,1.1l0.3,1l3.6,7.2l1.3,3.5l0.1,0.7l-0.1,0.4v0.5l0.1,0.5	l0.9,1l0.5,0.3l0.3-0.3v-0.4v-0.7v-0.5l0.1-0.4l0.4-0.3l0.6-0.1l0.7,0.1l0.4-0.4l0.4-0.8l1.7-2.5l1.5-1.8l0.4-0.3l0.5-0.2l0.9-0.3	l1.7-0.6l0.4-0.4l0.6-0.1h1.2l1.4,0.3l0.4,0.3l0.3,0.3l0.3,1.1l0.1,1.7l0.1,0.9l-0.2,0.6l0.1,0.5l0.2,0.2l0.6-0.1l2.1-1.1l2.3-1.7	l1-0.6l0.8-0.1v2.4l-1.7,11.9l-0.2,10.4l1.1,14.3l-0.2,4l-0.5,2.1l-2.6,9l-0.9,3.2l-0.4,2.3l-0.1,1.2l1.2,10.4l-0.1,0.8l-0.4,1.2	l-4.1,11.1l-0.1,1.4l0.1,1.2l0.7,1.2l0.8,0.5l0.7,0.3l0.8,0.1l0.6,0.2l0.5,0.3l0.4,0.8l0.1,0.6v0.8v1l-0.4,2.5l-1.3,4.2l-39,12.4	l-2.4,0.3l-1.1-0.1l-1.5-3.7l-0.6-1.1l-0.5-0.8l-0.5-0.6l-0.5-0.5l-0.8-0.4l-0.9-0.4l-1-0.2l-3.2-0.1l-6.9,0.8h-0.8l0.8-5.2l0.7-2.1	l0.4-1l0.8-1l0.8-0.4l2-0.3l1.8-0.8l1.6-1.2l2.8-3.2l-0.7-1.3l-13.5-10.4l-3.1-1.1l-1.6-1.4l-6.5-11l2-1.5l0.4-0.4l0.3-0.5l0.2-0.5	l0.1-0.6l0.1-1.3v-1.3l-0.3-1.2l-0.8-0.8l-1.4-1l-1.3-1.2l-1-1.4l-0.6-1.8l-0.9-1.7l-2.4-2.4l-0.5-1.9v-5.7l0.5-1.4l0.7-1.5l0.9-3.2	l0.7-1.1l0.7-1.6l-0.3-1.9l-2.1-5.2l-0.6-0.7l-0.8-0.6l-1.7-0.6l-0.7-0.6l-0.3-0.9l0.2-0.9l0.5-0.6l0.5-0.5l0.5-0.6l0.4-0.8v-0.7	l-0.5-1.7l-0.4-2.8l0.1-2.8l2.3-9.4l0.1-1.1l-0.1-0.8l0.7-0.4l8.6-5.3l1.7-0.5l0.7-0.1l1.5,0.1l2.3-0.1l1.1,0.1l3.3-0.3l0.5-0.1	l0.4-0.2l0.6-0.5l0.6-0.6l0.3-0.2l2.9-1.3l0.6-0.4l0.8-0.7l1.3,0.8l0.7,0.3l0.8,0.2l1-0.1l1.5-0.4h0.5l0.6,0.2l0.9,0.6l0.8,0.6	l0.9,0.5l1.1,0.3l3.7,0.3l2.2-0.3l1.2-0.5l1.2-0.7l3-2.4l2-1.3l1-0.4l0.9-0.1h0.9l1.1,0.3l0.9,0.5l0.7,0.5l0.7,0.9l0.4,0.6	L399.5,176.8L399.5,176.8z" class="st0"/><path id="DZA2150" d="M241.6,498.1l37.6,74.7l-129.3,90.9l-0.6,0.6l-6.9-4.5l-16.2-10.7l-17.7-11.6l-9.6-6.2l-9.5-6.3	l-9.6-6.3l-9.6-6.3l-19.1-12.5l-9.5-6.3l-9.6-6.3l-9.6-6.4l-9.5-6.3l-9.6-6.3v-75.7l0.2-1.5l0.5-1l0.9-0.8l6.2-3.4l2.2-1.7l2.2-1.2	l0.6-0.7l1.6-2.9l0.8-0.6l1.7-0.8l0.8-0.5l3.2-3l3.3-2.3l5.4-2.4l1.6-1.2l4.4-4.2l5.2-3.5l2.9-2.7l2.3-1.3l0.8-0.5l2.9-3.1l1.7-0.7	l2.2,0.1l2.2,0.4h1l1.1-0.1l1-0.4l5.5,0.3l4.4-4.6l5.4-2.3l3.7-0.4l5.4,0.4l8.5,3.4l4-3.8l6.8-0.8l7.1-2l6.7-0.7h13.2l35.5,75.8	L241.6,498.1z" class="st0"/><path id="DZA2163" d="M798.6,18.5l-0.6,0.2l-0.2,0.5l-0.1,5.7l-0.2,0.7l-0.2,0.4l-1,0.4l-0.5,0.3l-0.3,0.5l-0.9,1.9	l-1.3,1.7l-0.7,1.3l-1,1.6l-0.4,0.5l-0.4,0.4l-0.5,0.2l-0.5,0.2l-1.4,0.2h-0.7L787,35l-0.7-0.3l-1.1-0.6l-0.8-0.2l-0.2-0.3L784,33	v-1.3l-0.4-0.8l-0.3-0.6l-3.6-2l-0.6-3.8l-0.9-2.8V21l0.1-0.7l0.3-0.5l0.2-0.8l-0.3-0.6l-0.5-0.5l-1.3-0.7l-0.7-1.1l-2.1-8.6V7.2	l0.6,0.4l0.3-0.2l0.3-0.5l0.5-0.1l0.4,0.1l0.9,0.6l0.5,0.1l0.4-0.1l1.3-0.7h0.6l0.5,0.8l0.2,0.7l0.3,0.4l0.7,0.1h1l0.4,0.2l0.4,0.2	l0.8-0.4l0.9-0.3l1.7,1.3l1.4,1.5l1.6,1.2l2.2,0.5l0.5-0.2l0.4-0.2l0.5-0.1l0.6,0.1l0.5,0.3l0.5,0.3l0.4,0.4l0.4,0.4l2.3-0.2	l0.5-0.2l0.9-1l0.5-0.4l-0.4,1.2l-0.6,1.3l-0.2,1.2l0.8,0.8L798.6,18.5L798.6,18.5z" class="st0"/><path id="DZA2164" d="M817.6,42.4l-0.4,0.3l-0.9,0.7l-0.6,0.7l-1,1.5l-0.5,0.5l-0.7,0.5l-0.7,0.4l-0.6,0.3l-0.8,0.3	l-0.8,0.1l-0.5-0.1l-0.3-0.4l-0.2-2.8l-0.7-1.5l-0.2-0.5l-0.2-0.5l-0.2-0.4l-0.5-0.3l-8.7-3.7l-0.6-0.5l-0.4-0.6l-0.3-0.9l-0.3-0.6	l-0.5-0.7l-1.6-1.4l-0.5-0.3l-2.3-0.4l0.7-1.3l1.3-1.7l0.9-1.9l0.3-0.5l0.5-0.3l1-0.4l0.2-0.4l0.2-0.7l0.1-5.7l0.2-0.5l0.6-0.2	l1.7,1.3l2.7,0.8l2.1,0.3l6.8-1.7l1.1-0.6l1-0.9l6.8-3.4l0.8,0.6l0.9,0.9l0.9,0.5l2.2-0.1l1.1,0.1l0.9,0.4l0.7-0.3l0.6,0.3l0.6,0.5	l0.7,0.4l1.7,0.1l1.6-0.1l5.1-2.1l0.2,1.6l-0.1,0.7l0.2,0.6l1.7,2.6l-0.1,0.7l-0.9,0.6l-3.3,1.4l-1.7,0.3l-1.8-0.1l-1.8,0.2	l-1.5,0.8l-0.3,0.9l1.6,0.9l1,1.2l-0.4,2.2l-1.1,2.1l-1.1,1.2l-5.8,3.5l-3.2,1.2l-1.4,0.9l-1.1,1.4L817.6,42.4L817.6,42.4z" class="st0"/><path id="DZA2165" d="M734.9,37.2l-6.2-1.3l-0.4-0.2l-0.2-0.3l-0.3-0.8l-0.3-0.1h-0.4l-1.3,0.8l-1.1,0.4l-0.3,0.4	l-0.6,0.7l-0.5,0.2h-0.9l-1.5-0.1l-1.9-0.5l-2.6-0.2l-1.7-0.5l-0.7-0.1l-1,0.1l-1.8,0.8l-0.7,0.5l-0.5,0.7l-0.3,0.7l-0.5,0.5l-1,0.3	l-1.7,0.2l-1.1-0.1l-1.2-0.4l-0.7-0.4l-0.9-0.2l-0.6-0.1l-1.9,0.4l-2.9,1.2l-0.6-0.1l-0.7-0.1l-1.2-0.9l-0.5-0.1l-0.7,0.3l-0.4,0.3	l-0.8,0.8l-0.4,0.3l-0.6,0.2h-0.5l-0.6-0.1l-0.5-0.3l-0.5-0.5l-0.3-0.9V38l-0.3-1.1l-1.1-0.4l-0.9-0.7l-1.2-0.4l-0.2-0.2v-0.3	l0.2-0.3l0.2-0.6l-0.4-1.9l0.3-0.1h1.5l0.2-0.1l0.6-0.8l0.4-0.3l1.9-0.7l1-0.8l0.6-2.2l0.7-0.9l0.8-0.7l0.9-0.5l2.1-0.6l0.9-0.5	l1.8-1.6l1.1-0.4h1.2l3.3,0.7l2-0.1l8.1-1.9l7.8-2.9l1.8-1.1l0.6-0.9l0.3,0.2l0.8,0.8l0.2,0.4l0.1,0.3V18l-0.3,1.1l0.1,0.5l0.1,0.2	l1,0.1l0.5,0.1l0.5,0.2l0.4,0.4l0.4,0.5l0.3,0.5l0.2,0.7l0.2,0.9v1.7l0.3,1l0.6,1.5l2.6,2.8l2.3,1.2l0.4,0.4l0.2,0.5l-1,2.3	L734.9,37.2L734.9,37.2z" class="st0"/><path id="DZA2166" d="M773.9,7.2v0.3l2.1,8.6l0.7,1.1l1.3,0.7l0.5,0.5l0.3,0.6l-0.2,0.8l-0.3,0.5l-0.1,0.7v0.7l0.9,2.8	l0.6,3.8l-0.8,0.3l-0.9,0.6l-0.4,0.3l-0.6,0.8l-0.1,0.7l-0.2,1.4l-0.3,0.4l-0.5,0.3h-0.8l-1.2,0.3l-1.3,0.5l-5.4,2.9l-1.1,0.9	l-1.2,1.5l-0.3,0.8v0.6l0.2,0.4l0.1,0.5l-0.1,0.3l-0.2,0.2l-0.4,0.2l-3.7,1.1l-1.2,0.7l-1.1,2l-3.6-0.9l-0.8-0.4l-0.7-0.1l-0.5-0.2	l-0.2-0.4l0.1-0.4l0.3-0.4l0.6-0.5l0.1-0.3v-0.5l-0.1-1.2l0.1-0.4l0.2-0.2l0.7-0.3l0.5-0.1l0.6,0.1l0.6,0.3l0.4,0.1l0.4-0.2l0.3-0.5	l0.1-0.6v-0.4l-0.4-0.2H756l-5.6,0.3l-2.1-0.6l-2.6-1.2l-0.3-0.5l-0.2-0.5l-0.3-0.3h-0.5l-2.6,2l-0.9,0.2l-2-0.4h-1.7l-2.3-0.1	l0.1-2.6l1-2.3l-0.2-0.5l-0.4-0.4l-2.3-1.2l-2.6-2.8l-0.6-1.5l-0.3-1v-1.7l-0.2-0.9l-0.2-0.7l-0.3-0.5l-0.4-0.5l-0.4-0.4l-0.5-0.2	l-0.5-0.1l-1-0.1l-0.1-0.2l-0.1-0.5l0.3-1.1v-0.6l-0.1-0.3l-0.2-0.4l-0.8-0.8l-0.3-0.2l0.5-0.6v-1.3l-0.1-1l-0.1-0.9l0.6-1.2	l0.4-0.4l2-1.5l0.6-0.8l0.5-0.4l1.6-0.9l2.1-0.5l2.3-0.1l1.9,0.7l1.8,1.3l0.2,0.1l0.1,0.6l0.1,0.5l0.2,0.3l0.5,0.1l0.5,0.4l0.5,2.3	l0.8,1l0.7-0.3l0.9,0.4l0.9,0.5l1,0.2l7.3,0.5l0.6,0.2l0.9,0.5l0.8,0.7l0.5,0.6v1l1.4,0.6l1.9,0.1h1.3l4.3-1.4l1.3-0.7l0.8,0.3	l1.2,0.3l1.2,0.1l0.5-0.5l0.4-0.6l2-1.7l0.7-0.4l0.3-0.3l0.4-0.6l0.4-0.8l0.1-0.6l-0.1-0.6l-0.2-0.5l-1.9-2.1L770,7.1V6.8l0.5-0.1	l0.9-0.3h0.5l0.5,0.1l0.9,0.5L773.9,7.2L773.9,7.2z" class="st0"/><path id="DZA2188" d="M988.8,744.6l-144.9-0.1l-0.6-0.1l-0.4-0.1l-0.5-0.4l-1.3-1.4l-1.3-1.6l-1.2-1.7l-2.1-4.6	l-0.5-0.8l-0.6-0.7l-0.7-0.6l-0.6-0.1l-0.5-0.1l-1.2,0.1l-3.9-0.5l-4.5-1.3l-0.3-0.2l-1.5-1.4l-0.5-0.2l-1-0.1h-0.3l-0.8-0.3	l-1.8-1.2l-3.6-1.1l-1.2-0.2l-2.4-0.1l-3.2-0.6L807,725l-1.5-0.9l-0.5-0.5l-1.1-1.2l-0.4-0.3l-1-0.5l-0.6-0.4l-3-3.1l-0.4-0.2	l-1.1-0.4l-0.2-0.1l-2.1-1.2l-0.5-0.6l-0.5-0.6l-1.2-1.2l-0.4-0.3l-0.9-0.6l-0.5-0.1l-1,0.1l-0.6-0.3L789,712l-0.6-0.2l-0.5-0.2	l-0.6-0.3l-0.9-0.8l-0.4-0.3l-0.6-0.2h-0.3l-2,0.2l-1.9-0.3l-2.1-0.8l-0.6-0.4l-0.9-0.8l-0.9-0.6l-0.6-0.6l-0.5-0.9l-1.5-1.8	l-1.3-2.4l-0.7-0.8l-0.8-0.8l-3.1-2.1l-0.9-0.8l-0.5-0.8l-0.4-0.7l-1-4.2v-5.7l0.2-1l1-2.5l0.2-0.4l2.2-3.1l0.4-1l0.1-0.4v-1.1	l-0.1-0.6l-0.2-0.6l-0.5-0.9L768,673l-1.5-1.4l-5.4-6.9l-0.6-10.1l-0.5-2.4l-0.7-1.4l-12-3.3l-1.5-0.7l-1.2-0.7l-5.2-2.2l-0.8-0.6	l-0.6-0.6L727.8,629l-0.4-0.3l-5-2.5l-0.6-0.4l-0.2-0.3l-0.2-0.7l-0.1-0.8l0.1-1.7l0.2-1.2l0.4-1.2l4-9.6l0.2-0.9l0.1-0.5l-0.1-0.7	l-0.1-1l-0.5-1.6l-0.9-1.5l-1.8-1.8l-9.5-7.3l-2-2.1l-0.5-0.7l-0.3-0.8l-5.4-18.5l-1.2-6.5l1.1-4.6l1.7-2.7l3-2.7l3.6-2.7l12-11.5	l13-5l1.9-1.7l-1-6.6l-1.7-4.4l-2.9-2.9l-24-19.1l22.6-13.3l17.7-7.6h7.2l10.1,1.6l107.5-65.8l2.5,3.1l6.2,9.2l5.7,10.8l3.8,13.4	l3.9,13.3l1,8.4l0.2,10.5l-1.2,9.2l-2.4,19.3l0.6,3.2l7.1,18.8l-0.1,2.1l-3.5,11.4l-0.8,1.1l-1.3,0.7l-1.2,0.9l0.1,1.1l0.8,1.3	l0.4,1.1l-0.4,1l-2,2.3l-0.7,1.2l-0.7,3.2l-0.8,2.2l-0.2,0.8v0.9l4.1,14.5l0.9,5.7l0.5,1.1l0.5,0.5l2.2,1.2l0.7,0.6l0.2,0.8	l-1.2,5.8l-0.1,1.9l0.5,1.5l0.1,1.1l-2,7l-0.9,1l-17.1,8.2v1.1l-0.2,0.9l-0.4,0.8l-1.7,1.6l-0.8,2.1l-0.7,0.9l-1.2,2.5l1.1,3	l6.8,9.5l7.4,10.4l13.3,18.7l1.8,3.4l0.7,3.4l0.4,14.6l0.1,7.3l0.6,1.5l7.2,4.2l0.9,1.5l0.9,4.9l0.6,1.9l0.8,0.9l6.4,5.2l0.9,0.3	l1.9-0.2l11-4.1l1-0.1l1.1,0.2l9.2,3.1l28.9,9.6l1.5,0.9l1.3,1.6L988.8,744.6L988.8,744.6z" class="st0"/><path id="DZA2189" d="M710.6,502.3l24,19.1l2.9,2.9l1.7,4.4l1,6.6l-1.9,1.7l-13,5l-12,11.5l-3.6,2.7l-3,2.7l-1.7,2.7	l-1.1,4.6l1.2,6.5l5.4,18.5l0.3,0.8l0.5,0.7l2,2.1l9.5,7.3l1.8,1.8l0.9,1.5l0.5,1.6l0.1,1l0.1,0.7l-0.1,0.5l-0.2,0.9l-4,9.6	l-0.4,1.2l-0.2,1.2l-0.1,1.7l0.1,0.8l0.2,0.7l0.2,0.3l0.6,0.4l5,2.5l0.4,0.3l10.2,13.7l0.6,0.6l0.8,0.6l5.2,2.2l1.2,0.7l1.5,0.7	l12,3.3l0.7,1.4l0.5,2.4l0.6,10.1l5.4,6.9l1.5,1.4l0.7,1.1l0.5,0.9l0.2,0.6l0.1,0.6v1.1l-0.1,0.4l-0.4,1l-2.2,3.1l-0.2,0.4l-1,2.5	l-0.2,1v5.7l1,4.2l0.4,0.7l0.5,0.8l0.9,0.8l3.1,2.1l0.8,0.8l0.7,0.8l1.3,2.4l1.5,1.8l0.5,0.9l0.6,0.6l0.9,0.6l0.9,0.8l0.6,0.4	l2.1,0.8l1.9,0.3l2-0.2h0.3l0.6,0.2l0.4,0.3l0.9,0.8l0.6,0.3l0.5,0.2l0.6,0.2l0.6,0.6l0.6,0.3l1-0.1l0.5,0.1l0.9,0.6l0.4,0.3	l1.2,1.2l0.5,0.6l0.5,0.6l2.1,1.2l0.2,0.1l1.1,0.4l0.4,0.2l3,3.1l0.6,0.4l1,0.5l0.4,0.3l1.1,1.2l0.5,0.5l1.5,0.9l0.4,0.2l3.2,0.6	l2.4,0.1l1.2,0.2l3.6,1.1l1.8,1.2l0.8,0.3h0.3l1,0.1l0.5,0.2l1.5,1.4l0.3,0.2l4.5,1.3l3.9,0.5l1.2-0.1l0.5,0.1l0.6,0.1l0.7,0.6	l0.6,0.7l0.5,0.8l2.1,4.6l1.2,1.7l1.3,1.6l1.3,1.4l0.5,0.4l0.4,0.1l0.6,0.1l144.9,0.1l5.4,11.1l7.1,14.4L998,772l-9.9,6.4l-9.8,6.3	l-13.2,8.4l-6.5,4.3l-9.9,6.3l-13.2,8.4l-9.8,6.3l-13.2,8.4l-9.9,6.3l-9.8,6.3l-16.5,10.8l-6.5,4.1l-13.2,8.4l-3.3,2.1l-13.1,8.3	l-16.5,10.4l-6.6,4.2l-3.2,2.1l-6.6,4.1l-3.3,2.1l-6.6,4.2l-3.3,2.1l-9.6,6l-11.7,10.2l-10.6,9.3l-1.9,1.7l-11.9,10.9l-6.1,5.7	l-6.1,5.6l-3,2.8L721,965.6l-6.1,5.6l-9.9,9l-2.1,1.5l-2.2,0.8l-11,2.3l-26,5.3l-36.5,7.4l-21.1,4.1v-0.1l-0.4-76.5l-1.5-11.8	l-3.6-5.2l-5-4.7l-106.6-62.9l-2.4-3.1l-0.9-1.7l0.4-173.3l-0.1-0.7l-0.3-0.5l-0.7-0.6l-8.1-6.3l-0.6-1.1l-0.4-1.5l0.7-5.3l-0.1-3.1	l-0.2-1.1l-0.3-1.1l-0.4-1l-0.5-0.9l-7.6-10.5l-4.1-3.9L463,624l-0.1-0.8l0.5-1.1l0.9-1.2l0.5-0.4l2.2-1.1l3.5-1.3l3.3-2.4l0.4-0.2	l0.4-0.2l3.5-0.2l2.7,0.3h0.7l1.8-0.6l0.4-0.1l6.7,0.1l0.5-0.1l3.9-1.2l1.4-0.7l0.8-0.6l1.3-1.4l3-4.2l0.4-0.4l0.9-0.3l5-0.8	l0.6-0.2l3.1-3.3l1.5-1.3l2.1-2.3l0.9-1.3l0.5-1.3l0.4-1.3l6.1-69l2.7-11.9l0.6-11.1l-2.6-30l43.8-4.9l40.1,31.9l45.2,4.6	L710.6,502.3L710.6,502.3z" class="st0"/><path id="DZA2190" d="M487.5,186.2l2.6,5.3l0.9,0.9l0.9,0.6l2.6,1.2l2.1,1.2l7.4,2.1l2.3,0.9l1.6,1l0.9,0.6l0.8,0.9	l0.8,1.2l3.5,7.2l6.6,10l0.6,1.8l0.2,2.5l-0.2,1.9l-0.6,1.5l-1.8,2.1l-0.3,0.6l-0.2,0.7l0.1,0.9l0.6,1l0.9,1.4l0.5,0.8l0.3,0.8	l0.5,3.6l0.4,1.3l0.7,1.7l1.1,1.9l4.7,5.8l1.5,3.4l2.7,9.9l1.4,2.8l0.4,1.8l0.3,2.6l-0.4,13.8l0.3,2.1l1.5,5.6l0.3,2l0.2,2l-0.1,2.3	l-0.5,2.1l-0.8,2l-4.2,6.3l-0.7,1.6l-0.1,2l0.3,1.6l0.9,2.7l0.2,1.2l-0.1,1l-0.8,1.2l-1.1,1l-4.1,2.9l-1.4,1.4l-50.9,25.9l-9.2,5.9	l-4.5,3.8l-16.9,18.1l-26.8-23.4l-10.4-12l-1.5-3.1v-2.2l17.5-51.2l1.3-4.2l0.4-2.5v-1v-0.8l-0.1-0.6l-0.4-0.8l-0.5-0.3l-0.6-0.2	l-0.8-0.1l-0.7-0.3l-0.8-0.5l-0.7-1.2l-0.1-1.2l0.1-1.4l4.1-11.1l0.4-1.2l0.1-0.8l-1.2-10.4l0.1-1.2l0.4-2.3l0.9-3.2l2.6-9l0.5-2.1	l0.2-4l-1.1-14.3l0.2-10.4l1.7-11.9v-2.4l0.6-1.6l0.5-1l0.4-0.7l1.4-1.5l1.8-1.5l0.7-0.8l0.4-0.5l0.3-0.9l0.4-0.9l0.5-0.8l0.7-0.4	l0.8-0.3l1-0.1l2.9,0.1l0.5-0.2l2-1.7l0.4-0.4l10.5-6.5l0.2-0.1l3.5-2.2l1.6-0.7l1.4-0.1l10.4,3.3l2,1.5l0.9,1l-0.7,7v1l0.3,0.6	l0.7,0.2l7.4-0.5l1.9,0.3l0.9,0.5l0.6,1l1,2.4L487.5,186.2L487.5,186.2z" class="st0"/><path id="DZA2191" d="M746.5,168.2l0.9,2.9l1.4,1.6l10.5,6.2l2.7,0.9l5.7,1l3.3,1.7l3.3,1.1l2.7,0.3l10.2-0.3l-1,1	l-0.7,1.6l-0.1,4.3l-1,5.9l0.2,2.2l0.7,3.2l0.3,1l1.4,2.8l0.5,3l0.4,1.5l6.8,11.8l0.7,2.3l0.1,7.9l0.7,2.7l1.3,1.4l1.7,0.5l2.3,0.2	l1.8,0.6l5.4,3.9l0.9,0.5l1,0.3l1,0.1l1-0.2l1.1,0.6l4.6,7.2l4.9,7.7l0.6,1.8l0.7,8.1l0.4,5.9l0.6,1.9l1.4,1.6l5.9,3.8l7.7,5.6	l10.2,7.3l8.1,5.9l0.7,0.8l0.5,1.1l0.9,4.1l-84.6-0.1l-6.9-0.8l-6.7-2.1l-4.9-5.1l-3.8-5.6l-6-10.8l-2.1-4.8l-10.6-37.1l-4.2-9.3	l-8.9-3.4l-57.3-3.8l5.5-7.5l4.7-8l2.5-3.3l2.1-2.2l0.6-1.1l0.4-1.3l1.9-12.4l-0.1-2.9l-0.1-1.3l-0.5-2.1l-0.8-2l-0.5-1l-1.5-2.2	l-1.8-2.2l-3.4-3l-0.2-0.3l-0.2-0.4l0.1-0.8l0.2-0.7l0.3-0.7l0.4-0.6l0.5-0.5l0.6-0.3l2-0.8l0.8-0.5l0.6-0.6l0.1-0.8l-0.1-0.9	l0.3-0.8l0.3-0.3l0.4-0.1l3,1.4l4.6,1.5l25.2,3.2l9.4-2h0.9l7.7,2.2l2.8,1.3l0.4,0.5l0.4,0.6l0.5,0.6l0.7,0.6l1,0.4l0.7,0.2l1,0.2	h1.5l1.6-0.3l1.7-0.7l1.7-1L746.5,168.2L746.5,168.2z" class="st0"/><path id="DZA2192" d="M663.5,257.4L652,275.2l-9.5,8.9l-6.9,4.6l-1.2,1.3l-0.8,1l-1.7,3.2l-1.9,5.4l-4,7.5l-4.3,10.4	l-3,13.5l-11.9,88.1l-4,7l-5.9,5.4l-3.5,4.1l-2.3,3.2l-3.9,15.1l-2.6,3.2l-17.3,10.1l-43.8,4.9l-6.6-59l6.2-42.9l0.7-45.2l1.4-1.4	l4.1-2.9l1.1-1l0.8-1.2l0.1-1l-0.2-1.2l-0.9-2.7l-0.3-1.6l0.1-2l0.7-1.6l4.2-6.3l0.8-2l0.5-2.1l0.1-2.3l-0.2-2l-0.3-2l-1.5-5.6	l-0.3-2.1l0.4-13.8l-0.3-2.6l-0.4-1.8l17.4-3.3l5.5-2.1l5.9-1.3l10.3-1.1l2.8,0.4l1.2,0.5l4,2l1.4,0.2l1.3-0.2l1.3-0.8l0.9-1.1	l1.9-2.5l1-1.1l14.9-7l0.2-0.2l1.2-0.1l2.4,0.1l0.5,0.2l1.3,0.7l1.6,0.2l14.1-2.7L663.5,257.4L663.5,257.4z" class="st0"/><path id="DZA2193" d="M624.8,246.5l-14.1,2.7l-1.6-0.2l-1.3-0.7l-0.5-0.2l-2.4-0.1l-1.2,0.1l-0.2,0.2l-14.9,7l-1,1.1	l-1.9,2.5l-0.9,1.1l-1.3,0.8l-1.3,0.2l-1.4-0.2l-4-2l-1.2-0.5l-2.8-0.4l-10.3,1.1l-5.9,1.3l-5.5,2.1l-17.4,3.3l-1.4-2.8l-2.7-9.9	l-1.5-3.4l-4.7-5.8l-1.1-1.9l-0.7-1.7l-0.4-1.3l-0.5-3.6l-0.3-0.8l-0.5-0.8l-0.9-1.4l-0.6-1l-0.1-0.9l0.2-0.7l0.3-0.6l1.8-2.1	l0.6-1.5l0.2-1.9l-0.2-2.5l-0.6-1.8l-6.6-10l-3.5-7.2l-0.8-1.2l-0.8-0.9l-0.9-0.6l-1.6-1l-2.3-0.9l-7.4-2.1l-2.1-1.2l-2.6-1.2	l-0.9-0.6l-0.9-0.9l-2.6-5.3l14.7-11l0.8-0.9l0.5-1.5l0.3-1.2l0.8-1.6l1.2-1.7l2.6-2.9l1.8-1.5l1.3-0.9l6-1.8l1.1-0.7l5.2-4.5	l4.5-2.6l0.7-0.8l0.4-0.7l0.4-0.8l0.4-0.4l0.9-0.3l3.7-0.7l2-0.1l0.4,3.2l-0.3,0.7l-0.4,0.9l-1.3,1.5l-0.7,1.3l-0.4,1.9l-0.4,3.3	l0.1,2.1l0.5,1.6l0.6,0.8l1,1l0.6,0.7l0.5,1l0.4,1.4l0.8,5.1l0.4,0.9l0.6,1l1.8,2l0.7,1l0.6,1.2l0.6,1.4l0.2,0.9l-0.1,1l-1,3.1	l-0.3,1.4v0.6l0.4,3.3l0.4,0.7l0.7,0.4h1.4l3.8,0.5h1.7l0.3-0.1l0.2-0.3l0.2-1.4l0.1-1.8l-0.2-6.3l0.1-0.6l0.2-0.5l0.2-0.3l0.6-0.2	l4.3-0.7l2.3-0.8l0.7-0.4l0.5-0.5l0.4-1.4l0.4-0.8l0.6-0.7l3.6-3.4l0.8-0.5l0.7-0.1l0.6,0.1l1.1,0.7l0.4,0.2h0.8h2.3l1.1,0.5	l0.5,0.6l1.2,3.4l0.6,4.3l0.4,1.3l0.5,1.4l3.5,6.1l19.7,22.2l18.8,16.5l1.4,1.6l1.3,1.6l1.6,3.2l2.3,6.2L624.8,246.5L624.8,246.5z" class="st0"/><path id="DZA2194" d="M860.9,305.6l1.5,6.9l1.4,6.2l1.3,6.3l2.8,12.5l1.3,6.2l1.4,6.2l1.4,6.2l2.7,12.5l1.4,6.1	l2.7,12.4l4.1,18.5l-11.2,6.3l1.1,1.8l2.9,3.4l-107.5,65.8l-10.1-1.6H751l-17.7,7.6l-22.6,13.3l-58.1,1.5l-45.2-4.6l-40.1-31.9	l17.3-10.1l2.6-3.2l3.9-15.1l2.3-3.2l3.5-4.1l5.9-5.4l4-7l11.9-88.1l3-13.5l4.3-10.4l4-7.5l1.9-5.4l1.7-3.2l0.8-1l1.2-1.3l6.9-4.6	l9.5-8.9l11.6-17.8l-1.2-23.1l1.5-5.5l1.1-6.1l57.3,3.8l8.9,3.4l4.2,9.3l10.6,37.1l2.1,4.8l6,10.8l3.8,5.6l4.9,5.1l6.7,2.1l6.9,0.8	L860.9,305.6L860.9,305.6z" class="st0"/><path id="DZA2195" d="M576.3,27.3l2.8,3.5l-2.3,1.2l-2.3,0.4l-0.6,0.3l-0.6,0.2h-0.6l-0.7-0.2l-0.6-0.4l-0.4-0.9v-1	l-0.4-0.7l-1.4-0.4l0.1-1.4l-0.5-0.4l-1.9-0.1l-0.4-0.1l-0.2-0.3l0.2-0.3l0.3-0.6l0.1-1.3l0.3-1.4V23l1.5,0.2l1.6,1l1.2,1.4l1.4,1.2	l1.8,0.6L576.3,27.3L576.3,27.3z" class="st0"/><path id="DZA2196" d="M618.1,18l-0.1,2.1l-0.2,0.8l-0.4,0.8l-1.4,1.9l-1.2,1.4l-0.8,0.4l-0.6,0.1l-0.5,0.3l-0.1,0.4	l0.2,0.5l0.2,0.5l0.4,0.6l0.9,1v0.4l-0.3,0.5l-0.8,0.8l-0.5,0.7l-0.5,0.5l-0.6,0.2l-1-0.1l-1.5-0.5l-0.5-0.2l-0.5,0.2l-0.5,0.6	l-0.2,0.6l-0.4,0.5l-0.5,0.1h-0.4l-0.5-0.6l-0.3-0.2l-0.4-0.1l-0.9,0.2l-0.3,0.2l-0.4,0.5l-0.1,0.4l-0.1,2l-3.2,0.6h-0.8l-0.4-0.2	l-0.2-0.4l0.2-0.5l0.3-0.7l1.4-1.8l0.2-0.6l-0.1-0.4l-0.2-0.4l-0.4-0.3l-0.9-0.4l-0.6-0.1l-0.6-0.1l-0.8,0.2l-1.9,0.8l-1.4,0.1	l-3-0.7l-1,0.6l-0.4,0.2l-0.5-0.1l-2.3-1l-0.4-0.6l-0.5-0.4l-0.8-0.2l-1.5,0.1l-1.7,0.3l-2.8,1.3l-2.8-3.5h0.3l1.5-0.8l0.6-0.9	l0.2-0.9l0.1-1.6h0.5l3.1,1.5l1.8,0.4l5.8,0.4l1-0.1l1.9-0.6l1-0.1l0.5-0.2l0.3-0.4l0.3-0.4l0.3-0.2l0.5-0.1l1.1,0.1h0.4l1.9-1	l2.9-2.9l1.5-1.1l4.2-1.3l2.2-0.3l1.9,0.3l1.7,1.1l0.8,0.2l0.5-0.1l1-0.3h1.7L618.1,18L618.1,18z" class="st0"/><path id="DZA2197" d="M644.8,18.1l0.1,0.4l0.1,1l0.3,0.7l2,3l0.1,0.4l0.1,0.6l-0.1,0.6l-0.3,1.3l-0.2,0.6l-0.5,0.3	l-0.5-0.1l-1.2-0.5l-0.5-0.1l-0.7,0.1l-0.6,0.4l-0.4,0.4l-0.2,0.8l0.1,0.4l0.3,0.5l0.4,0.3l1,0.4l0.5,0.2l0.3,0.3l0.3,0.5l-0.1,0.8	l-0.3,0.8l-2,3.2l-0.6,1.7l-0.5,0.7l-3.6,4.1l-1.3,0.8l-2.7,0.9l-0.9-0.3l-2.1,0.5h-0.8l-2.1-0.6l-0.7-0.1l-1.5,0.7l-0.8,0.2	l-12.1-0.5l-2.3-0.8l-1.8-1.1l-1.6-1.6l-1.2-0.9l-1.5-1.2l-1.4-2.4l0.1-2l0.1-0.4l0.4-0.5l0.3-0.2l0.9-0.2l0.4,0.1l0.3,0.2l0.5,0.6	h0.4l0.5-0.1l0.4-0.5l0.2-0.6l0.5-0.6l0.5-0.2l0.5,0.2l1.5,0.5l1,0.1l0.6-0.2l0.5-0.5l0.5-0.7l0.8-0.8l0.3-0.5v-0.4l-0.9-1l-0.4-0.6	l-0.2-0.5l-0.2-0.5l0.1-0.4l0.5-0.3l0.6-0.1l0.8-0.4l1.2-1.4l1.4-1.9l0.4-0.8l0.2-0.8l0.1-2.1l2.2,0.3l1,0.5l2-1.1l0.6-0.1l0.6,0.1	l1.2,0.5l0.7,0.2l0.6-0.2l1.2-0.8l0.7-0.3l0.8,0.1l1.3,0.6l0.7,0.2l5.8-0.9l0.6,0.1l0.7,0.3l0.7,0.3l0.5,0.4l0.6,0.3h1.5l0.7,0.3	l1.5-0.7H644.8L644.8,18.1z" class="st0"/><path id="DZA2198" d="M567.1,23v0.4l-0.3,1.4l-0.1,1.3l-0.3,0.6l-0.2,0.3l0.2,0.3l0.4,0.1l1.9,0.1l0.5,0.4l-0.1,1.4v0.8	l0.4,1.2l0.1,0.4l-0.1,0.3l-0.2,0.2l-0.3,0.2l-1,0.2l-0.6,0.3l-0.3,0.4l-0.4,0.2l-0.7,0.2l-5.5-0.2l-0.5,0.2l-0.2,0.4l-0.1,0.4	l-0.2,0.5l-0.7,0.6l-3,1.5l-0.9,0.3l-0.8,0.5l-0.9,0.7l-2.2,2.1l-0.8,0.5l-0.4,0.7l-0.2,1l-0.4,0.6l-0.5,0.4l-1,0.2l-1.8,0.1	l-0.4-0.1l-1.4-0.4h-0.4l-0.4,0.4l-0.3,0.3l-0.4,2.3l-9.3,0.4l-6.8-1.4h-1.2l-3.2,1.1l-1.8,0.4l-0.6,0.2l-1.2-0.1l-1.5-0.5l-6.7-0.8	l-0.8,0.1l-0.5,0.4l-0.3,1.4l-0.3,0.5l-0.5,0.5l-0.5,0.3l-1.1,0.6L506,50l-0.5-0.1l-1.3-2.7l-1.6-1.8l0.2-1.1l1.3-2.1l0.5-1.1l0.6-2	h0.7l0.5-0.1l1.2-0.6l0.5-0.1h0.4l1.1,0.3h0.5l2.7-0.7l2.7-0.2l2.2,0.5l0.6,0.1l4.2-0.6l12.1-3.6l1-0.4l1-0.1l1.1,0.3l0.9,0.6	l0.3,0.5l0.1,0.6l0.2,0.4l0.5,0.2h0.6l1,0.3l0.4,0.1l7-0.4l1.5-0.6l4.6-3.6l3.2-1.7l1.2-1l1.2-1.8l0.3-0.8l1.3-1.3l2.7-2l2.2-0.5	L567.1,23L567.1,23z" class="st0"/><path id="DZA2199" d="M542.6,46.7l0.5,1.2l0.5,0.6l0.5,0.2l0.2,0.3l0.1,0.7l0.4,0.4l0.9-0.1l2.3-0.9l1.4-0.3l1.2-0.7	l0.3,0.1l0.2,0.2l0.4,1.8l-0.1,0.7l-0.1,0.5L551,52l-0.9,0.9l-0.8,0.5l-0.8,0.3l-3,0.1l-0.4,0.2l-0.3,0.3l-0.5,0.6l-0.6,0.7	l-0.3,0.4l-0.2,0.5v1l0.2,0.7l0.8,0.7l0.3,0.5l0.2,0.5l0.4,0.5l0.2,0.2l0.5-0.2l1.1-0.9l0.3-0.2h0.3l0.9,0.4h1.6l0.4,0.1l0.3,0.2	v0.5l-0.2,0.6l-1.5,1.5l-0.7,1.1l-0.6,1.5l-0.4,0.8l-5.1,3.3l-0.4,0.4l-0.3,0.6l-0.3,0.7l-0.3,1.4l-0.4,0.8l-0.6,0.9l-3.1,2.9	l-2.1,2.9l-3.3-1.3l-2.3-1.4l-1.2-0.3l-1.2-0.1l-2.3,0.4l-2.6-0.1l-1.7-0.3l-1.1,0.4l-0.5,0.6l-0.2,0.9l-0.4,0.4l-0.8,0.2l-2.4-0.7	l-0.7,0.2l-0.8,1.1l-0.6,0.4L512,80l-0.3-0.6l-1.5-1.6l-4.4-1.3l-0.2-1.1l0.2-0.8l0.3-0.6l-0.1-0.5l-0.3-0.5l-1.2-1.2l-1.5-3.1	l-0.4-1.1v-1.5l-0.3-0.3l-1.1-0.6l-0.7-0.6l-0.7-1.2l-0.2-0.7l0.2-0.6l0.4-0.3l0.7-0.2l0.5-0.3l0.3-0.6v-1.4l-0.2-0.6l-0.5-0.4	l-0.5-0.1l-0.4-0.3v-0.5l0.5-1.6l-0.1-0.6l-1-1.3l-0.7-1.1l-0.7-1.9l-0.1-1l0.4-0.8l3.4-2.6l0.8-1.1l1.6,1.8l1.3,2.7l0.5,0.1	l0.4-0.2l1.1-0.6l0.5-0.3l0.5-0.5l0.3-0.5l0.3-1.4l0.5-0.4l0.8-0.1l6.7,0.8l1.5,0.5l1.2,0.1l0.6-0.2l1.8-0.4l3.2-1.1h1.2l6.8,1.4	L542.6,46.7L542.6,46.7z" class="st0"/><path id="DZA2200" d="M505.1,39.1l-0.6,2l-0.5,1.1l-1.3,2.1l-0.2,1.1l-0.8,1.1l-3.4,2.6l-0.4,0.8l0.1,1l0.7,1.9l0.7,1.1	l1,1.3l0.1,0.6l-0.5,1.6v0.5l0.4,0.3l0.5,0.1l0.5,0.4l0.2,0.6v1.4l-0.3,0.6l-0.5,0.3l-0.7,0.2l-0.4,0.3l-0.2,0.6l0.2,0.7l0.7,1.2	l0.7,0.6l1.1,0.6l0.3,0.3v1.5l0.4,1.1l1.5,3.1l1.2,1.2l0.3,0.5l0.1,0.5l-0.3,0.6l-0.2,0.8l0.2,1.1l-1.3,0.3l-0.6-0.1l-1.7-0.8	l-1.3-0.8l-0.3-0.3l-0.3-0.5l-0.2-0.9L500,73l-0.3-0.3l-1.2-1.1h-0.4l-0.3,0.1l-0.6,1.1l-0.8,0.8l-0.2,0.3l-0.1,1.1l-0.2,0.5	l-0.2,0.3l-0.3,0.3l-2.1,0.8l-0.3,0.3l-0.1,0.3l0.4,0.9l-0.2,0.4l-1.5,1l-0.4,0.3l-0.2,0.7l0.2,0.7l-1.7-0.7l-0.4-0.3l-0.6-0.6	l-0.4-1l-0.3-0.4l-0.8-1l-0.4-0.7l-1-2.4l-0.3-0.3l-0.4-0.2l-0.5,0.1l-4.6,1.4l-0.8-0.1l-0.9-0.3l-1.8-1.2l-0.7-0.4l-0.5-0.3	l-0.3-0.5l-0.3-0.6l-0.6-1l-0.3-0.3l-0.3-0.2l-1.8-0.1l-1.8,0.1l-0.5-0.1l-0.4-0.3l-1.3-2l-0.1-0.5v-0.4l0.4-0.9v-0.4v-0.4l-0.9-2.5	l-0.2-0.6l-0.2-1.7l-0.1-0.5l-0.6-0.2H465l-2.8,0.8l-2,0.8h-0.8l-0.9-0.1l-1.5-0.6l-0.1-1.2l1.6-4.8l0.2-0.8l0.1-1.1v-1.2h0.6	l0.7-0.4l1.7-1.1l3-0.9l0.7-0.6l0.5-0.5l1.2-0.8l0.5-0.5l0.2-0.5L468,46l0.2-0.5l0.5-0.6l0.8-0.3l2.2-0.5l1.8-1.2l3.5-0.1l1-0.3	l2-1.1l1.1-0.2h2.1l0.9-0.1l1.1-0.3l2.9-1.4l1-0.2l0.9,0.1l2.1,0.8l1.1,0.3l1.1-0.1l2-0.6L505.1,39.1L505.1,39.1z" class="st0"/><path id="DZA2201" d="M434,90.2l1.8,1.6l0.5,1.6l0.4,2.3l0.4,1.1l0.5,1l0.7,0.6l1.2,0.2l0.7-0.1l1.7-0.4l0.9-0.1	l1.1,0.1l1.1,0.3l1.2,0.9l1.5,1.4l0.9,0.5l0.9,0.1l1-0.3l0.8-0.1l0.8,0.1l1,0.7l0.4,0.5l0.5,0.5l0.8,0.4l3.2,0.5l2.6,1.2l2.3,0.4	l-0.3,1.1l0.3,0.4l0.5,0.5l1.7,1l0.3,0.4l-0.1,0.7l-0.5,0.9l-2.3,3.1l-0.8,1l-1.2,0.6l-0.7,0.1l-0.6-0.2l-0.7-0.3l-1.8-0.7l-0.7-0.1	h-0.5l-0.7,0.2l-0.7,0.3l-0.7,0.4l-0.7,0.5l-0.6,0.9l-0.6,1l-1.3,3.1l-2.5,3.4l-1,2.8l-0.7,0.5l-1.4,1.1l-0.9,0.5l-1,0.3l-1-0.1	l-2-0.5l-0.8,0.1l-1.8,0.8l-1.5,0.3l-0.8,0.3l-0.8,0.3l-1,0.3l-0.9-0.2l-1.2-0.8l-0.6-0.8l-0.8-1.6l-0.6-0.7l-0.6-0.3l-0.5,0.1	l-0.7,0.3h-0.8l-1.3-0.3l-0.9,0.1l-0.6,0.5l-0.4,0.9l-0.4,0.3h-0.5l-1-0.7l-0.8-0.8l-0.4-0.3l-0.7-0.1l-0.5-0.4l-0.3-0.3l-0.1-0.7	v-0.8V123l-0.3-0.6l-0.3-0.4l-0.3-0.1l-0.4,0.2l-0.3,0.5l-0.2,0.8l-0.3,0.5l-1.4,0.3l-0.8-1.8l-0.6-0.9l-1-0.9l-0.1-0.5v-0.3	l0.4-0.4l0.1-0.6V118l0.2-0.9l0.2-0.5l0.2-1l0.3-1.1l-0.1-0.8l-0.8-0.6l-7.5-2.9H405l-0.4,0.2l-0.7,0.8h-0.7l-1-0.3l-1.6-0.7	l-0.7-0.5l-0.2-0.4l0.8-1.1l0.5-0.8l0.1-0.9l-0.3-0.4l-0.3-0.1l-0.8,0.2l-1,0.4l-1.1,0.3l-1,0.1l0.2-0.5l1.1-0.7l0.5-0.4l0.4-0.9	v-1.6l0.4-0.5l0.6-0.2l1.2-0.4l0.5-0.4l0.3-0.6l0.4-0.9l0.3-1.1l0.3-0.7l0.5-0.7l2.8-2.1l0.7-0.7l0.6-0.9l0.5-1.4l0.5-0.5l0.8-0.5	l0.7-0.1h0.5l1.1,0.1l0.8-0.4l0.9-0.7l2.3-3.1l2-2.2l0.1,0.7l0.6,0.9l-0.1,0.6l0.1,0.4l0.4,0.3l1.8,1l0.5,0.3l0.7,0.1l0.9-0.2	l2.3-0.6l1.4-0.6l1.4-1l0.4-0.2h0.3l0.4,0.3l0.4,0.8l0.3,0.5l0.8,2.5l0.3,0.3l0.7-0.5l1-0.3L434,90.2L434,90.2z" class="st0"/><path id="DZA2202" d="M457,60.9l-1.1,1.2l-0.5,1l-0.6,0.7l-1.7,1.7l-0.3,0.5l-0.6,1.3l-0.4,0.4l-0.6,0.4l-1.3,0.4	l-0.4,0.3l-0.3,0.3l-0.1,0.7v1.4l-0.1,0.9l-0.1,1.1l-0.1,0.5l-0.2,0.2l-0.6,0.3l-0.4,0.1l-1.4,0.2l-0.4-0.1l-0.5,0.2l-0.5,0.3	l-0.6,1.2l-0.3,0.7l-0.1,0.7v0.3L444,78l0.4,0.2l0.3,0.3v0.4l-0.7,3l-0.2,0.5l-0.3,0.5l-0.6,0.7l-0.9,0.9l-0.7,0.5l-0.8,0.2	l-0.8-0.1h-0.4l-0.4,0.1l-0.5,0.3l-0.6,0.5l-1.5,1.3l-0.5,0.7l-0.6,0.5l-0.8,0.7l-0.3,1h-1.9l-1,0.3l-0.7,0.5l-0.3-0.3l-0.8-2.5	l-0.3-0.5l-0.4-0.8l-0.4-0.3H428l-0.4,0.2l-1.4,1l-1.4,0.6l-2.3,0.6l-0.9,0.2l-0.7-0.1l-0.5-0.3l-1.8-1l-0.4-0.3l-0.1-0.4l0.1-0.6	l-0.6-0.9l-0.1-0.7v-0.3l1.5-0.3l2.1-1.1l2-1.5l1.6-1.5l1.7-3.5l0.5-1.5l1.6-3.8l0.4-1.4l0.1-0.6l0.1-0.4l0.4-0.3l0.5-0.2l0.4-0.3	l2.4-2.5l0.8-0.6l3.1-1.1l0.5-0.4l0.2-0.4l1.1-0.7l0.4-0.3l0.2-0.6l0.2-1.4l0.2-0.5l0.9-0.5l1.2-0.2l2.1-0.1l1.1-0.2l0.8-0.6	l0.7-0.6l3.6-2.5l1.8-0.5l0.9-0.8l0.7-0.8l0.8-0.6l0.9-0.2l3.8-0.3V53l-0.1,1.1l-0.2,0.8l-1.6,4.8L457,60.9L457,60.9z" class="st0"/><path id="DZA2203" d="M491.1,81.5l-0.4,1.5l-1.3,1.7l-0.7,0.7l-0.7,0.4h-0.7l-1.3-0.5l-0.7-0.1l-0.8,0.2l-0.3,0.7	L484,87l-0.1,1.9l-0.1,1.1l-0.7,3.1l-1.9,0.1l-1,0.3l-2.6,1.5l-1.8,0.6l-2.3,1.5l-1.4,0.1l-0.4,0.2v0.4l0.2,0.4l0.4,0.4l0.1,0.5	l-0.5,0.1l-0.5-0.5l-0.7-0.3l-0.5,0.1l-0.4,0.1l-0.5,0.4l-3.4,3.7l-0.3,0.5l-0.1,0.4l0.2,0.9l-0.2,0.7l-0.4,0.3l-0.4,0.1l-0.8-0.1	l-1-0.3l-2.3-0.4l-2.6-1.2l-3.2-0.5l-0.8-0.4l-0.5-0.5l-0.4-0.5l-1-0.7l-0.8-0.1l-0.8,0.1l-1,0.3l-0.9-0.1l-0.9-0.5l-1.5-1.4	l-1.2-0.9l-1.1-0.3l-1.1-0.1l-0.9,0.1l-1.7,0.4l-0.7,0.1l-1.2-0.2l-0.7-0.6l-0.5-1l-0.4-1.1l-0.4-2.3l-0.5-1.6l-1.8-1.6l0.3-1	l0.8-0.7l0.6-0.5l0.5-0.7l1.5-1.3l0.6-0.5l0.5-0.3l0.4-0.1h0.4l0.8,0.1l0.8-0.2l0.7-0.5l0.9-0.9l0.6-0.7l0.3-0.5l0.2-0.5l0.7-3v-0.4	l-0.3-0.3L444,78l-0.2-0.2v-0.3l0.1-0.7l0.3-0.7l0.6-1.2l0.5-0.3l0.5-0.2l0.4,0.1l1.4-0.2l0.4-0.1l0.6-0.3l0.2-0.2l0.1-0.5l0.1-1.1	l0.1-0.9v-1.4l0.1-0.7l0.3-0.3l0.4-0.3l1.3-0.4l0.6-0.4l0.4-0.4l0.6-1.3l0.3-0.5l1.7-1.7l0.6-0.7l0.5-1l1.1-1.2l1.5,0.6l0.9,0.1h0.8	l2-0.8l2.8-0.8h0.8l0.6,0.2l0.1,0.5l0.2,1.7l0.2,0.6l0.9,2.5v0.4v0.4l-0.4,0.9v0.4l0.1,0.5l1.3,2l0.4,0.3l0.5,0.1l1.8-0.1l1.8,0.1	l0.3,0.2l0.3,0.3l0.6,1l0.3,0.6l0.3,0.5l0.5,0.3l0.7,0.4L478,75l0.9,0.3l0.8,0.1l4.6-1.4l0.5-0.1l0.4,0.2l0.3,0.3l1,2.4l0.4,0.7	l0.8,1l0.3,0.4l0.4,1l0.6,0.6l0.4,0.3L491.1,81.5L491.1,81.5z" class="st0"/><path id="DZA2204" d="M446.8,126.3l6.4-0.5l1.3,0.3l0.1,1.3l0.3,0.6l1.1,0.7l1.7,0.8l1,0.7l0.7,0.8l1,1.3l0.4,0.7	l0.1,0.9l-0.1,0.6l-0.4,0.8l-4.5,4l-0.5,0.6l-0.2,0.8l0.1,1.3l0.2,1.8l1,3.2l7.9,13.7l-0.1,0.6l-0.3,0.5l-0.5,0.4l-3,1.6l-0.9,0.7	l-1.4,0.1l-1.6,0.7l-3.5,2.2l-0.2,0.1l-10.5,6.5l-0.4,0.4l-2,1.7l-0.5,0.2l-2.9-0.1l-1,0.1l-0.8,0.3l-0.7,0.4l-0.5,0.8l-0.4,0.9	l-0.3,0.9l-0.4,0.5l-0.7,0.8l-1.8,1.5l-1.4,1.5l-0.4,0.7l-0.5,1l-0.6,1.6l-0.8,0.1l-1,0.6l-2.3,1.7l-2.1,1.1l-0.6,0.1l-0.2-0.2	l-0.1-0.5l0.2-0.6l-0.1-0.9L420,187l-0.3-1.1l-0.3-0.3l-0.4-0.3l-1.4-0.3h-1.2l-0.6,0.1l-0.4,0.4l-1.7,0.6l-0.9,0.3l-0.5,0.2	l-0.4,0.3l-1.5,1.8l-1.7,2.5l-0.4,0.8l-0.4,0.4l-0.7-0.1l-0.6,0.1l-0.4,0.3l-0.1,0.4v0.5v0.7v0.4l-0.3,0.3l-0.5-0.3l-0.9-1l-0.1-0.5	v-0.5l0.1-0.4l-0.1-0.7l-1.3-3.5l-3.6-7.2l-0.3-1l-0.3-1.1l0.1-0.7l0.6-1.4l20-17.6l0.2-0.3l0.3-0.9l0.3-1l0.1-1.2l-0.1-1l-0.3-0.8	l-2.5-3.8l-1.6-1.6l-1.7-1.3l-0.4-0.4l-0.8-0.6l-0.2-0.3v-0.7l-0.1-0.4l-0.2-0.3l-0.5-0.2h-1.2l-0.2-0.1l-0.2-0.4l-0.4-0.3l-0.9-0.3	l-0.3-0.2l-0.2-0.3v-0.4v-0.8l-0.3-0.6l-0.7-0.5l-1.9-0.8l-0.3-0.2l-0.2-0.3v-0.3l0.3-0.5l0.5-0.3h0.3l0.4,0.3h0.3l1-0.5l1.2-0.3	l0.3-0.2l0.3-0.2l0.1-0.3l-0.1-0.3l-0.4-0.4l-0.4-0.3l-0.2-0.4l-0.1-0.5l0.2-1.6l-0.1-0.4l-0.3-0.4l0.1-0.4l0.2-0.4l0.1-0.6l0.2-0.3	l0.2-0.2l0.2-0.1l0.4,0.1l0.5,0.2h0.3l0.3-0.1l0.3-0.2l0.3-0.5v-0.3l-0.1-0.3L411,129l-0.1-0.4l-0.2-1v-0.5v-0.8l0.4-0.7l0.4-0.4	h0.3l0.7-0.1l0.5-0.3l0.4-0.4l0.4-0.3h0.4l0.8,0.1l1.4-0.3l0.3-0.5l0.2-0.8l0.3-0.5l0.4-0.2l0.3,0.1l0.3,0.4l0.3,0.6v0.6v0.8	l0.1,0.7l0.3,0.3l0.5,0.4l0.7,0.1l0.4,0.3l0.8,0.8l1,0.7h0.5l0.4-0.3l0.4-0.9l0.6-0.5l0.9-0.1l1.3,0.3h0.8l0.7-0.3l0.5-0.1l0.6,0.3	l0.6,0.7l0.8,1.6l0.6,0.8l1.2,0.8l0.9,0.2l1-0.3l0.8-0.3l0.8-0.3l1.5-0.3l1.8-0.8l0.8-0.1l2,0.5l1,0.1l1-0.3l0.9-0.5l1.4-1.1	L446.8,126.3L446.8,126.3z" class="st0"/><path id="DZA2205" d="M531.6,98.3l1.7,7.1l0.1,6.6l0.3,0.4l0.4,0.4l0.8,0.5l0.5,0.1l0.9,0.2l0.3,0.3l0.3,0.5l0.7,1.4	l0.3,0.8l0.1,0.9l-0.3,0.7v0.7l0.2,0.4l0.3,0.4l10.5,8.5l0.6,0.7l0.2,0.7l-0.4,0.5l-0.7,0.3l-3.4,1l-0.2,0.1l-0.8,1.6l-2.2,6l-1,1.7	l-3.4,3.8l-0.6,4.9l-2,0.1l-3.7,0.7l-0.9,0.3l-0.4,0.4l-0.4,0.8l-0.4,0.7l-0.7,0.8l-4.5,2.6l-5.2,4.5l-1.1,0.7l-6,1.8l-1.3,0.9	l-1.8,1.5l-2.6,2.9l-1.2,1.7l-0.8,1.6l-0.3,1.2l-0.5,1.5l-0.8,0.9l-14.7,11l-2.6-3.3l-1-2.4l-0.6-1l-0.9-0.5l-1.9-0.3l-7.4,0.5	l-0.7-0.2l-0.3-0.6v-1l0.7-7l-0.9-1l-2-1.5l-10.4-3.3l0.9-0.7l3-1.6l0.5-0.4l0.3-0.5l0.1-0.6l-7.9-13.7l-1-3.2l-0.2-1.8l-0.1-1.3	l0.2-0.8l0.5-0.6l4.5-4l0.4-0.8l0.1-0.6l-0.1-0.9l-0.4-0.7l-1-1.3l-0.7-0.8l-1-0.7l-1.7-0.8l-1.1-0.7l-0.3-0.6l-0.1-1.3l-1.3-0.3	l-6.4,0.5l1-2.8l2.5-3.4l1.3-3.1l0.6-1l0.6-0.9l0.7-0.5l0.7-0.4l0.7-0.3l0.7-0.2h0.5l0.7,0.1l1.8,0.7l0.7,0.3l0.6,0.2l0.7-0.1	l1.2-0.6l0.8-1l2.3-3.1l0.5-0.9l0.1-0.7l-0.3-0.4l-1.7-1l-0.5-0.5l-0.3-0.4l0.3-1.1l1,0.3l0.8,0.1l0.4-0.1l0.4-0.3l0.2-0.7l-0.2-0.9	l0.1-0.4l0.3-0.5l3.4-3.7l0.5-0.4l0.4-0.1l0.5-0.1l0.7,0.3l0.5,0.5l0.5-0.1l-0.1-0.5l-0.4-0.4l-0.2-0.4v-0.4l0.4-0.2l1.4-0.1	l2.3-1.5l1.8-0.6l2.6-1.5l1-0.3l1.9-0.1l1.1,1.4l0.5,0.2l0.6,0.1l0.6-0.3l0.3-0.6l0.4-1.8l0.3-0.8l0.4-0.7l0.7-0.1l0.6,0.2l0.7,0.4	l1.3,0.2l2.7,1.3L494,93l0.4,0.5l0.2,0.7l0.2,1.3l0.3,0.7l0.4,0.1l0.7-0.2l0.9-0.4l1.2-0.2l0.9,0.6l1.5,1.8l1.3,0.9L503,99l0.7-0.4	l0.5-1.2l0.5-0.4l0.3,0.1l0.3,0.4l0.3,0.5l0.3,0.3l0.5,0.3l0.8,0.1l5.5-0.2l4.4-1l4.9-0.2l0.5,0.3l0.2,0.6l0.1,0.6l0.1,0.4h0.5	l1.6-0.6l2.3-0.4L531.6,98.3L531.6,98.3z" class="st0"/><path id="DZA2206" d="M505.8,76.6l4.4,1.3l1.5,1.6l0.3,0.6l0.6,0.3l0.6-0.4l0.8-1.1l0.7-0.2l2.4,0.7l0.8-0.2l0.4-0.4	l0.2-0.9l0.5-0.6l1.1-0.4l1.7,0.3l2.6,0.1l2.3-0.4l1.2,0.1l1.2,0.3l2.3,1.4l3.3,1.3l-3.4,7.3l-0.7,0.7l-0.9,0.4l-0.9,0.1l-0.8,0.3	l-0.5,0.6l-0.2,0.6l0.1,0.9l0.4,1l1,1.2l0.8,0.5l1.8,0.8l0.5,0.6l0.4,0.6l-0.6,2.7l-4.3-0.1l-2.3,0.4l-1.6,0.6h-0.5l-0.1-0.4	l-0.1-0.6l-0.2-0.6l-0.5-0.3l-4.9,0.2l-4.4,1l-5.5,0.2l-0.8-0.1l-0.5-0.3l-0.3-0.3l-0.3-0.5l-0.3-0.4l-0.3-0.1l-0.5,0.4l-0.5,1.2	l-0.7,0.4l-1.1-0.2l-1.3-0.9l-1.5-1.8l-0.9-0.6l-1.2,0.2l-0.9,0.4l-0.7,0.2l-0.4-0.1l-0.3-0.7l-0.2-1.3l-0.2-0.7L494,93l-0.6-0.4	l-2.7-1.3l-1.3-0.2l-0.7-0.4l-0.6-0.2l-0.7,0.1l-0.4,0.7l-0.3,0.8l-0.4,1.8l-0.3,0.6l-0.6,0.3l-0.6-0.1l-0.5-0.2l-1.1-1.4l0.7-3.1	l0.1-1.1L484,87l0.2-0.9l0.3-0.7l0.8-0.2l0.7,0.1l1.3,0.5h0.7l0.7-0.4l0.7-0.7l1.3-1.7l0.4-1.5l-0.2-0.7l0.2-0.7l0.4-0.3l1.5-1	l0.2-0.4l-0.4-0.9l0.1-0.3l0.3-0.3l2.1-0.8l0.3-0.2l0.2-0.3l0.2-0.5l0.1-1.1l0.2-0.3l0.8-0.8l0.6-1.1l0.3-0.1h0.4l1.2,1.1l0.3,0.3	l0.1,0.4l0.2,0.9l0.3,0.5l0.3,0.3l1.3,0.8l1.7,0.8l0.6,0.1L505.8,76.6L505.8,76.6z" class="st0"/><path id="DZA2207" d="M654.9,49.2l-0.6,0.8l-0.1,0.5l-0.1,0.7l0.3,0.7l0.7,1l0.8,0.7l0.8,0.1h0.7l2.2,0.3h0.7l1.5-0.2	l2.3-0.8h0.7l1.4,0.3l1.4,0.6l0.5,0.4l0.5,0.8l1.1,2.1l0.9,0.8l0.9,0.2l0.8-0.3l0.7-0.5l0.6-0.2l0.5,0.3l0.2,0.4l0.2,0.8l0.1,0.8	l0.2,0.7l0.4,0.1l0.3-0.2l0.5-0.5l0.5,0.1l0.3,0.4v1l-0.1,0.7l-0.4,0.9l-0.8,1l-0.8,0.4l-0.7,0.2l-0.4,0.3l-0.2,0.4l0.2,0.8l0.4,1.2	v0.5l-0.5,0.8l-0.2,0.5l-0.1,1.2l-0.2,1l-1.1,2l-0.4,1.1l-0.3,1.7l-0.1,1.4l0.2,2.5v0.8l-0.3,0.5l-0.6,0.2l-2.1,0.1l-0.6,0.2	l-0.3,0.6l-0.2,0.5v2.6l-1.9-0.1l-0.8-0.3l-1.1-0.7l-1.1-1l-0.4-0.3l-0.8-0.2l-0.5-0.1l-0.6-0.4l-0.4-0.4l-1.1-1.5l-0.5-0.5	l-0.5-0.2h-0.8l-1.7,0.4l-1.9,0.1l-0.7,0.1l-1.5,0.4l-3.7,1.7l-1,0.3l-1,0.1l-4.9-0.1l-0.8-0.2l-0.8-0.3l-0.8-1l-0.2-0.7l0.2-0.6	l1.5-1.3l0.4-0.6l0.2-0.6l0.3-0.9l0.3-0.4l1-0.1l0.5-0.2l0.2-0.2v-0.3l-0.2-0.4l-0.5-0.7l-0.2-0.6l-0.4-1.1l-0.2-1l-0.2-0.4	l-0.2-0.4l-0.3-0.2h-0.6l-1,0.4l-1.8,1.3l-1,0.5l-1.2,0.1l-1.6-0.2l-6.3-1.4l-1.5,0.2l-0.7,0.3l-0.3,0.3l-0.1,0.2l-0.2,0.3h-0.4	h-0.6l-1.2-0.3l-0.4-1l-0.2-0.3l-0.7-0.4l0.4-1l0.3-0.3l1.5-1.3l0.7-0.9l0.5-1.2l0.6-2.2l0.4-1l0.7-0.9l2.2-1.9l1.1-1.3l2.3-3.6	l2.4-3.1l1,1.3l0.7,3.1l0.8,1.8l0.8,0.7l1,0.2l3.2-0.2l0.7-0.1l1.7-0.7l2.9-0.5l0.4-0.3l0.2-0.6l-0.2-0.7l-0.1-0.7v-0.8l0.2-1.8	l0.2-0.5l0.4-0.4l1.7-0.8l0.7-0.5l0.6-0.6l1.3-2.1l0.7-0.6l0.5-0.2h0.5l0.3,0.2l0.3,0.4l0.7,1.6L654.9,49.2L654.9,49.2z" class="st0"/><path id="DZA2208" d="M685.3,32.1l0.4,1.9l-0.2,0.6l-0.2,0.3v0.3l0.2,0.2l1.2,0.4l0.9,0.7l-0.7,1.1l-0.2,0.7v0.8	l0.1,0.9l0.2,1v0.4l-0.1,0.4l-0.4,0.4l-1.3,0.9l-0.9,0.4l-1.8,0.4l-1.6,0.8l-0.4,0.3l-0.3,0.3l-0.3,0.6l-0.2,0.7l0.1,0.7l-0.2,0.8	l-0.3,0.5l-1.3,0.5l-1,0.1l-1.6-0.3l-0.8-0.5l-0.9-0.9V47l0.3-1.4V45l-0.2-0.7l-0.3-0.6l-0.8-1.1l-0.1-0.3l0.3-0.3l0.5-0.4l0.4-0.4	l0.2-0.5v-0.4l-0.3-0.4l-1.5-1.2l-0.7-0.6l-0.3-0.3l-0.5-0.2l-1.2-0.3H669l-0.7,0.2l-0.6,0.7l-0.1,0.6l-0.1,0.8l-0.2,0.5l-0.5,0.4	l-0.8,0.1l-1.4-0.4l-2.1,1.2l-0.3,0.4l-0.1,0.2l0.3,0.5l1.2,0.9l0.4,0.4v0.4l-0.3,0.4l-0.9,0.5l-0.5,0.6l-0.2,0.6v0.6l-0.2,0.6	l-0.3,0.5l-0.7,0.6l-0.7,0.4l-1,0.3l-0.8,0.1l-3.4-0.2l-0.3-0.5l-0.7-1.6l-0.3-0.4l-0.3-0.2h-0.5l-0.5,0.2l-0.7,0.6l-1.3,2.1	l-0.6,0.6l-0.7,0.5l-1.7,0.8l-0.4,0.4l-0.2,0.5l-0.2,1.8v0.8l0.1,0.7l0.2,0.7l-0.2,0.6l-0.4,0.3l-2.9,0.5l-1.7,0.7l-0.7,0.1	l-3.2,0.2l-1-0.2l-0.8-0.7l-0.8-1.8l-0.7-3.1l-1-1.3L634,51l0.6-0.4l0.6-0.3l0.3-0.3l0.1-0.4l-0.2-0.9l0.1-0.8l0.1-0.6l0.2-0.4v-0.5	l-0.1-0.6l-1-1.2l-0.5-1l2.7-0.9l1.3-0.8l3.6-4.1l0.5-0.7l0.6-1.7l2-3.2l0.3-0.8l0.1-0.8l-0.3-0.5l-0.3-0.3l-0.5-0.2l-1-0.4	l-0.4-0.3l-0.3-0.5l-0.1-0.4l0.2-0.8l0.4-0.4l0.6-0.4l0.7-0.1l0.5,0.1l1.2,0.5l0.5,0.1l0.5-0.3l0.2-0.6l0.3-1.3l0.1-0.6l-0.1-0.6	l-0.1-0.4l-2-3l-0.3-0.7l-0.1-1l-0.1-0.4h1.5l3.6,0.3l3.5-0.4l0.8,0.1l7.9,3.4l0.9,0.8l0.2,0.4l0.6,0.2l0.7-0.1l0.5,0.1l0.3,0.3	l0.4,0.8l0.2,0.2l0.8,0.4l1,0.3l1,0.1h0.9l-1,2.9l0.3,1l1.3,1.1l5.7,2.9l1.6,0.4l1.7,0.1l3.3-0.5L685.3,32.1z" class="st0"/><path id="DZA2209" d="M590.9,30.6l1.5,2.8l0.1,0.6v0.5l-0.5,0.4l-0.3,0.3l-0.8,1.3l-0.4,0.5l-0.6,0.3l-0.6,0.3l-5.2,1	l-0.7,0.3l-0.5,0.5l-0.3,0.5l-0.5,1.2l-0.6,1.5l-1.8,0.4l-1.2,0.1l-0.8,0.4l-0.4,0.4l-0.3,0.7l-0.3,0.7l-1,0.9l-1.2,0.7l-1.7,0.6	l-2.4,1.5l-1.3,1.1l-0.8,0.5l-0.6,0.2l-0.7-0.1l-0.7-0.4l-0.8-0.7l-0.5-0.9l-0.4-0.9l-0.4-0.6l-0.7-0.1l-0.5,0.4l-1.1,1.2l-0.7,0.6	l-0.8,0.5l-1,0.3h-0.9l-1.1-0.2l-4.8,0.4l-1.1-0.1l-0.4-1.8l-0.2-0.2l-0.3-0.1l-1.2,0.7l-1.4,0.3l-2.3,0.9l-0.9,0.1l-0.4-0.4	l-0.1-0.7l-0.2-0.3l-0.5-0.2l-0.5-0.6l-0.5-1.2l0.4-2.3l0.3-0.3l0.4-0.4h0.4l1.4,0.4l0.4,0.1l1.8-0.1l1-0.2l0.5-0.4l0.4-0.6l0.2-1	l0.4-0.7l0.8-0.5l2.2-2.1l0.9-0.7l0.8-0.5l0.9-0.3l3-1.5l0.7-0.6l0.2-0.5l0.1-0.4l0.2-0.4l0.5-0.2l5.5,0.2l0.7-0.2l0.4-0.2l0.3-0.4	l0.6-0.3l1-0.2l0.3-0.2l0.2-0.2l0.1-0.3l-0.1-0.4l-0.4-1.2v-0.8l1.4,0.4l0.4,0.7v1l0.4,0.9l0.6,0.4l0.7,0.2h0.6l0.6-0.2l0.6-0.3	l2.3-0.4l2.3-1.2l2.8-1.3l1.7-0.3l1.5-0.1l0.8,0.2l0.5,0.4l0.4,0.6l2.3,1l0.5,0.1l0.4-0.2L590.9,30.6L590.9,30.6z" class="st0"/><path id="DZA2210" d="M603.3,35.5l1.4,2.4l1.5,1.2l1.2,0.9l1.6,1.6l1.8,1.1l2.3,0.8l12.1,0.5l0.8-0.2l1.5-0.7l0.7,0.1	l2.1,0.6h0.8l2.1-0.5l0.9,0.3l0.5,1l1,1.2l0.1,0.6v0.5l-0.2,0.4l-0.1,0.6l-0.1,0.8l0.2,0.9l-0.1,0.4l-0.3,0.3l-0.6,0.3L634,51	l-0.5,0.5l-2.4,3.1l-2.3,3.6l-1.1,1.3l-2.2,1.9l-0.7,0.9l-0.4,1l-0.6,2.2l-0.5,1.2l-0.7,0.9l-1.5,1.3l-0.3,0.3l-0.4,1l-1.9,4.9	l-0.3,2.3l0.1,0.8v0.9l-0.3,0.6l-0.6,0.2l-0.8-0.3l-1.9-1l-0.6-0.1h-0.7l-0.7,0.4l-1.6,1l-1,0.3h-1l-1-0.4l-0.7-0.7l-0.5-0.6	l-0.5-0.4l-0.5-0.3l-0.6-0.2l-0.6-0.3l-1-1l-0.2-0.1l-1.4-0.1l-3.8,0.5l-2.4-4.5l-0.7-3.1l-0.1-1.7v-1.6l0.6-5.2v-1.7l-0.2-1.1	l-0.8-2.5l-0.1-1l0.1-0.6l0.2-0.4l0.9-0.8l0.3-0.6l-0.1-0.7l-0.8-1.5l-0.1-1v-1.3l-0.3-0.6l-0.5-0.4l-0.6-0.1l-1.1-0.5h-0.5	l-0.4,0.2l-1.6,0.6l-0.5,0.4l-0.6,0.8l-0.6-0.1l-0.9-0.6l-1.1-1.5l-0.9-1l-1-0.6l-2.9-1.2l0.6-1.5l0.5-1.2l0.3-0.5l0.5-0.5l0.7-0.3	l5.2-1l0.6-0.3l0.6-0.3l0.4-0.5l0.8-1.3l0.3-0.3l0.5-0.4v-0.5l-0.1-0.6l-1.5-2.8l3,0.7l1.4-0.1l1.9-0.8l0.8-0.2l0.6,0.1l0.6,0.1	l0.9,0.4l0.4,0.3l0.2,0.4l0.1,0.4l-0.2,0.6l-1.4,1.8l-0.3,0.7l-0.2,0.5L599,36l0.4,0.1h0.8L603.3,35.5L603.3,35.5z" class="st0"/><path id="DZA2211" d="M741.3,144.5h0.8h0.6l2.4-0.7l0.8-0.1h0.7h0.4l0.4,0.2l0.2,0.2l0.4,0.6l0.7,1.9l0.3,1l0.1,0.8	l-0.4,2.4l-0.1,2l-0.2,2.1l-0.8,3.7L747,161l-0.2,0.5l-0.2,0.8v0.6l0.4,3.1l-0.4,2.1l-1.7,1.5l-1.7,1l-1.7,0.7l-1.6,0.3h-1.5l-1-0.2	l-0.7-0.2l-1-0.4l-0.7-0.6l-0.5-0.6L734,169l-0.4-0.5l-2.8-1.3l-7.7-2.2h-0.9l-9.4,2l-25.2-3.2l-4.6-1.5l-3-1.4l-0.4,0.1l-0.3,0.3	l-0.3,0.8l0.1,0.9l-0.1,0.8l-0.6,0.6l-0.8,0.5l-2,0.8L675,166l-0.5,0.5l-0.4,0.6l-0.3,0.7l-0.2,0.7l-0.1,0.8l0.2,0.4l0.2,0.3l3.4,3	l1.8,2.2l1.5,2.2l0.5,1l0.8,2l0.5,2.1l0.1,1.3l0.1,2.9l-1.9,12.4l-0.4,1.3l-0.6,1.1l-2.1,2.2l-2.5,3.3l-4.7,8l-34.6-20.7l-2.1-1.7	l-1-1.1l-0.3-0.6l-0.4-1.5l-0.9-6l-0.2-0.6l-0.3-0.6l-0.5-0.4l-1.6-0.4l-1-0.4l-0.8-0.6l-0.3-0.5l-0.1-0.4l0.3-0.9v-0.5l-0.1-1.5	l3.5-0.2l0.6-0.2l0.7-0.3l0.2-0.4l-0.1-0.7l-0.4-0.6l-0.6-0.7l-0.6-0.7l-0.7-1.8l-1.2-1.7l-0.6-1.1l-1.1-5.2l-0.3-0.7l-0.4-0.4	l-0.3-0.5l-0.1-0.9l0.6-1.1l1.8-2.1l0.6-1.1l0.6-1.5l0.7-1.1l3.6-3.8l0.8-1.1l1.5-2.2l0.9-1l1-0.6l0.9-0.1h0.8l1.5,0.3h0.6l0.7-0.2	l2-0.6l2.2-0.3l4.2-1.5l0.7-0.1l1.3,0.2l0.8-0.1l1.3-0.4l0.6-0.1l0.8,0.2h0.8l4.9-1.2l1.3-0.6l2-1.5l1.3-1.5l0.6-1.1l0.1-1.1	l-0.2-8.6l1.7,0.1l3.3,1.7l2.1,1.3l2.4,0.6l1.8,0.1l1.6-0.1l1.2-0.6l1.3-0.8l1-0.5l1-0.3l5.6-0.3l1.1-0.2l0.7-0.3l0.7-0.5l0.5-0.3	l1-0.4l0.5-0.4l0.3-0.5l-0.1-0.7l-0.1-0.4l-0.3-0.6l-0.2-0.4l-2-1.8l-0.4-0.7l0.2-0.4l3.5-0.9l4.2-2.6l2.2-1.1l3-1.1h0.5l0.5,0.2	l1.7,1.5l4.1,1.7h1.1l0.7,0.1l0.3,0.2l0.1,0.6l-0.4,0.7l-0.5,0.6l-1.9,1.7l-0.6,0.7l-0.2,0.5l0.6,2.2l-0.1,0.9l-0.8,1.8v1l0.6,0.9	l1.2,1l0.5,0.6l0.9,0.8h0.9l0.6-0.4l0.3-0.2l0.7-2.2l0.4-0.8l0.4-0.4l0.5-0.1l0.6,0.1l0.6,0.3l0.5,0.5l0.3,0.7l0.2,0.7l0.4,1.1	l0.4,0.2l0.7,0.3h0.9l1.1-0.5h0.2l0.9,0.1l0.2-0.3l0.4-1l0.5-0.6l1.4-0.8l0.7-0.3l0.8-0.1h1.2l2.5-0.5l1.1-0.4l0.9-0.1l0.8,0.2	l0.9,1.1l0.5,0.8l0.1,0.9l-0.2,0.5l-0.4,1l-0.1,0.6l-0.1,0.9v2.4l-0.6,3.2v1l0.4,1l0.6,0.8l0.8,0.7l1.5,1.8l0.4,0.4l0.7,0.3l0.9,0.2	l0.8,0.1l1.1-0.3L741.3,144.5L741.3,144.5z" class="st0"/><path id="DZA2212" d="M586.3,86.9l2.8,4.7l0.6,0.8l3.5,2.9l0.7,0.4l1.1,0.9l5.8,5.5l0.5,0.6l0.3,0.8l0.1,1.1l-0.1,1	l-0.3,0.9l-0.3,0.7l-0.4,0.5l-0.4,0.5l-0.3,0.5l-0.2,0.6l0.2,0.9l0.4,2.3v0.8L600,114l-0.5,0.6l-8.7,7.5l0.1,0.6l2.2,4.7l0.5,0.8	l0.4,0.1h0.5l1.8-0.9l0.6-0.1l0.4,0.2v0.6l-0.2,0.5l-0.4,0.6l-0.5,0.5l-0.4,0.6l-0.3,0.5v0.6l0.3,0.7l0.6,1.5l0.2,0.6l0.1,0.6	l-0.3,1.2v0.6l0.2,0.8l0.2,0.7l0.5,0.9l0.7,0.6l1,0.6l0.3,0.5l0.1,0.6l0.1,0.7l0.2,0.9l0.6,0.9l0.8,0.4h0.9l1.6-0.4h0.8l7.3,1.6	l0.4,0.3l0.2,0.3l0.1,0.7l-0.2,1.8l0.1,1.1l0.1,1.1l2.1,7.5l0.7,1.7l2.4,3.4l0.4,1l0.1,1v1.1l-0.1,1.1l0.1,0.9l0.4,1l1,1.1l4.2,2.8	l0.7,0.8l1.3,1.9l0.8,0.5l0.1,1.5v0.6l-0.3,0.9l0.1,0.4l0.3,0.5l0.8,0.6l1,0.4l1.6,0.4l0.5,0.4l0.3,0.6l0.2,0.6l0.9,6l0.4,1.5	l0.3,0.6l1,1.1l2.1,1.7l34.6,20.7l-5.5,7.5l-1.1,6.1l-1.5,5.5l1.2,23.1l-38.8-10.8l-0.5-1.9l-2.3-6.2l-1.6-3.2l-1.3-1.6l-1.4-1.6	l-18.8-16.5l-19.7-22.2l-3.5-6.1l-0.5-1.4l-0.4-1.3l-0.6-4.3l-1.2-3.4l-0.5-0.6l-1.1-0.5H569h-0.8l-0.4-0.2l-1.1-0.7l-0.6-0.1	l-0.7,0.1l-0.8,0.5l-3.6,3.4l-0.6,0.7l-0.4,0.8l-0.4,1.4l-0.5,0.5l-0.7,0.4l-2.3,0.8l-4.3,0.7l-0.6,0.2l-0.2,0.3l-0.2,0.5l-0.1,0.6	l0.2,6.3l-0.1,1.8l-0.2,1.4l-0.2,0.3l-0.3,0.1h-1.7l-3.8-0.5h-1.4l-0.7-0.4l-0.4-0.7l-0.4-3.3v-0.6l0.3-1.4l1-3.1l0.1-1l-0.2-0.9	l-0.6-1.4l-0.6-1.2l-0.7-1l-1.8-2l-0.6-1l-0.4-0.9l-0.8-5.1l-0.4-1.4l-0.5-1l-0.6-0.7l-1-1l-0.6-0.7l-0.5-1.6l-0.1-2.1l0.4-3.3	l0.4-1.9l0.7-1.3l1.3-1.5l0.4-0.9l0.3-0.7l-0.4-3.2l0.6-4.9l3.4-3.8l1-1.7l2.2-6l0.8-1.6l0.2-0.1l3.4-1l0.7-0.3l0.4-0.5l-0.2-0.7	l-0.6-0.7l-10.5-8.5l-0.3-0.4l-0.2-0.4v-0.7l0.3-0.7l-0.1-0.9l-0.3-0.8l-0.7-1.4l-0.3-0.5l-0.3-0.3l-0.9-0.2l-0.5-0.1l-0.8-0.5	l-0.4-0.4l-0.3-0.4l-0.1-6.6l9.3-3.2l2.4-0.4h0.1l3.7,2.9l0.7,0.3l0.8,0.3l0.8-0.1l0.9-0.2l0.7-0.4l0.8-0.7l0.5-0.8l0.9-1.4l0.2-0.4	l0.5-0.7l0.9-0.8l5.7-4.6l0.5-0.6l0.3-0.5l0.1-0.7v-0.8l-0.2-1.8v-0.5l0.1-1.2l-0.1-0.5l-0.4-1.7l-0.2-0.9v-1l0.3-0.6l0.4-0.3	l0.6-0.1l0.9-0.1l1.4-0.3l1.1,0.2l0.6,0.6l0.3,0.6l0.3,1.4l0.3,0.7l0.3,0.6l1,0.6l0.2,0.4l0.2,0.5l0.4,1.6l0.4,0.5l0.8,0.2l4.7-0.8	l0.9-0.5l0.5-0.5l0.4-0.9l0.7-3.1l0.5-1l0.7-0.7l0.5-0.1l0.4,0.3l0.6,1.2l0.4,0.7l0.6,0.5l0.7,0.3l0.7,0.1L586.3,86.9L586.3,86.9z" class="st0"/><path id="DZA2213" d="M598.3,76.6l0.1,0.8l0.2,1.2l-0.1,0.6l-0.3,0.5l-0.7,1l-0.1,1l-0.3,0.4l-1.9,0.7l-1.1,0.9	l-0.2,0.7l0.1,0.9l0.6,1.4l0.2,0.9l0.1,0.9l-0.1,1.9l-0.2,0.8l-0.4,0.4l-0.9-0.8l-0.6-0.6l-0.4-0.8l-0.5-1l-0.6-1.1l-2.3-3.1	l-0.6-0.4l-0.5-0.2l-0.5,0.4l-0.3,0.3l-0.7,2.6l-2.1,0.2l-0.7-0.1l-0.7-0.3l-0.6-0.5l-0.4-0.7l-0.6-1.2l-0.4-0.3l-0.5,0.1l-0.7,0.7	l-0.5,1l-0.7,3.1l-0.4,0.9l-0.5,0.5l-0.9,0.5l-4.7,0.8l-0.8-0.2l-0.4-0.5l-0.4-1.6l-0.2-0.5l-0.2-0.4l-1-0.6l-0.3-0.6l-0.3-0.7	l-0.3-1.4l-0.3-0.6l-0.6-0.6l-1.1-0.2l-1.4,0.3l-0.9,0.1l-0.6,0.1l-0.4,0.3l-0.3,0.6V86l0.2,0.9l0.4,1.7l0.1,0.5l-0.1,1.2v0.5	l0.2,1.8v0.8l-0.1,0.7l-0.3,0.5l-0.5,0.6l-5.7,4.6l-0.9,0.8l-0.5,0.7l-0.2,0.4l-0.9,1.4l-0.5,0.8l-0.8,0.7L552,105l-0.9,0.2	l-0.8,0.1l-0.8-0.3l-0.7-0.3l-3.7-2.9H545l-2.4,0.4l-9.3,3.2l-1.7-7.1l0.6-2.7l-0.4-0.6l-0.5-0.6l-1.8-0.8l-0.8-0.5l-1-1.2l-0.4-1	l-0.1-0.9l0.2-0.6l0.5-0.6l0.8-0.3l0.9-0.1l0.9-0.4l0.7-0.7l3.4-7.3l2.1-2.9l3.1-2.9l0.6-0.9l0.4-0.8l0.3-1.4l0.3-0.7l0.3-0.6	l0.4-0.4l5.1-3.3l0.4-0.8l0.6-1.5l0.7-1.1l1.5-1.5l0.2-0.6v-0.5l-0.3-0.2l-0.4-0.1h-1.6l-0.9-0.4h-0.3l-0.3,0.2l-1.1,0.9l-0.5,0.2	l-0.2-0.2l-0.4-0.5l-0.2-0.5l-0.3-0.5l-0.8-0.7l-0.2-0.7v-1l0.2-0.5l0.3-0.4l0.6-0.7l0.5-0.6l0.3-0.3l0.4-0.2l3-0.1l0.8-0.3L550,53	l0.9-0.9l0.4-0.6l0.1-0.5l0.1-0.7l1.1,0.1l4.8-0.4l1.1,0.2h0.9l1-0.3l0.8-0.5l0.7-0.6l1.1-1.2l0.5-0.4l0.7,0.1l0.4,0.6l0.4,0.9	l0.5,0.9l0.8,0.7l0.7,0.4l0.7,0.1l0.6-0.2l0.8-0.5l1.3-1.1l2.4-1.5l1.7-0.6l1.2-0.7l1-0.9l0.3-0.7l0.3-0.7l0.4-0.4l0.8-0.4l1.2-0.1	l1.8-0.4l2.9,1.2l1,0.6l0.9,1l1.1,1.5l0.9,0.6l0.6,0.1l0.6-0.8l0.5-0.4l1.6-0.6l0.4-0.2h0.5l1.1,0.5l0.6,0.1l0.5,0.4l0.3,0.6v1.3	l0.1,1l0.8,1.5l0.1,0.7l-0.3,0.6l-0.9,0.8l-0.2,0.4l-0.1,0.6l0.1,1l0.8,2.5l0.2,1.1v1.7l-0.6,5.2v1.6l0.1,1.7l0.7,3.1L598.3,76.6	L598.3,76.6z" class="st0"/><path id="DZA2214" d="M667.3,85.3l0.2,0.6l0.3,0.3l0.7,0.6l1,0.7l3.4,1.4l0.3,0.4l0.3,1.2l0.8,0.8l1.3,0.8l7.4,1.8	l-5.6,5l-1.4,0.8l-1.2,0.4l-1.8,1.1l-0.8,0.2l-0.8-0.3l-0.8-0.4l-0.9-0.2h-2.9l-1.1,0.1l-0.8,0.3l-0.3,0.3l-0.6,0.7l-1.2,0.6	l-0.7-0.1l-0.6-0.3l-0.2-0.2l-0.9-1.1l-0.4-0.3l-0.4-0.3h-0.4l-0.4,0.1l-0.1,0.4v0.5l0.9,3.5l0.3,2.1v2.2l-0.1,1.5l-0.5,3.2l-0.4,1	l-0.8,1.2l-1.4,1.7l-1.8,1.6l-0.8,0.9l-0.3,0.7l0.1,0.4l0.2,0.4l0.3,0.3l0.5,0.2l3.6,0.3l1.3,0.2l1.2,0.4l1,0.5l1.1,0.7l0.7,0.9	l0.6,0.9l0.4,0.4l0.5,0.1l0.7,0.1l0.5-0.1l0.2,8.6l-0.1,1.1l-0.6,1.1l-1.3,1.5l-2,1.5l-1.3,0.6l-4.9,1.2h-0.8l-0.8-0.2l-0.6,0.1	l-1.3,0.4l-0.8,0.1l-1.3-0.2l-0.7,0.1l-4.2,1.5l-2.2,0.3l-2,0.6L641,145h-0.6l-1.5-0.3h-0.8l-0.9,0.1l-1,0.6l-0.9,1l-1.5,2.2	l-0.8,1.1l-3.6,3.8l-0.7,1.1l-0.6,1.5l-0.6,1.1l-1.8,2.1l-0.6,1.1l0.1,0.9l0.3,0.5l0.4,0.4l0.3,0.7l1.1,5.2l0.6,1.1l1.2,1.7l0.7,1.8	l0.6,0.7l0.6,0.7l0.4,0.6l0.1,0.7l-0.2,0.4l-0.7,0.3l-0.6,0.2l-3.5,0.2l-0.8-0.5l-1.3-1.9l-0.7-0.8l-4.2-2.8l-1-1.1l-0.4-1l-0.1-0.9	l0.1-1.1v-1.1l-0.1-1l-0.4-1l-2.4-3.4l-0.7-1.7l-2.1-7.5l-0.1-1.1l-0.1-1.1l0.2-1.8l-0.1-0.7l-0.2-0.3l-0.4-0.3l-7.3-1.6h-0.8	l-1.6,0.4h-0.9l-0.8-0.4l-0.6-0.9l-0.2-0.9l-0.1-0.7l-0.1-0.6l-0.3-0.5l-1-0.6l-0.7-0.6l-0.5-0.9l-0.2-0.7l-0.2-0.8V136l0.3-1.2	l-0.1-0.6l-0.2-0.6l-0.6-1.5l-0.3-0.7v-0.6l0.3-0.5l0.4-0.6l0.5-0.5l0.4-0.6l0.2-0.5v-0.6l-0.4-0.2l-0.6,0.1l-1.8,0.9h-0.5l-0.4-0.1	l-0.5-0.8l-2.2-4.7l-0.1-0.6l8.7-7.5l0.5-0.6l0.2-0.7v-0.8l-0.4-2.3l-0.2-0.9l0.2-0.6l0.3-0.5l0.4-0.5l0.4-0.5l0.3-0.7l0.3-0.9	l0.1-1l-0.1-1.1l-0.3-0.8l-0.5-0.6l-5.8-5.5l-1.1-0.9l-0.7-0.4l-3.5-2.9l-0.6-0.8l-2.8-4.7l0.7-2.6l0.3-0.3l0.5-0.4l0.5,0.2l0.6,0.4	l2.3,3.1l0.6,1.1l0.5,1l0.4,0.8l0.6,0.6l0.9,0.8l0.4-0.4l0.2-0.8l0.1-1.9l-0.1-0.9l-0.2-0.9l-0.6-1.4l-0.1-0.9l0.2-0.7l1.1-0.9	l1.9-0.7l0.3-0.4l0.1-1l0.7-1l0.3-0.5l0.1-0.6l-0.2-1.2l-0.1-0.8l3.8-0.5l1.4,0.1l0.2,0.1l1,1l0.6,0.3l0.6,0.2l0.5,0.3l0.5,0.5	l0.5,0.6l0.7,0.7l1,0.4h1l1-0.3l1.6-1l0.7-0.4h0.7l0.6,0.1l1.9,1l0.8,0.3l0.6-0.2l0.3-0.6v-0.9l-0.1-0.8l0.3-2.3l1.9-4.9l0.7,0.4	l0.2,0.3l0.4,1l1.2,0.3h0.6h0.4l0.2-0.3l0.1-0.2l0.3-0.3l0.7-0.3l1.5-0.2l6.3,1.4l1.6,0.2l1.2-0.1l1-0.5l1.8-1.3l1-0.4h0.6l0.3,0.2	l0.2,0.4l0.2,0.4l0.2,1l0.4,1.1l0.2,0.6l0.5,0.7l0.2,0.4v0.4l-0.2,0.2l-0.5,0.2l-1,0.1l-0.3,0.4l-0.3,0.9l-0.2,0.6l-0.4,0.6	l-1.5,1.3l-0.2,0.6l0.2,0.7l0.8,1l0.8,0.3l0.8,0.2l4.9,0.1l1-0.1l1-0.3l3.7-1.7l1.5-0.4l0.7-0.1L655,80l1.7-0.4h0.8l0.5,0.2l0.5,0.5	l1.1,1.5l0.4,0.4l0.6,0.4l0.5,0.1l0.8,0.2l0.4,0.3l1.1,1l1.1,0.7l0.8,0.3L667.3,85.3L667.3,85.3z" class="st0"/><path id="DZA2215" d="M700.1,38.6l0.8,0.8l0.2,0.4l0.4,0.6l0.2,0.7v1l-0.2,1.8v0.9l0.5,0.8l0.7,0.4l1,0.1h0.9l0.9,0.1	l0.7,0.6l0.5,1.1l0.1,2.3l-0.1,3.8l-0.3,1.5v1.1l0.6,1l0.7,0.2h0.9l0.6,0.1l0.4,0.6l-0.2,1l-0.4,0.7l-0.6,0.4l-0.4,0.5v0.7l0.5,0.9	l0.6,0.6l0.3,0.5l0.1,0.4v0.7l0.2,0.4l0.6,0.8l0.8,0.4l0.6,0.8l0.3,1.2l-0.5,5.8l0.3,0.9l-0.1,1.9l-1.4,1l-0.1,0.2v0.5l0.2,0.5v0.8	l-0.4,0.2l-0.9-0.3l-2.1-1.6l-1.1-0.8l-1.6-0.5l-1.1,0.1l-1.1,0.4l-1.5,1l-0.7,0.5l-0.5,0.6l-0.4,0.7L699,81l0.2,0.6l0.5,0.3	l0.8,0.3l0.6,0.5l0.3,0.6l-0.7,1.7l-0.5,0.7l-0.7,0.1l-1.9-0.8l-0.6-0.4l-0.5-0.5l-0.5-0.3l-1.2-0.5l-0.9-0.5l-0.8-0.2l-0.7,0.3	l-0.4,0.6l-0.3,0.8l-0.3,0.8l-0.9,0.4l-2.5,1.8l-0.3,0.5l-0.3,0.5l-0.1,0.7l-0.1,1.8l-0.3,0.9l-0.4,0.8l-0.7,0.9l-0.7,0.4l-0.7,0.2	l-1.4-0.1l-7.4-1.8l-1.3-0.8l-0.8-0.8l-0.3-1.2l-0.3-0.4l-3.4-1.4l-1-0.7l-0.7-0.6l-0.3-0.3l-0.2-0.6v-2.6l0.2-0.5l0.3-0.6l0.6-0.2	l2.1-0.1l0.6-0.2l0.3-0.5v-0.8l-0.2-2.5l0.1-1.4l0.3-1.7l0.4-1.1l1.1-2l0.2-1l0.1-1.2l0.2-0.5l0.5-0.8v-0.5l-0.4-1.2l-0.2-0.8	l0.2-0.4l0.4-0.3l0.7-0.2l0.8-0.4l0.8-1l0.4-0.9l0.1-0.7v-1l-0.3-0.4l-0.5-0.1l-0.5,0.5l-0.3,0.2l-0.4-0.1l-0.2-0.7l-0.1-0.8	l-0.2-0.8l-0.2-0.4l-0.5-0.3l-0.6,0.2l-0.7,0.5l-0.8,0.3l-0.9-0.2l-0.9-0.8l-1.1-2.1l-0.5-0.8l-0.5-0.4l-1.4-0.6l-1.4-0.3h-0.7	l-2.3,0.8l-1.5,0.2h-0.7l-2.2-0.3h-0.7l-0.8-0.1l-0.8-0.7l-0.7-1l-0.3-0.7l0.1-0.7l0.1-0.5l0.6-0.8l3.4,0.2l0.8-0.1l1-0.3l0.7-0.4	l0.7-0.6l0.3-0.5L662,47v-0.6l0.2-0.6l0.5-0.6l0.9-0.5l0.3-0.4v-0.4l-0.4-0.4l-1.2-0.9l-0.3-0.5l0.1-0.2l0.3-0.4l2.1-1.2l1.4,0.4	l0.8-0.1l0.5-0.4l0.2-0.5l0.1-0.8l0.1-0.6l0.6-0.7l0.7-0.2h0.5l1.2,0.3l0.5,0.2l0.3,0.3l0.7,0.6l1.5,1.2l0.3,0.4v0.4l-0.2,0.5	l-0.4,0.4l-0.5,0.4l-0.3,0.3l0.1,0.3l0.8,1.1l0.3,0.6l0.2,0.7v0.6l-0.3,1.4v0.5l0.9,0.9l0.8,0.5l1.6,0.3l1-0.1l1.3-0.5l0.3-0.5	l0.2-0.8l-0.1-0.7l0.2-0.7l0.3-0.6l0.3-0.3l0.4-0.3l1.6-0.8l1.8-0.4l0.9-0.4l1.3-0.9l0.4-0.4l0.1-0.4v-0.4l-0.2-1l-0.1-0.9v-0.8	l0.2-0.7l0.7-1.1l1.1,0.4l0.3,1.1v0.7l0.3,0.9l0.5,0.5l0.5,0.3l0.6,0.1h0.5l0.6-0.2l0.4-0.3l0.8-0.8l0.4-0.3l0.7-0.3l0.5,0.1	l1.2,0.9l0.7,0.1l0.6,0.1L700.1,38.6L700.1,38.6z" class="st0"/><path id="DZA2216" d="M720.1,78l6.1,2h0.9l1-0.1l0.7-0.9l0.5-0.2l0.5,0.1l1.3,1.3l0.7,0.4l0.8,0.2L735,81l0.4,0.2	l0.5,0.4l0.2,0.7v0.6l-0.1,0.7v0.7l0.4,0.8l0.7,0.1l0.9-0.2l2.9-1.1l1.1-0.1h1.1l1.1,0.4l2.4,1.8l3.4,4.9l0.3,2.9l0.6,2.6l-0.1,0.9	l-0.2,0.8l-0.7,1.5l-0.5,0.7l-0.7,0.7l-1,0.5l-2.6,0.9l-0.9,0.4l-1,0.7l-0.8,0.8l-0.9,1.3l-0.3,0.8l0.1,1.8l-0.2,2v0.9l0.2,0.6	l0.5,0.3l0.7-0.2h0.4l0.3,0.2v0.7l-0.4,0.8l-1.8,1.9l-0.6,1l-0.6,4l-1.8,3.2l-0.3,0.8l-0.1,0.7l-0.1,2.2l0.1,1l0.3,0.9l1.4,2.3	l1.8,3.9l0.3,0.9l0.4,1l-0.2,0.5l-1,2.1l-0.2,1v0.8l0.2,0.8l0.4,1.4l0.3,0.6L741,145l-1.1,0.3l-0.8-0.1l-0.9-0.2l-0.7-0.3l-0.4-0.4	l-1.5-1.8l-0.8-0.7l-0.6-0.8l-0.4-1v-1l0.6-3.2v-2.4l0.1-0.9l0.1-0.6l0.4-1l0.2-0.5l-0.1-0.9l-0.5-0.8l-0.9-1.1l-0.8-0.2l-0.9,0.1	l-1.1,0.4l-2.5,0.5h-1.2l-0.8,0.1l-0.7,0.3l-1.4,0.8l-0.5,0.6l-0.4,1l-0.2,0.3l-0.9-0.1H722l-1.1,0.5H720l-0.7-0.3l-0.4-0.2	l-0.4-1.1l-0.2-0.7l-0.3-0.7l-0.5-0.5l-0.6-0.3l-0.6-0.1l-0.5,0.1l-0.4,0.4l-0.4,0.8l-0.7,2.2l-0.3,0.2l-0.6,0.4h-0.9l-0.9-0.8	l-0.5-0.6l-1.2-1l-0.6-0.9v-1l0.8-1.8l0.1-0.9l-0.6-2.2l0.2-0.5l0.6-0.7l1.9-1.7l0.5-0.6l0.4-0.7l-0.1-0.6l-0.3-0.2l-0.7-0.1H711	l-4.1-1.7l-1.7-1.5l-0.5-0.2h-0.5l-3,1.1l-2.2,1.1l-4.2,2.6l-3.5,0.9l-0.2,0.4l0.4,0.7l2,1.8l0.2,0.4l0.3,0.6l0.1,0.4l0.1,0.7	l-0.3,0.5l-0.5,0.4l-1,0.4l-0.5,0.3l-0.7,0.5l-0.7,0.3l-1.1,0.2l-5.6,0.3l-1,0.3l-1,0.5l-1.3,0.8l-1.2,0.6l-1.6,0.1l-1.8-0.1	l-2.4-0.6l-2.1-1.3l-3.3-1.7l-1.7-0.1l-0.5,0.1l-0.7-0.1l-0.5-0.1l-0.4-0.4l-0.6-0.9l-0.7-0.9l-1.1-0.7l-1-0.5l-1.2-0.4l-1.3-0.2	l-3.6-0.3l-0.5-0.2l-0.3-0.3l-0.2-0.4l-0.1-0.4l0.3-0.7l0.8-0.9l1.8-1.6l1.4-1.7l0.8-1.2l0.4-1l0.5-3.2l0.1-1.5v-2.2l-0.3-2.1	l-0.9-3.5v-0.5l0.1-0.4l0.4-0.1h0.4l0.4,0.3l0.4,0.3l0.9,1.1l0.2,0.2l0.6,0.3l0.7,0.1l1.2-0.6l0.6-0.7l0.3-0.3l0.8-0.3l1.1-0.1h2.9	l0.9,0.2l0.8,0.4l0.8,0.3l0.8-0.2l1.8-1.1l1.2-0.4l1.4-0.8l5.6-5l1.4,0.1l0.7-0.2l0.7-0.4l0.7-0.9l0.4-0.8l0.3-0.9l0.1-1.8l0.1-0.7	l0.3-0.5l0.3-0.5l2.5-1.8l0.9-0.4l0.3-0.8l0.3-0.8l0.4-0.6l0.7-0.3l0.8,0.2l0.9,0.5l1.2,0.5l0.5,0.3l0.5,0.5l0.6,0.4l1.9,0.8	l0.7-0.1l0.5-0.7l0.7-1.7l-0.3-0.6l-0.6-0.5l-0.8-0.3l-0.5-0.3L699,81l0.1-0.6l0.4-0.7l0.5-0.6l0.7-0.5l1.5-1l1.1-0.4l1.1-0.1	l1.6,0.5l1.1,0.8l2.1,1.6l0.9,0.3l0.4-0.2v-0.8l-0.2-0.5v-0.5l0.1-0.2l1.4-1l1.9,0.6l0.6,0.3l1.9,0.4L720.1,78L720.1,78z" class="st0"/><path id="DZA2217" d="M758.3,46l0.5,0.5l0.6,1.4l0.3,0.9l0.1,0.7l0.4,0.6l0.9,0.6l0.2,0.3l0.1,0.6v1v0.6l0.4,0.8l1,0.4	l0.4,0.4l0.3,0.6l0.1,2.3l-0.2,1.5l-0.2,1.1l-1.4,2.4l-1.3,0.3l-1,0.1l-0.7,0.3l-1.4,1.4l-1,0.7l-0.5-0.1l-0.2-0.5l0.1-0.9l-0.3-0.8	l-4.5-2.7l-0.7-0.1l-0.6,0.3l-0.4,0.4l-0.6,0.3l-0.5,0.3l-2.4,0.6l-0.8,0.4l-0.9,0.6l-2.3,1l-0.3,0.8l-0.3,0.3h-0.4l-0.2-0.1	l-1.2-1.6l-1.5-1.7l0.4-2.3l-0.2-0.6l-2.5-3.6l-4.4-4.5l-0.7-0.3l-1.4,0.1l-0.6-0.3l-0.2-0.6l0.2-0.7l0.4-0.5l0.9-0.7l1-0.5l0.4-0.1	l1.1-0.4l3.2-0.4l0.6-0.4l0.2-0.7l-0.2-0.9l-0.6-1.6l-0.1-0.5l0.1-0.3l0.2-0.2l0.7-0.4l0.4-0.6l0.2-1l0.3-2.7h1.7l2,0.4l0.9-0.2	l2.6-2h0.5l0.3,0.3l0.2,0.5l0.3,0.5l2.6,1.2l2.1,0.6l5.6-0.3h0.9l0.4,0.2v0.4l-0.1,0.6l-0.3,0.5l-0.4,0.2l-0.4-0.1l-0.6-0.3	l-0.6-0.1l-0.5,0.1l-0.7,0.3l-0.2,0.2l-0.1,0.4l0.1,1.2v0.5l-0.1,0.3l-0.6,0.5l-0.3,0.4l-0.1,0.4l0.2,0.4l0.5,0.2l0.7,0.1l0.8,0.4	C754.6,45.1,758.3,46,758.3,46z" class="st0"/><path id="DZA2218" d="M792.6,32.1l2.3,0.4l0.5,0.3l1.6,1.4l0.5,0.7l0.3,0.6l0.3,0.9l0.4,0.6l0.6,0.5l8.7,3.7l0.5,0.3	l0.2,0.4l0.2,0.5l0.2,0.5l-5.6,3.1l-1.4,0.1l-2-0.6h-0.3l-0.1,0.4l0.7,1.8l0.1,0.5l0.1,1.3l0.3,0.6l0.6,0.9l0.2,0.9l-0.2,1.2	l-0.8,0.6l-0.9,0.4l-0.8,0.2l-1.7,0.1l-4.8,2.5l-4.8,1.6l-0.5,0.4l-0.7,1l-0.6,0.3l-0.6,0.2h-1l-3.1,0.7l-0.6,0.4l-0.5,0.6l-0.6,1.3	l-0.3,0.5l-0.5,0.3l-0.6,0.1h-1l-1.7-0.9l-2.4-0.3l-0.8,0.2l-0.5,0.3l-0.2,0.6l-0.1,1.8l-0.6,1.1l-1,0.7l-2,1l-1.3,0.4l-1.3,0.2	l-0.6-0.3l-0.3-0.5l-0.1-0.5l-0.2-0.5l-0.5-0.5l-0.6-0.5l-0.4-0.5l-0.2-0.8l-0.2-0.8l-0.1-1.3l-0.1-0.4l1.4-2.4l0.2-1.1l0.2-1.5	l-0.1-2.3l-0.3-0.6l-0.4-0.4l-1-0.4l-0.4-0.8v-0.6v-1l-0.1-0.6l-0.2-0.3l-0.9-0.6l-0.4-0.6l-0.1-0.7l-0.3-0.9l-0.6-1.4l-0.5-0.5	l1.1-2l1.2-0.7l3.7-1.1l0.4-0.2l0.2-0.2l0.1-0.3l-0.1-0.5l-0.2-0.4v-0.6l0.3-0.8l1.2-1.5l1.1-0.9l5.4-2.9l1.3-0.5l1.2-0.3h0.8	l0.5-0.3l0.3-0.4l0.2-1.4l0.1-0.7l0.6-0.8l0.4-0.3l0.9-0.6l0.8-0.3l3.6,2l0.3,0.6l0.4,0.8v1.3l0.2,0.6l0.2,0.3l0.8,0.2l1.1,0.6	l0.7,0.3l0.7,0.2h0.7l1.4-0.2l0.5-0.2l0.5-0.2l0.4-0.4l0.4-0.5L792.6,32.1L792.6,32.1z" class="st0"/><path id="DZA2219" d="M787.5,104.9l-1.2,1.2l-4.5,1.8l-0.7,0.7v0.6l0.3,0.7v0.9l-0.3,2l0.1,0.8l0.1,0.9v1l-0.6,1.2	l-0.1,0.9l0.2,0.9l0.3,1l0.2,1.1l-0.2,1.6l-0.5,1.2l-0.7,1.1l-2.9,3.2l-1.7,2.4l-1.5,1.4l-1.6,2.4l-0.3,0.7l-0.1,0.5l0.1,0.6	l0.1,0.6v0.7l0.1,0.6l0.3,0.5l0.4,0.8l0.1,0.6l0.2,0.5l0.4,1.1l0.2,0.2h0.3l0.4-0.2l0.1-0.3v-0.3l-0.3-0.8v-1l-0.2-0.6l-0.1-0.2	l-0.4-0.7v-0.4l0.1-1.1l0.4-0.8l0.1-0.2l0.9-0.4l0.3-0.3l0.5-1l0.3-0.2l0.2-0.1l0.8,0.4l0.9,0.1l0.6,0.2l0.4,0.5l0.2,0.6l-0.1,1.3	l0.1,0.7l0.1,0.5l0.4,0.8l0.2,0.8l-0.2,3.2l0.1,0.6l0.7,2.2l0.1,0.9v0.9l-0.2,1.1l-1.1,2.7l-0.9,1.7l-1.8,2.6l-0.9,2.2l-0.2,0.3	l-0.6,0.6l-0.5,0.9l-0.9,2.7l-0.5,1.9l-0.8,5.4l-1.1,4.3l-3.4,7.9l-5.7-1l-2.7-0.9l-10.5-6.2l-1.4-1.6l-0.9-2.9l0.4-2.1l-0.4-3.1	v-0.6l0.2-0.8l0.2-0.5l0.7-2.4l0.8-3.7l0.2-2.1l0.1-2l0.4-2.4l-0.1-0.8l-0.3-1l-0.7-1.9l-0.4-0.6l-0.2-0.2l-0.4-0.2h-0.4h-0.7	l-0.8,0.1l-2.4,0.7h-0.6h-0.8l-0.3-0.6l-0.4-1.4l-0.2-0.8v-0.8l0.2-1l1-2.1l0.2-0.5l-0.4-1l-0.3-0.9l-1.8-3.9l-1.4-2.3l-0.3-0.9	l-0.1-1l0.1-2.2l0.1-0.7l0.3-0.8l1.8-3.2l0.6-4l0.6-1l1.8-1.9l0.4-0.8V112l-0.3-0.2h-0.4l-0.7,0.2l-0.5-0.3l-0.2-0.6v-0.9l0.2-2	l-0.1-1.8l0.3-0.8l0.9-1.3l0.8-0.8l1-0.7l0.9-0.4l2.6-0.9l1-0.5l0.7-0.7l0.5-0.7l0.7-1.5l0.2-0.8l0.1-0.9l-0.6-2.6l-0.3-2.9l0.9,1.4	l0.6,1.2L752,94l0.7,0.5l1.3,0.2l1,0.1l5.8-0.8l0.5,0.1l0.6,0.4l1,2l0.7,0.7l1.6,0.1l0.9-0.5l0.8-0.8l0.5-0.8l0.6-0.4l0.5-0.1	l2.7,0.4h0.3l0.2-0.2l0.2-0.6h0.3l1,0.1l0.9,0.2l1,0.5l0.7,0.7l0.4,1.2l-0.1,2.1l0.3,0.6l0.8-0.1l0.5-0.5l0.5-0.9l0.4-0.6l0.5-0.3	l0.7,0.3l0.7,0.5l1.2,1.7l0.6,0.2l0.4-0.2l0.4-0.3h0.4l0.4,0.4l0.5,1.7l0.2,0.5l0.4,0.5l1.4,0.9L787.5,104.9L787.5,104.9z" class="st0"/><path id="DZA2220" d="M734.9,37.2l2.3,0.1l-0.3,2.7l-0.2,1l-0.4,0.6l-0.7,0.4l-0.2,0.2l-0.1,0.3l0.1,0.5l0.6,1.6	l0.2,0.9l-0.2,0.7l-0.6,0.4l-3.2,0.4l-1.1,0.4l-0.4,0.1l-1,0.5l-0.9,0.7l-0.4,0.5l-0.2,0.7l0.2,0.6l0.6,0.3l1.4-0.1l0.7,0.3l4.4,4.5	l2.5,3.6l0.2,0.6l-0.4,2.3h-0.4l-0.8,0.2l-0.7,0.2l-1.5,0.9l-1.2,1.1l-0.7,0.9l-0.3,1.2l0.1,1.9l-0.1,0.9l-0.2,0.9l-0.9,0.9l-1.3,1	l-2.5,1.1l-3.1,0.9l-2.2,0.5l-0.9,0.3l-0.6,0.3l-0.3,0.6l-0.2,0.5l0.1,1.6l-4,0.4l-1.9-0.4l-0.6-0.3l-1.9-0.6l0.1-1.9l-0.3-0.9	l0.5-5.8l-0.3-1.2l-0.6-0.8l-0.8-0.3l-0.6-0.7l-0.2-0.4v-0.7l-0.1-0.4l-0.3-0.5l-0.6-0.6l-0.5-0.9v-0.7l0.4-0.5l0.6-0.4l0.4-0.7	l0.2-1l-0.4-0.6l-0.6-0.1h-0.9l-0.7-0.2l-0.6-1v-1.1l0.3-1.5l0.1-3.8l-0.1-2.3l-0.5-1.1l-0.7-0.6l-0.9-0.1h-0.9l-1-0.1l-0.7-0.4	l-0.5-0.8V44l0.2-1.8v-1l-0.2-0.7l-0.4-0.6l-0.2-0.4l-0.8-0.8l1.9-0.4l0.6,0.1l0.9,0.2l0.7,0.4l1.2,0.4l1.1,0.1l1.7-0.2l1-0.3	l0.5-0.5l0.3-0.7l0.5-0.7l0.7-0.5l1.8-0.8l1-0.1l0.7,0.1l1.7,0.5l2.6,0.2L721,37l1.5,0.1h0.9l0.5-0.2l0.6-0.7l0.3-0.4l1.1-0.4	l1.3-0.8h0.4l0.3,0.1l0.3,0.8l0.2,0.3l0.4,0.2L734.9,37.2L734.9,37.2z" class="st0"/><path id="DZA2221" d="M761.8,62.8l0.1,0.4l0.1,1.3l0.2,0.8l0.2,0.8l0.4,0.6l0.6,0.5l0.5,0.5l0.2,0.5l0.1,0.5l0.3,0.5	l0.6,0.3l1.3-0.2l1.3-0.4l2-1l1-0.7l0.6-1.1l0.1-1.8l0.2-0.6l0.5-0.3l0.8-0.2l2.4,0.3l1.7,0.9v2.9l2.1,4.6l1.4,2.1l0.9,0.9l1.7,2	l0.8,0.6l0.7,0.4l2,0.5l0.7,0.5l0.5,0.7l0.7,2l0.7,0.4l3.1,0.1l0.9-0.2l0.4-0.5l0.1-0.7V80l0.3-0.5l0.8-0.8l0.4-0.7l0.3-0.9l0.5-0.7	l0.8-0.4h1.2l0.9,0.5l0.9,0.5l3.3,3.5l-0.2,0.9V82l0.2,0.7l-0.2,0.5l-1.8,4.4l-0.1,1.6l0.1,1.3l0.8,2.5l0.2,1.1l-0.2,0.9l-0.8,0.5	l-0.8,0.3l-0.8,0.2l-0.8,0.3l-11.1,8.6l-1.1-1.4l-1.4-0.9l-0.4-0.5l-0.2-0.5l-0.5-1.7l-0.4-0.4h-0.4l-0.4,0.3l-0.4,0.2l-0.6-0.2	l-1.2-1.7l-0.7-0.5l-0.7-0.3l-0.5,0.3l-0.4,0.6l-0.5,0.9l-0.5,0.5l-0.8,0.1l-0.3-0.6l0.1-2.1l-0.4-1.2l-0.7-0.7l-1-0.5l-0.9-0.2	l-1-0.1h-0.3l-0.2,0.6l-0.2,0.2h-0.3l-2.7-0.4l-0.5,0.1l-0.6,0.4l-0.5,0.8l-0.8,0.8l-0.9,0.5l-1.6-0.1l-0.7-0.7l-1-2l-0.6-0.4	l-0.5-0.1l-5.8,0.8l-1-0.1l-1.3-0.2L752,94l-0.5-0.5l-0.6-1.2l-0.9-1.4l-3.4-4.9l-2.4-1.8l-1.1-0.4H742l-1.1,0.1L738,85l-0.9,0.2	l-0.7-0.1l-0.4-0.8v-0.7l0.1-0.7v-0.6l-0.2-0.7l-0.5-0.4L735,81l-2.4-0.2l-0.8-0.2l-0.7-0.4l-1.3-1.3l-0.5-0.1l-0.5,0.2l-0.7,0.9	l-1,0.1h-0.9l-6.1-2l-0.1-1.6l0.2-0.5l0.3-0.6l0.6-0.3l0.9-0.3l2.2-0.5l3.1-0.9l2.5-1.1l1.3-1l0.9-0.9l0.2-0.9l0.1-0.9l-0.1-1.9	l0.3-1.2l0.7-0.9l1.2-1.1l1.5-0.9l0.7-0.2l0.8-0.2h0.4l1.5,1.7l1.2,1.6l0.2,0.1h0.4l0.3-0.3l0.3-0.8l2.3-1l0.9-0.6l0.8-0.4l2.4-0.6	l0.5-0.3l0.6-0.3l0.4-0.4l0.6-0.3l0.7,0.1l4.5,2.7l0.3,0.8l-0.1,0.9l0.2,0.5l0.5,0.1l1-0.7l1.4-1.4l0.7-0.3l1-0.1L761.8,62.8	L761.8,62.8z" class="st0"/><path id="DZA2222" d="M822.5,73.8l-1.9-0.7l-0.8-0.6l-0.6-0.6l-0.5-0.1l-0.4,0.3l-0.4,0.3l-0.3,0.1l-1.8,0.1l-0.9,0.3	l-1.5,0.3l-2.1,0.2l-1.7,0.4l-0.5,0.2l-0.6,0.4l-0.3,1l-0.2,0.5l-0.7,0.6l-1.8,0.9l-0.5,0.4l-0.5,0.6l-0.5,0.8l-1,1.3l-3.3-3.5	l-0.9-0.5l-0.9-0.5h-1.2l-0.8,0.4l-0.5,0.7l-0.3,0.9l-0.4,0.7l-0.8,0.8l-0.3,0.5v0.7l-0.1,0.7l-0.4,0.5l-0.9,0.2l-3.1-0.1l-0.7-0.4	l-0.7-2l-0.5-0.7l-0.7-0.5l-2-0.5l-0.7-0.4l-0.8-0.6l-1.7-2l-0.9-0.9l-1.4-2.1l-2.1-4.6v-2.9h1l0.6-0.1L779,64l0.3-0.5l0.6-1.3	l0.5-0.6l0.6-0.4l3.1-0.7h1l0.6-0.2l0.6-0.3l0.7-1l0.5-0.4l4.8-1.6l4.8-2.5l1.7-0.1l0.8-0.2l0.9-0.4l0.8-0.7l0.2-1.2l-0.2-0.9	l-0.6-0.9l-0.3-0.6l-0.1-1.3l-0.1-0.5l-0.7-1.8l0.1-0.4h0.3l2,0.6l1.4-0.1l5.6-3.1l0.7,1.5l0.2,2.8l0.3,0.4l0.5,0.1l0.8-0.1l0.8-0.3	l0.6-0.3l0.7-0.4l0.7-0.5l0.5-0.5l1-1.5l0.6-0.7l0.9-0.7l0.4-0.3v0.1l2,0.8l4.2,0.5l0.9,0.5l0.9,0.3l0.8,0.4l0.4,1.1l0.1,1.2	l-0.1,2.5l-0.2,1.1l-2.3,6.5l-0.2,2.4l0.2,1.3l0.4,1.1l0.1,1.1l-0.4,1.1l-0.6,1l-1,4.4l-0.1,3.3L822.5,73.8L822.5,73.8z" class="st0"/><path id="DZA2223" d="M822.5,73.8l-1.1,3.8l-0.2,4.7l0.2,2.6l0.6,2l2.3,3.9l0.8,2l0.7,6.8v1.7l-1.8,4.2l-0.5,2.1	l-0.1,2.2l0.3,2.4l1.1,2.1l1.9,0.9l2,0.6l1.6,1.3l-0.4,1.2l-3,4.5l-2.2,2.5l-0.7,2.1l-0.8,4.4l-1.2,3.1l-0.5,2.3l0.1,2.2l0.9,5.9	l-0.1,0.8l-0.5,0.7l-1.5,1.6l-0.6,0.9l-0.1,0.9l1.2,2l-0.3,0.6l-1.8,1.1l-0.3,0.5l-0.3,1l-0.2,0.4l-0.4,0.4l-1.2,0.7l-2.4,2.2	l-4.5,2.1l-2.1,1.4l-4.2,1.9l-1.8,1.4l-1,2l-1.8,7l-0.4,0.9l-0.6,0.7l-1,0.5l-3,0.5l-1.9,1l-1.3,1.3l-1.2,1.6l-2,2.1l-10.2,0.3	l-2.7-0.3l-3.3-1.1l-3.3-1.7l3.4-7.9l1.1-4.3l0.8-5.4l0.5-1.9l0.9-2.7l0.5-0.9l0.6-0.6l0.2-0.3l0.9-2.2l1.8-2.6l0.9-1.7l1.1-2.7	l0.2-1.1v-0.9l-0.1-0.9l-0.7-2.2l-0.1-0.6l0.2-3.2l-0.2-0.8l-0.4-0.8l-0.1-0.5l-0.1-0.7l0.1-1.3l-0.2-0.6l-0.4-0.5l-0.6-0.2	l-0.9-0.1l-0.8-0.4l-0.2,0.1l-0.3,0.2l-0.5,1l-0.3,0.3l-0.9,0.4l-0.1,0.2l-0.4,0.8l-0.1,1.1v0.4l0.4,0.7l0.1,0.2l0.2,0.6v1l0.3,0.8	v0.3l-0.1,0.3l-0.4,0.2h-0.3l-0.2-0.2l-0.4-1.1l-0.2-0.5l-0.1-0.6l-0.4-0.8l-0.3-0.5l-0.1-0.6v-0.7l-0.1-0.6l-0.1-0.6l0.1-0.5	l0.3-0.7l1.6-2.4l1.5-1.4l1.7-2.4l2.9-3.2l0.7-1.1l0.5-1.2l0.2-1.6l-0.2-1.1l-0.3-1l-0.2-0.9l0.1-0.9l0.6-1.2v-1l-0.1-0.9l-0.1-0.8	l0.3-2v-0.9l-0.3-0.7v-0.6l0.7-0.7l4.5-1.8l1.2-1.2l11.1-8.6l0.8-0.3l0.8-0.2l0.8-0.3l0.8-0.5l0.2-0.9l-0.2-1.1l-0.8-2.5l-0.1-1.3	l0.1-1.6l1.8-4.4l0.2-0.5l-0.2-0.7v-0.6l0.2-0.9l1-1.3l0.5-0.8l0.5-0.6l0.5-0.4l1.8-0.9l0.7-0.6l0.2-0.5l0.3-1l0.6-0.4l0.5-0.2	l1.7-0.4l2.1-0.2l1.5-0.3l0.9-0.3l1.8-0.1l0.3-0.1l0.4-0.3l0.4-0.3l0.5,0.1l0.6,0.6l0.8,0.6L822.5,73.8L822.5,73.8z" class="st0"/><polygon id="_x30_" points="666.4 34 666.4 34 666.4 34" class="st0"/><polygon id="_x31_" points="648.8 33.1 648.8 33.1 648.8 33.1" class="st0"/><polygon id="_x32_" points="690.8 152.1 690.8 152.1 690.8 152.1" class="st0"/><g><g id="layer1" transform="translate(-814.59595,-274.38623)"><g id="g3477" transform="matrix(1.1855854,0,0,1.1855854,-151.17715,-57.3976)"><path id="path4337-3" d="M1398.3,569.2c-3.8,3.6-6.2,8.9-6.1,13.9c0.2,10.4,5.5,14.3,13.9,28.7c3,6.3,6.2,13,9.2,24 c0.4,1.6,0.8,3.1,1,3.3c0.2,0.1,0.6-1.4,1-3c3-11,6.2-17.7,9.2-24c8.4-14.3,13.7-18.3,13.9-28.7c0.1-5-2.3-10.3-6.1-13.9 c-4.4-4.1-11-7.2-18-7.3S1402.7,565,1398.3,569.2L1398.3,569.2z" class="st1"/><ellipse id="path3049" cx="1416.3" cy="583.5" class="st2" rx="10.9" ry="9.7"/></g></g><g id="layer1_1_" transform="translate(-814.59595,-274.38623)"><g id="g3477_1_" transform="matrix(1.1855854,0,0,1.1855854,-151.17715,-57.3976)"><path id="path4337-3_1_" d="M1140.7,709.2c-3.8,3.6-6.2,8.9-6.1,13.9c0.2,10.4,5.5,14.3,13.9,28.7 c3,6.3,6.2,13,9.2,24c0.4,1.6,0.8,3.1,1,3.3c0.2,0.1,0.6-1.4,1-3c3-11,6.2-17.7,9.2-24c8.4-14.3,13.7-18.3,13.9-28.7 c0.1-5-2.3-10.3-6.1-13.9c-4.4-4.1-11-7.2-18-7.3S1145,705,1140.7,709.2L1140.7,709.2z" class="st1"/><ellipse id="path3049_1_" cx="1158.6" cy="723.5" class="st2" rx="10.9" ry="9.7"/></g></g><g id="layer1_2_" transform="translate(-814.59595,-274.38623)"><g id="g3477_2_" transform="matrix(1.1855854,0,0,1.1855854,-151.17715,-57.3976)"><path id="path4337-3_2_" d="M1316.6,813.8c-3.8,3.6-6.2,8.9-6.1,13.9c0.2,10.4,5.5,14.3,13.9,28.7 c3,6.3,6.2,13,9.2,24c0.4,1.6,0.8,3.1,1,3.3c0.2,0.1,0.6-1.4,1-3c3-11,6.2-17.7,9.2-24c8.4-14.3,13.7-18.3,13.9-28.7 c0.1-5-2.3-10.3-6.1-13.9c-4.4-4.1-11-7.2-18-7.3S1320.9,809.6,1316.6,813.8L1316.6,813.8z" class="st1"/><ellipse id="path3049_2_" cx="1334.6" cy="828.1" class="st2" rx="10.9" ry="9.7"/></g></g><g id="layer1_3_" transform="translate(-814.59595,-274.38623)"><g id="g3477_3_" transform="matrix(1.1855854,0,0,1.1855854,-151.17715,-57.3976)"><path id="path4337-3_3_" d="M1444.6,461.4c-3.8,3.6-6.1,8.8-6,13.7c0.2,10.2,5.4,14.1,13.6,28.2 c3,6.2,6.1,12.8,9.1,23.6c0.4,1.6,0.8,3.1,1,3.2c0.2,0.1,0.6-1.4,1-3c3-10.9,6.1-17.4,9.1-23.6c8.3-14.1,13.5-18,13.6-28.2 c0.1-4.9-2.3-10.1-6-13.7c-4.3-4.1-10.8-7.1-17.7-7.2C1455.4,454.3,1448.9,457.3,1444.6,461.4L1444.6,461.4z" class="st1"/><ellipse id="path3049_3_" cx="1462.3" cy="475.4" class="st2" rx="10.8" ry="9.6"/></g></g><g id="layer1_4_" transform="translate(-814.59595,-274.38623)"><g id="g3477_4_" transform="matrix(1.1855854,0,0,1.1855854,-151.17715,-57.3976)"><path id="path4337-3_4_" d="M1084.9,576.5c-3.8,3.6-6.2,8.9-6.1,13.9c0.2,10.4,5.5,14.3,13.9,28.7 c3,6.3,6.2,13,9.2,24c0.4,1.6,0.8,3.1,1,3.3c0.2,0.1,0.6-1.4,1-3c3-11,6.2-17.7,9.2-24c8.4-14.3,13.7-18.3,13.9-28.7 c0.1-5-2.3-10.3-6.1-13.9c-4.4-4.1-11-7.2-18-7.3S1089.3,572.4,1084.9,576.5L1084.9,576.5z" class="st1"/><ellipse id="path3049_4_" cx="1102.9" cy="590.8" class="st2" rx="10.9" ry="9.7"/></g></g><g id="layer1_5_" transform="translate(-814.59595,-274.38623)"><g id="g3477_5_" transform="matrix(1.1855854,0,0,1.1855854,-151.17715,-57.3976)"><path id="path4337-3_5_" d="M1208.9,463.6c-3.8,3.6-6.2,8.9-6.1,13.9c0.2,10.4,5.5,14.3,13.9,28.7 c3,6.3,6.2,13,9.2,24c0.4,1.6,0.8,3.1,1,3.3c0.2,0.1,0.6-1.4,1-3c3-11,6.2-17.7,9.2-24c8.4-14.3,13.7-18.3,13.9-28.7 c0.1-5-2.3-10.3-6.1-13.9c-4.4-4.1-11-7.2-18-7.3C1219.9,456.3,1213.3,459.4,1208.9,463.6L1208.9,463.6z" class="st1"/><ellipse id="path3049_5_" cx="1226.9" cy="477.8" class="st2" rx="10.9" ry="9.7"/></g></g><g id="layer1_6_" transform="translate(-814.59595,-274.38623)"><g id="g3477_6_" transform="matrix(1.1855854,0,0,1.1855854,-151.17715,-57.3976)"><path id="path4337-3_6_" d="M1416.5,343.6c-3.8,3.6-6.1,8.8-6,13.7c0.2,10.2,5.4,14.1,13.6,28.2 c3,6.2,6.1,12.8,9.1,23.6c0.4,1.6,0.8,3.1,1,3.2s0.6-1.4,1-3c3-10.9,6.1-17.4,9.1-23.6c8.3-14.1,13.5-18,13.6-28.2 c0.1-4.9-2.3-10.1-6-13.7c-4.3-4.1-10.8-7.1-17.7-7.2S1420.8,339.5,1416.5,343.6L1416.5,343.6z" class="st1"/><ellipse id="path3049_6_" cx="1434.2" cy="357.6" class="st2" rx="10.8" ry="9.6"/></g></g><g id="layer1_7_" transform="translate(-814.59595,-274.38623)"><g id="g3477_7_" transform="matrix(1.1855854,0,0,1.1855854,-151.17715,-57.3976)"><path id="path4337-3_7_" d="M1209.6,369.9c-3.8,3.6-6.2,8.9-6.1,13.9c0.2,10.4,5.5,14.3,13.9,28.7 c3,6.3,6.2,13,9.2,24c0.4,1.6,0.8,3.1,1,3.3c0.2,0.1,0.6-1.4,1-3c3-11,6.2-17.7,9.2-24c8.4-14.3,13.7-18.3,13.9-28.7 c0.1-5-2.3-10.3-6.1-13.9c-4.4-4.1-11-7.2-18-7.3C1220.5,362.6,1213.9,365.7,1209.6,369.9L1209.6,369.9z" class="st1"/><ellipse id="path3049_7_" cx="1227.6" cy="384.1" class="st2" rx="10.9" ry="9.7"/></g></g><g id="layer1_8_" transform="translate(-814.59595,-274.38623)"><g id="g3477_8_" transform="matrix(1.1855854,0,0,1.1855854,-151.17715,-57.3976)"><path id="path4337-3_8_" d="M1285.3,393.7c-3.8,3.6-6.1,8.8-6,13.7c0.2,10.2,5.4,14.1,13.6,28.2 c3,6.2,6.1,12.8,9.1,23.6c0.4,1.6,0.8,3.1,1,3.2s0.6-1.4,1-3c3-10.9,6.1-17.4,9.1-23.6c8.3-14.1,13.5-18,13.6-28.2 c0.1-4.9-2.3-10.1-6-13.7c-4.3-4.1-10.8-7.1-17.7-7.2C1296,386.6,1289.6,389.6,1285.3,393.7L1285.3,393.7z" class="st1"/><ellipse id="path3049_8_" cx="1302.9" cy="407.7" class="st2" rx="10.8" ry="9.6"/></g></g><g id="layer1_9_" transform="translate(-814.59595,-274.38623)"><g id="g3477_9_" transform="matrix(1.1855854,0,0,1.1855854,-151.17715,-57.3976)"><path id="path4337-3_9_" d="M1352.2,415.4c-3.8,3.6-6.1,8.8-6,13.7c0.2,10.2,5.4,14.1,13.6,28.2 c3,6.2,6.1,12.8,9.1,23.6c0.4,1.6,0.8,3.1,1,3.2s0.6-1.4,1-3c3-10.9,6.1-17.4,9.1-23.6c8.3-14.1,13.5-18,13.6-28.2 c0.1-4.9-2.3-10.1-6-13.7c-4.3-4.1-10.8-7.1-17.7-7.2S1356.5,411.4,1352.2,415.4L1352.2,415.4z" class="st1"/><ellipse id="path3049_9_" cx="1369.9" cy="429.5" class="st2" rx="10.8" ry="9.6"/></g></g><g id="layer1_10_" transform="translate(-814.59595,-274.38623)"><g id="g3477_10_" transform="matrix(1.1855854,0,0,1.1855854,-151.17715,-57.3976)"><path id="path4337-3_10_" d="M1125.8,460c-3.8,3.6-6.2,8.9-6.1,13.9c0.2,10.4,5.5,14.3,13.9,28.7 c3,6.3,6.2,13,9.2,24c0.4,1.6,0.8,3.1,1,3.3c0.2,0.1,0.6-1.4,1-3c3-11,6.2-17.7,9.2-24c8.4-14.3,13.7-18.3,13.9-28.7 c0.1-5-2.3-10.3-6.1-13.9c-4.4-4.1-11-7.2-18-7.3S1130.2,455.9,1125.8,460L1125.8,460z" class="st1"/><ellipse id="path3049_10_" cx="1143.8" cy="474.3" class="st2" rx="10.9" ry="9.7"/></g></g><g id="layer1_11_" transform="translate(-814.59595,-274.38623)"><g id="g3477_11_" transform="matrix(1.1855854,0,0,1.1855854,-151.17715,-57.3976)"><path id="path4337-3_11_" d="M1466,286.9c-3.8,3.6-6.1,8.8-6,13.7c0.2,10.2,5.4,14.1,13.6,28.2 c3,6.2,6.1,12.8,9.1,23.6c0.4,1.6,0.8,3.1,1,3.2s0.6-1.4,1-3c3-10.9,6.1-17.4,9.1-23.6c8.3-14.1,13.5-18,13.6-28.2 c0.1-4.9-2.3-10.1-6-13.7c-4.3-4.1-10.8-7.1-17.7-7.2C1476.7,279.8,1470.3,282.8,1466,286.9L1466,286.9z" class="st1"/><ellipse id="path3049_11_" cx="1483.7" cy="301" class="st2" rx="10.8" ry="9.6"/></g></g><g id="layer1_12_" transform="translate(-814.59595,-274.38623)"><g id="g3477_12_" transform="matrix(1.1855854,0,0,1.1855854,-151.17715,-57.3976)"><path id="path4337-3_12_" d="M1114.3,347.1c-3.8,3.6-6.2,8.9-6.1,13.9c0.2,10.4,5.5,14.3,13.9,28.7 c3,6.3,6.2,13,9.2,24c0.4,1.6,0.8,3.1,1,3.3c0.2,0.1,0.6-1.4,1-3c3-11,6.2-17.7,9.2-24c8.4-14.3,13.7-18.3,13.9-28.7 c0.1-5-2.3-10.3-6.1-13.9c-4.4-4.1-11-7.2-18-7.3C1125.2,339.9,1118.6,342.9,1114.3,347.1L1114.3,347.1z" class="st1"/><ellipse id="path3049_12_" cx="1132.2" cy="361.4" class="st2" rx="10.9" ry="9.7"/></g></g><g id="layer1_13_" transform="translate(-814.59595,-274.38623)"><g id="g3477_13_" transform="matrix(1.1855854,0,0,1.1855854,-151.17715,-57.3976)"><path id="path4337-3_13_" d="M1135.4,382.4c-3.8,3.6-6.1,8.8-6,13.7c0.2,10.2,5.4,14.1,13.6,28.2 c3,6.2,6.1,12.8,9.1,23.6c0.4,1.6,0.8,3.1,1,3.2s0.6-1.4,1-3c3-10.9,6.1-17.4,9.1-23.6c8.3-14.1,13.5-18,13.6-28.2 c0.1-4.9-2.3-10.1-6-13.7c-4.3-4.1-10.8-7.1-17.7-7.2C1146.1,375.3,1139.7,378.4,1135.4,382.4L1135.4,382.4z" class="st1"/><ellipse id="path3049_13_" cx="1153" cy="396.5" class="st2" rx="10.8" ry="9.6"/></g></g><g id="layer1_14_" transform="translate(-814.59595,-274.38623)"><g id="g3477_14_" transform="matrix(1.1855854,0,0,1.1855854,-151.17715,-57.3976)"><path id="path4337-3_14_" d="M1170.1,384.2c-3.8,3.6-6.2,8.9-6.1,13.9c0.2,10.4,5.5,14.3,13.9,28.7 c3,6.3,6.2,13,9.2,24c0.4,1.6,0.8,3.1,1,3.3c0.2,0.1,0.6-1.4,1-3c3-11,6.2-17.7,9.2-24c8.4-14.3,13.7-18.3,13.9-28.7 c0.1-5-2.3-10.3-6.1-13.9c-4.4-4.1-11-7.2-18-7.3S1174.4,380.1,1170.1,384.2L1170.1,384.2z" class="st1"/><ellipse id="path3049_14_" cx="1188.1" cy="398.5" class="st2" rx="10.9" ry="9.7"/></g></g><g id="layer1_15_" transform="translate(-814.59595,-274.38623)"><g id="g3477_15_" transform="matrix(1.1855854,0,0,1.1855854,-151.17715,-57.3976)"><path id="path4337-3_15_" d="M1248.2,322.4c-3.8,3.6-6.1,8.8-6,13.7c0.2,10.2,5.4,14.1,13.6,28.2 c3,6.2,6.1,12.8,9.1,23.6c0.4,1.6,0.8,3.1,1,3.2s0.6-1.4,1-3c3-10.9,6.1-17.4,9.1-23.6c8.3-14.1,13.5-18,13.6-28.2 c0.1-4.9-2.3-10.1-6-13.7c-4.3-4.1-10.8-7.1-17.7-7.2S1252.5,318.3,1248.2,322.4L1248.2,322.4z" class="st1"/><ellipse id="path3049_15_" cx="1265.9" cy="336.4" class="st2" rx="10.8" ry="9.6"/></g></g><g id="layer1_16_" transform="translate(-814.59595,-274.38623)"><g id="g3477_16_" transform="matrix(1.1855854,0,0,1.1855854,-151.17715,-57.3976)"><path id="path4337-3_16_" d="M1277,290.8c-3.8,3.6-6.1,8.8-6,13.7c0.2,10.2,5.4,14.1,13.6,28.2 c3,6.2,6.1,12.8,9.1,23.6c0.4,1.6,0.8,3.1,1,3.2s0.6-1.4,1-3c3-10.9,6.1-17.4,9.1-23.6c8.3-14.1,13.5-18,13.6-28.2 c0.1-4.9-2.3-10.1-6-13.7c-4.3-4.1-10.8-7.1-17.7-7.2S1281.3,286.8,1277,290.8L1277,290.8z" class="st1"/><ellipse id="path3049_16_" cx="1294.7" cy="304.9" class="st2" rx="10.8" ry="9.6"/></g></g><g id="layer1_17_" transform="translate(-814.59595,-274.38623)"><g id="g3477_17_" transform="matrix(1.1855854,0,0,1.1855854,-151.17715,-57.3976)"><path id="path4337-3_17_" d="M1328.5,297.5c-3.8,3.6-6.1,8.8-6,13.7c0.2,10.2,5.4,14.1,13.6,28.2 c3,6.2,6.1,12.8,9.1,23.6c0.4,1.6,0.8,3.1,1,3.2s0.6-1.4,1-3c3-10.9,6.1-17.4,9.1-23.6c8.3-14.1,13.5-18,13.6-28.2 c0.1-4.9-2.3-10.1-6-13.7c-4.3-4.1-10.8-7.1-17.7-7.2C1339.3,290.4,1332.8,293.4,1328.5,297.5L1328.5,297.5z" class="st1"/><ellipse id="path3049_17_" cx="1346.2" cy="311.6" class="st2" rx="10.8" ry="9.6"/></g></g></g></svg>