<svg xmlns="http://www.w3.org/2000/svg" viewBox="0 0 672.2 453.99"><g id="BACKGROUND"><path fill="#c1eee6" d="M303.83,414c-46.6,25.42-165.82,28.34-240-87s53.05-365.61,226.49-288C386,81.87,420,106.45,528.82,90.05c109.49-16.5,169.63,45.48,174.6,125.75C712.85,367.92,616,414.28,484.59,387.34,381.27,366.16,336.83,396,303.83,414Z" transform="translate(-42.27 -11.06)"/></g><g id="OBJECTS"><path fill="#88d2d0" d="M489.44,387s-37.67,13.34-72.13-.28,33.11-20.62,15-31.74-63.67-13.36-63.37-32.94c.46-29.8,36.24,8,44.24-7.24S345.77,284.25,352.58,267s44.09,13.06,42.19.7-50-45.7-25.45-59.09c36.29-19.8,34.72,53.35,50,44.07s2.08-29.9,14.44-27.13c20.51,4.61-1.46,70.13,16.63,67s6.25-37.38,18.14-30.92-13.09,82.38-2.94,77.2S479,306.7,489.51,310.44,489.44,387,489.44,387Z" transform="translate(-42.27 -11.06)"/><path fill="none" stroke="#c1eee6" stroke-linecap="round" stroke-miterlimit="10" stroke-width="1.94" d="M378.24,218.72s87.56,145.61,101.05,163" transform="translate(-42.27 -11.06)"/><polyline fill="none" stroke="#c1eee6" stroke-linecap="round" stroke-miterlimit="10" stroke-width="1.94" points="335.23 267.13 382.4 284.02 393.14 229.17"/><line x1="353.24" x2="408.04" y1="319.56" y2="326.56" fill="none" stroke="#c1eee6" stroke-linecap="round" stroke-miterlimit="10" stroke-width="1.94"/><polyline fill="none" stroke="#c1eee6" stroke-linecap="round" stroke-miterlimit="10" stroke-width="1.94" points="379.4 367.99 428.51 358.95 445.67 319.99"/><polyline fill="none" stroke="#c1eee6" stroke-linecap="round" stroke-miterlimit="10" stroke-width="1.94" points="332.08 217.5 346.29 224.21 347.77 206.63"/><path fill="#74c1bd" d="M459.26,404.33s1.59-26.06-9.77-30.56,0,37.06-14.56,6.8c-10.53-21.83-14.65-30.84-21-26.7s5.8,32.93-9.56,19-30.66-14.85-33.48-7.2-.06,18.26,26.18,22.59-10.93,8.55-10.77,19.46,28.26,8.1,45.75,3.26-27.3,30.73,20.4,12.64C474,415.43,459.26,404.33,459.26,404.33Z" transform="translate(-42.27 -11.06)"/><path fill="none" stroke="#c1eee6" stroke-linecap="round" stroke-miterlimit="10" stroke-width=".97" d="M375.71,371.67s67.21,26.14,85.4,36.67" transform="translate(-42.27 -11.06)"/><polyline fill="none" stroke="#c1eee6" stroke-linecap="round" stroke-miterlimit="10" stroke-width=".97" points="342.09 355.99 353 368.14 340.41 367.69"/><path fill="none" stroke="#c1eee6" stroke-linecap="round" stroke-miterlimit="10" stroke-width=".97" d="M405.37,405.42C415.16,402.63,430.2,394,430.2,394L421.73,371" transform="translate(-42.27 -11.06)"/><polyline fill="none" stroke="#c1eee6" stroke-linecap="round" stroke-miterlimit="10" stroke-width=".97" points="354.47 392.42 363.42 394.39 354.76 399.76"/><polyline fill="none" stroke="#c1eee6" stroke-linecap="round" stroke-miterlimit="10" stroke-width=".97" points="372.31 354.69 379.7 360.11 378.01 350.05"/><line x1="407.83" x2="410.18" y1="372.48" y2="393.1" fill="none" stroke="#c1eee6" stroke-linecap="round" stroke-miterlimit="10" stroke-width=".97"/><line x1="413.63" x2="394.77" y1="397.42" y2="411.14" fill="none" stroke="#c1eee6" stroke-linecap="round" stroke-miterlimit="10" stroke-width=".97"/><path fill="#7a8db5" d="M361.49,315.84s9.4-9.94,1.43-19.81C362.92,296,350.45,310.42,361.49,315.84Z" transform="translate(-42.27 -11.06)"/><path fill="#7a8db5" d="M356.51,317.58s4.63-12.07-13.6-13.47C342.91,304.11,346.84,325.3,356.51,317.58Z" transform="translate(-42.27 -11.06)"/><path fill="#7a8db5" d="M370.37,312.73s-8.93-6.58,3.79-20.77C374.16,292,384.22,307.89,370.37,312.73Z" transform="translate(-42.27 -11.06)"/><path fill="#7a8db5" d="M366.5,340.29s-5.37-16.28-23.87-10.64C342.63,329.65,355.43,351.34,366.5,340.29Z" transform="translate(-42.27 -11.06)"/><path fill="#7a8db5" d="M377.57,334.88s-11.16-2.71,4.24-20.83C381.81,314.05,389.79,329.56,377.57,334.88Z" transform="translate(-42.27 -11.06)"/><path fill="#7a8db5" d="M400.45,341.13s-11.15,2.93-12.73-15.61C387.72,325.52,406.88,330.86,400.45,341.13Z" transform="translate(-42.27 -11.06)"/><path fill="#7a8db5" d="M393,356.25s-3.19-11.35-22.91-4.67C370.13,351.58,383.54,370.94,393,356.25Z" transform="translate(-42.27 -11.06)"/><path fill="#7a8db5" d="M427.32,350.5s-17.54,2.36-19-15.3C408.31,335.2,429.65,336.22,427.32,350.5Z" transform="translate(-42.27 -11.06)"/><path fill="#7a8db5" d="M420,366.06s-2.26-13-18.35-4.31C401.61,361.75,417.42,378.56,420,366.06Z" transform="translate(-42.27 -11.06)"/><path fill="none" stroke="#4b6590" stroke-linecap="round" stroke-miterlimit="10" stroke-width="1.77" d="M361.29,305.83s-1.71,36.09,24.25,40.72,56.58,8.69,64.51,43.28" transform="translate(-42.27 -11.06)"/><path fill="none" stroke="#4b6590" stroke-linecap="round" stroke-miterlimit="10" stroke-width="1.77" d="M371.93,301.48s.18,9.8-8,20.28c0,0-6.62-1.57-13.68-9.51" transform="translate(-42.27 -11.06)"/><path fill="none" stroke="#4b6590" stroke-linecap="round" stroke-miterlimit="10" stroke-width="1.77" d="M357.23,336.45s10.52,5.83,18.69,6.19a121.56,121.56,0,0,0,2.43-16.21" transform="translate(-42.27 -11.06)"/><path fill="none" stroke="#4b6590" stroke-linecap="round" stroke-miterlimit="10" stroke-width="1.77" d="M393.1,330.73s7.48,5.87,12.52,19.47c0,0-9,9.23-25.41,5.46" transform="translate(-42.27 -11.06)"/><path fill="none" stroke="#4b6590" stroke-linecap="round" stroke-miterlimit="10" stroke-width="1.77" d="M418.74,341.16s12.43,10.34,14.31,20.26a28.49,28.49,0,0,1-21.27,3.27" transform="translate(-42.27 -11.06)"/><path fill="#88d2d0" d="M594.74,355.75s77.77-36.07,80.63-54-23.87.9-28.5-11.18,38.49-26.68,39.7-42.11-26.12,1.54-27.91-11.54,35.17-59.14,1.06-62.62-5.36,47.88-22,62.1-16.73-14.6-28.87-3.89,15.64,40.9,2,52.78S571.56,245.94,594.74,355.75Z" transform="translate(-42.27 -11.06)"/><path fill="none" stroke="#c1eee6" stroke-linecap="round" stroke-miterlimit="10" stroke-width="1.67" d="M588.35,361.54l6.39-5.79s47.48-81.37,61.61-160.17" transform="translate(-42.27 -11.06)"/><polyline fill="none" stroke="#c1eee6" stroke-linecap="round" stroke-miterlimit="10" stroke-width="1.67" points="605.78 178.53 612.55 194.5 622.33 181.54"/><polyline fill="none" stroke="#c1eee6" stroke-linecap="round" stroke-miterlimit="10" stroke-width="1.67" points="573.79 231.53 589.42 269.15 625.32 244.28"/><polyline fill="none" stroke="#c1eee6" stroke-linecap="round" stroke-miterlimit="10" stroke-width="1.67" points="551.9 284.31 565.63 320.25 615.56 295.98"/><path fill="#74c1bd" d="M604.71,397.47s-15.48-36-1.73-48.12,18.76,52.36,24,2.22c3.79-36.19,5-51,16.09-48.37s8.52,49.44,23.12,21.92S702,288.59,709.83,298s9.36,25.75-25.5,45.19c-35,19.54,19.77,6.52,25.09,22s-35.79,25.77-63,27.82,54.16,29.53-22.38,28.21C589.55,420.61,604.71,397.47,604.71,397.47Z" transform="translate(-42.27 -11.06)"/><path fill="none" stroke="#c1eee6" stroke-linecap="round" stroke-miterlimit="10" stroke-width="1.46" d="M706.1,308.93s-81.63,71-102,95.14" transform="translate(-42.27 -11.06)"/><polyline fill="none" stroke="#c1eee6" stroke-linecap="round" stroke-miterlimit="10" stroke-width="1.46" points="649.28 295.74 640.05 318.42 657.6 311.4"/><path fill="none" stroke="#c1eee6" stroke-linecap="round" stroke-miterlimit="10" stroke-width="1.46" d="M681.35,371.65c-15.23,1-40.85-3.49-40.85-3.49l.25-36.88" transform="translate(-42.27 -11.06)"/><polyline fill="none" stroke="#c1eee6" stroke-linecap="round" stroke-miterlimit="10" stroke-width="1.46" points="650.29 353.46 638.66 360.79 653.62 363.98"/><polyline fill="none" stroke="#c1eee6" stroke-linecap="round" stroke-miterlimit="10" stroke-width="1.46" points="605.95 309.23 598.27 320.64 595.54 305.58"/><line x1="564.83" x2="571.97" y1="352.39" y2="382.7" fill="none" stroke="#c1eee6" stroke-linecap="round" stroke-miterlimit="10" stroke-width="1.46"/><line x1="569.3" x2="602.9" y1="390.56" y2="400.36" fill="none" stroke="#c1eee6" stroke-linecap="round" stroke-miterlimit="10" stroke-width="1.46"/><path fill="#7a8db5" d="M651.3,378.4s-4.64-15.3,19.81-20.76C671.11,357.64,670.66,384.32,651.3,378.4Z" transform="translate(-42.27 -11.06)"/><path fill="#7a8db5" d="M650.78,392.07s.91-12.43,19.83-8.7C670.61,383.37,658.92,401.78,650.78,392.07Z" transform="translate(-42.27 -11.06)"/><path fill="#7a8db5" d="M640.32,374.87s10.53,1,11.23-15.21C651.55,359.66,635,358,640.32,374.87Z" transform="translate(-42.27 -11.06)"/><path fill="none" stroke="#4b6590" stroke-linecap="round" stroke-miterlimit="10" stroke-width="1.77" d="M666.1,364.58s-46.5,55.21-108.53,11.62" transform="translate(-42.27 -11.06)"/><path fill="none" stroke="#4b6590" stroke-linecap="round" stroke-miterlimit="10" stroke-width="1.77" d="M659.85,389.67s-15.44,7.82-28-1.65c0,0,8.6-17,15.88-23.07" transform="translate(-42.27 -11.06)"/><path fill="#7a8db5" d="M690.05,245.86s-11.22-7.84-5.41-19.11C684.64,226.75,699.76,238.31,690.05,245.86Z" transform="translate(-42.27 -11.06)"/><path fill="#7a8db5" d="M695.28,246.55s-7-10.89,10.59-16C705.87,230.6,706.31,252.15,695.28,246.55Z" transform="translate(-42.27 -11.06)"/><path fill="#7a8db5" d="M680.73,244.61s7.41-8.26-7.92-19.58C672.81,225,666.18,242.67,680.73,244.61Z" transform="translate(-42.27 -11.06)"/><path fill="#7a8db5" d="M690.1,270.81s2-17,21.22-15.25C711.32,255.56,703.18,279.39,690.1,270.81Z" transform="translate(-42.27 -11.06)"/><path fill="#7a8db5" d="M678.16,267.76s10.38-4.91-8.37-19.54C669.79,248.22,665.11,265,678.16,267.76Z" transform="translate(-42.27 -11.06)"/><path fill="#7a8db5" d="M657,278.51s11.51.61,9.3-17.86C666.32,260.65,648.65,269.76,657,278.51Z" transform="translate(-42.27 -11.06)"/><path fill="#7a8db5" d="M667.34,291.81s.82-11.76,21.49-9.2C688.83,282.61,679.62,304.28,667.34,291.81Z" transform="translate(-42.27 -11.06)"/><path fill="none" stroke="#4b6590" stroke-linecap="round" stroke-miterlimit="10" stroke-width="1.77" d="M688.22,236s9,35-15.5,44.79-53.65,20-54.41,55.44" transform="translate(-42.27 -11.06)"/><path fill="none" stroke="#4b6590" stroke-linecap="round" stroke-miterlimit="10" stroke-width="1.77" d="M676.92,233.91s1.81,9.63,12,18.23c0,0,6.17-2.88,11.47-12.08" transform="translate(-42.27 -11.06)"/><path fill="none" stroke="#4b6590" stroke-linecap="round" stroke-miterlimit="10" stroke-width="1.77" d="M698.4,265.17s-9.13,7.84-17,9.85a121.23,121.23,0,0,1-5.67-15.38" transform="translate(-42.27 -11.06)"/><path fill="none" stroke="#4b6590" stroke-linecap="round" stroke-miterlimit="10" stroke-width="1.77" d="M662.12,266.84s-6.14,7.26-8.32,21.6c0,0,10.71,7.2,26,.2" transform="translate(-42.27 -11.06)"/><ellipse cx="462.59" cy="440.99" fill="#2f3f5c" opacity=".1" rx="143.5" ry="11"/><path fill="#2f3f5c" d="M661.32,98.06a21.11,21.11,0,0,0-18-23.81L498,54.11a21.11,21.11,0,0,0-23.81,18l-1.45,10.43a5,5,0,0,0-3.85,4.2l-1,7.13A5,5,0,0,0,470.48,99l-2.62,18.83A5,5,0,0,0,464,122l-2.16,15.62a5,5,0,0,0,2.56,5.09l-1.23,8.85a5,5,0,0,0-3.85,4.2l-2.16,15.61a5,5,0,0,0,2.56,5.1L428,405.59a21.11,21.11,0,0,0,18,23.81l145.31,20.14a21.1,21.1,0,0,0,23.8-18Z" transform="translate(-42.27 -11.06)"/><path fill="#4b6590" d="M463.76,138.51a5,5,0,0,1-5.68,4.3h0a5.05,5.05,0,0,1-4.3-5.69L456,121.51a5,5,0,0,1,5.68-4.3h0a5,5,0,0,1,4.3,5.68Z" transform="translate(-42.27 -11.06)"/><path fill="#4b6590" d="M459.08,172.27a5,5,0,0,1-5.68,4.29h0a5,5,0,0,1-4.3-5.68l2.17-15.61A5,5,0,0,1,457,151h0a5,5,0,0,1,4.3,5.68Z" transform="translate(-42.27 -11.06)"/><path fill="#5d77a6" d="M607,431a21.11,21.11,0,0,1-23.81,18l-145.3-20.14a21.11,21.11,0,0,1-18-23.81L466.13,71.62a21.11,21.11,0,0,1,23.81-18L635.25,73.76a21.11,21.11,0,0,1,18,23.81Z" transform="translate(-42.27 -11.06)"/><rect width="299.02" height="173.8" x="388.2" y="156.24" fill="#fff8f1" transform="translate(180.77 731.3) rotate(-82.11)"/><path fill="#7a8db5" d="M575.7,82.48A2.43,2.43,0,0,1,573,84.55L548.9,81.21a2.43,2.43,0,0,1-2.07-2.74h0a2.44,2.44,0,0,1,2.74-2.07l24.06,3.34a2.42,2.42,0,0,1,2.07,2.74Z" opacity=".8" transform="translate(-42.27 -11.06)"/><path fill="#7a8db5" stroke="#5d77a6" stroke-miterlimit="10" stroke-width="3.24" d="M530.32,415.67a15.38,15.38,0,1,1-13.12-17.35A15.38,15.38,0,0,1,530.32,415.67Z" opacity=".8" transform="translate(-42.27 -11.06)"/><path fill="#fff" d="M428,441.63l-7.38,18.15s-63.11-56-7.75-20.31l6.2-13Z" transform="translate(-42.27 -11.06)"/><path fill="#2f3f5c" d="M424.52,450.27l3.51-8.64-8.93-15.15-5.39,11.3C416.26,441.11,423.54,449.37,424.52,450.27Z" opacity=".2" transform="translate(-42.27 -11.06)"/><path fill="#2f3f5c" d="M391.17,427.58c-7.54-.65,29.48,32.2,29.48,32.2l.61-1.49C418.46,455.79,393.25,433.21,391.17,427.58Z" transform="translate(-42.27 -11.06)"/><path fill="#de7356" d="M504.57,362.63c.67,3.7,18.68,17.6,31.28,31.23l30.41,5L536,355.48,564.88,277l-61.6-29C456.22,300.53,414,436.23,414,436.23l13,10.43C443,405.15,516.87,292,516.87,292S502.87,353.23,504.57,362.63Z" transform="translate(-42.27 -11.06)"/><path fill="#2f3f5c" d="M529.54,387.4c2.18,2.13,4.31,4.3,6.31,6.46l30.41,5-10.18-14.57Q542.82,385.93,529.54,387.4Z" opacity=".2" transform="translate(-42.27 -11.06)"/><path fill="#2f3f5c" d="M513.3,289.82c-8.33-7.4-16.44-15.07-25.12-22C447.55,328.38,414,436.23,414,436.23l13,10.43c15.35-39.77,83.79-145.29,89.51-154.07C515.41,291.67,514.35,290.75,513.3,289.82Z" opacity=".2" transform="translate(-42.27 -11.06)"/><path fill="#2f3f5c" d="M529.93,272c7.26,3.59,14.67,6.8,22,10.17,3.15,1.44,6.25,3,9.38,4.44l3.53-9.56-61.6-29c-1.72,1.93-3.45,4-5.16,6.12A345.28,345.28,0,0,0,529.93,272Z" opacity=".2" transform="translate(-42.27 -11.06)"/><path fill="#ffc1b7" d="M569.63,130.62l-6.26,23.3-7.45-1.74s-.44,13.49,16.47,16.54,17.67-4.92,17.67-4.92l-7.36-4.25,9-32.22Z" transform="translate(-42.27 -11.06)"/><path fill="#de7356" d="M569.63,130.62l-6.26,23.3-7.45-1.74s-.44,13.49,16.47,16.54,17.67-4.92,17.67-4.92l-7.36-4.25,9-32.22Z" opacity=".2" transform="translate(-42.27 -11.06)"/><path fill="#ffc1b7" d="M593.25,119.47c-2.14,5.4-1.42,10.75,1.6,11.95s7.22-2.21,9.36-7.62,1.42-10.75-1.6-12S595.4,114.06,593.25,119.47Z" transform="translate(-42.27 -11.06)"/><path fill="#ffc1b7" d="M563.4,88.05S543,133.63,552.45,141.31s35,10,44.71-14.38c12.48-31.41,5.66-32.53,5.66-32.53Z" transform="translate(-42.27 -11.06)"/><path fill="#2f3f5c" d="M588.16,91.77s-4.86,17.36,7,22l-1.83,8.85,3.64,1.66,3.67-9.1s5.95-.26,4.13,5.35C601,132.13,594,128.83,594,128.83l-5.32,12.42s18.52-12.3,22.16-29.69-1.94-16-1.94-16Z" transform="translate(-42.27 -11.06)"/><path fill="#de7356" d="M612.06,110.22s-124.82-30-48.45-22c0,0,4.81-20.69,14.84-19.14C603.52,72.92,623.9,73.89,612.06,110.22Z" transform="translate(-42.27 -11.06)"/><path fill="#2f3f5c" d="M563.61,88.17c-76.37-8,48.45,22,48.45,22v0l-.34-.07C578.83,102.39,563.61,88.17,563.61,88.17Z" opacity=".2" transform="translate(-42.27 -11.06)"/><g opacity=".6"><path fill="#de7356" d="M569.19,108.74a55.4,55.4,0,0,1-5,7.88c-.93,1.24-1.88,2.45-2.88,3.64s-2,2.34-3.11,3.46l-.11-.91a41,41,0,0,1,3.09,3.22,38.94,38.94,0,0,1-3.89-2.2l-.5-.31.39-.6c.85-1.31,1.74-2.58,2.66-3.83s1.88-2.45,2.87-3.64A55.61,55.61,0,0,1,569.19,108.74Z" transform="translate(-42.27 -11.06)"/></g><path fill="#2f3f5c" d="M572.7,113.45a6.86,6.86,0,0,1,2.21-3.38,4.75,4.75,0,0,1,4.15-1,4.27,4.27,0,0,1,2.9,3.12,6.6,6.6,0,0,1-.38,4,9.48,9.48,0,0,0-.46-3.77,3.69,3.69,0,0,0-2.37-2.3,4.31,4.31,0,0,0-3.33.6A10.09,10.09,0,0,0,572.7,113.45Z" transform="translate(-42.27 -11.06)"/><path fill="#2f3f5c" d="M558.64,108.81a7.31,7.31,0,0,1,1.45-3.39,4.35,4.35,0,0,1,1.52-1.25,3.17,3.17,0,0,1,2.06-.18,3.25,3.25,0,0,1,1.73,1.13,4.2,4.2,0,0,1,.74,1.83,7.56,7.56,0,0,1-.38,3.67,13,13,0,0,0-.33-3.51,2.84,2.84,0,0,0-2-2.21,2.89,2.89,0,0,0-2.8,1A11.37,11.37,0,0,0,558.64,108.81Z" transform="translate(-42.27 -11.06)"/><path fill="#2f3f5c" d="M574.05,104.25a6.53,6.53,0,0,1,3.91-1.74,9.48,9.48,0,0,1,4.32.52,10.57,10.57,0,0,1,3.63,2.27,11,11,0,0,1,1.37,1.61,10.26,10.26,0,0,1,1,1.9,16,16,0,0,1-1.9-.82c-.62-.24-1.17-.56-1.74-.8-1.13-.53-2.22-1-3.32-1.42a28.22,28.22,0,0,0-3.39-1A25.87,25.87,0,0,0,574.05,104.25Z" transform="translate(-42.27 -11.06)"/><path fill="#2f3f5c" d="M558,99.51a5.26,5.26,0,0,1,3.48-1.63,7.82,7.82,0,0,1,3.88.68,9.09,9.09,0,0,1,3.07,2.29,12.62,12.62,0,0,1,1.09,1.54,10,10,0,0,1,.69,1.77,12,12,0,0,1-1.64-.84c-.54-.26-1-.56-1.5-.83-1-.52-1.88-1.06-2.82-1.46a19,19,0,0,0-2.88-1A16.43,16.43,0,0,0,558,99.51Z" transform="translate(-42.27 -11.06)"/><path fill="#fff" d="M555.76,127.16l21.46,4.6S560.05,140.14,555.76,127.16Z" transform="translate(-42.27 -11.06)"/><path fill="#ffc1b7" d="M523.8,166.61l19.41,17S504.5,224,496.14,222.14,438,205.78,438,205.78s-20.79-8.11.8-2.94c0,0-25.23-9.05.25-2.49,0,0-21.55-10.69,1.79-2.83,0,0-21.79-8.21,2.73-2.24,0,0-8.31-12.39,4,.4l44.53,7Z" transform="translate(-42.27 -11.06)"/><path fill="#de7356" d="M523.8,166.61l19.41,17S504.5,224,496.14,222.14,438,205.78,438,205.78s-20.79-8.11.8-2.94c0,0-25.23-9.05.25-2.49,0,0-21.55-10.69,1.79-2.83,0,0-21.79-8.21,2.73-2.24,0,0-8.31-12.39,4,.4l44.53,7Z" opacity=".2" transform="translate(-42.27 -11.06)"/><path fill="#fff" d="M526.85,184.76l-11.11-12.37s18.19-20.92,29.19-20.56S526.85,184.76,526.85,184.76Z" transform="translate(-42.27 -11.06)"/><path fill="#2f3f5c" d="M526.85,184.76l-11.11-12.37s18.19-20.92,29.19-20.56S526.85,184.76,526.85,184.76Z" opacity=".06" transform="translate(-42.27 -11.06)"/><path fill="#fff" d="M603.36,170.23c-2.76-2.62-9.47-6.31-17.63-9.75-8.72,6.88-25.91,3.08-27.28-8.43-9.56-1.69-17.64-1.32-20.63,3-8.41,12.23-41.61,95.2-41.61,95.2s35.25,23.65,70,31.78C566.21,282.08,612.1,178.52,603.36,170.23Z" transform="translate(-42.27 -11.06)"/><path fill="#2f3f5c" d="M557.67,242.72c-15.68-12.78-31-28.86-38.45-48.07-11.28,26.34-23,55.65-23,55.65s35.25,23.65,70,31.78c0,0,4.6-10.36,10.6-24.79C570.17,252.62,563.78,247.71,557.67,242.72Z" opacity=".06" transform="translate(-42.27 -11.06)"/><polygon fill="#ffc330" points="375.05 142.13 467.77 155.39 449.08 244.08 361.01 232.68 375.05 142.13"/><polygon fill="#2f3f5c" points="390.53 144.34 375.05 142.13 361.01 232.68 378.28 234.91 390.53 144.34" opacity=".2"/><polygon fill="#2f3f5c" points="433.83 157.01 462.44 160.45 460.3 171.92 432.28 167.19 433.83 157.01" opacity=".2"/><path fill="#ffc1b7" d="M567,195.56l20.5,15.68s-35.91,42.86-44.37,41.58S484,240.4,484,240.4s-21.29-6.7.6-3c0,0-25.78-7.33.08-2.49,0,0-22.21-9.23,1.6-2.95,0,0-22.3-6.73,2.58-2.42,0,0-9.13-11.8,4,.13l44.9,4Z" transform="translate(-42.27 -11.06)"/><path fill="#de7356" d="M584.73,214.51c1.76-2,2.79-3.27,2.79-3.27L567,195.56,565.94,197A151.26,151.26,0,0,0,584.73,214.51Z" opacity=".2" transform="translate(-42.27 -11.06)"/><ellipse cx="156.63" cy="443.07" fill="#2f3f5c" opacity=".1" rx="142.5" ry="10.92"/><path fill="#2f3f5c" d="M229.06,432.62s-7.29,19.86-2.8,23.17,16.81-19.2,16.81-19.2Z" transform="translate(-42.27 -11.06)"/><path fill="#fff" d="M242,436.28c-2.82,4.9-12.22,20.55-16,17.76a3.38,3.38,0,0,1-1.12-1.83c.12,1.64.54,2.93,1.42,3.58,4.48,3.31,16.81-19.2,16.81-19.2Z" transform="translate(-42.27 -11.06)"/><path fill="#2f3f5c" d="M279.51,441.22s-2.63,6.31,0,6.84,54.17,10,14.73-6.84Z" transform="translate(-42.27 -11.06)"/><path fill="#fff" d="M279.51,446.31a1.4,1.4,0,0,1-1.09-1.24c-.2,1.43-.06,2.76,1.09,3,2.06.41,34,6.29,29,.79C304.69,451,281.26,446.66,279.51,446.31Z" transform="translate(-42.27 -11.06)"/><path fill="#ffc330" d="M300.05,225.23s36.52,55.44-1.35,215.69l-23,2.7-9.46-173.77Z" transform="translate(-42.27 -11.06)"/><path fill="#2f3f5c" d="M300.05,225.23s36.52,55.44-1.35,215.69l-23,2.7-9.46-173.77Z" opacity=".2" transform="translate(-42.27 -11.06)"/><path fill="#ffc330" d="M246.73,195s-31.2,53.87-23.08,80.92c6.25,20.85,31.1,57.47,31.1,57.47s-25,32.46-33.13,102.1L246,441.59s41.92-94,44-104.12-8.11-74.38-8.11-74.38l26.53-17.62-12.07-41.84Z" transform="translate(-42.27 -11.06)"/><path fill="#2f3f5c" d="M268.72,225c10.59-.41,22.94-1.27,31.37-8.11l-3.83-13.27L241.65,203A195.56,195.56,0,0,0,234,221.51,112.22,112.22,0,0,0,268.72,225Z" opacity=".2" transform="translate(-42.27 -11.06)"/><path fill="#ffc1b7" d="M274.65,137s12.42-71.13,18.71-115.56c0,0,.65-25,2.63,2.6,0,0,5-28.31,3.41-1.43,0,0,5.3-22,2.64,2.6,0,0,5.1-21,2.82,1.59,0,0-2.24,92.61-14.08,132.14S274.65,137,274.65,137Z" transform="translate(-42.27 -11.06)"/><path fill="#ffc1b7" d="M295.75,31.16s-16.43-16.72-.43-4.1S295.75,31.16,295.75,31.16Z" transform="translate(-42.27 -11.06)"/><path fill="#7a8db5" d="M267.2,69.73S256.71,54.92,240.11,65,234.33,99,215.17,105.65s-17.12,60.17,22.6,55.54C263,158.24,272,135.24,272,135.24Z" transform="translate(-42.27 -11.06)"/><path fill="#7a8db5" d="M264.52,72.13s3.3-13.09,15.62-10.25c17.22,4,15.32,19.79,30.46,23.84s21.3,25.31,5.95,42.37c-11.91,13.24-.36,17.26-9.93,31.77-10.95,16.63-45-2-45-2Z" transform="translate(-42.27 -11.06)"/><polygon fill="#ffc1b7" points="225.04 111.79 225.81 126.4 237.43 128.09 223.93 143.12 195.51 136.81 198.03 129.93 206.5 128.66 204.14 105.13 225.04 111.79"/><polygon fill="#1f2d42" points="225.04 111.79 225.81 126.4 237.43 128.09 223.93 143.12 195.51 136.81 198.03 129.93 206.5 128.66 204.08 106.03 225.04 111.79" opacity=".1"/><path fill="#ffc1b7" d="M249.6,106.63c.8,5-1.4,9.52-4.91,10.09s-7-3-7.82-8,1.39-9.52,4.91-10.08S248.79,101.63,249.6,106.63Z" transform="translate(-42.27 -11.06)"/><path fill="#ffc1b7" d="M268.49,74.65s18.3-.67,22,27.66c2.93,22.36-5.21,30.82-18.94,30.22-23.16-1-32.39-20.6-28.92-34.79S246.51,69.38,268.49,74.65Z" transform="translate(-42.27 -11.06)"/><path fill="#7a8db5" d="M268.49,74.65s-16.19,3.81-18,14.45,2.39,16.12-14.15,18.4-13.56,17.46-6.87,21.38,7.16,6-.8,5.4-13.86-20.78-1.38-27.77,10.29-17.74,10.05-26.91S263.41,54.53,268.49,74.65Z" transform="translate(-42.27 -11.06)"/><path fill="#7a8db5" d="M241.68,103.92s2.52,9.14,4.89,8.06-.19-10.39-.19-10.39Z" transform="translate(-42.27 -11.06)"/><path fill="#7a8db5" d="M274.18,73.19l-1.91.7c-1.2.46-2.89,1.13-4.83,2a35.35,35.35,0,0,0-6.11,3.55A15.45,15.45,0,0,0,258.66,82a9.86,9.86,0,0,0-1.73,3.09,13.71,13.71,0,0,0-.44,1.85l-.2,1.06-.15,1c-.2,1.31-.33,2.68-.44,4s-.19,2.66-.28,3.9a31.48,31.48,0,0,1-.45,3.64,10.54,10.54,0,0,1-1,3.11,7,7,0,0,1-.83,1.14,5.28,5.28,0,0,1-.88.76c-.3.19-.55.35-.78.47l-.63.23-.51.16.39-.37.46-.42.5-.65a6.18,6.18,0,0,0,.82-1.9,12.9,12.9,0,0,0,.15-2.73c-.1-2-.47-4.59-.56-7.41a35.14,35.14,0,0,1,.13-4.43c.08-.78.16-1.57.3-2.26l.21-1.14c.11-.42.2-.85.34-1.26a12.55,12.55,0,0,1,2.6-4.4,15.36,15.36,0,0,1,3.67-3,23.48,23.48,0,0,1,7.4-2.77,27.9,27.9,0,0,1,5.42-.58A14.7,14.7,0,0,1,274.18,73.19Z" transform="translate(-42.27 -11.06)"/><path fill="#c1eee6" stroke="#2f3f5c" stroke-miterlimit="10" stroke-width="1.09" d="M252.29,102.87a9.15,9.15,0,1,0,8.59-9.67A9.14,9.14,0,0,0,252.29,102.87Z" transform="translate(-42.27 -11.06)"/><path fill="none" stroke="#2f3f5c" stroke-miterlimit="10" stroke-width="1.07" d="M270.31,102.21s2.74-3.94,6.47-.73" transform="translate(-42.27 -11.06)"/><circle cx="284.44" cy="98.03" r="8.78" fill="#c1eee6" stroke="#2f3f5c" stroke-miterlimit="10" stroke-width="1.05" transform="translate(-21.34 232.15) rotate(-47.87)"/><line x1="203.11" x2="210.13" y1="92.62" y2="92.55" fill="none" stroke="#2f3f5c" stroke-miterlimit="10" stroke-width="1.03"/><g opacity=".5"><path fill="#c15a42" d="M274.89,102.23a11,11,0,0,1,1.52,1.18,16.7,16.7,0,0,1,1.35,1.31,26.21,26.21,0,0,1,2.36,2.9l.26.37-.16.34c-.44.9-.9,1.79-1.39,2.67a27.72,27.72,0,0,1-1.61,2.58,26.37,26.37,0,0,1,.75-2.94c.3-1,.62-1.92,1-2.86l.1.71a26.16,26.16,0,0,1-2.33-2.92,18.75,18.75,0,0,1-1-1.61A12.53,12.53,0,0,1,274.89,102.23Z" transform="translate(-42.27 -11.06)"/></g><path fill="#de7356" d="M284.23,116.51,266,120S277.64,129.24,284.23,116.51Z" transform="translate(-42.27 -11.06)"/><path fill="#2f3f5c" d="M272.61,119.48a8.25,8.25,0,0,1,5.18,2.22,3.37,3.37,0,0,1,.63.79c2.08-.89,4.12-2.7,5.81-6L266,120a15.65,15.65,0,0,0,1.83,1.2A7.16,7.16,0,0,1,272.61,119.48Z" opacity=".4" transform="translate(-42.27 -11.06)"/><path fill="#2f3f5c" d="M266.85,90.54s-.28,0-.75-.08-1.14-.11-1.91-.13c-.39,0-.81,0-1.25,0s-.89,0-1.36.06-.95.1-1.42.19a13.61,13.61,0,0,0-1.44.3c-.49.08-.94.3-1.41.42s-.9.35-1.34.52l-1.22.6c-.41.18-.74.43-1.09.61s-.67.35-.93.55-.51.33-.71.46c-.41.25-.66.38-.66.38s.12-.25.37-.66a8.47,8.47,0,0,1,.47-.75,5,5,0,0,1,.72-.89,7.35,7.35,0,0,1,1-1,14.06,14.06,0,0,1,1.23-.92,14.56,14.56,0,0,1,1.47-.78,11.15,11.15,0,0,1,1.63-.55,9,9,0,0,1,1.7-.29,10.32,10.32,0,0,1,3.18.2,7.5,7.5,0,0,1,1.31.38,8,8,0,0,1,1.83.89A4.79,4.79,0,0,1,266.85,90.54Z" transform="translate(-42.27 -11.06)"/><path fill="#2f3f5c" d="M286.26,88s-.25-.06-.67-.13-1-.18-1.73-.28l-1.11-.11c-.39,0-.81,0-1.22,0s-.85,0-1.28.07c-.21,0-.42.06-.64.07l-.63.14a8.71,8.71,0,0,0-1.24.33c-.41.12-.79.31-1.18.46s-.72.38-1.07.55-.64.42-.95.6a8.13,8.13,0,0,0-.81.54c-.23.18-.45.33-.62.45-.36.25-.59.39-.59.39s.09-.24.27-.64c.1-.2.21-.45.36-.73a4.62,4.62,0,0,1,.59-.87,5.85,5.85,0,0,1,.82-1,8.52,8.52,0,0,1,1.11-.9,9.21,9.21,0,0,1,1.35-.75,7.44,7.44,0,0,1,1.54-.48l.79-.14.8,0a11.05,11.05,0,0,1,1.54.11,9.14,9.14,0,0,1,1.37.36,7.78,7.78,0,0,1,1.16.48,7.12,7.12,0,0,1,1.54,1A4.1,4.1,0,0,1,286.26,88Z" transform="translate(-42.27 -11.06)"/><path fill="#2f3f5c" d="M258.39,107.45a13.1,13.1,0,0,1-.18-2.51,11,11,0,0,1,.37-2.61,5.26,5.26,0,0,1,.63-1.43,2.74,2.74,0,0,1,1.35-1.14,2.63,2.63,0,0,1,1.78.06,5.18,5.18,0,0,1,1.37.77,9.57,9.57,0,0,1,1,.94,11.1,11.1,0,0,1,.82.92,16,16,0,0,1,1.4,2.09l-.51-.47c-.3-.31-.78-.72-1.32-1.22-.29-.23-.58-.51-.9-.76s-.68-.51-1.05-.76c-.18-.12-.38-.22-.57-.33a4.87,4.87,0,0,0-.59-.24,1.7,1.7,0,0,0-1.13,0,1.8,1.8,0,0,0-.88.73,5.75,5.75,0,0,0-.59,1.16,16.17,16.17,0,0,0-.64,2.39c-.13.72-.25,1.34-.3,1.77S258.39,107.45,258.39,107.45Z" transform="translate(-42.27 -11.06)"/><path fill="#2f3f5c" d="M279,101.77a9.39,9.39,0,0,1,.18-2.23,8,8,0,0,1,.71-2.23,4.2,4.2,0,0,1,.79-1.16,2.61,2.61,0,0,1,1.41-.75,2.66,2.66,0,0,1,1.55.3,4.21,4.21,0,0,1,1.13.82,9.42,9.42,0,0,1,1.45,1.83,13.33,13.33,0,0,1,.76,1.43l.24.56-.41-.45-1.06-1.19c-.23-.23-.46-.5-.72-.75s-.55-.5-.85-.76l-.47-.34c-.16-.08-.32-.2-.49-.27a1.75,1.75,0,0,0-1-.17,2.49,2.49,0,0,0-1.57,1.33,12.27,12.27,0,0,0-.93,2C279.24,100.91,279,101.77,279,101.77Z" transform="translate(-42.27 -11.06)"/><path fill="#ffc1b7" d="M243.52,139.85S217.8,76.4,206.58,35.7c0,0-3.94-31.71-4.13-4.32,0,0-9.35-26.09-3.57.21,0,0-8.74-21.94-2.22,1.9,0,0-8.24-19.57-2.42,2.34,0,0,18.88,91.09,36.82,128.24S243.52,139.85,243.52,139.85Z" transform="translate(-42.27 -11.06)"/><path fill="#1f2d42" d="M236.17,121.21a159.8,159.8,0,0,1-18.39,7.29c4.28,13.71,8.81,26.31,13.28,35.57,17.94,37.16,12.46-24.22,12.46-24.22S240.54,132.5,236.17,121.21Z" opacity=".1" transform="translate(-42.27 -11.06)"/><path fill="#ffc1b7" d="M207.39,33.94s6.73-14.47,1,4.74S207.39,33.94,207.39,33.94Z" transform="translate(-42.27 -11.06)"/><path fill="#fff" d="M215.72,132.35l23.65-8.6L246,139.81l2.78-.08s11,11.58,19.32-2.27c0,0,24.94-2,26.6,8.71s-.16,38.48-.16,38.48l8.24,25.1s-18.79,20-70.29,5.3l5.37-29.24S223.93,158.08,215.72,132.35Z" transform="translate(-42.27 -11.06)"/><path fill="#2f3f5c" d="M270.06,184a174.25,174.25,0,0,1-39.59-13.87c4.2,9.4,7.37,15.71,7.37,15.71l-5.37,29.24c51.5,14.67,70.29-5.3,70.29-5.3l-7.54-23A114.21,114.21,0,0,1,270.06,184Z" opacity=".1" transform="translate(-42.27 -11.06)"/><path fill="#fff" d="M293.27,148.31s21.46,15.18,1.73,29.2S293.27,148.31,293.27,148.31Z" transform="translate(-42.27 -11.06)"/><polygon fill="#de7356" points="121.73 122.59 119.39 136.54 130 140.59 114.08 151.94 88.58 140 92.4 134.03 100.67 134.62 104.79 116.66 121.73 122.59"/><polygon fill="#1f2d42" points="121.73 122.59 119.39 136.54 130 140.59 114.08 151.94 88.58 140 92.4 134.03 100.67 134.62 104.79 116.66 121.73 122.59" opacity=".1"/><path fill="#ffc330" d="M138.67,115.07s-4.09,3.42,5.24,11.84C149.15,131.64,138.67,115.07,138.67,115.07Z" transform="translate(-42.27 -11.06)"/><path fill="#de7356" d="M150.23,112.92a9,9,0,1,1-7.2-10.43A9,9,0,0,1,150.23,112.92Z" transform="translate(-42.27 -11.06)"/><path fill="#de7356" d="M174.1,88.69s14,7.66,12.72,27.61c-1.34,21.77-11.18,32.31-24,28.85-21.66-5.84-26.47-30.58-20.21-43.25S154.44,79.08,174.1,88.69Z" transform="translate(-42.27 -11.06)"/><path fill="#ffc330" d="M141,103s3.18,4.09.91,11.14c0,0,6.82,3,6.37-14.78,0,0,5.91-1.82,6.6-7.74,0,0,5.68,10.47,17.52,12.74l-3.19-7.28s11.15,7.74,23.89,9.33c0,0,5.92-20.93-12.06-30,0,0,14.34,9.1,17.52,16.61,0,0-1.59-23.44-27.76-23s-30.48,15.69-30.48,15.69L154.14,81s.69-8.65-9.55-6.83S128.21,91.64,133.67,106C133.67,106,137.76,102.33,141,103Z" transform="translate(-42.27 -11.06)"/><g opacity=".8"><path fill="#c15a42" d="M172.74,112.56c.4,1,.73,2,1,3.07s.58,2.06.82,3.11.46,2.08.68,3.13.4,2.1.55,3.16l.06.48-.36.2c-.77.45-1.55.87-2.36,1.27a21,21,0,0,1-2.48,1.06,23,23,0,0,1,2-1.82c.69-.57,1.4-1.11,2.12-1.62l-.29.68c-.26-1-.45-2.09-.66-3.14s-.39-2.1-.53-3.16-.29-2.12-.39-3.19S172.75,113.65,172.74,112.56Z" transform="translate(-42.27 -11.06)"/></g><path fill="#fff" d="M176.43,131.69l-17.81-1.41S167.91,139.43,176.43,131.69Z" transform="translate(-42.27 -11.06)"/><path fill="#2f3f5c" d="M164.68,112.69a12.47,12.47,0,0,1-.54,2.38,10.52,10.52,0,0,1-1.06,2.31,4.91,4.91,0,0,1-1,1.15,2.72,2.72,0,0,1-1.58.68,2.51,2.51,0,0,1-1.63-.55,4.9,4.9,0,0,1-1.05-1.09,8,8,0,0,1-.71-1.15c-.21-.37-.35-.75-.5-1.08a17,17,0,0,1-.73-2.33s.14.21.35.57.52.88.89,1.5c.2.29.39.63.62,1s.49.66.76,1c.14.16.29.31.44.47a5.71,5.71,0,0,0,.48.38,1.59,1.59,0,0,0,1,.35,1.8,1.8,0,0,0,1-.43,5.44,5.44,0,0,0,.87-.92,15.68,15.68,0,0,0,1.26-2c.32-.64.6-1.17.77-1.56Z" transform="translate(-42.27 -11.06)"/><path fill="#2f3f5c" d="M183.59,113.64a12.3,12.3,0,0,1-.54,2.38,10.12,10.12,0,0,1-1.06,2.31,5.26,5.26,0,0,1-1,1.16,2.66,2.66,0,0,1-1.57.68,2.55,2.55,0,0,1-1.63-.55,4.89,4.89,0,0,1-1.05-1.09,7.71,7.71,0,0,1-.71-1.16,11.28,11.28,0,0,1-.5-1.08,15.11,15.11,0,0,1-.73-2.32s.13.2.34.57.53.88.89,1.49c.2.3.4.64.63,1a11.47,11.47,0,0,0,.76,1c.14.16.29.3.43.46s.32.28.49.39a1.57,1.57,0,0,0,1,.34,1.67,1.67,0,0,0,1-.43,5.37,5.37,0,0,0,.87-.91,16.05,16.05,0,0,0,1.25-2c.33-.63.61-1.17.78-1.55Z" transform="translate(-42.27 -11.06)"/><path fill="#2f3f5c" d="M168.18,106.5l-.67-.28c-.42-.18-1-.41-1.74-.65-.35-.13-.75-.23-1.15-.36s-.84-.21-1.28-.31a12.22,12.22,0,0,0-1.37-.22,9.6,9.6,0,0,0-1.42-.12,13.45,13.45,0,0,0-1.42,0c-.47,0-.93.08-1.38.12l-1.3.21c-.43.05-.81.2-1.18.26s-.72.15-1,.26l-.79.22c-.45.12-.72.17-.72.17s.18-.19.52-.51c.18-.16.39-.35.65-.56a5.15,5.15,0,0,1,.91-.62,6.78,6.78,0,0,1,1.17-.62,11.38,11.38,0,0,1,1.4-.52,12.46,12.46,0,0,1,1.57-.31,10.32,10.32,0,0,1,1.67-.06,9.18,9.18,0,0,1,1.65.2,10.56,10.56,0,0,1,1.54.44,11.39,11.39,0,0,1,1.36.62,8.87,8.87,0,0,1,1.11.72,7.75,7.75,0,0,1,1.44,1.33A4.53,4.53,0,0,1,168.18,106.5Z" transform="translate(-42.27 -11.06)"/><path fill="#2f3f5c" d="M186.89,108.75s-.21-.13-.59-.32-.9-.45-1.52-.73c-.31-.14-.65-.27-1-.41s-.75-.24-1.12-.39-.79-.22-1.2-.28l-.61-.11c-.21,0-.42,0-.63-.06a8.56,8.56,0,0,0-1.24,0c-.41,0-.82.07-1.22.09s-.77.17-1.15.23a9.21,9.21,0,0,0-1,.28,8,8,0,0,0-.9.28l-.7.25c-.41.13-.65.19-.65.19s.14-.19.42-.52c.15-.16.32-.36.54-.57a4.31,4.31,0,0,1,.78-.64,5.18,5.18,0,0,1,1-.65,9.15,9.15,0,0,1,1.27-.54,8.71,8.71,0,0,1,1.47-.31,6.78,6.78,0,0,1,1.56,0c.26,0,.52.05.77.09l.75.18a9.12,9.12,0,0,1,1.39.53,8.38,8.38,0,0,1,1.18.71,6.79,6.79,0,0,1,.94.77,7.15,7.15,0,0,1,1.15,1.38A3.59,3.59,0,0,1,186.89,108.75Z" transform="translate(-42.27 -11.06)"/><path fill="#de7356" d="M199,195.12s-1.59,30.47-29.11,42.67c-6.53,2.9-12.27-35-9.31-43,.69-1.87,15.12,18.9,15.93,17.17a99.37,99.37,0,0,1,6.06-11.06Z" transform="translate(-42.27 -11.06)"/><path fill="#1f2d42" d="M160.62,194.8c.69-1.87,15.12,18.9,15.93,17.17a99.37,99.37,0,0,1,6.06-11.06l1.71-.6a82.25,82.25,0,0,0,3.26,15.13c.54,1.77,1.34,3.71,2.2,5.75a46.35,46.35,0,0,1-19.85,16.6C163.4,240.69,157.65,202.82,160.62,194.8Z" opacity=".1" transform="translate(-42.27 -11.06)"/><path fill="#de7356" d="M134.8,442.61,136,458.85s-31.22,2.07-31.56-1.15S122,451.1,122,451.1l-1-12.32Z" transform="translate(-42.27 -11.06)"/><path fill="#2f3f5c" d="M135.22,448.51l-.42-5.9L121,438.78l.8,9.34A131.15,131.15,0,0,0,135.22,448.51Z" opacity=".2" transform="translate(-42.27 -11.06)"/><path fill="#fff" d="M113,459.44h.1c.37,0,.74,0,1.12,0h.14l1.14,0h1.44c8.81,0,19-.66,19-.66l-.14-1.93c-1.59.1-10.54.64-18.46.64a26.77,26.77,0,0,0-2.85-4.75c-3.71,1-7.73,2.27-9.36,3.62h0a3.49,3.49,0,0,0-.34.31h0a1.62,1.62,0,0,0-.24.31s0,.05,0,.07a1.63,1.63,0,0,0-.1.25.89.89,0,0,0,0,.32.58.58,0,0,0,.09.25l0,0a.74.74,0,0,0,.22.21l0,0,.32.18.07,0a3.68,3.68,0,0,0,.44.17l.07,0a5.59,5.59,0,0,0,.56.15h0c.21.05.43.1.67.14h0l.74.11.11,0,.8.1h.13l.87.08h.14l1,.07h.09Z" transform="translate(-42.27 -11.06)"/><path fill="#fff" d="M128.7,452.56a2.31,2.31,0,1,0,2.44-2.17A2.32,2.32,0,0,0,128.7,452.56Z" transform="translate(-42.27 -11.06)"/><line x1="74.93" x2="76.79" y1="441.17" y2="443.54" fill="none" stroke="#fff" stroke-linecap="round" stroke-miterlimit="10" stroke-width=".78"/><line x1="77.39" x2="79.25" y1="440.48" y2="442.85" fill="none" stroke="#fff" stroke-linecap="round" stroke-miterlimit="10" stroke-width=".78"/><line x1="79.7" x2="81.56" y1="440.02" y2="442.39" fill="none" stroke="#fff" stroke-linecap="round" stroke-miterlimit="10" stroke-width=".78"/><path fill="#de7356" d="M164.48,444l-.62,16.27s31.27,1,31.5-2.23-17.84-6-17.84-6l.63-12.36Z" transform="translate(-42.27 -11.06)"/><path fill="#2f3f5c" d="M164.25,449.93l.23-5.91,13.67-4.31-.48,9.37A133.92,133.92,0,0,1,164.25,449.93Z" opacity=".2" transform="translate(-42.27 -11.06)"/><path fill="#fff" d="M186.84,460.09h-.1l-1.11.07h-.14l-1.14.05h-.15l-1.17.05h-.12c-8.81.33-19,0-19,0l.07-1.94c1.6,0,10.56.29,18.48,0a26.58,26.58,0,0,1,2.68-4.84c3.74.84,7.81,2,9.48,3.29h0a3.66,3.66,0,0,1,.35.31h0a1.42,1.42,0,0,1,.25.31s0,0,0,.07a1.28,1.28,0,0,1,.11.24.71.71,0,0,1,0,.32.57.57,0,0,1-.08.25l0,0a1,1,0,0,1-.21.21l0,0a1.93,1.93,0,0,1-.32.19l-.06,0-.43.18-.08,0a5.16,5.16,0,0,1-.55.17h0l-.66.16h0l-.75.15H192l-.8.13-.13,0-.86.11-.14,0-.95.1H189C188.33,460,187.6,460,186.84,460.09Z" transform="translate(-42.27 -11.06)"/><path fill="#fff" d="M170.91,453.75a2.31,2.31,0,1,1-2.51-2.08A2.31,2.31,0,0,1,170.91,453.75Z" transform="translate(-42.27 -11.06)"/><line x1="140.13" x2="138.36" y1="441.97" y2="444.4" fill="none" stroke="#fff" stroke-linecap="round" stroke-miterlimit="10" stroke-width=".78"/><line x1="137.64" x2="135.87" y1="441.36" y2="443.8" fill="none" stroke="#fff" stroke-linecap="round" stroke-miterlimit="10" stroke-width=".78"/><line x1="135.32" x2="133.54" y1="440.98" y2="443.42" fill="none" stroke="#fff" stroke-linecap="round" stroke-miterlimit="10" stroke-width=".78"/><path fill="#7a8db5" d="M113.58,213S91,236.66,87.48,261.6s32.24,181,32.24,181l16.86-.39,2.71-147.42L162,444.34l19.55.6S188,278.52,174.7,253.53c-6.66-20.24-12.09-36.34-12.09-36.34Z" transform="translate(-42.27 -11.06)"/><path fill="#2f3f5c" d="M158,239.5a109.82,109.82,0,0,0,11.71-1.2c-4.15-12.52-7-21.11-7-21.11l-49-4.24A127.28,127.28,0,0,0,100,230.78C118,238.23,138.79,240.59,158,239.5Z" opacity=".2" transform="translate(-42.27 -11.06)"/><path fill="#2f3f5c" d="M178,264.34c-10.27,13.24-22.91,26.71-38.62,31.14L162,444.34l19.55.6S186.86,308.88,178,264.34Z" opacity=".2" transform="translate(-42.27 -11.06)"/><polygon fill="#93a9d1" points="74.66 433.71 96.52 433.48 96.31 425.28 72.69 423.64 74.66 433.71"/><polygon fill="#93a9d1" points="141.53 435.32 116.98 434.11 117.71 425.93 142.28 425.78 141.53 435.32"/><path fill="#ffc1b7" d="M116.86,153.23c2.87-6.48,11.08-8.82,20.82-9a21.64,21.64,0,0,0,13.71,10c6.79,1.74,15,.61,18.43-5.48a103.71,103.71,0,0,1,12.93,4.07c8.35,3.61,1.87,29.49,1.87,29.49,17.1,23.39-8.2,29.58-8.2,29.58l-4.76,21.47c-41.41,4.55-67.8-16.83-67.8-16.83S108.87,171.29,116.86,153.23Z" transform="translate(-42.27 -11.06)"/><path fill="#de7356" d="M196,193.76c-2.31-1.78-51.4,10.08-52.76,10.27-1.13.14-1.12-20.09-1.09-27.1a207.2,207.2,0,0,0-25.58,4.58c0,12.29,3.37,36,14.43,41.76,14.88,7.73,65.84-20.06,65.84-20.06S198.35,195.53,196,193.76Z" transform="translate(-42.27 -11.06)"/><path fill="#1f2d42" d="M142.17,179.93c0-1.15,0-2.17,0-3a207.2,207.2,0,0,0-25.58,4.58c0,1.09,0,2.28.08,3.54C125.11,183,133.61,181.3,142.17,179.93Z" opacity=".1" transform="translate(-42.27 -11.06)"/><path fill="#7a8db5" d="M188,214a3,3,0,0,1-3.83,1.74L168.84,210a3,3,0,0,1-1.75-3.83l13.4-35.39a3,3,0,0,1,3.83-1.74l15.34,5.74a3,3,0,0,1,1.75,3.83Z" transform="translate(-42.27 -11.06)"/><path fill="#1f2d42" d="M188,214a2.83,2.83,0,0,1-3.55,1.85l-13.8-5.16A2.85,2.85,0,0,1,169.2,207l13.39-35.39a2.84,2.84,0,0,1,3.55-1.85l13.8,5.16a2.84,2.84,0,0,1,1.47,3.73Z" opacity=".5" transform="translate(-42.27 -11.06)"/><path fill="#de7356" d="M199,195.12s-9.48-21.87-3.86-1.87c0,0-13.75-15.13-.41,4.09,0,0-15.4-12.43-.92,2.85,0,0-13.67-9.79-3.42,2C198,210.88,199,195.12,199,195.12Z" transform="translate(-42.27 -11.06)"/></g></svg>