<svg xmlns="http://www.w3.org/2000/svg" xmlns:xlink="http://www.w3.org/1999/xlink" viewBox="0 0 2540 1724.93"><defs><filter id="luminosity-noclip" width="745.74" height="32766" x="849.81" y="-9192" color-interpolation-filters="sRGB" filterUnits="userSpaceOnUse"><feFlood flood-color="#fff" result="bg"/><feBlend in="SourceGraphic" in2="bg"/></filter><linearGradient id="linear-gradient" x1="849.81" x2="1595.54" y1="1935.64" y2="1935.64" gradientUnits="userSpaceOnUse"><stop offset="0"/><stop offset=".1" stop-color="#232323"/><stop offset=".42" stop-color="#989898"/><stop offset=".65" stop-color="#e2e2e2"/><stop offset=".75" stop-color="#fff"/></linearGradient><filter id="luminosity-noclip-2" width="751.93" height="32766" x="849.81" y="-9192" color-interpolation-filters="sRGB" filterUnits="userSpaceOnUse"><feFlood flood-color="#fff" result="bg"/><feBlend in="SourceGraphic" in2="bg"/></filter><linearGradient id="linear-gradient-2" x1="849.81" x2="1601.73" y1="1937.5" y2="1937.5" xlink:href="#linear-gradient"/><filter id="luminosity-noclip-3" width="1939.02" height="32766" x="0" y="-9192" color-interpolation-filters="sRGB" filterUnits="userSpaceOnUse"><feFlood flood-color="#fff" result="bg"/><feBlend in="SourceGraphic" in2="bg"/></filter><linearGradient id="linear-gradient-3" x1="0" x2="1939.02" y1="1784.06" y2="1784.06" xlink:href="#linear-gradient"/><filter id="luminosity-noclip-4" width="745.74" height="128.71" x="849.81" y="1871.29" color-interpolation-filters="sRGB" filterUnits="userSpaceOnUse"><feFlood flood-color="#fff" result="bg"/><feBlend in="SourceGraphic" in2="bg"/></filter><mask id="mask-4" width="745.74" height="128.71" x="849.81" y="1596.22" maskUnits="userSpaceOnUse"><g filter="url(#luminosity-noclip-4)"><g><g mask="url(#mask)" transform="translate(0 -275.07)"><polygon fill="url(#linear-gradient)" points="1595.55 1888.42 856.01 2000 849.81 1886.1 1595.55 1871.29 1595.55 1888.42" style="mix-blend-mode:multiply"/></g></g></g></mask><filter id="luminosity-noclip-5" width="751.93" height="125" x="849.81" y="1875" color-interpolation-filters="sRGB" filterUnits="userSpaceOnUse"><feFlood flood-color="#fff" result="bg"/><feBlend in="SourceGraphic" in2="bg"/></filter><mask id="mask-5" width="751.93" height="125" x="849.81" y="1599.93" maskUnits="userSpaceOnUse"><g filter="url(#luminosity-noclip-5)"><g><g mask="url(#mask-2)" transform="translate(0 -275.07)"><polygon fill="url(#linear-gradient-2)" points="1582.59 1891.13 856.01 2000 849.81 1886.1 1601.73 1875 1582.59 1891.13" style="mix-blend-mode:multiply"/></g></g></g></mask><linearGradient id="linear-gradient-4" x1="849.81" x2="1601.73" y1="1662.43" y2="1662.43" gradientUnits="userSpaceOnUse"><stop offset="0" stop-color="#fff"/><stop offset=".36" stop-color="#97c9de"/><stop offset=".63" stop-color="#4da2c6"/><stop offset=".75" stop-color="#3093bd"/></linearGradient><filter id="luminosity-noclip-6" width="1939.02" height="431.87" x="0" y="1568.13" color-interpolation-filters="sRGB" filterUnits="userSpaceOnUse"><feFlood flood-color="#fff" result="bg"/><feBlend in="SourceGraphic" in2="bg"/></filter><mask id="mask-6" width="1939.02" height="431.87" x="0" y="1293.06" maskUnits="userSpaceOnUse"><g filter="url(#luminosity-noclip-6)"><g><g mask="url(#mask-3)" transform="translate(0 -275.07)"><polygon fill="url(#linear-gradient-3)" points="1645.71 1718.69 0 1664.95 0 2000 1331.97 2000 1768.84 1867.55 1939.02 1568.13 1645.71 1718.69" style="mix-blend-mode:multiply"/></g></g></g></mask><linearGradient id="linear-gradient-5" x2="1939.02" y1="1508.99" y2="1508.99" gradientUnits="userSpaceOnUse"><stop offset="0" stop-color="#fff"/><stop offset=".75" stop-color="#fff"/></linearGradient></defs><g style="isolation:isolate"><g id="Layer_1" data-name="Layer 1"><g mask="url(#mask-4)"><g mask="url(#mask-5)"><polygon fill="url(#linear-gradient-4)" points="1582.59 1616.06 856.01 1724.93 849.81 1611.03 1601.73 1599.93 1582.59 1616.06"/></g></g><rect width="2540" height="111.65" y="355.85" fill="#0e5168" opacity=".1"/><rect width="2540" height="111.65" y="945.8" fill="#0e5168" opacity=".1"/><polygon fill="#fff" points="2165.11 1482.48 1525.09 1482.48 1525.09 236.79 2165.11 98.74 2165.11 1482.48"/><g mask="url(#mask-6)"><polygon fill="url(#linear-gradient-5)" points="1645.71 1443.62 0 1389.88 0 1724.93 1331.97 1724.93 1768.84 1592.47 1939.02 1293.06 1645.71 1443.62"/></g><path fill="#e3e3e3" d="M1827.9,1763.64c-174.8-12.76-429.63-20.79-713.41-20.79-527,0-954.24,27.71-954.24,61.89s427.23,61.88,954.24,61.88c258.49,0,493-6.66,664.81-17.49Z" transform="translate(0 -275.07)" style="mix-blend-mode:multiply"/><path fill="#ffc0bb" d="M1153.16,868.28a1.75,1.75,0,0,1-1.12,2.87c-10.7,1.28-44.37,5.52-44.66,8.32-.35,3.33,29.83.27,31.15,3.08s-28.17,5-28,8.66,27,.67,27.65,2.17-24.79,7.06-26,9.26,26.69-.45,28,1.15-17.34,9.82-16.82,11.5.58,2.88,47.79-3.6l18.47-3.35,13.61-10.88-6.06-20s-53.57-29.87-55.82-28.71S1139.35,851.89,1153.16,868.28Z" transform="translate(0 -275.07)"/><path fill="#f4a640" d="M1409,748.51,1309.63,887l-122.71-21.43s-8.38,26.32,3.23,50.77c.2.4,111.22,49.94,136.61,50.74S1452,822.21,1452,822.21l-10.58-43.33C1436.93,765.32,1417.15,736.74,1409,748.51Z" transform="translate(0 -275.07)"/><path fill="#ffc0bb" d="M1315.21,1785.72l59.16-36.39,36.12,31.67-15.44,11-53.56,7.48s-20.89-2.71-21.81-3.33S1315.21,1785.72,1315.21,1785.72Z" transform="translate(0 -275.07)"/><path fill="#07085b" d="M1315.21,1785.72l-13,8.32a7.1,7.1,0,0,0,3.73,13.11l98.08.61a6.27,6.27,0,0,0,6.31-6.23l.13-20.53C1345,1801.39,1322.51,1794.92,1315.21,1785.72Z" transform="translate(0 -275.07)"/><path fill="#ff5b7e" d="M1567.31,619s24.83-56.54-5.56-84.73-67.16-32.15-94.26-23.26-50.08,52.49-43.64,80.87l86.62-10.71Z" transform="translate(0 -275.07)"/><path fill="#daeef7" d="M1557.49,1044.31c-6.6,1.2-13.24,2.17-19.89,3.06s-13.32,1.67-20,2.33c-13.35,1.33-26.74,2.21-40.15,2.5-6.7.14-13.41.15-20.12,0s-13.39-.57-20.08-1.13-13.34-1.39-20-2.49-13.19-2.5-19.67-4.26c6.45,1.89,13,3.41,19.6,4.66s13.28,2,20,2.72,13.4,1,20.11,1.24,13.44.21,20.16.08q20.15-.52,40.2-2.69,10-1.1,20-2.56C1544.29,1046.75,1550.91,1045.64,1557.49,1044.31Z" opacity=".5" transform="translate(0 -275.07)"/><polygon fill="#ffc0bb" points="1410.48 1505.92 1422.73 1436.52 1371.58 1431.09 1368.47 1434.61 1359.89 1482.77 1384.06 1507.13 1410.48 1505.92"/><path fill="#ffc0bb" d="M1675.1,1783.86l23-65.57,48,1.79-5.07,18.25-36.86,39.58s-17.92,11.08-19,11.18S1675.1,1783.86,1675.1,1783.86Z" transform="translate(0 -275.07)"/><path fill="#07085b" d="M1675.1,1783.86l-4.82,14.63a7.1,7.1,0,0,0,11.16,7.82l76.51-61.4a6.27,6.27,0,0,0,1-8.81l-12.85-16C1708.13,1777.2,1686.57,1786.39,1675.1,1783.86Z" transform="translate(0 -275.07)"/><polygon fill="#ffc0bb" points="1746.07 1445.01 1711.82 1383.42 1668.71 1411.48 1668.5 1416.17 1692.21 1458.95 1726.32 1462.62 1746.07 1445.01"/><path fill="#ffc0bb" d="M1787.67,604.18a1.75,1.75,0,0,0,3.08-.06c4.89-9.61,20.46-39.76,23.18-39.07,3.25.81-10,28.09-7.83,30.31s14.43-24.72,17.76-23.29-8.67,25.62-7.48,26.71,15.16-20.85,17.63-21.18-9.61,24.91-8.54,26.65,15.19-12.91,16.58-11.85,2.51,1.55-19.83,43.63l-9.5,16.2-14.89,9-16.74-12.59s-9.6-60.57-7.74-62.28S1777,585.58,1787.67,604.18Z" transform="translate(0 -275.07)"/><path fill="#d63c5d" d="M1493.85,1074.79l-15.57,287.42s-23,304-52.35,367.83h-65.11l31.92-713.94h97Z" transform="translate(0 -275.07)"/><path fill="#ff5b7e" d="M1389.06,1098.32l3.68-82.22,77.5-2L1472,1022l88.65-11s72.77,93.87,55.53,243.29-13.4,203.07-13.4,203.07,93.84,86.21,122.56,210.73c0,0-41.17,28.74-68.94,33.53,0,0-137.88-210.73-148.42-235.64-6.3-14.89-27.24-169.56-43.06-291.53C1464.89,1174.45,1395.83,1123.9,1389.06,1098.32Z" transform="translate(0 -275.07)"/><path fill="#feb546" d="M1375.8,832a168,168,0,0,1,60.85-112.13,35.44,35.44,0,0,1,14.17-7c14.09-3.37,32.47-4,41.49-4.12h29.62s47.56,2.64,68.7,9.25,104.38,43.62,113.63,38.33,74-122.92,74-122.92L1813.92,652s-22.46,164.62-84.56,176.81-122.87-3.67-122.87-3.67-11.89,165.21-42.28,194.29c0,0-120,8.14-164.62,3a18.17,18.17,0,0,1-15.84-15.2C1379,977.68,1368.48,900,1375.8,832Z" transform="translate(0 -275.07)"/><path fill="#ffc0bb" d="M1414.11,742.19A169.38,169.38,0,0,1,1436.59,720a35.59,35.59,0,0,1,14.22-7c14.09-3.37,32.48-4,41.5-4.12h29.62s8.09.45,19.09,1.44C1517.09,728.5,1472.3,753.17,1414.11,742.19Z" transform="translate(0 -275.07)"/><path fill="#ffc0bb" d="M1511,721.56l-56,1.16c1.13-12.43,2.11-28.9,0-34.84-3.49-10,58.87-11.54,58.87-11.54S1510.64,702.08,1511,721.56Z" transform="translate(0 -275.07)"/><path fill="#f99893" d="M1514,676.34s-1.34,10.4-2.22,23a54.37,54.37,0,0,1-41.34,11.91,53.38,53.38,0,0,1-14.28-3.91c.36-8.2.23-15.81-1-19.45C1451.6,677.86,1514,676.34,1514,676.34Z" transform="translate(0 -275.07)"/><path fill="#ff5b7e" d="M1533.23,599.86s29.83,2.55,55.29,32.59S1616,732,1566.19,766,1493,797,1474.87,835.09c0,0-22.74-43.49,16.26-92.09a37.86,37.86,0,0,0-21.25,12.71s-.18-39.93,33.93-58.9S1547,645,1525,634.18,1533.23,599.86,1533.23,599.86Z" transform="translate(0 -275.07)"/><path fill="#f99893" d="M1432.68,604.23c1.53,8.46-2.73,16.31-9.5,17.53s-13.5-4.66-15-13.12,2.74-16.32,9.51-17.54S1431.16,595.76,1432.68,604.23Z" transform="translate(0 -275.07)"/><path fill="#ffc0bb" d="M1422.61,638.59a123.21,123.21,0,0,1-.15-31.33c.23-2,.34-4.08.41-6.12a66.53,66.53,0,1,1,131.57,16.18c4.55-1.4,9.23-1,12.87,1.7,7,5.09,7.5,16.31,1.14,25.05s-17.18,11.7-24.17,6.6a12.56,12.56,0,0,1-2.53-2.46c-10,31.19-41.33,50.25-72.54,43.08C1445.63,685.87,1426.18,666,1422.61,638.59Z" transform="translate(0 -275.07)"/><path fill="#333" d="M1492.13,615.59a6.25,6.25,0,1,0,7.49-4.69A6.25,6.25,0,0,0,1492.13,615.59Z" transform="translate(0 -275.07)"/><path fill="#333" d="M1441.6,606.67a6.25,6.25,0,1,0,7.5-4.7A6.25,6.25,0,0,0,1441.6,606.67Z" transform="translate(0 -275.07)"/><path fill="#ff5b7e" d="M1488.76,604.41a38.49,38.49,0,0,1,9.25-1.79,28,28,0,0,1,9.1.9,23.22,23.22,0,0,1,4.25,1.61,28,28,0,0,1,4,2.33,46.82,46.82,0,0,1,7,6.34,25.25,25.25,0,0,0-5.92-7.71,21.46,21.46,0,0,0-4.06-2.85,21,21,0,0,0-4.64-1.88,22.82,22.82,0,0,0-9.89-.47,24.68,24.68,0,0,0-4.73,1.29A19.64,19.64,0,0,0,1488.76,604.41Z" transform="translate(0 -275.07)"/><path fill="#ff5b7e" d="M1464,600a19.9,19.9,0,0,0-3.29-3.58,25.19,25.19,0,0,0-4-2.83,22.94,22.94,0,0,0-9.45-3,21.44,21.44,0,0,0-5,.18,22,22,0,0,0-4.8,1.29,25.35,25.35,0,0,0-8.2,5.21,47,47,0,0,1,8.75-3.55,28.6,28.6,0,0,1,4.52-.84,23.86,23.86,0,0,1,4.55-.06,27.86,27.86,0,0,1,8.85,2.28A38.33,38.33,0,0,1,1464,600Z" transform="translate(0 -275.07)"/><path fill="#fff" d="M1605.53,824a53.86,53.86,0,0,1-4.72-5.73,61.18,61.18,0,0,1-4-6.31,55.44,55.44,0,0,1-3.3-6.75,70.84,70.84,0,0,1-2.5-7.14,41.6,41.6,0,0,0,1.6,7.47c.36,1.23.83,2.42,1.28,3.62s1,2.37,1.59,3.5a50.81,50.81,0,0,0,3.93,6.62,45.84,45.84,0,0,0,3.87,4.84,26,26,0,0,1-4,.49,28,28,0,0,1-5.49-.25c-.92-.11-1.81-.33-2.72-.51s-1.79-.48-2.65-.83a30.12,30.12,0,0,1-5.06-2.43,23.19,23.19,0,0,0,10.21,5,25.31,25.31,0,0,0,5.76.58,24.29,24.29,0,0,0,5.82-.73l1.39-.37Z" transform="translate(0 -275.07)"/><path fill="#ff5b7e" d="M1554.44,617.32s-41.4-25.89-60.26-57.48c0,0-2.13,15.11,2,21.26-1.77.78-30.39-16.92-33.37-41.75s37.59-8.3,37.59-8.3,24.66.28,25.62,1,16.27,14,16.92,14.94,17.47,36.78,17.47,36.78l3.64,12.87-1.57,16.56Z" transform="translate(0 -275.07)"/><path fill="#fff" d="M1527.54,1129.21c4.57-5.35,9.22-10.63,14-15.8s9.71-10.2,14.79-15.09c-2.63,2.35-5.28,4.67-7.81,7.13s-5.06,4.91-7.54,7.42c-4.89,5.09-9.7,10.25-14.35,15.55s-9.17,10.73-13.61,16.21-8.77,11-13,16.73l-2.53,3.41,3.45-2.5a126.59,126.59,0,0,1,11.7-7.45c4-2.29,8.16-4.42,12.39-6.32,1.06-.46,2.11-1,3.19-1.4l3.22-1.3c1.08-.44,2.19-.79,3.27-1.19s2.18-.81,3.29-1.14l3.33-1,3.37-.89,1.68-.44,1.71-.36,3.42-.71-3.45.55-1.73.28-1.71.38-3.41.76-3.37.93a108.27,108.27,0,0,0-13.18,4.72,136.86,136.86,0,0,0-12.61,6.11c-2.91,1.63-5.76,3.34-8.54,5.17,3.46-4.52,7-9,10.54-13.45Q1520.67,1137.23,1527.54,1129.21Z" transform="translate(0 -275.07)"/><path fill="#f99893" d="M1479.47,650.32a17.26,17.26,0,0,0-14.35-.61s-6.53-5.89-13.1-2.52c0,0,.76,11.41,13,12.81S1479.47,650.32,1479.47,650.32Z" opacity=".3" transform="translate(0 -275.07)" style="mix-blend-mode:multiply"/><path fill="#f99893" d="M1486.48,647.52a37.73,37.73,0,0,1-4.82,2.26,35.38,35.38,0,0,1-5,1.62,31.56,31.56,0,0,1-10.36.9,26.76,26.76,0,0,1-9.94-2.91,37.7,37.7,0,0,1-8.48-6.29,31.56,31.56,0,0,0,3.63,4,28.59,28.59,0,0,0,4.34,3.23,25,25,0,0,0,5,2.26,26.42,26.42,0,0,0,5.36,1.09,28.12,28.12,0,0,0,10.76-1.24A30.68,30.68,0,0,0,1486.48,647.52Z" transform="translate(0 -275.07)"/><path fill="#f99893" d="M1469.87,608.73a74,74,0,0,0-6.09,7.92,71.06,71.06,0,0,0-5.07,8.66,26.84,26.84,0,0,0-1.81,4.84,5.22,5.22,0,0,0,0,3,7.59,7.59,0,0,0,1.85,2.14,24.44,24.44,0,0,0,4.19,2.89,34.12,34.12,0,0,0,4.56,2.1,55.37,55.37,0,0,1-7.65-6.13,16.36,16.36,0,0,1-1.1-1.34,2.62,2.62,0,0,1,0-2.21,27.36,27.36,0,0,1,1.77-4.42c1.39-2.94,3-5.81,4.58-8.71S1468.34,611.7,1469.87,608.73Z" transform="translate(0 -275.07)"/><polygon fill="#14668c" points="1798.48 0 2350.46 131.04 2350.46 1475.35 1798.48 1592.47 1789.31 1572.61 1787.02 6.03 1798.48 0"/><rect width="29.64" height="1592.47" x="1768.84" fill="#0e5168"/><polygon fill="#0e5168" points="2322.93 763.58 2322.93 170.52 1826.01 47.19 1826.01 750.47 2322.93 763.58"/><polygon fill="#0e5168" points="1826.01 844.17 1826.01 1545.99 2322.93 1435.77 2322.93 857.29 1826.01 844.17"/><polygon fill="#0e5168" points="2322.93 763.58 2049.47 525.76 1826.01 47.19 1826.01 750.47 2322.93 763.58" opacity=".1" style="mix-blend-mode:multiply"/><polygon fill="#0e5168" points="1826.01 844.17 1826.01 1545.99 2322.93 1435.77 2028.33 1269.9 1826.01 844.17" opacity=".1" style="mix-blend-mode:multiply"/><path fill="#0a3e4c" d="M1873,1073.86c0,22.71-7.78,41.12-16.32,41.12-13.38,0-32.14-7.25-32.14-41.12,0-28.74,17.57-41.11,31-41.11S1873,1051.16,1873,1073.86Z" transform="translate(0 -275.07)"/><path fill="#0e5168" d="M1877.24,1073.86c0,22.71-9.2,41.12-20.56,41.12s-20.56-18.41-20.56-41.12,9.21-41.11,20.56-41.11S1877.24,1051.16,1877.24,1073.86Z" transform="translate(0 -275.07)"/><path fill="#dcdee0" d="M553.82,669.4s50.59,60.14,169.75,70.75,29.95,73.55,29.95,73.55-143.6,20.69-193.77-13S553.82,669.4,553.82,669.4Z" transform="translate(0 -275.07)"/><rect width="343.46" height="229.32" x="651" y="755.34" fill="#d1b67d" transform="translate(1645.47 1464.93) rotate(180)"/><rect width="116.11" height="229.32" x="651" y="755.34" fill="#c2a76b" transform="translate(1418.12 1464.93) rotate(180)"/><rect width="89.74" height="10.88" x="661.65" y="796.07" fill="#d6bb80" rx="5.44" transform="translate(1413.04 1327.96) rotate(-180)" style="mix-blend-mode:multiply"/><polygon fill="#ffc0bb" points="519.92 1489.88 519.92 1456.16 558.49 1445.47 567.07 1449.25 568.53 1489.88 556.39 1525.29 519.92 1489.88"/><polygon fill="#a5a5a5" points="603.79 798.34 576.43 1465.48 512.71 1465.48 456.56 961.22 530.17 735.3 603.79 798.34"/><polygon fill="#ffc0bb" points="273.5 1489.88 273.5 1456.16 312.06 1445.47 320.64 1449.25 322.11 1489.88 309.96 1525.29 273.5 1489.88"/><path fill="#ffc0bb" d="M772.62,896a1.9,1.9,0,0,0,.75,3.25c11.25,3,46.59,12.87,46.47,15.91-.15,3.61-32-4.39-33.81-1.59s29.35,9.81,28.57,13.65-29-3.52-29.92-2,25.42,11.45,26.31,14-28.48-4.66-30.08-3.14,17,13.22,16.2,14.94-1.08,3-50.55-11.35l-19.23-6.48-12.85-13.77,9.62-20.5s62-23.56,64.18-22S790,880.61,772.62,896Z" transform="translate(0 -275.07)"/><path fill="#a5a5a5" d="M576.43,1074.82,326.79,1740.55l-61.14-5s76.11-610.34,121.66-668.38,145.36-45.56,145.36-45.56Z" transform="translate(0 -275.07)"/><path fill="#ffc0bb" d="M548.73,679.9s-30.84,18.28-54.87,0h0l5.67-44.63,47.8-9.85,1.4,54.48Z" transform="translate(0 -275.07)"/><path fill="#fc8d84" d="M548.07,654.53l-.74-29.11L498.84,640.5l-1.37,10.91C508.23,655.32,528.68,660.07,548.07,654.53Z" transform="translate(0 -275.07)"/><path fill="#fcdd47" d="M734.18,873.7c-24.44,5.84-81.94,2.93-125.49-.49-.36-36-1.74-69.57-4.9-93.12-11.23-83.62-50-110.69-50-110.69-38.62,4.6-65.45-16-65.45-16-51.78.63-81.72,28.71-81.72,28.71-79.56,68.64-19.34,209.07-19.34,209.07l-21.84,185.53c49.29,16.84,250.8,6.72,250.8,6.72s-9.85-59.09-8.41-119.22c63.86-3.59,126.32-13.75,126.32-13.75C736.67,936.74,734.18,873.7,734.18,873.7Z" transform="translate(0 -275.07)"/><path fill="#122f5b" d="M454.26,755c-.13,27.78,12,54.54,31.24,73.63a135.68,135.68,0,0,0,32.77,24,187.36,187.36,0,0,0,37.92,15.21c1.64.48,3.25,1.06,4.91,1.48l5,1.22c3.33.8,6.63,1.69,10,2.41l10.11,1.9,5.06,1,5.1.7c6.8,1,13.6,2,20.46,2.5l10.28,1c3.43.25,6.87.38,10.31.58,27.52,1.43,55.18.9,82.84-.5-27.45,3.58-55.21,5.59-83,4.88s-55.73-3.72-82.62-11.69a189.31,189.31,0,0,1-38.87-15.94,134,134,0,0,1-33.38-25.62,111,111,0,0,1-12.93-16.68,115.26,115.26,0,0,1-9.32-18.87,108.57,108.57,0,0,1-5.18-20.3A79.25,79.25,0,0,1,454.26,755Z" transform="translate(0 -275.07)"/><path fill="#122f5b" d="M734.18,950.46a701.9,701.9,0,0,1-91.65,14,620.52,620.52,0,0,1-92.88,1.63c-30.91-2.11-62-6.72-91.32-17.61a158.33,158.33,0,0,1-41.14-22c-12.34-9.5-23-21.38-29.88-35.28a106.37,106.37,0,0,0,31.5,33.05c12.56,8.72,26.55,15.18,41,20.11a282.86,282.86,0,0,0,44.51,11,431.94,431.94,0,0,0,45.7,5.15c30.65,2,61.46,1.44,92.19-.38q23.06-1.43,46.06-3.85C703.61,954.75,718.9,952.75,734.18,950.46Z" transform="translate(0 -275.07)"/><path fill="#122f5b" d="M625.24,1807.91,513,1807.58a6.28,6.28,0,0,1-6.26-6.3h0A6.27,6.27,0,0,1,513,1795l112.26.32a6.28,6.28,0,0,1,6.26,6.3h0A6.29,6.29,0,0,1,625.24,1807.91Z" transform="translate(0 -275.07)"/><path fill="#fff" d="M512.57,1756.84l-4.24,34.94c-.52,4.3,1.88,8.22,5,8.23l110,.32c2.86,0,5.69-1.76,7.2-5.12s1.87-8.61-3-15.58c-9.7-13.81-41.48-17.38-57.44-29a1.88,1.88,0,0,0-1.12-.37l-50.61-.15C515.49,1750.09,513,1753,512.57,1756.84Z" transform="translate(0 -275.07)"/><path fill="#3660ac" d="M561.75,1770.52h0a2.36,2.36,0,0,1-.62-2.85c2.17-4.78,9-16.42,22.68-14,.8.14,1.33,1.2,1.19,2.29v0c-.14,1-.85,1.74-1.62,1.61-12.3-2.14-18.07,8.12-19.83,12.13C563.17,1770.59,562.4,1770.93,561.75,1770.52Z" transform="translate(0 -275.07)"/><path fill="#3660ac" d="M573.16,1775.05h0a2.36,2.36,0,0,1-.62-2.85c2.17-4.78,9-16.42,22.68-14,.8.14,1.33,1.19,1.19,2.28v0c-.14,1.06-.85,1.74-1.62,1.61-12.3-2.14-18.07,8.12-19.83,12.13C574.58,1775.12,573.81,1775.46,573.16,1775.05Z" transform="translate(0 -275.07)"/><path fill="#3660ac" d="M583.77,1779.28h0a2.36,2.36,0,0,1-.62-2.85c2.17-4.78,9-16.42,22.69-14,.79.14,1.32,1.19,1.19,2.28v0c-.13,1.06-.85,1.74-1.62,1.61-12.3-2.14-18.07,8.12-19.83,12.13C585.2,1779.35,584.43,1779.69,583.77,1779.28Z" transform="translate(0 -275.07)"/><path fill="#122f5b" d="M381.32,1807.91l-112.26-.33a6.28,6.28,0,0,1-6.26-6.3h0a6.27,6.27,0,0,1,6.3-6.26l112.25.32a6.29,6.29,0,0,1,6.27,6.3h0A6.29,6.29,0,0,1,381.32,1807.91Z" transform="translate(0 -275.07)"/><path fill="#fff" d="M268.64,1756.84l-4.23,34.94c-.53,4.3,1.87,8.22,5,8.23l110,.32c2.85,0,5.68-1.76,7.19-5.12s1.87-8.61-3-15.58c-9.7-13.81-41.49-17.38-57.45-29a1.85,1.85,0,0,0-1.11-.37l-50.62-.15C271.56,1750.09,269.12,1753,268.64,1756.84Z" transform="translate(0 -275.07)"/><path fill="#3660ac" d="M317.82,1770.52h0a2.37,2.37,0,0,1-.62-2.85c2.18-4.78,9-16.42,22.69-14,.79.14,1.33,1.2,1.19,2.29v0c-.13,1-.85,1.74-1.61,1.61-12.31-2.14-18.08,8.12-19.83,12.13C319.25,1770.59,318.48,1770.93,317.82,1770.52Z" transform="translate(0 -275.07)"/><path fill="#3660ac" d="M329.23,1775.05h0a2.37,2.37,0,0,1-.62-2.85c2.18-4.78,9-16.42,22.69-14,.79.14,1.33,1.19,1.19,2.28v0c-.13,1.06-.85,1.74-1.61,1.61-12.31-2.14-18.08,8.12-19.83,12.13C330.66,1775.12,329.89,1775.46,329.23,1775.05Z" transform="translate(0 -275.07)"/><path fill="#3660ac" d="M339.84,1779.28h0a2.35,2.35,0,0,1-.61-2.85c2.17-4.78,8.95-16.42,22.68-14,.79.14,1.33,1.19,1.19,2.28v0c-.14,1.06-.85,1.74-1.62,1.61-12.3-2.14-18.07,8.12-19.83,12.13C341.27,1779.35,340.5,1779.69,339.84,1779.28Z" transform="translate(0 -275.07)"/><path fill="#333" d="M593.74,521.81l-.07,42-22.41-52.45s17.86-12.43,19.25-9.16S593.74,521.81,593.74,521.81Z" transform="translate(0 -275.07)"/><path fill="#f99893" d="M581.4,565.21c-2.53,8.37.84,16.79,7.53,18.82s14.16-3.11,16.7-11.48-.84-16.79-7.53-18.81S583.93,556.85,581.4,565.21Z" transform="translate(0 -275.07)"/><path fill="#ffc0bb" d="M591.37,569.48c0-2.08.13-4.15.3-6.23a67.58,67.58,0,1,0-134.65.83c-4.43-1.94-9.21-2-13.2.21-7.65,4.31-9.48,15.56-4.09,25.13s16,13.83,23.61,9.52a13.28,13.28,0,0,0,2.84-2.19c6.43,32.64,35.79,55.56,68.12,52C566.09,645.26,591.17,620.33,591.37,569.48Z" transform="translate(0 -275.07)"/><path fill="#fff" d="M521.29,603.76c14,4.75,30,1.87,35.64-2.38C548.79,621.51,531.8,618.26,521.29,603.76Z" transform="translate(0 -275.07)"/><path fill="#f99893" d="M539.33,555.74c.73,3.8,1.35,7.53,2.12,11.16s1.79,7.3,3.63,9.6l.34.35a5.52,5.52,0,0,0,.44.45,8.79,8.79,0,0,1,1.23,1.28,7.49,7.49,0,0,1,1.55,3.35,8,8,0,0,1-1.94,6.64c-3,3.41-7.33,4.38-11.13,4,3.63-1.25,7-3.09,8.7-5.86a5.11,5.11,0,0,0,.78-4,4.19,4.19,0,0,0-.94-1.71,4.83,4.83,0,0,0-.75-.75l-.58-.56-.65-.66a15,15,0,0,1-2.77-5.82,31.83,31.83,0,0,1-.9-5.89A40.14,40.14,0,0,1,539.33,555.74Z" transform="translate(0 -275.07)"/><path fill="#333" d="M518,564.29a5.9,5.9,0,1,1-6.51-5.22A5.91,5.91,0,0,1,518,564.29Z" transform="translate(0 -275.07)"/><path fill="#333" d="M568.7,562.05a5.9,5.9,0,1,1-6.51-5.22A5.91,5.91,0,0,1,568.7,562.05Z" transform="translate(0 -275.07)"/><path fill="#333" d="M523.22,550a60.09,60.09,0,0,0-8.84-.7,30.22,30.22,0,0,0-8.13,1.09,28.07,28.07,0,0,0-7.46,3.3c-1.27.63-2.32,1.61-3.59,2.39s-2.29,1.88-3.66,2.76a25.59,25.59,0,0,1,2-4.3,20.71,20.71,0,0,1,3-3.73,19,19,0,0,1,8.48-4.89,19.9,19.9,0,0,1,9.78-.24A18.15,18.15,0,0,1,523.22,550Z" transform="translate(0 -275.07)"/><path fill="#333" d="M549.34,548.81a18.1,18.1,0,0,1,7.86-5.27,19.81,19.81,0,0,1,9.74-.91,19,19,0,0,1,9,3.87,20.21,20.21,0,0,1,3.44,3.35,25.06,25.06,0,0,1,2.46,4c-1.46-.72-2.66-1.6-4-2.32s-2.5-1.48-3.85-2a27.51,27.51,0,0,0-7.79-2.4,29.92,29.92,0,0,0-8.2-.14A61.61,61.61,0,0,0,549.34,548.81Z" transform="translate(0 -275.07)"/><path fill="#333" d="M580.56,487.26s13.89-5.67-9.3-19-67.33-25.27-99.78-1c0,0,4.18-11.17-5.49-6s-4.77,10.13-4.77,10.13a23.37,23.37,0,0,0-8.43,10.32c-2.2,5.2-3.34,9.34,1,8.44-7.24,2.44-30.5,15.06-8.05,73.38C450.65,561.66,473,515,473,515s72.1,26.39,60.93-1.87c0,0,63.89,33,48.56-.91C582.5,512.26,593.91,513.26,580.56,487.26Z" transform="translate(0 -275.07)"/><path fill="#333" d="M445.74,563.94s5.18-2.8,11.83,1,8.58,20.33,8.58,20.33,31.05,13.73,16-62.72c-16.05-81.34-22.47,10.27-22.47,10.27Z" transform="translate(0 -275.07)"/><path fill="#fcdd47" d="M522.78,508.11C508.43,510.54,500,524.49,500,524.49c33.44,27.78,45,41.29,72,25.76,35.25-20.3,65.93-14.93,65.93-14.93-7.17-10.42-44-32.59-44-32.59C543,503.9,522.78,508.11,522.78,508.11Z" transform="translate(0 -275.07)"/><path fill="#fcdd47" d="M435.65,509c63.54,42.6,158.25-6.23,158.25-6.23.42-46.34-38.45-81.58-91.6-72.82C433.67,441.23,435.65,509,435.65,509Z" transform="translate(0 -275.07)"/></g></g></svg>